G04 #@! TF.FileFunction,Copper,L3,Inr,Signal*
%FSLAX46Y46*%
G04 Gerber Fmt 4.6, Leading zero omitted, Abs format (unit mm)*
G04 Created by KiCad (PCBNEW 4.0.4-stable) date Monday 19 December 2016 21:20:12*
%MOMM*%
%LPD*%
G01*
G04 APERTURE LIST*
%ADD10C,0.100000*%
%ADD11R,1.700000X1.700000*%
%ADD12C,1.700000*%
%ADD13R,2.032000X1.727200*%
%ADD14O,2.032000X1.727200*%
%ADD15R,1.727200X1.727200*%
%ADD16O,1.727200X1.727200*%
%ADD17R,1.727200X2.032000*%
%ADD18O,1.727200X2.032000*%
%ADD19C,1.200000*%
%ADD20C,0.600000*%
%ADD21C,1.524000*%
%ADD22C,0.250000*%
%ADD23C,0.200000*%
%ADD24C,0.127000*%
G04 APERTURE END LIST*
D10*
D11*
X176156000Y-108966000D03*
D12*
X168656000Y-108966000D03*
D13*
X133096000Y-142240000D03*
D14*
X133096000Y-139700000D03*
X133096000Y-137160000D03*
D15*
X135128000Y-149352000D03*
D16*
X135128000Y-146812000D03*
X137668000Y-149352000D03*
X137668000Y-146812000D03*
X140208000Y-149352000D03*
X140208000Y-146812000D03*
X142748000Y-149352000D03*
X142748000Y-146812000D03*
X145288000Y-149352000D03*
X145288000Y-146812000D03*
D17*
X149098000Y-149352000D03*
D18*
X151638000Y-149352000D03*
X154178000Y-149352000D03*
X156718000Y-149352000D03*
X159258000Y-149352000D03*
D19*
X128524000Y-137680000D03*
X128524000Y-139180000D03*
X128524000Y-140680000D03*
X128524000Y-142180000D03*
X128524000Y-136180000D03*
X128524000Y-134680000D03*
D20*
X147574000Y-136398000D03*
X156210000Y-125984000D03*
X153924000Y-123444000D03*
X152400000Y-123444000D03*
X150876000Y-123444000D03*
X149352000Y-123444000D03*
X147828000Y-123444000D03*
X135636000Y-143764000D03*
X139192000Y-143764000D03*
X155194000Y-145796000D03*
X156210000Y-146812000D03*
X153162000Y-147828000D03*
X152146000Y-146812000D03*
X151130000Y-145796000D03*
X150114000Y-144780000D03*
X149098000Y-143764000D03*
X147574000Y-143764000D03*
X150876000Y-130302000D03*
X151892000Y-130302000D03*
X139700000Y-135636000D03*
X139700000Y-133604000D03*
X139192000Y-139700000D03*
X147066000Y-140970000D03*
X140462000Y-131318000D03*
X147193000Y-131445000D03*
X144018000Y-126746000D03*
X143256000Y-126746000D03*
X148336000Y-134620000D03*
X151130000Y-140716000D03*
X154686000Y-134874000D03*
X154686000Y-137414000D03*
X154686000Y-139954000D03*
X160020000Y-115062000D03*
X160020000Y-139700000D03*
X160020000Y-127254000D03*
X160528000Y-147574000D03*
X160274000Y-123698000D03*
X160274000Y-136144000D03*
X139192000Y-122682000D03*
X140208000Y-122682000D03*
X141224000Y-122682000D03*
X142240000Y-121920000D03*
X143256000Y-121920000D03*
X144272000Y-121920000D03*
X135128000Y-123444000D03*
X136144000Y-123444000D03*
X137160000Y-122682000D03*
X138176000Y-122682000D03*
X127762000Y-125730000D03*
X137922000Y-118110000D03*
X137922000Y-117348000D03*
X138684000Y-117348000D03*
X138684000Y-118110000D03*
X138684000Y-118872000D03*
X137922000Y-118872000D03*
X137160000Y-118872000D03*
X137160000Y-118110000D03*
X137160000Y-117348000D03*
X135382000Y-110998000D03*
X135382000Y-110236000D03*
X135382000Y-109474000D03*
X134620000Y-109474000D03*
X134620000Y-110236000D03*
X134620000Y-110998000D03*
X140208000Y-110236000D03*
X140970000Y-110236000D03*
X140970000Y-109474000D03*
X140208000Y-109474000D03*
X140208000Y-110998000D03*
X140970000Y-110998000D03*
X149352000Y-119888000D03*
X157480000Y-110236000D03*
X157480000Y-109474000D03*
X156718000Y-109474000D03*
X156718000Y-110236000D03*
X156718000Y-110998000D03*
X157480000Y-110998000D03*
X153924000Y-118110000D03*
X153924000Y-117348000D03*
X154686000Y-117348000D03*
X154686000Y-118110000D03*
X154686000Y-118872000D03*
X153924000Y-118872000D03*
X153162000Y-118872000D03*
X153162000Y-118110000D03*
X153162000Y-117348000D03*
X151892000Y-110236000D03*
X151130000Y-110236000D03*
X151130000Y-109474000D03*
X151892000Y-109474000D03*
X151892000Y-108712000D03*
X151130000Y-108712000D03*
D21*
X164846000Y-110236000D03*
X166624000Y-110236000D03*
X166624000Y-112014000D03*
X164846000Y-112014000D03*
X163068000Y-112014000D03*
X163068000Y-110236000D03*
X163068000Y-108458000D03*
X164846000Y-108458000D03*
X166624000Y-108458000D03*
D20*
X165862000Y-145288000D03*
X165862000Y-146304000D03*
X165862000Y-132842000D03*
X165862000Y-133858000D03*
X165862000Y-120396000D03*
X165862000Y-121412000D03*
X168910000Y-120396000D03*
X168910000Y-121412000D03*
X169672000Y-121412000D03*
X169672000Y-120396000D03*
X168910000Y-145288000D03*
X168910000Y-146304000D03*
X169672000Y-146304000D03*
X169672000Y-145288000D03*
X168910000Y-132842000D03*
X168910000Y-133858000D03*
X169672000Y-133858000D03*
X169672000Y-132842000D03*
X165862000Y-149606000D03*
X165862000Y-137160000D03*
X165862000Y-124714000D03*
X185166000Y-123952000D03*
X185166000Y-123190000D03*
X185928000Y-123190000D03*
X185928000Y-123952000D03*
X185928000Y-124714000D03*
X185166000Y-124714000D03*
X185166000Y-136398000D03*
X185166000Y-135636000D03*
X185928000Y-135636000D03*
X185928000Y-136398000D03*
X185928000Y-137160000D03*
X185166000Y-137160000D03*
X167386000Y-121412000D03*
X166624000Y-121412000D03*
X166624000Y-120396000D03*
X167386000Y-120396000D03*
X168148000Y-120396000D03*
X168148000Y-121412000D03*
X166624000Y-133858000D03*
X167386000Y-133858000D03*
X168148000Y-133858000D03*
X168148000Y-132842000D03*
X167386000Y-132842000D03*
X166624000Y-132842000D03*
X185928000Y-148844000D03*
X185928000Y-148082000D03*
X185166000Y-148082000D03*
X185166000Y-148844000D03*
X185166000Y-149606000D03*
X185928000Y-149606000D03*
X167386000Y-145288000D03*
X168148000Y-145288000D03*
X168148000Y-146304000D03*
X167386000Y-146304000D03*
X166624000Y-145304000D03*
X166624000Y-146304000D03*
X139954000Y-140716000D03*
X140716000Y-139954000D03*
X141478000Y-139446000D03*
X143764000Y-131572000D03*
X141224000Y-113030000D03*
X137176000Y-110252000D03*
X137922000Y-110236000D03*
X137922000Y-109474000D03*
X137160000Y-109474000D03*
X137176000Y-110998000D03*
X137922000Y-110998000D03*
X153694000Y-110236000D03*
X153670000Y-110998000D03*
X154432000Y-110998000D03*
X154432000Y-110236000D03*
X154432000Y-109474000D03*
X153670000Y-109474000D03*
D21*
X176276000Y-112014000D03*
X176276000Y-110490000D03*
X183388000Y-108458000D03*
X181610000Y-108458000D03*
X179832000Y-108458000D03*
X178054000Y-108458000D03*
X178054000Y-110236000D03*
X179832000Y-110236000D03*
X181610000Y-110236000D03*
X183388000Y-110236000D03*
X183388000Y-112014000D03*
X181610000Y-112014000D03*
X179832000Y-112014000D03*
X178054000Y-112014000D03*
X194056000Y-112014000D03*
X194056000Y-110236000D03*
X192278000Y-110236000D03*
X190500000Y-110236000D03*
X190500000Y-112014000D03*
X188722000Y-112014000D03*
X188722000Y-110236000D03*
X186944000Y-110236000D03*
X186944000Y-112014000D03*
X194056000Y-113792000D03*
X185166000Y-112014000D03*
X185166000Y-108458000D03*
X186944000Y-108458000D03*
X188722000Y-108458000D03*
X190500000Y-108458000D03*
X192278000Y-108458000D03*
X194056000Y-108458000D03*
X185166000Y-110236000D03*
X192278000Y-113792000D03*
X192278000Y-112014000D03*
D20*
X187452000Y-123190000D03*
X187452000Y-124206000D03*
X187452000Y-135636000D03*
X187452000Y-136652000D03*
X187452000Y-148082000D03*
X187452000Y-149098000D03*
X187452000Y-150114000D03*
X190246000Y-150114000D03*
X191262000Y-150114000D03*
X192278000Y-150114000D03*
X193294000Y-150114000D03*
X194310000Y-150114000D03*
X190246000Y-124206000D03*
X191262000Y-124206000D03*
X190246000Y-123190000D03*
X191262000Y-123190000D03*
X192278000Y-123190000D03*
X193294000Y-123190000D03*
X194310000Y-123190000D03*
X194310000Y-124206000D03*
X194310000Y-125222000D03*
X194310000Y-126238000D03*
X194310000Y-127254000D03*
X193294000Y-128270000D03*
X193294000Y-127254000D03*
X193294000Y-126238000D03*
X193294000Y-125222000D03*
X193294000Y-124206000D03*
X192278000Y-124206000D03*
X192278000Y-125222000D03*
X192278000Y-126238000D03*
X192278000Y-127254000D03*
X192278000Y-128270000D03*
X192278000Y-139700000D03*
X192278000Y-140716000D03*
X193294000Y-140716000D03*
X194310000Y-139700000D03*
X193294000Y-139700000D03*
X192278000Y-137668000D03*
X192278000Y-138684000D03*
X193294000Y-138684000D03*
X194310000Y-138684000D03*
X194310000Y-137668000D03*
X193294000Y-137668000D03*
X190246000Y-135636000D03*
X191262000Y-135636000D03*
X192278000Y-135636000D03*
X193294000Y-135636000D03*
X194310000Y-135636000D03*
X194310000Y-136652000D03*
X193294000Y-136652000D03*
X192278000Y-136652000D03*
X191262000Y-136652000D03*
X190246000Y-136652000D03*
X190246000Y-148082000D03*
X191262000Y-148082000D03*
X192278000Y-148082000D03*
X193294000Y-148082000D03*
X194310000Y-148082000D03*
X194310000Y-149098000D03*
X193294000Y-149098000D03*
X192278000Y-149098000D03*
X191262000Y-149098000D03*
X190246000Y-149098000D03*
X188468000Y-123952000D03*
X188468000Y-124714000D03*
X189230000Y-124714000D03*
X189230000Y-123952000D03*
X189230000Y-123190000D03*
X188468000Y-123190000D03*
X188468000Y-136398000D03*
X188468000Y-135636000D03*
X189230000Y-135636000D03*
X189230000Y-136398000D03*
X189230000Y-137160000D03*
X188468000Y-137160000D03*
X188468000Y-148844000D03*
X188468000Y-148082000D03*
X189230000Y-148082000D03*
X189230000Y-148844000D03*
X189230000Y-149606000D03*
X188468000Y-149606000D03*
X141224000Y-129286000D03*
X139954000Y-129286000D03*
X136652000Y-132334000D03*
X136652000Y-134620000D03*
X136652000Y-136906000D03*
X138430000Y-140716000D03*
X148336000Y-142240000D03*
X149860000Y-140208000D03*
X146304000Y-131826000D03*
X158496000Y-116078000D03*
X161036000Y-138684000D03*
X160782000Y-114300000D03*
X144780000Y-125222000D03*
X144780000Y-124206000D03*
X141732000Y-124206000D03*
X142748000Y-124206000D03*
X143764000Y-124206000D03*
X143764000Y-125222000D03*
X142748000Y-125222000D03*
X141732000Y-125222000D03*
X166624000Y-125476000D03*
X161036000Y-126238000D03*
X155448000Y-127254000D03*
X155448000Y-126492000D03*
X155448000Y-128016000D03*
X147574000Y-119888000D03*
X146304000Y-116078000D03*
X146304000Y-115062000D03*
X146304000Y-117094000D03*
X147320000Y-117094000D03*
X147320000Y-116078000D03*
X147320000Y-115062000D03*
X148336000Y-115062000D03*
X148336000Y-116078000D03*
X148336000Y-117094000D03*
X149352000Y-117094000D03*
X149352000Y-116078000D03*
X149352000Y-115062000D03*
X145288000Y-115062000D03*
X144272000Y-115062000D03*
X143256000Y-115062000D03*
X143256000Y-116078000D03*
X144272000Y-116078000D03*
X145288000Y-116078000D03*
X145288000Y-117094000D03*
X144272000Y-117094000D03*
X143256000Y-117094000D03*
X164338000Y-121920000D03*
X165100000Y-121920000D03*
X165100000Y-122682000D03*
X164338000Y-122682000D03*
X164338000Y-135128000D03*
X165100000Y-135128000D03*
X164338000Y-134366000D03*
X165100000Y-134366000D03*
X165100000Y-147574000D03*
X164338000Y-147574000D03*
X164338000Y-146812000D03*
X165100000Y-146812000D03*
X148336000Y-135636000D03*
X150622000Y-135382000D03*
X150622000Y-134620000D03*
X155702000Y-133096000D03*
X160274000Y-132334000D03*
X160274000Y-122428000D03*
X153416000Y-132334000D03*
X153416000Y-128524000D03*
X134366000Y-126492000D03*
X133350000Y-126492000D03*
X135382000Y-126492000D03*
X140462000Y-120904000D03*
X130556000Y-122936000D03*
X129540000Y-120904000D03*
X128524000Y-120904000D03*
X127508000Y-120904000D03*
X127508000Y-121920000D03*
X127508000Y-122936000D03*
X128524000Y-122936000D03*
X128524000Y-121920000D03*
X129540000Y-121920000D03*
X129540000Y-122936000D03*
X130556000Y-121920000D03*
X130556000Y-120904000D03*
X131572000Y-120904000D03*
X132588000Y-120904000D03*
X133604000Y-120904000D03*
X133604000Y-121920000D03*
X132588000Y-121920000D03*
X131572000Y-121920000D03*
X131572000Y-122936000D03*
X132588000Y-122936000D03*
X133604000Y-122936000D03*
X135382000Y-115570000D03*
X135382000Y-120904000D03*
X151384000Y-115316000D03*
X151384000Y-120142000D03*
X159258000Y-129540000D03*
X144018000Y-129540000D03*
X167640000Y-126238000D03*
X141732000Y-144018000D03*
X143764000Y-132588000D03*
X145288000Y-135128000D03*
X146050000Y-135890000D03*
X181610000Y-149098000D03*
X182626000Y-149098000D03*
X183642000Y-149098000D03*
X165862000Y-148590000D03*
X165100000Y-148590000D03*
X164338000Y-148590000D03*
X181610000Y-136652000D03*
X182626000Y-136652000D03*
X183642000Y-136652000D03*
X164338000Y-136144000D03*
X165100000Y-136144000D03*
X165862000Y-136144000D03*
X181610000Y-124206000D03*
X182626000Y-124206000D03*
X183642000Y-124206000D03*
X164338000Y-123698000D03*
X165100000Y-123698000D03*
X165862000Y-123698000D03*
X137668000Y-130556000D03*
X140970000Y-143002000D03*
D21*
X198628000Y-141732000D03*
X197104000Y-140208000D03*
X198628000Y-140208000D03*
X200152000Y-140208000D03*
X200152000Y-141732000D03*
X200152000Y-143256000D03*
X198628000Y-143256000D03*
X197104000Y-143256000D03*
X197104000Y-141732000D03*
D20*
X161290000Y-142494000D03*
X169418000Y-142240000D03*
X161290000Y-130048000D03*
X169418000Y-129794000D03*
D21*
X197104000Y-129032000D03*
X200152000Y-129032000D03*
X200152000Y-132080000D03*
X200152000Y-130556000D03*
X198628000Y-130556000D03*
X197104000Y-130556000D03*
X197104000Y-132080000D03*
X198628000Y-132080000D03*
X198628000Y-129032000D03*
D20*
X161290000Y-117602000D03*
X169418000Y-117348000D03*
D21*
X197104000Y-120904000D03*
X197104000Y-117856000D03*
X200152000Y-117856000D03*
X200152000Y-120904000D03*
X198628000Y-120904000D03*
X198628000Y-117856000D03*
X200152000Y-119380000D03*
X198628000Y-119380000D03*
X197104000Y-119380000D03*
D20*
X155448000Y-141986000D03*
X155448000Y-130302000D03*
X157734000Y-119888000D03*
X141224000Y-115316000D03*
X148590000Y-130048000D03*
X156210000Y-116078000D03*
X148590000Y-121666000D03*
X144526000Y-131572000D03*
X144526000Y-137414000D03*
X143764000Y-133604000D03*
X143764000Y-137160000D03*
X142240000Y-137668000D03*
X142240000Y-128270000D03*
X148336000Y-137160000D03*
X179832000Y-147828000D03*
X173736000Y-139700000D03*
X172720000Y-139700000D03*
X171704000Y-139700000D03*
X174752000Y-139700000D03*
X175768000Y-139700000D03*
X176784000Y-139700000D03*
X177800000Y-139700000D03*
X178816000Y-139700000D03*
X179832000Y-140716000D03*
X179832000Y-141732000D03*
X179832000Y-142748000D03*
X179832000Y-143764000D03*
X179832000Y-144780000D03*
X179832000Y-145796000D03*
X179832000Y-146812000D03*
X180848000Y-146812000D03*
X180848000Y-145796000D03*
X180848000Y-144780000D03*
X180848000Y-143764000D03*
X180848000Y-142748000D03*
X180848000Y-141732000D03*
X178816000Y-140716000D03*
X178816000Y-141732000D03*
X178816000Y-142748000D03*
X178816000Y-143764000D03*
X178816000Y-144780000D03*
X178816000Y-145796000D03*
X178816000Y-146812000D03*
X178816000Y-147828000D03*
X178816000Y-148844000D03*
X177800000Y-148844000D03*
X177800000Y-147828000D03*
X177800000Y-146812000D03*
X177800000Y-145796000D03*
X177800000Y-144780000D03*
X177800000Y-143764000D03*
X177800000Y-142748000D03*
X177800000Y-141732000D03*
X177800000Y-140716000D03*
X176784000Y-140716000D03*
X176784000Y-141732000D03*
X176784000Y-142748000D03*
X176784000Y-143764000D03*
X176784000Y-144780000D03*
X176784000Y-145796000D03*
X176784000Y-146812000D03*
X176784000Y-147828000D03*
X176784000Y-148844000D03*
X175768000Y-148844000D03*
X175768000Y-147828000D03*
X175768000Y-146812000D03*
X175768000Y-145796000D03*
X175768000Y-144780000D03*
X175768000Y-143764000D03*
X175768000Y-142748000D03*
X175768000Y-141732000D03*
X175768000Y-140716000D03*
X174752000Y-146812000D03*
X174752000Y-147828000D03*
X174752000Y-148844000D03*
X174752000Y-145796000D03*
X174752000Y-144780000D03*
X174752000Y-143764000D03*
X174752000Y-142748000D03*
X174752000Y-141732000D03*
X174752000Y-140716000D03*
X171704000Y-148844000D03*
X171704000Y-147828000D03*
X171704000Y-146812000D03*
X171704000Y-145796000D03*
X171704000Y-144780000D03*
X171704000Y-143764000D03*
X171704000Y-142748000D03*
X171704000Y-141732000D03*
X171704000Y-140716000D03*
X172720000Y-140716000D03*
X172720000Y-141732000D03*
X172720000Y-142748000D03*
X172720000Y-143764000D03*
X172720000Y-144780000D03*
X172720000Y-145796000D03*
X172720000Y-146812000D03*
X172720000Y-147828000D03*
X172720000Y-148844000D03*
X173736000Y-148844000D03*
X173736000Y-147828000D03*
X173736000Y-146812000D03*
X173736000Y-145796000D03*
X173736000Y-144780000D03*
X173736000Y-143764000D03*
X173736000Y-142748000D03*
X173736000Y-141732000D03*
X173736000Y-140716000D03*
X171704000Y-127254000D03*
X172720000Y-127254000D03*
X173736000Y-127254000D03*
X174752000Y-127254000D03*
X175768000Y-127254000D03*
X176784000Y-127254000D03*
X177800000Y-127254000D03*
X178816000Y-127254000D03*
X179832000Y-128270000D03*
X179832000Y-129286000D03*
X179832000Y-130302000D03*
X179832000Y-131318000D03*
X179832000Y-132334000D03*
X179832000Y-133350000D03*
X179832000Y-134366000D03*
X180848000Y-134366000D03*
X180848000Y-133350000D03*
X180848000Y-132334000D03*
X175768000Y-136398000D03*
X175768000Y-135382000D03*
X175768000Y-134366000D03*
X175768000Y-133350000D03*
X175768000Y-132334000D03*
X175768000Y-131318000D03*
X175768000Y-130302000D03*
X175768000Y-129286000D03*
X175768000Y-128270000D03*
X176784000Y-128270000D03*
X176784000Y-129286000D03*
X176784000Y-130302000D03*
X176784000Y-131318000D03*
X176784000Y-132334000D03*
X176784000Y-133350000D03*
X176784000Y-134366000D03*
X176784000Y-135382000D03*
X176784000Y-136398000D03*
X177800000Y-136398000D03*
X177800000Y-135382000D03*
X177800000Y-134366000D03*
X177800000Y-133350000D03*
X177800000Y-132334000D03*
X177800000Y-131318000D03*
X177800000Y-130302000D03*
X177800000Y-129286000D03*
X177800000Y-128270000D03*
X178816000Y-128270000D03*
X178816000Y-129286000D03*
X178816000Y-130302000D03*
X178816000Y-131318000D03*
X178816000Y-132334000D03*
X178816000Y-133350000D03*
X178816000Y-134366000D03*
X178816000Y-135382000D03*
X178816000Y-136398000D03*
X171704000Y-136398000D03*
X171704000Y-135382000D03*
X171704000Y-134366000D03*
X171704000Y-133350000D03*
X171704000Y-132334000D03*
X171704000Y-131318000D03*
X171704000Y-130302000D03*
X171704000Y-129286000D03*
X171704000Y-128270000D03*
X172720000Y-128270000D03*
X172720000Y-129286000D03*
X172720000Y-130302000D03*
X172720000Y-131318000D03*
X172720000Y-132334000D03*
X172720000Y-133350000D03*
X172720000Y-134366000D03*
X172720000Y-135382000D03*
X172720000Y-136398000D03*
X173736000Y-136398000D03*
X173736000Y-135382000D03*
X173736000Y-134366000D03*
X173736000Y-133350000D03*
X173736000Y-132334000D03*
X173736000Y-131318000D03*
X173736000Y-130302000D03*
X173736000Y-129286000D03*
X173736000Y-128270000D03*
X174752000Y-128270000D03*
X174752000Y-129286000D03*
X174752000Y-130302000D03*
X174752000Y-131318000D03*
X174752000Y-132334000D03*
X174752000Y-133350000D03*
X174752000Y-134366000D03*
X174752000Y-135382000D03*
X174752000Y-136398000D03*
X180848000Y-131318000D03*
X180848000Y-130302000D03*
X180848000Y-129286000D03*
X171704000Y-114808000D03*
X172720000Y-114808000D03*
X173736000Y-114808000D03*
X174752000Y-114808000D03*
X175768000Y-114808000D03*
X176784000Y-114808000D03*
X177800000Y-114808000D03*
X178816000Y-114808000D03*
X179832000Y-115824000D03*
X179832000Y-116840000D03*
X179832000Y-117856000D03*
X179832000Y-118872000D03*
X179832000Y-119888000D03*
X179832000Y-120904000D03*
X179832000Y-121920000D03*
X180848000Y-121920000D03*
X180848000Y-120904000D03*
X180848000Y-119888000D03*
X180848000Y-118872000D03*
X180848000Y-117856000D03*
X180848000Y-116840000D03*
X173736000Y-115824000D03*
X173736000Y-116840000D03*
X173736000Y-117856000D03*
X173736000Y-118872000D03*
X173736000Y-119888000D03*
X173736000Y-120904000D03*
X173736000Y-121920000D03*
X173736000Y-122936000D03*
X173736000Y-123952000D03*
X174752000Y-123952000D03*
X174752000Y-122936000D03*
X174752000Y-121920000D03*
X174752000Y-120904000D03*
X174752000Y-119888000D03*
X174752000Y-118872000D03*
X174752000Y-117856000D03*
X174752000Y-116840000D03*
X174752000Y-115824000D03*
X175768000Y-115824000D03*
X175768000Y-116840000D03*
X175768000Y-117856000D03*
X175768000Y-118872000D03*
X175768000Y-119888000D03*
X175768000Y-120904000D03*
X175768000Y-121920000D03*
X175768000Y-122936000D03*
X175768000Y-123952000D03*
X176784000Y-123952000D03*
X176784000Y-122936000D03*
X176784000Y-121920000D03*
X176784000Y-120904000D03*
X176784000Y-119888000D03*
X176784000Y-118872000D03*
X176784000Y-117856000D03*
X176784000Y-116840000D03*
X176784000Y-115824000D03*
X177800000Y-115824000D03*
X177800000Y-116840000D03*
X177800000Y-117856000D03*
X177800000Y-118872000D03*
X177800000Y-119888000D03*
X177800000Y-120904000D03*
X177800000Y-121920000D03*
X177800000Y-122936000D03*
X177800000Y-123952000D03*
X178816000Y-123952000D03*
X178816000Y-122936000D03*
X178816000Y-121920000D03*
X178816000Y-120904000D03*
X178816000Y-119888000D03*
X178816000Y-118872000D03*
X178816000Y-117856000D03*
X178816000Y-116840000D03*
X178816000Y-115824000D03*
X172720000Y-123952000D03*
X172720000Y-122936000D03*
X172720000Y-121920000D03*
X172720000Y-120904000D03*
X172720000Y-119888000D03*
X172720000Y-118872000D03*
X172720000Y-117856000D03*
X172720000Y-116840000D03*
X172720000Y-115824000D03*
X171704000Y-123952000D03*
X171704000Y-122936000D03*
X171704000Y-121920000D03*
X171704000Y-120904000D03*
X171704000Y-119888000D03*
X171704000Y-118872000D03*
X171704000Y-117856000D03*
X171704000Y-116840000D03*
X171704000Y-115824000D03*
X146558000Y-139954000D03*
X185166000Y-140970000D03*
X169418000Y-140716000D03*
X185674000Y-138938000D03*
X169418000Y-139954000D03*
X169418000Y-128270000D03*
X185166000Y-128524000D03*
X169418000Y-127508000D03*
X185674000Y-126492000D03*
X169926000Y-116332000D03*
X185166000Y-116078000D03*
X169926000Y-115316000D03*
X185674000Y-114046000D03*
X156210000Y-137414000D03*
X155448000Y-128778000D03*
X159258000Y-116840000D03*
X160274000Y-124460000D03*
D22*
X160274000Y-123698000D02*
X158496000Y-123698000D01*
X158496000Y-123698000D02*
X156210000Y-125984000D01*
X139192000Y-139700000D02*
X139192000Y-141478000D01*
X139192000Y-141478000D02*
X136906000Y-143764000D01*
X136906000Y-143764000D02*
X135636000Y-143764000D01*
X135636000Y-143764000D02*
X139192000Y-143764000D01*
X151130000Y-145796000D02*
X155194000Y-145796000D01*
X147193000Y-131445000D02*
X149733000Y-131445000D01*
X149733000Y-131445000D02*
X150876000Y-130302000D01*
D23*
X185166000Y-140970000D02*
X185166000Y-139700000D01*
X185166000Y-139700000D02*
X183642000Y-138176000D01*
X171450000Y-138176000D02*
X171404450Y-138176000D01*
X183642000Y-138176000D02*
X171450000Y-138176000D01*
X171404450Y-138176000D02*
X170180000Y-139400450D01*
X170180000Y-139400450D02*
X170180000Y-140462000D01*
X170180000Y-140462000D02*
X169926000Y-140716000D01*
X169926000Y-140716000D02*
X169418000Y-140716000D01*
X185674000Y-138938000D02*
X185166000Y-138938000D01*
X185166000Y-138938000D02*
X185143225Y-138960775D01*
X185143225Y-138960775D02*
X184889225Y-138960775D01*
X184889225Y-138960775D02*
X183777448Y-137848998D01*
X169418000Y-139700000D02*
X169418000Y-139954000D01*
X171269002Y-137848998D02*
X169418000Y-139700000D01*
X183777448Y-137848998D02*
X171269002Y-137848998D01*
X171404450Y-125730000D02*
X170180000Y-126954450D01*
X170180000Y-126954450D02*
X170180000Y-128016000D01*
X170180000Y-128016000D02*
X169926000Y-128270000D01*
X169926000Y-128270000D02*
X169418000Y-128270000D01*
X183642000Y-125730000D02*
X171450000Y-125730000D01*
X185166000Y-127254000D02*
X183642000Y-125730000D01*
X185166000Y-128016000D02*
X185166000Y-127254000D01*
X185166000Y-128524000D02*
X185166000Y-128016000D01*
X171450000Y-125730000D02*
X171404450Y-125730000D01*
X171269002Y-125402998D02*
X169418000Y-127254000D01*
X169418000Y-127254000D02*
X169418000Y-127508000D01*
X183777448Y-125402998D02*
X183873225Y-125498775D01*
X183777448Y-125402998D02*
X171450000Y-125402998D01*
X171450000Y-125402998D02*
X171269002Y-125402998D01*
X185674000Y-126492000D02*
X185166000Y-126492000D01*
X184889225Y-126514775D02*
X183873225Y-125498775D01*
X185143225Y-126514775D02*
X184889225Y-126514775D01*
X185166000Y-126492000D02*
X185143225Y-126514775D01*
X183873225Y-125498775D02*
X183850450Y-125476000D01*
X169926000Y-116332000D02*
X170688000Y-115570000D01*
X170688000Y-115570000D02*
X170688000Y-114300000D01*
X170688000Y-114300000D02*
X170942000Y-114046000D01*
X170942000Y-114046000D02*
X184404000Y-114046000D01*
X184404000Y-114046000D02*
X185166000Y-114808000D01*
X185166000Y-116078000D02*
X185166000Y-114808000D01*
X169926000Y-115316000D02*
X170360998Y-114881002D01*
X170360998Y-114881002D02*
X170360998Y-114164552D01*
X170360998Y-114164552D02*
X170806552Y-113718998D01*
X170806552Y-113718998D02*
X184539448Y-113718998D01*
X184539448Y-113718998D02*
X184866450Y-114046000D01*
X184866450Y-114046000D02*
X185674000Y-114046000D01*
D24*
G36*
X195008500Y-151066500D02*
X186753500Y-151066500D01*
X186753500Y-112776000D01*
X186748497Y-112751295D01*
X186734277Y-112730483D01*
X186713080Y-112716843D01*
X186690000Y-112712500D01*
X175323500Y-112712500D01*
X175323500Y-107759500D01*
X195008500Y-107759500D01*
X195008500Y-151066500D01*
X195008500Y-151066500D01*
G37*
X195008500Y-151066500D02*
X186753500Y-151066500D01*
X186753500Y-112776000D01*
X186748497Y-112751295D01*
X186734277Y-112730483D01*
X186713080Y-112716843D01*
X186690000Y-112712500D01*
X175323500Y-112712500D01*
X175323500Y-107759500D01*
X195008500Y-107759500D01*
X195008500Y-151066500D01*
G36*
X170624500Y-113284000D02*
X170629503Y-113308705D01*
X170643723Y-113329517D01*
X170664920Y-113343157D01*
X170688000Y-113347500D01*
X186118500Y-113347500D01*
X186118500Y-113693670D01*
X185993614Y-113568566D01*
X185786579Y-113482598D01*
X185562405Y-113482402D01*
X185355220Y-113568009D01*
X185240529Y-113682500D01*
X185017017Y-113682500D01*
X184796481Y-113461965D01*
X184678554Y-113383168D01*
X184539448Y-113355498D01*
X170806552Y-113355498D01*
X170667447Y-113383168D01*
X170549519Y-113461964D01*
X170103965Y-113907519D01*
X170025168Y-114025446D01*
X170025168Y-114025447D01*
X169997498Y-114164552D01*
X169997498Y-114730436D01*
X169975391Y-114752543D01*
X169814405Y-114752402D01*
X169607220Y-114838009D01*
X169448566Y-114996386D01*
X169362598Y-115203421D01*
X169362402Y-115427595D01*
X169448009Y-115634780D01*
X169606386Y-115793434D01*
X169679923Y-115823969D01*
X169607220Y-115854009D01*
X169448566Y-116012386D01*
X169362598Y-116219421D01*
X169362402Y-116443595D01*
X169448009Y-116650780D01*
X169606386Y-116809434D01*
X169813421Y-116895402D01*
X170037595Y-116895598D01*
X170244780Y-116809991D01*
X170403434Y-116651614D01*
X170489402Y-116444579D01*
X170489544Y-116282523D01*
X170945034Y-115827033D01*
X171023830Y-115709105D01*
X171051500Y-115570000D01*
X171051500Y-114450566D01*
X171092566Y-114409500D01*
X171305590Y-114409500D01*
X171226566Y-114488386D01*
X171140598Y-114695421D01*
X171140402Y-114919595D01*
X171226009Y-115126780D01*
X171384386Y-115285434D01*
X171386500Y-115286312D01*
X171386500Y-115345480D01*
X171385220Y-115346009D01*
X171226566Y-115504386D01*
X171140598Y-115711421D01*
X171140402Y-115935595D01*
X171226009Y-116142780D01*
X171384386Y-116301434D01*
X171386500Y-116302312D01*
X171386500Y-116361480D01*
X171385220Y-116362009D01*
X171226566Y-116520386D01*
X171140598Y-116727421D01*
X171140402Y-116951595D01*
X171226009Y-117158780D01*
X171384386Y-117317434D01*
X171386500Y-117318312D01*
X171386500Y-117377480D01*
X171385220Y-117378009D01*
X171226566Y-117536386D01*
X171140598Y-117743421D01*
X171140402Y-117967595D01*
X171226009Y-118174780D01*
X171384386Y-118333434D01*
X171386500Y-118334312D01*
X171386500Y-118393480D01*
X171385220Y-118394009D01*
X171226566Y-118552386D01*
X171140598Y-118759421D01*
X171140402Y-118983595D01*
X171226009Y-119190780D01*
X171384386Y-119349434D01*
X171386500Y-119350312D01*
X171386500Y-119409480D01*
X171385220Y-119410009D01*
X171226566Y-119568386D01*
X171140598Y-119775421D01*
X171140402Y-119999595D01*
X171226009Y-120206780D01*
X171384386Y-120365434D01*
X171386500Y-120366312D01*
X171386500Y-120425480D01*
X171385220Y-120426009D01*
X171226566Y-120584386D01*
X171140598Y-120791421D01*
X171140402Y-121015595D01*
X171226009Y-121222780D01*
X171384386Y-121381434D01*
X171386500Y-121382312D01*
X171386500Y-121441480D01*
X171385220Y-121442009D01*
X171226566Y-121600386D01*
X171140598Y-121807421D01*
X171140402Y-122031595D01*
X171226009Y-122238780D01*
X171384386Y-122397434D01*
X171386500Y-122398312D01*
X171386500Y-122457480D01*
X171385220Y-122458009D01*
X171226566Y-122616386D01*
X171140598Y-122823421D01*
X171140402Y-123047595D01*
X171226009Y-123254780D01*
X171384386Y-123413434D01*
X171386500Y-123414312D01*
X171386500Y-123473480D01*
X171385220Y-123474009D01*
X171226566Y-123632386D01*
X171140598Y-123839421D01*
X171140402Y-124063595D01*
X171226009Y-124270780D01*
X171384386Y-124429434D01*
X171386500Y-124430312D01*
X171386500Y-124460000D01*
X171390843Y-124483080D01*
X171404483Y-124504277D01*
X171425295Y-124518497D01*
X171450000Y-124523500D01*
X181131480Y-124523500D01*
X181132009Y-124524780D01*
X181290386Y-124683434D01*
X181497421Y-124769402D01*
X181721595Y-124769598D01*
X181928780Y-124683991D01*
X182087434Y-124525614D01*
X182088312Y-124523500D01*
X182147480Y-124523500D01*
X182148009Y-124524780D01*
X182306386Y-124683434D01*
X182513421Y-124769402D01*
X182737595Y-124769598D01*
X182944780Y-124683991D01*
X183103434Y-124525614D01*
X183104312Y-124523500D01*
X183163480Y-124523500D01*
X183164009Y-124524780D01*
X183322386Y-124683434D01*
X183529421Y-124769402D01*
X183753595Y-124769598D01*
X183960780Y-124683991D01*
X184119434Y-124525614D01*
X184120312Y-124523500D01*
X184658000Y-124523500D01*
X184681080Y-124519157D01*
X184702277Y-124505517D01*
X184716497Y-124484705D01*
X184721500Y-124460000D01*
X184721500Y-116430330D01*
X184846386Y-116555434D01*
X185053421Y-116641402D01*
X185277595Y-116641598D01*
X185484780Y-116555991D01*
X185643434Y-116397614D01*
X185729402Y-116190579D01*
X185729598Y-115966405D01*
X185643991Y-115759220D01*
X185529500Y-115644529D01*
X185529500Y-114808000D01*
X185501830Y-114668895D01*
X185479737Y-114635830D01*
X185423933Y-114552312D01*
X185561421Y-114609402D01*
X185785595Y-114609598D01*
X185992780Y-114523991D01*
X186118500Y-114398490D01*
X186118500Y-126139670D01*
X185993614Y-126014566D01*
X185786579Y-125928598D01*
X185562405Y-125928402D01*
X185355220Y-126014009D01*
X185240529Y-126128500D01*
X185166000Y-126128500D01*
X185051504Y-126151275D01*
X185039791Y-126151275D01*
X184130261Y-125241745D01*
X184130259Y-125241742D01*
X184107483Y-125218967D01*
X184034481Y-125145965D01*
X183916554Y-125067168D01*
X183777448Y-125039498D01*
X171269002Y-125039498D01*
X171152975Y-125062577D01*
X171129896Y-125067168D01*
X171011969Y-125145965D01*
X169160967Y-126996967D01*
X169154018Y-127007367D01*
X169099220Y-127030009D01*
X168940566Y-127188386D01*
X168854598Y-127395421D01*
X168854402Y-127619595D01*
X168940009Y-127826780D01*
X169002090Y-127888969D01*
X168940566Y-127950386D01*
X168854598Y-128157421D01*
X168854402Y-128381595D01*
X168940009Y-128588780D01*
X169098386Y-128747434D01*
X169305421Y-128833402D01*
X169529595Y-128833598D01*
X169736780Y-128747991D01*
X169851471Y-128633500D01*
X169926000Y-128633500D01*
X170065106Y-128605830D01*
X170183033Y-128527033D01*
X170437033Y-128273033D01*
X170515830Y-128155106D01*
X170521302Y-128127595D01*
X170543500Y-128016000D01*
X170543500Y-127105016D01*
X171555016Y-126093500D01*
X183491434Y-126093500D01*
X184080434Y-126682500D01*
X171450000Y-126682500D01*
X171426920Y-126686843D01*
X171405723Y-126700483D01*
X171391503Y-126721295D01*
X171386500Y-126746000D01*
X171386500Y-126775480D01*
X171385220Y-126776009D01*
X171226566Y-126934386D01*
X171140598Y-127141421D01*
X171140402Y-127365595D01*
X171226009Y-127572780D01*
X171384386Y-127731434D01*
X171386500Y-127732312D01*
X171386500Y-127791480D01*
X171385220Y-127792009D01*
X171226566Y-127950386D01*
X171140598Y-128157421D01*
X171140402Y-128381595D01*
X171226009Y-128588780D01*
X171384386Y-128747434D01*
X171386500Y-128748312D01*
X171386500Y-128807480D01*
X171385220Y-128808009D01*
X171226566Y-128966386D01*
X171140598Y-129173421D01*
X171140402Y-129397595D01*
X171226009Y-129604780D01*
X171384386Y-129763434D01*
X171386500Y-129764312D01*
X171386500Y-129823480D01*
X171385220Y-129824009D01*
X171226566Y-129982386D01*
X171140598Y-130189421D01*
X171140402Y-130413595D01*
X171226009Y-130620780D01*
X171384386Y-130779434D01*
X171386500Y-130780312D01*
X171386500Y-130839480D01*
X171385220Y-130840009D01*
X171226566Y-130998386D01*
X171140598Y-131205421D01*
X171140402Y-131429595D01*
X171226009Y-131636780D01*
X171384386Y-131795434D01*
X171386500Y-131796312D01*
X171386500Y-131855480D01*
X171385220Y-131856009D01*
X171226566Y-132014386D01*
X171140598Y-132221421D01*
X171140402Y-132445595D01*
X171226009Y-132652780D01*
X171384386Y-132811434D01*
X171386500Y-132812312D01*
X171386500Y-132871480D01*
X171385220Y-132872009D01*
X171226566Y-133030386D01*
X171140598Y-133237421D01*
X171140402Y-133461595D01*
X171226009Y-133668780D01*
X171384386Y-133827434D01*
X171386500Y-133828312D01*
X171386500Y-133887480D01*
X171385220Y-133888009D01*
X171226566Y-134046386D01*
X171140598Y-134253421D01*
X171140402Y-134477595D01*
X171226009Y-134684780D01*
X171384386Y-134843434D01*
X171386500Y-134844312D01*
X171386500Y-134903480D01*
X171385220Y-134904009D01*
X171226566Y-135062386D01*
X171140598Y-135269421D01*
X171140402Y-135493595D01*
X171226009Y-135700780D01*
X171384386Y-135859434D01*
X171386500Y-135860312D01*
X171386500Y-135919480D01*
X171385220Y-135920009D01*
X171226566Y-136078386D01*
X171140598Y-136285421D01*
X171140402Y-136509595D01*
X171226009Y-136716780D01*
X171384386Y-136875434D01*
X171386500Y-136876312D01*
X171386500Y-136906000D01*
X171390843Y-136929080D01*
X171404483Y-136950277D01*
X171425295Y-136964497D01*
X171450000Y-136969500D01*
X181131480Y-136969500D01*
X181132009Y-136970780D01*
X181290386Y-137129434D01*
X181497421Y-137215402D01*
X181721595Y-137215598D01*
X181928780Y-137129991D01*
X182087434Y-136971614D01*
X182088312Y-136969500D01*
X182147480Y-136969500D01*
X182148009Y-136970780D01*
X182306386Y-137129434D01*
X182513421Y-137215402D01*
X182737595Y-137215598D01*
X182944780Y-137129991D01*
X183103434Y-136971614D01*
X183104312Y-136969500D01*
X183163480Y-136969500D01*
X183164009Y-136970780D01*
X183322386Y-137129434D01*
X183529421Y-137215402D01*
X183753595Y-137215598D01*
X183960780Y-137129991D01*
X184119434Y-136971614D01*
X184120312Y-136969500D01*
X184658000Y-136969500D01*
X184681080Y-136965157D01*
X184702277Y-136951517D01*
X184716497Y-136930705D01*
X184721500Y-136906000D01*
X184721500Y-128876330D01*
X184846386Y-129001434D01*
X185053421Y-129087402D01*
X185277595Y-129087598D01*
X185484780Y-129001991D01*
X185643434Y-128843614D01*
X185729402Y-128636579D01*
X185729598Y-128412405D01*
X185643991Y-128205220D01*
X185529500Y-128090529D01*
X185529500Y-127254000D01*
X185501830Y-127114895D01*
X185462078Y-127055402D01*
X185423932Y-126998312D01*
X185561421Y-127055402D01*
X185785595Y-127055598D01*
X185992780Y-126969991D01*
X186118500Y-126844490D01*
X186118500Y-138585670D01*
X185993614Y-138460566D01*
X185786579Y-138374598D01*
X185562405Y-138374402D01*
X185355220Y-138460009D01*
X185240529Y-138574500D01*
X185166000Y-138574500D01*
X185051504Y-138597275D01*
X185039791Y-138597275D01*
X184034481Y-137591965D01*
X183916554Y-137513168D01*
X183777448Y-137485498D01*
X171269002Y-137485498D01*
X171158462Y-137507486D01*
X171129896Y-137513168D01*
X171011969Y-137591965D01*
X169160967Y-139442967D01*
X169154018Y-139453367D01*
X169099220Y-139476009D01*
X168940566Y-139634386D01*
X168854598Y-139841421D01*
X168854402Y-140065595D01*
X168940009Y-140272780D01*
X169002090Y-140334969D01*
X168940566Y-140396386D01*
X168854598Y-140603421D01*
X168854402Y-140827595D01*
X168940009Y-141034780D01*
X169098386Y-141193434D01*
X169305421Y-141279402D01*
X169529595Y-141279598D01*
X169736780Y-141193991D01*
X169851471Y-141079500D01*
X169926000Y-141079500D01*
X170065106Y-141051830D01*
X170183033Y-140973033D01*
X170437033Y-140719033D01*
X170515830Y-140601106D01*
X170530614Y-140526780D01*
X170543500Y-140462000D01*
X170543500Y-139551016D01*
X171555016Y-138539500D01*
X183491434Y-138539500D01*
X184080434Y-139128500D01*
X171450000Y-139128500D01*
X171426920Y-139132843D01*
X171405723Y-139146483D01*
X171391503Y-139167295D01*
X171386500Y-139192000D01*
X171386500Y-139221480D01*
X171385220Y-139222009D01*
X171226566Y-139380386D01*
X171140598Y-139587421D01*
X171140402Y-139811595D01*
X171226009Y-140018780D01*
X171384386Y-140177434D01*
X171386500Y-140178312D01*
X171386500Y-140237480D01*
X171385220Y-140238009D01*
X171226566Y-140396386D01*
X171140598Y-140603421D01*
X171140402Y-140827595D01*
X171226009Y-141034780D01*
X171384386Y-141193434D01*
X171386500Y-141194312D01*
X171386500Y-141253480D01*
X171385220Y-141254009D01*
X171226566Y-141412386D01*
X171140598Y-141619421D01*
X171140402Y-141843595D01*
X171226009Y-142050780D01*
X171384386Y-142209434D01*
X171386500Y-142210312D01*
X171386500Y-142269480D01*
X171385220Y-142270009D01*
X171226566Y-142428386D01*
X171140598Y-142635421D01*
X171140402Y-142859595D01*
X171226009Y-143066780D01*
X171384386Y-143225434D01*
X171386500Y-143226312D01*
X171386500Y-143285480D01*
X171385220Y-143286009D01*
X171226566Y-143444386D01*
X171140598Y-143651421D01*
X171140402Y-143875595D01*
X171226009Y-144082780D01*
X171384386Y-144241434D01*
X171386500Y-144242312D01*
X171386500Y-144301480D01*
X171385220Y-144302009D01*
X171226566Y-144460386D01*
X171140598Y-144667421D01*
X171140402Y-144891595D01*
X171226009Y-145098780D01*
X171384386Y-145257434D01*
X171386500Y-145258312D01*
X171386500Y-145317480D01*
X171385220Y-145318009D01*
X171226566Y-145476386D01*
X171140598Y-145683421D01*
X171140402Y-145907595D01*
X171226009Y-146114780D01*
X171384386Y-146273434D01*
X171386500Y-146274312D01*
X171386500Y-146333480D01*
X171385220Y-146334009D01*
X171226566Y-146492386D01*
X171140598Y-146699421D01*
X171140402Y-146923595D01*
X171226009Y-147130780D01*
X171384386Y-147289434D01*
X171386500Y-147290312D01*
X171386500Y-147349480D01*
X171385220Y-147350009D01*
X171226566Y-147508386D01*
X171140598Y-147715421D01*
X171140402Y-147939595D01*
X171226009Y-148146780D01*
X171384386Y-148305434D01*
X171386500Y-148306312D01*
X171386500Y-148365480D01*
X171385220Y-148366009D01*
X171226566Y-148524386D01*
X171140598Y-148731421D01*
X171140402Y-148955595D01*
X171226009Y-149162780D01*
X171384386Y-149321434D01*
X171386500Y-149322312D01*
X171386500Y-149352000D01*
X171390843Y-149375080D01*
X171404483Y-149396277D01*
X171425295Y-149410497D01*
X171450000Y-149415500D01*
X181131480Y-149415500D01*
X181132009Y-149416780D01*
X181290386Y-149575434D01*
X181497421Y-149661402D01*
X181721595Y-149661598D01*
X181928780Y-149575991D01*
X182087434Y-149417614D01*
X182088312Y-149415500D01*
X182147480Y-149415500D01*
X182148009Y-149416780D01*
X182306386Y-149575434D01*
X182513421Y-149661402D01*
X182737595Y-149661598D01*
X182944780Y-149575991D01*
X183103434Y-149417614D01*
X183104312Y-149415500D01*
X183163480Y-149415500D01*
X183164009Y-149416780D01*
X183322386Y-149575434D01*
X183529421Y-149661402D01*
X183753595Y-149661598D01*
X183960780Y-149575991D01*
X184119434Y-149417614D01*
X184120312Y-149415500D01*
X184658000Y-149415500D01*
X184681080Y-149411157D01*
X184702277Y-149397517D01*
X184716497Y-149376705D01*
X184721500Y-149352000D01*
X184721500Y-141322330D01*
X184846386Y-141447434D01*
X185053421Y-141533402D01*
X185277595Y-141533598D01*
X185484780Y-141447991D01*
X185643434Y-141289614D01*
X185729402Y-141082579D01*
X185729598Y-140858405D01*
X185643991Y-140651220D01*
X185529500Y-140536529D01*
X185529500Y-139700000D01*
X185501830Y-139560895D01*
X185462078Y-139501402D01*
X185423932Y-139444312D01*
X185561421Y-139501402D01*
X185785595Y-139501598D01*
X185992780Y-139415991D01*
X186118500Y-139290490D01*
X186118500Y-151066500D01*
X162369500Y-151066500D01*
X162369500Y-146923595D01*
X163774402Y-146923595D01*
X163860009Y-147130780D01*
X163922090Y-147192969D01*
X163860566Y-147254386D01*
X163774598Y-147461421D01*
X163774402Y-147685595D01*
X163860009Y-147892780D01*
X164018386Y-148051434D01*
X164091923Y-148081969D01*
X164019220Y-148112009D01*
X163860566Y-148270386D01*
X163774598Y-148477421D01*
X163774402Y-148701595D01*
X163860009Y-148908780D01*
X164018386Y-149067434D01*
X164225421Y-149153402D01*
X164449595Y-149153598D01*
X164656780Y-149067991D01*
X164718969Y-149005910D01*
X164780386Y-149067434D01*
X164987421Y-149153402D01*
X165211595Y-149153598D01*
X165418780Y-149067991D01*
X165480969Y-149005910D01*
X165542386Y-149067434D01*
X165749421Y-149153402D01*
X165973595Y-149153598D01*
X166180780Y-149067991D01*
X166339434Y-148909614D01*
X166425402Y-148702579D01*
X166425598Y-148478405D01*
X166339991Y-148271220D01*
X166181614Y-148112566D01*
X165974579Y-148026598D01*
X165750405Y-148026402D01*
X165543220Y-148112009D01*
X165481031Y-148174090D01*
X165419614Y-148112566D01*
X165346077Y-148082031D01*
X165418780Y-148051991D01*
X165577434Y-147893614D01*
X165663402Y-147686579D01*
X165663598Y-147462405D01*
X165577991Y-147255220D01*
X165515910Y-147193031D01*
X165577434Y-147131614D01*
X165663402Y-146924579D01*
X165663598Y-146700405D01*
X165577991Y-146493220D01*
X165419614Y-146334566D01*
X165212579Y-146248598D01*
X164988405Y-146248402D01*
X164781220Y-146334009D01*
X164719031Y-146396090D01*
X164657614Y-146334566D01*
X164450579Y-146248598D01*
X164226405Y-146248402D01*
X164019220Y-146334009D01*
X163860566Y-146492386D01*
X163774598Y-146699421D01*
X163774402Y-146923595D01*
X162369500Y-146923595D01*
X162369500Y-142351595D01*
X168854402Y-142351595D01*
X168940009Y-142558780D01*
X169098386Y-142717434D01*
X169305421Y-142803402D01*
X169529595Y-142803598D01*
X169736780Y-142717991D01*
X169895434Y-142559614D01*
X169981402Y-142352579D01*
X169981598Y-142128405D01*
X169895991Y-141921220D01*
X169737614Y-141762566D01*
X169530579Y-141676598D01*
X169306405Y-141676402D01*
X169099220Y-141762009D01*
X168940566Y-141920386D01*
X168854598Y-142127421D01*
X168854402Y-142351595D01*
X162369500Y-142351595D01*
X162369500Y-134477595D01*
X163774402Y-134477595D01*
X163860009Y-134684780D01*
X163922090Y-134746969D01*
X163860566Y-134808386D01*
X163774598Y-135015421D01*
X163774402Y-135239595D01*
X163860009Y-135446780D01*
X164018386Y-135605434D01*
X164091923Y-135635969D01*
X164019220Y-135666009D01*
X163860566Y-135824386D01*
X163774598Y-136031421D01*
X163774402Y-136255595D01*
X163860009Y-136462780D01*
X164018386Y-136621434D01*
X164225421Y-136707402D01*
X164449595Y-136707598D01*
X164656780Y-136621991D01*
X164718969Y-136559910D01*
X164780386Y-136621434D01*
X164987421Y-136707402D01*
X165211595Y-136707598D01*
X165418780Y-136621991D01*
X165480969Y-136559910D01*
X165542386Y-136621434D01*
X165749421Y-136707402D01*
X165973595Y-136707598D01*
X166180780Y-136621991D01*
X166339434Y-136463614D01*
X166425402Y-136256579D01*
X166425598Y-136032405D01*
X166339991Y-135825220D01*
X166181614Y-135666566D01*
X165974579Y-135580598D01*
X165750405Y-135580402D01*
X165543220Y-135666009D01*
X165481031Y-135728090D01*
X165419614Y-135666566D01*
X165346077Y-135636031D01*
X165418780Y-135605991D01*
X165577434Y-135447614D01*
X165663402Y-135240579D01*
X165663598Y-135016405D01*
X165577991Y-134809220D01*
X165515910Y-134747031D01*
X165577434Y-134685614D01*
X165663402Y-134478579D01*
X165663598Y-134254405D01*
X165577991Y-134047220D01*
X165419614Y-133888566D01*
X165212579Y-133802598D01*
X164988405Y-133802402D01*
X164781220Y-133888009D01*
X164719031Y-133950090D01*
X164657614Y-133888566D01*
X164450579Y-133802598D01*
X164226405Y-133802402D01*
X164019220Y-133888009D01*
X163860566Y-134046386D01*
X163774598Y-134253421D01*
X163774402Y-134477595D01*
X162369500Y-134477595D01*
X162369500Y-129905595D01*
X168854402Y-129905595D01*
X168940009Y-130112780D01*
X169098386Y-130271434D01*
X169305421Y-130357402D01*
X169529595Y-130357598D01*
X169736780Y-130271991D01*
X169895434Y-130113614D01*
X169981402Y-129906579D01*
X169981598Y-129682405D01*
X169895991Y-129475220D01*
X169737614Y-129316566D01*
X169530579Y-129230598D01*
X169306405Y-129230402D01*
X169099220Y-129316009D01*
X168940566Y-129474386D01*
X168854598Y-129681421D01*
X168854402Y-129905595D01*
X162369500Y-129905595D01*
X162369500Y-126349595D01*
X167076402Y-126349595D01*
X167162009Y-126556780D01*
X167320386Y-126715434D01*
X167527421Y-126801402D01*
X167751595Y-126801598D01*
X167958780Y-126715991D01*
X168117434Y-126557614D01*
X168203402Y-126350579D01*
X168203598Y-126126405D01*
X168117991Y-125919220D01*
X167959614Y-125760566D01*
X167752579Y-125674598D01*
X167528405Y-125674402D01*
X167321220Y-125760009D01*
X167162566Y-125918386D01*
X167076598Y-126125421D01*
X167076402Y-126349595D01*
X162369500Y-126349595D01*
X162369500Y-125587595D01*
X166060402Y-125587595D01*
X166146009Y-125794780D01*
X166304386Y-125953434D01*
X166511421Y-126039402D01*
X166735595Y-126039598D01*
X166942780Y-125953991D01*
X167101434Y-125795614D01*
X167187402Y-125588579D01*
X167187598Y-125364405D01*
X167101991Y-125157220D01*
X166943614Y-124998566D01*
X166736579Y-124912598D01*
X166512405Y-124912402D01*
X166305220Y-124998009D01*
X166146566Y-125156386D01*
X166060598Y-125363421D01*
X166060402Y-125587595D01*
X162369500Y-125587595D01*
X162369500Y-122031595D01*
X163774402Y-122031595D01*
X163860009Y-122238780D01*
X163922090Y-122300969D01*
X163860566Y-122362386D01*
X163774598Y-122569421D01*
X163774402Y-122793595D01*
X163860009Y-123000780D01*
X164018386Y-123159434D01*
X164091923Y-123189969D01*
X164019220Y-123220009D01*
X163860566Y-123378386D01*
X163774598Y-123585421D01*
X163774402Y-123809595D01*
X163860009Y-124016780D01*
X164018386Y-124175434D01*
X164225421Y-124261402D01*
X164449595Y-124261598D01*
X164656780Y-124175991D01*
X164718969Y-124113910D01*
X164780386Y-124175434D01*
X164987421Y-124261402D01*
X165211595Y-124261598D01*
X165418780Y-124175991D01*
X165480969Y-124113910D01*
X165542386Y-124175434D01*
X165749421Y-124261402D01*
X165973595Y-124261598D01*
X166180780Y-124175991D01*
X166339434Y-124017614D01*
X166425402Y-123810579D01*
X166425598Y-123586405D01*
X166339991Y-123379220D01*
X166181614Y-123220566D01*
X165974579Y-123134598D01*
X165750405Y-123134402D01*
X165543220Y-123220009D01*
X165481031Y-123282090D01*
X165419614Y-123220566D01*
X165346077Y-123190031D01*
X165418780Y-123159991D01*
X165577434Y-123001614D01*
X165663402Y-122794579D01*
X165663598Y-122570405D01*
X165577991Y-122363220D01*
X165515910Y-122301031D01*
X165577434Y-122239614D01*
X165663402Y-122032579D01*
X165663598Y-121808405D01*
X165577991Y-121601220D01*
X165419614Y-121442566D01*
X165212579Y-121356598D01*
X164988405Y-121356402D01*
X164781220Y-121442009D01*
X164719031Y-121504090D01*
X164657614Y-121442566D01*
X164450579Y-121356598D01*
X164226405Y-121356402D01*
X164019220Y-121442009D01*
X163860566Y-121600386D01*
X163774598Y-121807421D01*
X163774402Y-122031595D01*
X162369500Y-122031595D01*
X162369500Y-117459595D01*
X168854402Y-117459595D01*
X168940009Y-117666780D01*
X169098386Y-117825434D01*
X169305421Y-117911402D01*
X169529595Y-117911598D01*
X169736780Y-117825991D01*
X169895434Y-117667614D01*
X169981402Y-117460579D01*
X169981598Y-117236405D01*
X169895991Y-117029220D01*
X169737614Y-116870566D01*
X169530579Y-116784598D01*
X169306405Y-116784402D01*
X169099220Y-116870009D01*
X168940566Y-117028386D01*
X168854598Y-117235421D01*
X168854402Y-117459595D01*
X162369500Y-117459595D01*
X162369500Y-112776000D01*
X162364497Y-112751295D01*
X162350277Y-112730483D01*
X162329080Y-112716843D01*
X162306000Y-112712500D01*
X161798000Y-112712500D01*
X161773295Y-112717503D01*
X161752483Y-112731723D01*
X161738843Y-112752920D01*
X161734500Y-112776000D01*
X161734500Y-117249670D01*
X161609614Y-117124566D01*
X161402579Y-117038598D01*
X161178405Y-117038402D01*
X160971220Y-117124009D01*
X160812566Y-117282386D01*
X160726598Y-117489421D01*
X160726402Y-117713595D01*
X160812009Y-117920780D01*
X160970386Y-118079434D01*
X161177421Y-118165402D01*
X161401595Y-118165598D01*
X161608780Y-118079991D01*
X161734500Y-117954490D01*
X161734500Y-129695670D01*
X161609614Y-129570566D01*
X161402579Y-129484598D01*
X161178405Y-129484402D01*
X160971220Y-129570009D01*
X160812566Y-129728386D01*
X160726598Y-129935421D01*
X160726402Y-130159595D01*
X160812009Y-130366780D01*
X160970386Y-130525434D01*
X161177421Y-130611402D01*
X161401595Y-130611598D01*
X161608780Y-130525991D01*
X161734500Y-130400490D01*
X161734500Y-142141670D01*
X161609614Y-142016566D01*
X161402579Y-141930598D01*
X161178405Y-141930402D01*
X160971220Y-142016009D01*
X160812566Y-142174386D01*
X160726598Y-142381421D01*
X160726402Y-142605595D01*
X160812009Y-142812780D01*
X160970386Y-142971434D01*
X161177421Y-143057402D01*
X161401595Y-143057598D01*
X161608780Y-142971991D01*
X161734500Y-142846490D01*
X161734500Y-151066500D01*
X128147967Y-151066500D01*
X128057253Y-151048456D01*
X127015574Y-150352429D01*
X126319545Y-149310748D01*
X126301500Y-149220030D01*
X126301500Y-148451047D01*
X127422177Y-148451047D01*
X127705281Y-149136209D01*
X128229034Y-149660877D01*
X128913701Y-149945176D01*
X129655047Y-149945823D01*
X130340209Y-149662719D01*
X130864877Y-149138966D01*
X131135016Y-148488400D01*
X133995738Y-148488400D01*
X133995738Y-150215600D01*
X134014112Y-150313247D01*
X134071821Y-150402930D01*
X134159875Y-150463095D01*
X134264400Y-150484262D01*
X135991600Y-150484262D01*
X136089247Y-150465888D01*
X136178930Y-150408179D01*
X136239095Y-150320125D01*
X136260262Y-150215600D01*
X136260262Y-149329919D01*
X136540900Y-149329919D01*
X136540900Y-149374081D01*
X136626695Y-149805403D01*
X136871020Y-150171061D01*
X137236678Y-150415386D01*
X137668000Y-150501181D01*
X138099322Y-150415386D01*
X138464980Y-150171061D01*
X138709305Y-149805403D01*
X138795100Y-149374081D01*
X138795100Y-149329919D01*
X139080900Y-149329919D01*
X139080900Y-149374081D01*
X139166695Y-149805403D01*
X139411020Y-150171061D01*
X139776678Y-150415386D01*
X140208000Y-150501181D01*
X140639322Y-150415386D01*
X141004980Y-150171061D01*
X141249305Y-149805403D01*
X141335100Y-149374081D01*
X141335100Y-149329919D01*
X141620900Y-149329919D01*
X141620900Y-149374081D01*
X141706695Y-149805403D01*
X141951020Y-150171061D01*
X142316678Y-150415386D01*
X142748000Y-150501181D01*
X143179322Y-150415386D01*
X143544980Y-150171061D01*
X143789305Y-149805403D01*
X143875100Y-149374081D01*
X143875100Y-149329919D01*
X144160900Y-149329919D01*
X144160900Y-149374081D01*
X144246695Y-149805403D01*
X144491020Y-150171061D01*
X144856678Y-150415386D01*
X145288000Y-150501181D01*
X145719322Y-150415386D01*
X146084980Y-150171061D01*
X146329305Y-149805403D01*
X146415100Y-149374081D01*
X146415100Y-149329919D01*
X146329305Y-148898597D01*
X146084980Y-148532939D01*
X145790241Y-148336000D01*
X147965738Y-148336000D01*
X147965738Y-150368000D01*
X147984112Y-150465647D01*
X148041821Y-150555330D01*
X148129875Y-150615495D01*
X148234400Y-150636662D01*
X149961600Y-150636662D01*
X150059247Y-150618288D01*
X150148930Y-150560579D01*
X150209095Y-150472525D01*
X150230262Y-150368000D01*
X150230262Y-149174533D01*
X150510900Y-149174533D01*
X150510900Y-149529467D01*
X150596695Y-149960789D01*
X150841020Y-150326447D01*
X151206678Y-150570772D01*
X151638000Y-150656567D01*
X152069322Y-150570772D01*
X152434980Y-150326447D01*
X152679305Y-149960789D01*
X152725944Y-149726315D01*
X153020437Y-149726315D01*
X153193474Y-150152403D01*
X153516397Y-150479838D01*
X153807500Y-150625884D01*
X153987500Y-150589530D01*
X153987500Y-149542500D01*
X154368500Y-149542500D01*
X154368500Y-150589530D01*
X154548500Y-150625884D01*
X154839603Y-150479838D01*
X155162526Y-150152403D01*
X155335563Y-149726315D01*
X155276652Y-149542500D01*
X154368500Y-149542500D01*
X153987500Y-149542500D01*
X153079348Y-149542500D01*
X153020437Y-149726315D01*
X152725944Y-149726315D01*
X152765100Y-149529467D01*
X152765100Y-149174533D01*
X155590900Y-149174533D01*
X155590900Y-149529467D01*
X155676695Y-149960789D01*
X155921020Y-150326447D01*
X156286678Y-150570772D01*
X156718000Y-150656567D01*
X157149322Y-150570772D01*
X157514980Y-150326447D01*
X157759305Y-149960789D01*
X157845100Y-149529467D01*
X157845100Y-149174533D01*
X158130900Y-149174533D01*
X158130900Y-149529467D01*
X158216695Y-149960789D01*
X158461020Y-150326447D01*
X158826678Y-150570772D01*
X159258000Y-150656567D01*
X159689322Y-150570772D01*
X160054980Y-150326447D01*
X160299305Y-149960789D01*
X160385100Y-149529467D01*
X160385100Y-149174533D01*
X160299305Y-148743211D01*
X160054980Y-148377553D01*
X159689322Y-148133228D01*
X159258000Y-148047433D01*
X158826678Y-148133228D01*
X158461020Y-148377553D01*
X158216695Y-148743211D01*
X158130900Y-149174533D01*
X157845100Y-149174533D01*
X157759305Y-148743211D01*
X157514980Y-148377553D01*
X157149322Y-148133228D01*
X156718000Y-148047433D01*
X156286678Y-148133228D01*
X155921020Y-148377553D01*
X155676695Y-148743211D01*
X155590900Y-149174533D01*
X152765100Y-149174533D01*
X152725945Y-148977685D01*
X153020437Y-148977685D01*
X153079348Y-149161500D01*
X153987500Y-149161500D01*
X153987500Y-148114470D01*
X154368500Y-148114470D01*
X154368500Y-149161500D01*
X155276652Y-149161500D01*
X155335563Y-148977685D01*
X155162526Y-148551597D01*
X154839603Y-148224162D01*
X154548500Y-148078116D01*
X154368500Y-148114470D01*
X153987500Y-148114470D01*
X153807500Y-148078116D01*
X153516397Y-148224162D01*
X153193474Y-148551597D01*
X153020437Y-148977685D01*
X152725945Y-148977685D01*
X152679305Y-148743211D01*
X152434980Y-148377553D01*
X152069322Y-148133228D01*
X151638000Y-148047433D01*
X151206678Y-148133228D01*
X150841020Y-148377553D01*
X150596695Y-148743211D01*
X150510900Y-149174533D01*
X150230262Y-149174533D01*
X150230262Y-148336000D01*
X150211888Y-148238353D01*
X150154179Y-148148670D01*
X150066125Y-148088505D01*
X149961600Y-148067338D01*
X148234400Y-148067338D01*
X148136753Y-148085712D01*
X148047070Y-148143421D01*
X147986905Y-148231475D01*
X147965738Y-148336000D01*
X145790241Y-148336000D01*
X145719322Y-148288614D01*
X145288000Y-148202819D01*
X144856678Y-148288614D01*
X144491020Y-148532939D01*
X144246695Y-148898597D01*
X144160900Y-149329919D01*
X143875100Y-149329919D01*
X143789305Y-148898597D01*
X143544980Y-148532939D01*
X143179322Y-148288614D01*
X142748000Y-148202819D01*
X142316678Y-148288614D01*
X141951020Y-148532939D01*
X141706695Y-148898597D01*
X141620900Y-149329919D01*
X141335100Y-149329919D01*
X141249305Y-148898597D01*
X141004980Y-148532939D01*
X140639322Y-148288614D01*
X140208000Y-148202819D01*
X139776678Y-148288614D01*
X139411020Y-148532939D01*
X139166695Y-148898597D01*
X139080900Y-149329919D01*
X138795100Y-149329919D01*
X138709305Y-148898597D01*
X138464980Y-148532939D01*
X138099322Y-148288614D01*
X137668000Y-148202819D01*
X137236678Y-148288614D01*
X136871020Y-148532939D01*
X136626695Y-148898597D01*
X136540900Y-149329919D01*
X136260262Y-149329919D01*
X136260262Y-148488400D01*
X136241888Y-148390753D01*
X136184179Y-148301070D01*
X136096125Y-148240905D01*
X135991600Y-148219738D01*
X134264400Y-148219738D01*
X134166753Y-148238112D01*
X134077070Y-148295821D01*
X134016905Y-148383875D01*
X133995738Y-148488400D01*
X131135016Y-148488400D01*
X131149176Y-148454299D01*
X131149823Y-147712953D01*
X130866719Y-147027791D01*
X130629262Y-146789919D01*
X134000900Y-146789919D01*
X134000900Y-146834081D01*
X134086695Y-147265403D01*
X134331020Y-147631061D01*
X134696678Y-147875386D01*
X135128000Y-147961181D01*
X135559322Y-147875386D01*
X135924980Y-147631061D01*
X136169305Y-147265403D01*
X136255100Y-146834081D01*
X136255100Y-146789919D01*
X136540900Y-146789919D01*
X136540900Y-146834081D01*
X136626695Y-147265403D01*
X136871020Y-147631061D01*
X137236678Y-147875386D01*
X137668000Y-147961181D01*
X138099322Y-147875386D01*
X138464980Y-147631061D01*
X138709305Y-147265403D01*
X138795100Y-146834081D01*
X138795100Y-146789919D01*
X139080900Y-146789919D01*
X139080900Y-146834081D01*
X139166695Y-147265403D01*
X139411020Y-147631061D01*
X139776678Y-147875386D01*
X140208000Y-147961181D01*
X140639322Y-147875386D01*
X141004980Y-147631061D01*
X141249305Y-147265403D01*
X141335100Y-146834081D01*
X141335100Y-146789919D01*
X141620900Y-146789919D01*
X141620900Y-146834081D01*
X141706695Y-147265403D01*
X141951020Y-147631061D01*
X142316678Y-147875386D01*
X142748000Y-147961181D01*
X143179322Y-147875386D01*
X143544980Y-147631061D01*
X143789305Y-147265403D01*
X143805794Y-147182503D01*
X144166498Y-147182503D01*
X144393653Y-147583480D01*
X144756964Y-147867006D01*
X144917500Y-147933484D01*
X145097500Y-147897130D01*
X145097500Y-147002500D01*
X145478500Y-147002500D01*
X145478500Y-147897130D01*
X145658500Y-147933484D01*
X145819036Y-147867006D01*
X146182347Y-147583480D01*
X146409502Y-147182503D01*
X146374279Y-147002500D01*
X145478500Y-147002500D01*
X145097500Y-147002500D01*
X144201721Y-147002500D01*
X144166498Y-147182503D01*
X143805794Y-147182503D01*
X143875100Y-146834081D01*
X143875100Y-146789919D01*
X143805795Y-146441497D01*
X144166498Y-146441497D01*
X144201721Y-146621500D01*
X145097500Y-146621500D01*
X145097500Y-145726870D01*
X145478500Y-145726870D01*
X145478500Y-146621500D01*
X146374279Y-146621500D01*
X146409502Y-146441497D01*
X146182347Y-146040520D01*
X145819036Y-145756994D01*
X145658500Y-145690516D01*
X145478500Y-145726870D01*
X145097500Y-145726870D01*
X144917500Y-145690516D01*
X144756964Y-145756994D01*
X144393653Y-146040520D01*
X144166498Y-146441497D01*
X143805795Y-146441497D01*
X143789305Y-146358597D01*
X143544980Y-145992939D01*
X143179322Y-145748614D01*
X142748000Y-145662819D01*
X142316678Y-145748614D01*
X141951020Y-145992939D01*
X141706695Y-146358597D01*
X141620900Y-146789919D01*
X141335100Y-146789919D01*
X141249305Y-146358597D01*
X141004980Y-145992939D01*
X140639322Y-145748614D01*
X140208000Y-145662819D01*
X139776678Y-145748614D01*
X139411020Y-145992939D01*
X139166695Y-146358597D01*
X139080900Y-146789919D01*
X138795100Y-146789919D01*
X138709305Y-146358597D01*
X138464980Y-145992939D01*
X138099322Y-145748614D01*
X137668000Y-145662819D01*
X137236678Y-145748614D01*
X136871020Y-145992939D01*
X136626695Y-146358597D01*
X136540900Y-146789919D01*
X136255100Y-146789919D01*
X136169305Y-146358597D01*
X135924980Y-145992939D01*
X135559322Y-145748614D01*
X135128000Y-145662819D01*
X134696678Y-145748614D01*
X134331020Y-145992939D01*
X134086695Y-146358597D01*
X134000900Y-146789919D01*
X130629262Y-146789919D01*
X130342966Y-146503123D01*
X129658299Y-146218824D01*
X128916953Y-146218177D01*
X128231791Y-146501281D01*
X127707123Y-147025034D01*
X127422824Y-147709701D01*
X127422177Y-148451047D01*
X126301500Y-148451047D01*
X126301500Y-144129595D01*
X141168402Y-144129595D01*
X141254009Y-144336780D01*
X141412386Y-144495434D01*
X141619421Y-144581402D01*
X141843595Y-144581598D01*
X142050780Y-144495991D01*
X142209434Y-144337614D01*
X142295402Y-144130579D01*
X142295598Y-143906405D01*
X142209991Y-143699220D01*
X142051614Y-143540566D01*
X141844579Y-143454598D01*
X141620405Y-143454402D01*
X141413220Y-143540009D01*
X141254566Y-143698386D01*
X141168598Y-143905421D01*
X141168402Y-144129595D01*
X126301500Y-144129595D01*
X126301500Y-142904881D01*
X128068527Y-142904881D01*
X128139782Y-143032930D01*
X128495430Y-143115038D01*
X128855429Y-143054796D01*
X128908218Y-143032930D01*
X128979473Y-142904881D01*
X128524000Y-142449408D01*
X128068527Y-142904881D01*
X126301500Y-142904881D01*
X126301500Y-142151430D01*
X127588962Y-142151430D01*
X127649204Y-142511429D01*
X127671070Y-142564218D01*
X127799119Y-142635473D01*
X128254592Y-142180000D01*
X128793408Y-142180000D01*
X129248881Y-142635473D01*
X129376930Y-142564218D01*
X129459038Y-142208570D01*
X129398796Y-141848571D01*
X129376930Y-141795782D01*
X129248881Y-141724527D01*
X128793408Y-142180000D01*
X128254592Y-142180000D01*
X127799119Y-141724527D01*
X127671070Y-141795782D01*
X127588962Y-142151430D01*
X126301500Y-142151430D01*
X126301500Y-134851007D01*
X127660350Y-134851007D01*
X127791533Y-135168494D01*
X128034228Y-135411613D01*
X128078225Y-135429882D01*
X128035506Y-135447533D01*
X127792387Y-135690228D01*
X127660650Y-136007486D01*
X127660350Y-136351007D01*
X127791533Y-136668494D01*
X128034228Y-136911613D01*
X128078225Y-136929882D01*
X128035506Y-136947533D01*
X127792387Y-137190228D01*
X127660650Y-137507486D01*
X127660350Y-137851007D01*
X127791533Y-138168494D01*
X128034228Y-138411613D01*
X128078225Y-138429882D01*
X128035506Y-138447533D01*
X127792387Y-138690228D01*
X127660650Y-139007486D01*
X127660350Y-139351007D01*
X127791533Y-139668494D01*
X128034228Y-139911613D01*
X128078225Y-139929882D01*
X128035506Y-139947533D01*
X127792387Y-140190228D01*
X127660650Y-140507486D01*
X127660350Y-140851007D01*
X127791533Y-141168494D01*
X128034228Y-141411613D01*
X128081755Y-141431348D01*
X128068527Y-141455119D01*
X128524000Y-141910592D01*
X128979473Y-141455119D01*
X128966349Y-141431534D01*
X129012494Y-141412467D01*
X129048624Y-141376400D01*
X131811338Y-141376400D01*
X131811338Y-143103600D01*
X131829712Y-143201247D01*
X131887421Y-143290930D01*
X131975475Y-143351095D01*
X132080000Y-143372262D01*
X134112000Y-143372262D01*
X134209647Y-143353888D01*
X134299330Y-143296179D01*
X134359495Y-143208125D01*
X134378637Y-143113595D01*
X140406402Y-143113595D01*
X140492009Y-143320780D01*
X140650386Y-143479434D01*
X140857421Y-143565402D01*
X141081595Y-143565598D01*
X141288780Y-143479991D01*
X141447434Y-143321614D01*
X141533402Y-143114579D01*
X141533598Y-142890405D01*
X141447991Y-142683220D01*
X141289614Y-142524566D01*
X141082579Y-142438598D01*
X140858405Y-142438402D01*
X140651220Y-142524009D01*
X140492566Y-142682386D01*
X140406598Y-142889421D01*
X140406402Y-143113595D01*
X134378637Y-143113595D01*
X134380662Y-143103600D01*
X134380662Y-142351595D01*
X147772402Y-142351595D01*
X147858009Y-142558780D01*
X148016386Y-142717434D01*
X148223421Y-142803402D01*
X148447595Y-142803598D01*
X148654780Y-142717991D01*
X148813434Y-142559614D01*
X148899402Y-142352579D01*
X148899598Y-142128405D01*
X148886868Y-142097595D01*
X154884402Y-142097595D01*
X154970009Y-142304780D01*
X155128386Y-142463434D01*
X155335421Y-142549402D01*
X155559595Y-142549598D01*
X155766780Y-142463991D01*
X155925434Y-142305614D01*
X156011402Y-142098579D01*
X156011598Y-141874405D01*
X155925991Y-141667220D01*
X155767614Y-141508566D01*
X155560579Y-141422598D01*
X155336405Y-141422402D01*
X155129220Y-141508009D01*
X154970566Y-141666386D01*
X154884598Y-141873421D01*
X154884402Y-142097595D01*
X148886868Y-142097595D01*
X148813991Y-141921220D01*
X148655614Y-141762566D01*
X148448579Y-141676598D01*
X148224405Y-141676402D01*
X148017220Y-141762009D01*
X147858566Y-141920386D01*
X147772598Y-142127421D01*
X147772402Y-142351595D01*
X134380662Y-142351595D01*
X134380662Y-141376400D01*
X134362288Y-141278753D01*
X134304579Y-141189070D01*
X134216525Y-141128905D01*
X134112000Y-141107738D01*
X132080000Y-141107738D01*
X131982353Y-141126112D01*
X131892670Y-141183821D01*
X131832505Y-141271875D01*
X131811338Y-141376400D01*
X129048624Y-141376400D01*
X129255613Y-141169772D01*
X129387350Y-140852514D01*
X129387371Y-140827595D01*
X137866402Y-140827595D01*
X137952009Y-141034780D01*
X138110386Y-141193434D01*
X138317421Y-141279402D01*
X138541595Y-141279598D01*
X138748780Y-141193991D01*
X138907434Y-141035614D01*
X138993402Y-140828579D01*
X138993402Y-140827595D01*
X139390402Y-140827595D01*
X139476009Y-141034780D01*
X139634386Y-141193434D01*
X139841421Y-141279402D01*
X140065595Y-141279598D01*
X140272780Y-141193991D01*
X140431434Y-141035614D01*
X140517402Y-140828579D01*
X140517598Y-140604405D01*
X140456430Y-140456366D01*
X140603421Y-140517402D01*
X140827595Y-140517598D01*
X141034780Y-140431991D01*
X141193434Y-140273614D01*
X141279402Y-140066579D01*
X141279402Y-140065595D01*
X145994402Y-140065595D01*
X146080009Y-140272780D01*
X146238386Y-140431434D01*
X146445421Y-140517402D01*
X146669595Y-140517598D01*
X146876780Y-140431991D01*
X146989372Y-140319595D01*
X149296402Y-140319595D01*
X149382009Y-140526780D01*
X149540386Y-140685434D01*
X149747421Y-140771402D01*
X149971595Y-140771598D01*
X150178780Y-140685991D01*
X150337434Y-140527614D01*
X150423402Y-140320579D01*
X150423598Y-140096405D01*
X150337991Y-139889220D01*
X150179614Y-139730566D01*
X149972579Y-139644598D01*
X149748405Y-139644402D01*
X149541220Y-139730009D01*
X149382566Y-139888386D01*
X149296598Y-140095421D01*
X149296402Y-140319595D01*
X146989372Y-140319595D01*
X147035434Y-140273614D01*
X147121402Y-140066579D01*
X147121598Y-139842405D01*
X147035991Y-139635220D01*
X146877614Y-139476566D01*
X146670579Y-139390598D01*
X146446405Y-139390402D01*
X146239220Y-139476009D01*
X146080566Y-139634386D01*
X145994598Y-139841421D01*
X145994402Y-140065595D01*
X141279402Y-140065595D01*
X141279483Y-139973718D01*
X141365421Y-140009402D01*
X141589595Y-140009598D01*
X141796780Y-139923991D01*
X141955434Y-139765614D01*
X142041402Y-139558579D01*
X142041598Y-139334405D01*
X141955991Y-139127220D01*
X141797614Y-138968566D01*
X141590579Y-138882598D01*
X141366405Y-138882402D01*
X141159220Y-138968009D01*
X141000566Y-139126386D01*
X140914598Y-139333421D01*
X140914517Y-139426282D01*
X140828579Y-139390598D01*
X140604405Y-139390402D01*
X140397220Y-139476009D01*
X140238566Y-139634386D01*
X140152598Y-139841421D01*
X140152402Y-140065595D01*
X140213570Y-140213634D01*
X140066579Y-140152598D01*
X139842405Y-140152402D01*
X139635220Y-140238009D01*
X139476566Y-140396386D01*
X139390598Y-140603421D01*
X139390402Y-140827595D01*
X138993402Y-140827595D01*
X138993598Y-140604405D01*
X138907991Y-140397220D01*
X138749614Y-140238566D01*
X138542579Y-140152598D01*
X138318405Y-140152402D01*
X138111220Y-140238009D01*
X137952566Y-140396386D01*
X137866598Y-140603421D01*
X137866402Y-140827595D01*
X129387371Y-140827595D01*
X129387650Y-140508993D01*
X129256467Y-140191506D01*
X129013772Y-139948387D01*
X128969775Y-139930118D01*
X129012494Y-139912467D01*
X129225332Y-139700000D01*
X131791433Y-139700000D01*
X131877228Y-140131322D01*
X132121553Y-140496980D01*
X132487211Y-140741305D01*
X132918533Y-140827100D01*
X133273467Y-140827100D01*
X133704789Y-140741305D01*
X134070447Y-140496980D01*
X134314772Y-140131322D01*
X134400567Y-139700000D01*
X134314772Y-139268678D01*
X134070447Y-138903020D01*
X133909675Y-138795595D01*
X160472402Y-138795595D01*
X160558009Y-139002780D01*
X160716386Y-139161434D01*
X160923421Y-139247402D01*
X161147595Y-139247598D01*
X161354780Y-139161991D01*
X161513434Y-139003614D01*
X161599402Y-138796579D01*
X161599598Y-138572405D01*
X161513991Y-138365220D01*
X161355614Y-138206566D01*
X161148579Y-138120598D01*
X160924405Y-138120402D01*
X160717220Y-138206009D01*
X160558566Y-138364386D01*
X160472598Y-138571421D01*
X160472402Y-138795595D01*
X133909675Y-138795595D01*
X133704789Y-138658695D01*
X133273467Y-138572900D01*
X132918533Y-138572900D01*
X132487211Y-138658695D01*
X132121553Y-138903020D01*
X131877228Y-139268678D01*
X131791433Y-139700000D01*
X129225332Y-139700000D01*
X129255613Y-139669772D01*
X129387350Y-139352514D01*
X129387650Y-139008993D01*
X129256467Y-138691506D01*
X129013772Y-138448387D01*
X128969775Y-138430118D01*
X129012494Y-138412467D01*
X129255613Y-138169772D01*
X129387350Y-137852514D01*
X129387631Y-137530500D01*
X131822116Y-137530500D01*
X131968162Y-137821603D01*
X132295597Y-138144526D01*
X132721685Y-138317563D01*
X132905500Y-138258652D01*
X132905500Y-137350500D01*
X133286500Y-137350500D01*
X133286500Y-138258652D01*
X133470315Y-138317563D01*
X133896403Y-138144526D01*
X134223838Y-137821603D01*
X134244913Y-137779595D01*
X141676402Y-137779595D01*
X141762009Y-137986780D01*
X141920386Y-138145434D01*
X142127421Y-138231402D01*
X142351595Y-138231598D01*
X142558780Y-138145991D01*
X142717434Y-137987614D01*
X142803402Y-137780579D01*
X142803598Y-137556405D01*
X142717991Y-137349220D01*
X142640502Y-137271595D01*
X143200402Y-137271595D01*
X143286009Y-137478780D01*
X143444386Y-137637434D01*
X143651421Y-137723402D01*
X143875595Y-137723598D01*
X144019625Y-137664086D01*
X144048009Y-137732780D01*
X144206386Y-137891434D01*
X144413421Y-137977402D01*
X144637595Y-137977598D01*
X144844780Y-137891991D01*
X145003434Y-137733614D01*
X145089402Y-137526579D01*
X145089598Y-137302405D01*
X145003991Y-137095220D01*
X144845614Y-136936566D01*
X144638579Y-136850598D01*
X144414405Y-136850402D01*
X144270375Y-136909914D01*
X144241991Y-136841220D01*
X144083614Y-136682566D01*
X143876579Y-136596598D01*
X143652405Y-136596402D01*
X143445220Y-136682009D01*
X143286566Y-136840386D01*
X143200598Y-137047421D01*
X143200402Y-137271595D01*
X142640502Y-137271595D01*
X142559614Y-137190566D01*
X142352579Y-137104598D01*
X142128405Y-137104402D01*
X141921220Y-137190009D01*
X141762566Y-137348386D01*
X141676598Y-137555421D01*
X141676402Y-137779595D01*
X134244913Y-137779595D01*
X134369884Y-137530500D01*
X134333530Y-137350500D01*
X133286500Y-137350500D01*
X132905500Y-137350500D01*
X131858470Y-137350500D01*
X131822116Y-137530500D01*
X129387631Y-137530500D01*
X129387650Y-137508993D01*
X129256467Y-137191506D01*
X129082860Y-137017595D01*
X136088402Y-137017595D01*
X136174009Y-137224780D01*
X136332386Y-137383434D01*
X136539421Y-137469402D01*
X136763595Y-137469598D01*
X136970780Y-137383991D01*
X137129434Y-137225614D01*
X137215402Y-137018579D01*
X137215598Y-136794405D01*
X137129991Y-136587220D01*
X137052502Y-136509595D01*
X147010402Y-136509595D01*
X147096009Y-136716780D01*
X147254386Y-136875434D01*
X147461421Y-136961402D01*
X147685595Y-136961598D01*
X147833634Y-136900430D01*
X147772598Y-137047421D01*
X147772402Y-137271595D01*
X147858009Y-137478780D01*
X148016386Y-137637434D01*
X148223421Y-137723402D01*
X148447595Y-137723598D01*
X148654780Y-137637991D01*
X148767372Y-137525595D01*
X155646402Y-137525595D01*
X155732009Y-137732780D01*
X155890386Y-137891434D01*
X156097421Y-137977402D01*
X156321595Y-137977598D01*
X156528780Y-137891991D01*
X156687434Y-137733614D01*
X156773402Y-137526579D01*
X156773598Y-137302405D01*
X156687991Y-137095220D01*
X156529614Y-136936566D01*
X156322579Y-136850598D01*
X156098405Y-136850402D01*
X155891220Y-136936009D01*
X155732566Y-137094386D01*
X155646598Y-137301421D01*
X155646402Y-137525595D01*
X148767372Y-137525595D01*
X148813434Y-137479614D01*
X148899402Y-137272579D01*
X148899598Y-137048405D01*
X148813991Y-136841220D01*
X148655614Y-136682566D01*
X148448579Y-136596598D01*
X148224405Y-136596402D01*
X148076366Y-136657570D01*
X148137402Y-136510579D01*
X148137598Y-136286405D01*
X148076430Y-136138366D01*
X148223421Y-136199402D01*
X148447595Y-136199598D01*
X148654780Y-136113991D01*
X148813434Y-135955614D01*
X148899402Y-135748579D01*
X148899598Y-135524405D01*
X148813991Y-135317220D01*
X148655614Y-135158566D01*
X148448579Y-135072598D01*
X148224405Y-135072402D01*
X148017220Y-135158009D01*
X147858566Y-135316386D01*
X147772598Y-135523421D01*
X147772402Y-135747595D01*
X147833570Y-135895634D01*
X147686579Y-135834598D01*
X147462405Y-135834402D01*
X147255220Y-135920009D01*
X147096566Y-136078386D01*
X147010598Y-136285421D01*
X147010402Y-136509595D01*
X137052502Y-136509595D01*
X136971614Y-136428566D01*
X136764579Y-136342598D01*
X136540405Y-136342402D01*
X136333220Y-136428009D01*
X136174566Y-136586386D01*
X136088598Y-136793421D01*
X136088402Y-137017595D01*
X129082860Y-137017595D01*
X129013772Y-136948387D01*
X128969775Y-136930118D01*
X129012494Y-136912467D01*
X129135675Y-136789500D01*
X131822116Y-136789500D01*
X131858470Y-136969500D01*
X132905500Y-136969500D01*
X132905500Y-136061348D01*
X133286500Y-136061348D01*
X133286500Y-136969500D01*
X134333530Y-136969500D01*
X134369884Y-136789500D01*
X134223838Y-136498397D01*
X133896403Y-136175474D01*
X133470315Y-136002437D01*
X133286500Y-136061348D01*
X132905500Y-136061348D01*
X132721685Y-136002437D01*
X132295597Y-136175474D01*
X131968162Y-136498397D01*
X131822116Y-136789500D01*
X129135675Y-136789500D01*
X129255613Y-136669772D01*
X129387350Y-136352514D01*
X129387650Y-136008993D01*
X129256467Y-135691506D01*
X129013772Y-135448387D01*
X128969775Y-135430118D01*
X129012494Y-135412467D01*
X129185668Y-135239595D01*
X144724402Y-135239595D01*
X144810009Y-135446780D01*
X144968386Y-135605434D01*
X145175421Y-135691402D01*
X145399595Y-135691598D01*
X145547634Y-135630430D01*
X145486598Y-135777421D01*
X145486402Y-136001595D01*
X145572009Y-136208780D01*
X145730386Y-136367434D01*
X145937421Y-136453402D01*
X146161595Y-136453598D01*
X146368780Y-136367991D01*
X146527434Y-136209614D01*
X146613402Y-136002579D01*
X146613598Y-135778405D01*
X146527991Y-135571220D01*
X146369614Y-135412566D01*
X146162579Y-135326598D01*
X145938405Y-135326402D01*
X145790366Y-135387570D01*
X145851402Y-135240579D01*
X145851598Y-135016405D01*
X145765991Y-134809220D01*
X145688502Y-134731595D01*
X150058402Y-134731595D01*
X150144009Y-134938780D01*
X150206090Y-135000969D01*
X150144566Y-135062386D01*
X150058598Y-135269421D01*
X150058402Y-135493595D01*
X150144009Y-135700780D01*
X150302386Y-135859434D01*
X150509421Y-135945402D01*
X150733595Y-135945598D01*
X150940780Y-135859991D01*
X151099434Y-135701614D01*
X151185402Y-135494579D01*
X151185598Y-135270405D01*
X151099991Y-135063220D01*
X151037910Y-135001031D01*
X151099434Y-134939614D01*
X151185402Y-134732579D01*
X151185598Y-134508405D01*
X151099991Y-134301220D01*
X150941614Y-134142566D01*
X150734579Y-134056598D01*
X150510405Y-134056402D01*
X150303220Y-134142009D01*
X150144566Y-134300386D01*
X150058598Y-134507421D01*
X150058402Y-134731595D01*
X145688502Y-134731595D01*
X145607614Y-134650566D01*
X145400579Y-134564598D01*
X145176405Y-134564402D01*
X144969220Y-134650009D01*
X144810566Y-134808386D01*
X144724598Y-135015421D01*
X144724402Y-135239595D01*
X129185668Y-135239595D01*
X129255613Y-135169772D01*
X129387350Y-134852514D01*
X129387455Y-134731595D01*
X136088402Y-134731595D01*
X136174009Y-134938780D01*
X136332386Y-135097434D01*
X136539421Y-135183402D01*
X136763595Y-135183598D01*
X136970780Y-135097991D01*
X137129434Y-134939614D01*
X137215402Y-134732579D01*
X137215598Y-134508405D01*
X137129991Y-134301220D01*
X136971614Y-134142566D01*
X136764579Y-134056598D01*
X136540405Y-134056402D01*
X136333220Y-134142009D01*
X136174566Y-134300386D01*
X136088598Y-134507421D01*
X136088402Y-134731595D01*
X129387455Y-134731595D01*
X129387650Y-134508993D01*
X129256467Y-134191506D01*
X129013772Y-133948387D01*
X128696514Y-133816650D01*
X128352993Y-133816350D01*
X128035506Y-133947533D01*
X127792387Y-134190228D01*
X127660650Y-134507486D01*
X127660350Y-134851007D01*
X126301500Y-134851007D01*
X126301500Y-132445595D01*
X136088402Y-132445595D01*
X136174009Y-132652780D01*
X136332386Y-132811434D01*
X136539421Y-132897402D01*
X136763595Y-132897598D01*
X136970780Y-132811991D01*
X137129434Y-132653614D01*
X137215402Y-132446579D01*
X137215598Y-132222405D01*
X137129991Y-132015220D01*
X136971614Y-131856566D01*
X136764579Y-131770598D01*
X136540405Y-131770402D01*
X136333220Y-131856009D01*
X136174566Y-132014386D01*
X136088598Y-132221421D01*
X136088402Y-132445595D01*
X126301500Y-132445595D01*
X126301500Y-131683595D01*
X143200402Y-131683595D01*
X143286009Y-131890780D01*
X143444386Y-132049434D01*
X143517923Y-132079969D01*
X143445220Y-132110009D01*
X143286566Y-132268386D01*
X143200598Y-132475421D01*
X143200402Y-132699595D01*
X143286009Y-132906780D01*
X143444386Y-133065434D01*
X143517923Y-133095969D01*
X143445220Y-133126009D01*
X143286566Y-133284386D01*
X143200598Y-133491421D01*
X143200402Y-133715595D01*
X143286009Y-133922780D01*
X143444386Y-134081434D01*
X143651421Y-134167402D01*
X143875595Y-134167598D01*
X144082780Y-134081991D01*
X144241434Y-133923614D01*
X144327402Y-133716579D01*
X144327598Y-133492405D01*
X144241991Y-133285220D01*
X144164502Y-133207595D01*
X155138402Y-133207595D01*
X155224009Y-133414780D01*
X155382386Y-133573434D01*
X155589421Y-133659402D01*
X155813595Y-133659598D01*
X156020780Y-133573991D01*
X156179434Y-133415614D01*
X156265402Y-133208579D01*
X156265598Y-132984405D01*
X156179991Y-132777220D01*
X156021614Y-132618566D01*
X155814579Y-132532598D01*
X155590405Y-132532402D01*
X155383220Y-132618009D01*
X155224566Y-132776386D01*
X155138598Y-132983421D01*
X155138402Y-133207595D01*
X144164502Y-133207595D01*
X144083614Y-133126566D01*
X144010077Y-133096031D01*
X144082780Y-133065991D01*
X144241434Y-132907614D01*
X144327402Y-132700579D01*
X144327598Y-132476405D01*
X144314868Y-132445595D01*
X152852402Y-132445595D01*
X152938009Y-132652780D01*
X153096386Y-132811434D01*
X153303421Y-132897402D01*
X153527595Y-132897598D01*
X153734780Y-132811991D01*
X153893434Y-132653614D01*
X153979402Y-132446579D01*
X153979402Y-132445595D01*
X159710402Y-132445595D01*
X159796009Y-132652780D01*
X159954386Y-132811434D01*
X160161421Y-132897402D01*
X160385595Y-132897598D01*
X160592780Y-132811991D01*
X160751434Y-132653614D01*
X160837402Y-132446579D01*
X160837598Y-132222405D01*
X160751991Y-132015220D01*
X160593614Y-131856566D01*
X160386579Y-131770598D01*
X160162405Y-131770402D01*
X159955220Y-131856009D01*
X159796566Y-132014386D01*
X159710598Y-132221421D01*
X159710402Y-132445595D01*
X153979402Y-132445595D01*
X153979598Y-132222405D01*
X153893991Y-132015220D01*
X153735614Y-131856566D01*
X153528579Y-131770598D01*
X153304405Y-131770402D01*
X153097220Y-131856009D01*
X152938566Y-132014386D01*
X152852598Y-132221421D01*
X152852402Y-132445595D01*
X144314868Y-132445595D01*
X144241991Y-132269220D01*
X144083614Y-132110566D01*
X144010077Y-132080031D01*
X144082780Y-132049991D01*
X144144969Y-131987910D01*
X144206386Y-132049434D01*
X144413421Y-132135402D01*
X144637595Y-132135598D01*
X144844780Y-132049991D01*
X144957372Y-131937595D01*
X145740402Y-131937595D01*
X145826009Y-132144780D01*
X145984386Y-132303434D01*
X146191421Y-132389402D01*
X146415595Y-132389598D01*
X146622780Y-132303991D01*
X146781434Y-132145614D01*
X146867402Y-131938579D01*
X146867598Y-131714405D01*
X146781991Y-131507220D01*
X146623614Y-131348566D01*
X146416579Y-131262598D01*
X146192405Y-131262402D01*
X145985220Y-131348009D01*
X145826566Y-131506386D01*
X145740598Y-131713421D01*
X145740402Y-131937595D01*
X144957372Y-131937595D01*
X145003434Y-131891614D01*
X145089402Y-131684579D01*
X145089598Y-131460405D01*
X145003991Y-131253220D01*
X144845614Y-131094566D01*
X144638579Y-131008598D01*
X144414405Y-131008402D01*
X144207220Y-131094009D01*
X144145031Y-131156090D01*
X144083614Y-131094566D01*
X143876579Y-131008598D01*
X143652405Y-131008402D01*
X143445220Y-131094009D01*
X143286566Y-131252386D01*
X143200598Y-131459421D01*
X143200402Y-131683595D01*
X126301500Y-131683595D01*
X126301500Y-130667595D01*
X137104402Y-130667595D01*
X137190009Y-130874780D01*
X137348386Y-131033434D01*
X137555421Y-131119402D01*
X137779595Y-131119598D01*
X137986780Y-131033991D01*
X138145434Y-130875614D01*
X138231402Y-130668579D01*
X138231598Y-130444405D01*
X138145991Y-130237220D01*
X138068502Y-130159595D01*
X148026402Y-130159595D01*
X148112009Y-130366780D01*
X148270386Y-130525434D01*
X148477421Y-130611402D01*
X148701595Y-130611598D01*
X148908780Y-130525991D01*
X149021372Y-130413595D01*
X154884402Y-130413595D01*
X154970009Y-130620780D01*
X155128386Y-130779434D01*
X155335421Y-130865402D01*
X155559595Y-130865598D01*
X155766780Y-130779991D01*
X155925434Y-130621614D01*
X156011402Y-130414579D01*
X156011598Y-130190405D01*
X155925991Y-129983220D01*
X155767614Y-129824566D01*
X155560579Y-129738598D01*
X155336405Y-129738402D01*
X155129220Y-129824009D01*
X154970566Y-129982386D01*
X154884598Y-130189421D01*
X154884402Y-130413595D01*
X149021372Y-130413595D01*
X149067434Y-130367614D01*
X149153402Y-130160579D01*
X149153598Y-129936405D01*
X149067991Y-129729220D01*
X148990502Y-129651595D01*
X158694402Y-129651595D01*
X158780009Y-129858780D01*
X158938386Y-130017434D01*
X159145421Y-130103402D01*
X159369595Y-130103598D01*
X159576780Y-130017991D01*
X159735434Y-129859614D01*
X159821402Y-129652579D01*
X159821598Y-129428405D01*
X159735991Y-129221220D01*
X159577614Y-129062566D01*
X159370579Y-128976598D01*
X159146405Y-128976402D01*
X158939220Y-129062009D01*
X158780566Y-129220386D01*
X158694598Y-129427421D01*
X158694402Y-129651595D01*
X148990502Y-129651595D01*
X148909614Y-129570566D01*
X148702579Y-129484598D01*
X148478405Y-129484402D01*
X148271220Y-129570009D01*
X148112566Y-129728386D01*
X148026598Y-129935421D01*
X148026402Y-130159595D01*
X138068502Y-130159595D01*
X137987614Y-130078566D01*
X137780579Y-129992598D01*
X137556405Y-129992402D01*
X137349220Y-130078009D01*
X137190566Y-130236386D01*
X137104598Y-130443421D01*
X137104402Y-130667595D01*
X126301500Y-130667595D01*
X126301500Y-129397595D01*
X139390402Y-129397595D01*
X139476009Y-129604780D01*
X139634386Y-129763434D01*
X139841421Y-129849402D01*
X140065595Y-129849598D01*
X140272780Y-129763991D01*
X140431434Y-129605614D01*
X140517402Y-129398579D01*
X140517402Y-129397595D01*
X140660402Y-129397595D01*
X140746009Y-129604780D01*
X140904386Y-129763434D01*
X141111421Y-129849402D01*
X141335595Y-129849598D01*
X141542780Y-129763991D01*
X141655372Y-129651595D01*
X143454402Y-129651595D01*
X143540009Y-129858780D01*
X143698386Y-130017434D01*
X143905421Y-130103402D01*
X144129595Y-130103598D01*
X144336780Y-130017991D01*
X144495434Y-129859614D01*
X144581402Y-129652579D01*
X144581598Y-129428405D01*
X144495991Y-129221220D01*
X144337614Y-129062566D01*
X144130579Y-128976598D01*
X143906405Y-128976402D01*
X143699220Y-129062009D01*
X143540566Y-129220386D01*
X143454598Y-129427421D01*
X143454402Y-129651595D01*
X141655372Y-129651595D01*
X141701434Y-129605614D01*
X141787402Y-129398579D01*
X141787598Y-129174405D01*
X141701991Y-128967220D01*
X141543614Y-128808566D01*
X141336579Y-128722598D01*
X141112405Y-128722402D01*
X140905220Y-128808009D01*
X140746566Y-128966386D01*
X140660598Y-129173421D01*
X140660402Y-129397595D01*
X140517402Y-129397595D01*
X140517598Y-129174405D01*
X140431991Y-128967220D01*
X140273614Y-128808566D01*
X140066579Y-128722598D01*
X139842405Y-128722402D01*
X139635220Y-128808009D01*
X139476566Y-128966386D01*
X139390598Y-129173421D01*
X139390402Y-129397595D01*
X126301500Y-129397595D01*
X126301500Y-128381595D01*
X141676402Y-128381595D01*
X141762009Y-128588780D01*
X141920386Y-128747434D01*
X142127421Y-128833402D01*
X142351595Y-128833598D01*
X142558780Y-128747991D01*
X142671372Y-128635595D01*
X152852402Y-128635595D01*
X152938009Y-128842780D01*
X153096386Y-129001434D01*
X153303421Y-129087402D01*
X153527595Y-129087598D01*
X153734780Y-129001991D01*
X153893434Y-128843614D01*
X153979402Y-128636579D01*
X153979598Y-128412405D01*
X153893991Y-128205220D01*
X153735614Y-128046566D01*
X153528579Y-127960598D01*
X153304405Y-127960402D01*
X153097220Y-128046009D01*
X152938566Y-128204386D01*
X152852598Y-128411421D01*
X152852402Y-128635595D01*
X142671372Y-128635595D01*
X142717434Y-128589614D01*
X142803402Y-128382579D01*
X142803598Y-128158405D01*
X142717991Y-127951220D01*
X142559614Y-127792566D01*
X142352579Y-127706598D01*
X142128405Y-127706402D01*
X141921220Y-127792009D01*
X141762566Y-127950386D01*
X141676598Y-128157421D01*
X141676402Y-128381595D01*
X126301500Y-128381595D01*
X126301500Y-126603595D01*
X132786402Y-126603595D01*
X132872009Y-126810780D01*
X133030386Y-126969434D01*
X133237421Y-127055402D01*
X133461595Y-127055598D01*
X133668780Y-126969991D01*
X133827434Y-126811614D01*
X133857969Y-126738077D01*
X133888009Y-126810780D01*
X134046386Y-126969434D01*
X134253421Y-127055402D01*
X134477595Y-127055598D01*
X134684780Y-126969991D01*
X134843434Y-126811614D01*
X134873969Y-126738077D01*
X134904009Y-126810780D01*
X135062386Y-126969434D01*
X135269421Y-127055402D01*
X135493595Y-127055598D01*
X135700780Y-126969991D01*
X135859434Y-126811614D01*
X135945402Y-126604579D01*
X135945402Y-126603595D01*
X154884402Y-126603595D01*
X154970009Y-126810780D01*
X155032090Y-126872969D01*
X154970566Y-126934386D01*
X154884598Y-127141421D01*
X154884402Y-127365595D01*
X154970009Y-127572780D01*
X155032090Y-127634969D01*
X154970566Y-127696386D01*
X154884598Y-127903421D01*
X154884402Y-128127595D01*
X154970009Y-128334780D01*
X155032090Y-128396969D01*
X154970566Y-128458386D01*
X154884598Y-128665421D01*
X154884402Y-128889595D01*
X154970009Y-129096780D01*
X155128386Y-129255434D01*
X155335421Y-129341402D01*
X155559595Y-129341598D01*
X155766780Y-129255991D01*
X155925434Y-129097614D01*
X156011402Y-128890579D01*
X156011598Y-128666405D01*
X155925991Y-128459220D01*
X155863910Y-128397031D01*
X155925434Y-128335614D01*
X156011402Y-128128579D01*
X156011598Y-127904405D01*
X155925991Y-127697220D01*
X155863910Y-127635031D01*
X155925434Y-127573614D01*
X156011402Y-127366579D01*
X156011598Y-127142405D01*
X155925991Y-126935220D01*
X155863910Y-126873031D01*
X155925434Y-126811614D01*
X156011402Y-126604579D01*
X156011598Y-126380405D01*
X155998868Y-126349595D01*
X160472402Y-126349595D01*
X160558009Y-126556780D01*
X160716386Y-126715434D01*
X160923421Y-126801402D01*
X161147595Y-126801598D01*
X161354780Y-126715991D01*
X161513434Y-126557614D01*
X161599402Y-126350579D01*
X161599598Y-126126405D01*
X161513991Y-125919220D01*
X161355614Y-125760566D01*
X161148579Y-125674598D01*
X160924405Y-125674402D01*
X160717220Y-125760009D01*
X160558566Y-125918386D01*
X160472598Y-126125421D01*
X160472402Y-126349595D01*
X155998868Y-126349595D01*
X155925991Y-126173220D01*
X155767614Y-126014566D01*
X155560579Y-125928598D01*
X155336405Y-125928402D01*
X155129220Y-126014009D01*
X154970566Y-126172386D01*
X154884598Y-126379421D01*
X154884402Y-126603595D01*
X135945402Y-126603595D01*
X135945598Y-126380405D01*
X135859991Y-126173220D01*
X135701614Y-126014566D01*
X135494579Y-125928598D01*
X135270405Y-125928402D01*
X135063220Y-126014009D01*
X134904566Y-126172386D01*
X134874031Y-126245923D01*
X134843991Y-126173220D01*
X134685614Y-126014566D01*
X134478579Y-125928598D01*
X134254405Y-125928402D01*
X134047220Y-126014009D01*
X133888566Y-126172386D01*
X133858031Y-126245923D01*
X133827991Y-126173220D01*
X133669614Y-126014566D01*
X133462579Y-125928598D01*
X133238405Y-125928402D01*
X133031220Y-126014009D01*
X132872566Y-126172386D01*
X132786598Y-126379421D01*
X132786402Y-126603595D01*
X126301500Y-126603595D01*
X126301500Y-124317595D01*
X141168402Y-124317595D01*
X141254009Y-124524780D01*
X141412386Y-124683434D01*
X141485923Y-124713969D01*
X141413220Y-124744009D01*
X141254566Y-124902386D01*
X141168598Y-125109421D01*
X141168402Y-125333595D01*
X141254009Y-125540780D01*
X141412386Y-125699434D01*
X141619421Y-125785402D01*
X141843595Y-125785598D01*
X142050780Y-125699991D01*
X142209434Y-125541614D01*
X142239969Y-125468077D01*
X142270009Y-125540780D01*
X142428386Y-125699434D01*
X142635421Y-125785402D01*
X142859595Y-125785598D01*
X143066780Y-125699991D01*
X143225434Y-125541614D01*
X143255969Y-125468077D01*
X143286009Y-125540780D01*
X143444386Y-125699434D01*
X143651421Y-125785402D01*
X143875595Y-125785598D01*
X144082780Y-125699991D01*
X144241434Y-125541614D01*
X144271969Y-125468077D01*
X144302009Y-125540780D01*
X144460386Y-125699434D01*
X144667421Y-125785402D01*
X144891595Y-125785598D01*
X145098780Y-125699991D01*
X145257434Y-125541614D01*
X145343402Y-125334579D01*
X145343598Y-125110405D01*
X145257991Y-124903220D01*
X145099614Y-124744566D01*
X145026077Y-124714031D01*
X145098780Y-124683991D01*
X145211372Y-124571595D01*
X159710402Y-124571595D01*
X159796009Y-124778780D01*
X159954386Y-124937434D01*
X160161421Y-125023402D01*
X160385595Y-125023598D01*
X160592780Y-124937991D01*
X160751434Y-124779614D01*
X160837402Y-124572579D01*
X160837598Y-124348405D01*
X160751991Y-124141220D01*
X160593614Y-123982566D01*
X160386579Y-123896598D01*
X160162405Y-123896402D01*
X159955220Y-123982009D01*
X159796566Y-124140386D01*
X159710598Y-124347421D01*
X159710402Y-124571595D01*
X145211372Y-124571595D01*
X145257434Y-124525614D01*
X145343402Y-124318579D01*
X145343598Y-124094405D01*
X145257991Y-123887220D01*
X145099614Y-123728566D01*
X144892579Y-123642598D01*
X144668405Y-123642402D01*
X144461220Y-123728009D01*
X144302566Y-123886386D01*
X144272031Y-123959923D01*
X144241991Y-123887220D01*
X144083614Y-123728566D01*
X143876579Y-123642598D01*
X143652405Y-123642402D01*
X143445220Y-123728009D01*
X143286566Y-123886386D01*
X143256031Y-123959923D01*
X143225991Y-123887220D01*
X143067614Y-123728566D01*
X142860579Y-123642598D01*
X142636405Y-123642402D01*
X142429220Y-123728009D01*
X142270566Y-123886386D01*
X142240031Y-123959923D01*
X142209991Y-123887220D01*
X142051614Y-123728566D01*
X141844579Y-123642598D01*
X141620405Y-123642402D01*
X141413220Y-123728009D01*
X141254566Y-123886386D01*
X141168598Y-124093421D01*
X141168402Y-124317595D01*
X126301500Y-124317595D01*
X126301500Y-121015595D01*
X126944402Y-121015595D01*
X127030009Y-121222780D01*
X127188386Y-121381434D01*
X127261923Y-121411969D01*
X127189220Y-121442009D01*
X127030566Y-121600386D01*
X126944598Y-121807421D01*
X126944402Y-122031595D01*
X127030009Y-122238780D01*
X127188386Y-122397434D01*
X127261923Y-122427969D01*
X127189220Y-122458009D01*
X127030566Y-122616386D01*
X126944598Y-122823421D01*
X126944402Y-123047595D01*
X127030009Y-123254780D01*
X127188386Y-123413434D01*
X127395421Y-123499402D01*
X127619595Y-123499598D01*
X127826780Y-123413991D01*
X127985434Y-123255614D01*
X128015969Y-123182077D01*
X128046009Y-123254780D01*
X128204386Y-123413434D01*
X128411421Y-123499402D01*
X128635595Y-123499598D01*
X128842780Y-123413991D01*
X129001434Y-123255614D01*
X129031969Y-123182077D01*
X129062009Y-123254780D01*
X129220386Y-123413434D01*
X129427421Y-123499402D01*
X129651595Y-123499598D01*
X129858780Y-123413991D01*
X130017434Y-123255614D01*
X130047969Y-123182077D01*
X130078009Y-123254780D01*
X130236386Y-123413434D01*
X130443421Y-123499402D01*
X130667595Y-123499598D01*
X130874780Y-123413991D01*
X131033434Y-123255614D01*
X131063969Y-123182077D01*
X131094009Y-123254780D01*
X131252386Y-123413434D01*
X131459421Y-123499402D01*
X131683595Y-123499598D01*
X131890780Y-123413991D01*
X132049434Y-123255614D01*
X132079969Y-123182077D01*
X132110009Y-123254780D01*
X132268386Y-123413434D01*
X132475421Y-123499402D01*
X132699595Y-123499598D01*
X132906780Y-123413991D01*
X133065434Y-123255614D01*
X133095969Y-123182077D01*
X133126009Y-123254780D01*
X133284386Y-123413434D01*
X133491421Y-123499402D01*
X133715595Y-123499598D01*
X133922780Y-123413991D01*
X134081434Y-123255614D01*
X134167402Y-123048579D01*
X134167598Y-122824405D01*
X134081991Y-122617220D01*
X134004502Y-122539595D01*
X159710402Y-122539595D01*
X159796009Y-122746780D01*
X159954386Y-122905434D01*
X160161421Y-122991402D01*
X160385595Y-122991598D01*
X160592780Y-122905991D01*
X160751434Y-122747614D01*
X160837402Y-122540579D01*
X160837598Y-122316405D01*
X160751991Y-122109220D01*
X160593614Y-121950566D01*
X160386579Y-121864598D01*
X160162405Y-121864402D01*
X159955220Y-121950009D01*
X159796566Y-122108386D01*
X159710598Y-122315421D01*
X159710402Y-122539595D01*
X134004502Y-122539595D01*
X133923614Y-122458566D01*
X133850077Y-122428031D01*
X133922780Y-122397991D01*
X134081434Y-122239614D01*
X134167402Y-122032579D01*
X134167598Y-121808405D01*
X134154868Y-121777595D01*
X148026402Y-121777595D01*
X148112009Y-121984780D01*
X148270386Y-122143434D01*
X148477421Y-122229402D01*
X148701595Y-122229598D01*
X148908780Y-122143991D01*
X149067434Y-121985614D01*
X149153402Y-121778579D01*
X149153598Y-121554405D01*
X149067991Y-121347220D01*
X148909614Y-121188566D01*
X148702579Y-121102598D01*
X148478405Y-121102402D01*
X148271220Y-121188009D01*
X148112566Y-121346386D01*
X148026598Y-121553421D01*
X148026402Y-121777595D01*
X134154868Y-121777595D01*
X134081991Y-121601220D01*
X133923614Y-121442566D01*
X133850077Y-121412031D01*
X133922780Y-121381991D01*
X134081434Y-121223614D01*
X134167402Y-121016579D01*
X134167402Y-121015595D01*
X134818402Y-121015595D01*
X134904009Y-121222780D01*
X135062386Y-121381434D01*
X135269421Y-121467402D01*
X135493595Y-121467598D01*
X135700780Y-121381991D01*
X135859434Y-121223614D01*
X135945402Y-121016579D01*
X135945402Y-121015595D01*
X139898402Y-121015595D01*
X139984009Y-121222780D01*
X140142386Y-121381434D01*
X140349421Y-121467402D01*
X140573595Y-121467598D01*
X140780780Y-121381991D01*
X140939434Y-121223614D01*
X141025402Y-121016579D01*
X141025598Y-120792405D01*
X140939991Y-120585220D01*
X140781614Y-120426566D01*
X140574579Y-120340598D01*
X140350405Y-120340402D01*
X140143220Y-120426009D01*
X139984566Y-120584386D01*
X139898598Y-120791421D01*
X139898402Y-121015595D01*
X135945402Y-121015595D01*
X135945598Y-120792405D01*
X135859991Y-120585220D01*
X135701614Y-120426566D01*
X135494579Y-120340598D01*
X135270405Y-120340402D01*
X135063220Y-120426009D01*
X134904566Y-120584386D01*
X134818598Y-120791421D01*
X134818402Y-121015595D01*
X134167402Y-121015595D01*
X134167598Y-120792405D01*
X134081991Y-120585220D01*
X133923614Y-120426566D01*
X133716579Y-120340598D01*
X133492405Y-120340402D01*
X133285220Y-120426009D01*
X133126566Y-120584386D01*
X133096031Y-120657923D01*
X133065991Y-120585220D01*
X132907614Y-120426566D01*
X132700579Y-120340598D01*
X132476405Y-120340402D01*
X132269220Y-120426009D01*
X132110566Y-120584386D01*
X132080031Y-120657923D01*
X132049991Y-120585220D01*
X131891614Y-120426566D01*
X131684579Y-120340598D01*
X131460405Y-120340402D01*
X131253220Y-120426009D01*
X131094566Y-120584386D01*
X131064031Y-120657923D01*
X131033991Y-120585220D01*
X130875614Y-120426566D01*
X130668579Y-120340598D01*
X130444405Y-120340402D01*
X130237220Y-120426009D01*
X130078566Y-120584386D01*
X130048031Y-120657923D01*
X130017991Y-120585220D01*
X129859614Y-120426566D01*
X129652579Y-120340598D01*
X129428405Y-120340402D01*
X129221220Y-120426009D01*
X129062566Y-120584386D01*
X129032031Y-120657923D01*
X129001991Y-120585220D01*
X128843614Y-120426566D01*
X128636579Y-120340598D01*
X128412405Y-120340402D01*
X128205220Y-120426009D01*
X128046566Y-120584386D01*
X128016031Y-120657923D01*
X127985991Y-120585220D01*
X127827614Y-120426566D01*
X127620579Y-120340598D01*
X127396405Y-120340402D01*
X127189220Y-120426009D01*
X127030566Y-120584386D01*
X126944598Y-120791421D01*
X126944402Y-121015595D01*
X126301500Y-121015595D01*
X126301500Y-119999595D01*
X147010402Y-119999595D01*
X147096009Y-120206780D01*
X147254386Y-120365434D01*
X147461421Y-120451402D01*
X147685595Y-120451598D01*
X147892780Y-120365991D01*
X148005372Y-120253595D01*
X150820402Y-120253595D01*
X150906009Y-120460780D01*
X151064386Y-120619434D01*
X151271421Y-120705402D01*
X151495595Y-120705598D01*
X151702780Y-120619991D01*
X151861434Y-120461614D01*
X151947402Y-120254579D01*
X151947598Y-120030405D01*
X151934868Y-119999595D01*
X157170402Y-119999595D01*
X157256009Y-120206780D01*
X157414386Y-120365434D01*
X157621421Y-120451402D01*
X157845595Y-120451598D01*
X158052780Y-120365991D01*
X158211434Y-120207614D01*
X158297402Y-120000579D01*
X158297598Y-119776405D01*
X158211991Y-119569220D01*
X158053614Y-119410566D01*
X157846579Y-119324598D01*
X157622405Y-119324402D01*
X157415220Y-119410009D01*
X157256566Y-119568386D01*
X157170598Y-119775421D01*
X157170402Y-119999595D01*
X151934868Y-119999595D01*
X151861991Y-119823220D01*
X151703614Y-119664566D01*
X151496579Y-119578598D01*
X151272405Y-119578402D01*
X151065220Y-119664009D01*
X150906566Y-119822386D01*
X150820598Y-120029421D01*
X150820402Y-120253595D01*
X148005372Y-120253595D01*
X148051434Y-120207614D01*
X148137402Y-120000579D01*
X148137598Y-119776405D01*
X148051991Y-119569220D01*
X147893614Y-119410566D01*
X147686579Y-119324598D01*
X147462405Y-119324402D01*
X147255220Y-119410009D01*
X147096566Y-119568386D01*
X147010598Y-119775421D01*
X147010402Y-119999595D01*
X126301500Y-119999595D01*
X126301500Y-115681595D01*
X134818402Y-115681595D01*
X134904009Y-115888780D01*
X135062386Y-116047434D01*
X135269421Y-116133402D01*
X135493595Y-116133598D01*
X135700780Y-116047991D01*
X135859434Y-115889614D01*
X135945402Y-115682579D01*
X135945598Y-115458405D01*
X135932868Y-115427595D01*
X140660402Y-115427595D01*
X140746009Y-115634780D01*
X140904386Y-115793434D01*
X141111421Y-115879402D01*
X141335595Y-115879598D01*
X141542780Y-115793991D01*
X141701434Y-115635614D01*
X141787402Y-115428579D01*
X141787598Y-115204405D01*
X141774868Y-115173595D01*
X142692402Y-115173595D01*
X142778009Y-115380780D01*
X142936386Y-115539434D01*
X143009923Y-115569969D01*
X142937220Y-115600009D01*
X142778566Y-115758386D01*
X142692598Y-115965421D01*
X142692402Y-116189595D01*
X142778009Y-116396780D01*
X142936386Y-116555434D01*
X143009923Y-116585969D01*
X142937220Y-116616009D01*
X142778566Y-116774386D01*
X142692598Y-116981421D01*
X142692402Y-117205595D01*
X142778009Y-117412780D01*
X142936386Y-117571434D01*
X143143421Y-117657402D01*
X143367595Y-117657598D01*
X143574780Y-117571991D01*
X143733434Y-117413614D01*
X143763969Y-117340077D01*
X143794009Y-117412780D01*
X143952386Y-117571434D01*
X144159421Y-117657402D01*
X144383595Y-117657598D01*
X144590780Y-117571991D01*
X144749434Y-117413614D01*
X144779969Y-117340077D01*
X144810009Y-117412780D01*
X144968386Y-117571434D01*
X145175421Y-117657402D01*
X145399595Y-117657598D01*
X145606780Y-117571991D01*
X145765434Y-117413614D01*
X145795969Y-117340077D01*
X145826009Y-117412780D01*
X145984386Y-117571434D01*
X146191421Y-117657402D01*
X146415595Y-117657598D01*
X146622780Y-117571991D01*
X146781434Y-117413614D01*
X146811969Y-117340077D01*
X146842009Y-117412780D01*
X147000386Y-117571434D01*
X147207421Y-117657402D01*
X147431595Y-117657598D01*
X147638780Y-117571991D01*
X147797434Y-117413614D01*
X147827969Y-117340077D01*
X147858009Y-117412780D01*
X148016386Y-117571434D01*
X148223421Y-117657402D01*
X148447595Y-117657598D01*
X148654780Y-117571991D01*
X148813434Y-117413614D01*
X148843969Y-117340077D01*
X148874009Y-117412780D01*
X149032386Y-117571434D01*
X149239421Y-117657402D01*
X149463595Y-117657598D01*
X149670780Y-117571991D01*
X149829434Y-117413614D01*
X149915402Y-117206579D01*
X149915598Y-116982405D01*
X149829991Y-116775220D01*
X149671614Y-116616566D01*
X149598077Y-116586031D01*
X149670780Y-116555991D01*
X149829434Y-116397614D01*
X149915402Y-116190579D01*
X149915402Y-116189595D01*
X155646402Y-116189595D01*
X155732009Y-116396780D01*
X155890386Y-116555434D01*
X156097421Y-116641402D01*
X156321595Y-116641598D01*
X156528780Y-116555991D01*
X156687434Y-116397614D01*
X156773402Y-116190579D01*
X156773402Y-116189595D01*
X157932402Y-116189595D01*
X158018009Y-116396780D01*
X158176386Y-116555434D01*
X158383421Y-116641402D01*
X158607595Y-116641598D01*
X158755634Y-116580430D01*
X158694598Y-116727421D01*
X158694402Y-116951595D01*
X158780009Y-117158780D01*
X158938386Y-117317434D01*
X159145421Y-117403402D01*
X159369595Y-117403598D01*
X159576780Y-117317991D01*
X159735434Y-117159614D01*
X159821402Y-116952579D01*
X159821598Y-116728405D01*
X159735991Y-116521220D01*
X159577614Y-116362566D01*
X159370579Y-116276598D01*
X159146405Y-116276402D01*
X158998366Y-116337570D01*
X159059402Y-116190579D01*
X159059598Y-115966405D01*
X158973991Y-115759220D01*
X158815614Y-115600566D01*
X158608579Y-115514598D01*
X158384405Y-115514402D01*
X158177220Y-115600009D01*
X158018566Y-115758386D01*
X157932598Y-115965421D01*
X157932402Y-116189595D01*
X156773402Y-116189595D01*
X156773598Y-115966405D01*
X156687991Y-115759220D01*
X156529614Y-115600566D01*
X156322579Y-115514598D01*
X156098405Y-115514402D01*
X155891220Y-115600009D01*
X155732566Y-115758386D01*
X155646598Y-115965421D01*
X155646402Y-116189595D01*
X149915402Y-116189595D01*
X149915598Y-115966405D01*
X149829991Y-115759220D01*
X149671614Y-115600566D01*
X149598077Y-115570031D01*
X149670780Y-115539991D01*
X149783372Y-115427595D01*
X150820402Y-115427595D01*
X150906009Y-115634780D01*
X151064386Y-115793434D01*
X151271421Y-115879402D01*
X151495595Y-115879598D01*
X151702780Y-115793991D01*
X151861434Y-115635614D01*
X151947402Y-115428579D01*
X151947598Y-115204405D01*
X151861991Y-114997220D01*
X151703614Y-114838566D01*
X151496579Y-114752598D01*
X151272405Y-114752402D01*
X151065220Y-114838009D01*
X150906566Y-114996386D01*
X150820598Y-115203421D01*
X150820402Y-115427595D01*
X149783372Y-115427595D01*
X149829434Y-115381614D01*
X149915402Y-115174579D01*
X149915598Y-114950405D01*
X149829991Y-114743220D01*
X149671614Y-114584566D01*
X149464579Y-114498598D01*
X149240405Y-114498402D01*
X149033220Y-114584009D01*
X148874566Y-114742386D01*
X148844031Y-114815923D01*
X148813991Y-114743220D01*
X148655614Y-114584566D01*
X148448579Y-114498598D01*
X148224405Y-114498402D01*
X148017220Y-114584009D01*
X147858566Y-114742386D01*
X147828031Y-114815923D01*
X147797991Y-114743220D01*
X147639614Y-114584566D01*
X147432579Y-114498598D01*
X147208405Y-114498402D01*
X147001220Y-114584009D01*
X146842566Y-114742386D01*
X146812031Y-114815923D01*
X146781991Y-114743220D01*
X146623614Y-114584566D01*
X146416579Y-114498598D01*
X146192405Y-114498402D01*
X145985220Y-114584009D01*
X145826566Y-114742386D01*
X145796031Y-114815923D01*
X145765991Y-114743220D01*
X145607614Y-114584566D01*
X145400579Y-114498598D01*
X145176405Y-114498402D01*
X144969220Y-114584009D01*
X144810566Y-114742386D01*
X144780031Y-114815923D01*
X144749991Y-114743220D01*
X144591614Y-114584566D01*
X144384579Y-114498598D01*
X144160405Y-114498402D01*
X143953220Y-114584009D01*
X143794566Y-114742386D01*
X143764031Y-114815923D01*
X143733991Y-114743220D01*
X143575614Y-114584566D01*
X143368579Y-114498598D01*
X143144405Y-114498402D01*
X142937220Y-114584009D01*
X142778566Y-114742386D01*
X142692598Y-114949421D01*
X142692402Y-115173595D01*
X141774868Y-115173595D01*
X141701991Y-114997220D01*
X141543614Y-114838566D01*
X141336579Y-114752598D01*
X141112405Y-114752402D01*
X140905220Y-114838009D01*
X140746566Y-114996386D01*
X140660598Y-115203421D01*
X140660402Y-115427595D01*
X135932868Y-115427595D01*
X135859991Y-115251220D01*
X135701614Y-115092566D01*
X135494579Y-115006598D01*
X135270405Y-115006402D01*
X135063220Y-115092009D01*
X134904566Y-115250386D01*
X134818598Y-115457421D01*
X134818402Y-115681595D01*
X126301500Y-115681595D01*
X126301500Y-114411595D01*
X160218402Y-114411595D01*
X160304009Y-114618780D01*
X160462386Y-114777434D01*
X160669421Y-114863402D01*
X160893595Y-114863598D01*
X161100780Y-114777991D01*
X161259434Y-114619614D01*
X161345402Y-114412579D01*
X161345598Y-114188405D01*
X161259991Y-113981220D01*
X161101614Y-113822566D01*
X160894579Y-113736598D01*
X160670405Y-113736402D01*
X160463220Y-113822009D01*
X160304566Y-113980386D01*
X160218598Y-114187421D01*
X160218402Y-114411595D01*
X126301500Y-114411595D01*
X126301500Y-113141595D01*
X140660402Y-113141595D01*
X140746009Y-113348780D01*
X140904386Y-113507434D01*
X141111421Y-113593402D01*
X141335595Y-113593598D01*
X141542780Y-113507991D01*
X141701434Y-113349614D01*
X141787402Y-113142579D01*
X141787598Y-112918405D01*
X141701991Y-112711220D01*
X141543614Y-112552566D01*
X141336579Y-112466598D01*
X141112405Y-112466402D01*
X140905220Y-112552009D01*
X140746566Y-112710386D01*
X140660598Y-112917421D01*
X140660402Y-113141595D01*
X126301500Y-113141595D01*
X126301500Y-111113047D01*
X127422177Y-111113047D01*
X127705281Y-111798209D01*
X128229034Y-112322877D01*
X128913701Y-112607176D01*
X129655047Y-112607823D01*
X130340209Y-112324719D01*
X130864877Y-111800966D01*
X131149176Y-111116299D01*
X131149823Y-110374953D01*
X130866719Y-109689791D01*
X130762705Y-109585595D01*
X136596402Y-109585595D01*
X136682009Y-109792780D01*
X136760076Y-109870983D01*
X136698566Y-109932386D01*
X136612598Y-110139421D01*
X136612402Y-110363595D01*
X136698009Y-110570780D01*
X136752090Y-110624956D01*
X136698566Y-110678386D01*
X136612598Y-110885421D01*
X136612402Y-111109595D01*
X136698009Y-111316780D01*
X136856386Y-111475434D01*
X137063421Y-111561402D01*
X137287595Y-111561598D01*
X137494780Y-111475991D01*
X137548956Y-111421910D01*
X137602386Y-111475434D01*
X137809421Y-111561402D01*
X138033595Y-111561598D01*
X138240780Y-111475991D01*
X138399434Y-111317614D01*
X138485402Y-111110579D01*
X138485598Y-110886405D01*
X138399991Y-110679220D01*
X138337910Y-110617031D01*
X138399434Y-110555614D01*
X138485402Y-110348579D01*
X138485598Y-110124405D01*
X138399991Y-109917220D01*
X138337910Y-109855031D01*
X138399434Y-109793614D01*
X138485402Y-109586579D01*
X138485402Y-109585595D01*
X153106402Y-109585595D01*
X153192009Y-109792780D01*
X153266069Y-109866969D01*
X153216566Y-109916386D01*
X153130598Y-110123421D01*
X153130402Y-110347595D01*
X153216009Y-110554780D01*
X153266111Y-110604970D01*
X153192566Y-110678386D01*
X153106598Y-110885421D01*
X153106402Y-111109595D01*
X153192009Y-111316780D01*
X153350386Y-111475434D01*
X153557421Y-111561402D01*
X153781595Y-111561598D01*
X153988780Y-111475991D01*
X154050969Y-111413910D01*
X154112386Y-111475434D01*
X154319421Y-111561402D01*
X154543595Y-111561598D01*
X154750780Y-111475991D01*
X154909434Y-111317614D01*
X154995402Y-111110579D01*
X154995598Y-110886405D01*
X154909991Y-110679220D01*
X154847910Y-110617031D01*
X154909434Y-110555614D01*
X154995402Y-110348579D01*
X154995598Y-110124405D01*
X154909991Y-109917220D01*
X154847910Y-109855031D01*
X154909434Y-109793614D01*
X154995402Y-109586579D01*
X154995598Y-109362405D01*
X154909991Y-109155220D01*
X154751614Y-108996566D01*
X154544579Y-108910598D01*
X154320405Y-108910402D01*
X154113220Y-108996009D01*
X154051031Y-109058090D01*
X153989614Y-108996566D01*
X153782579Y-108910598D01*
X153558405Y-108910402D01*
X153351220Y-108996009D01*
X153192566Y-109154386D01*
X153106598Y-109361421D01*
X153106402Y-109585595D01*
X138485402Y-109585595D01*
X138485598Y-109362405D01*
X138399991Y-109155220D01*
X138241614Y-108996566D01*
X138034579Y-108910598D01*
X137810405Y-108910402D01*
X137603220Y-108996009D01*
X137541031Y-109058090D01*
X137479614Y-108996566D01*
X137272579Y-108910598D01*
X137048405Y-108910402D01*
X136841220Y-108996009D01*
X136682566Y-109154386D01*
X136596598Y-109361421D01*
X136596402Y-109585595D01*
X130762705Y-109585595D01*
X130342966Y-109165123D01*
X129658299Y-108880824D01*
X128916953Y-108880177D01*
X128231791Y-109163281D01*
X127707123Y-109687034D01*
X127422824Y-110371701D01*
X127422177Y-111113047D01*
X126301500Y-111113047D01*
X126301500Y-109605970D01*
X126319545Y-109515252D01*
X127015574Y-108473571D01*
X128057253Y-107777544D01*
X128147967Y-107759500D01*
X170624500Y-107759500D01*
X170624500Y-113284000D01*
X170624500Y-113284000D01*
G37*
X170624500Y-113284000D02*
X170629503Y-113308705D01*
X170643723Y-113329517D01*
X170664920Y-113343157D01*
X170688000Y-113347500D01*
X186118500Y-113347500D01*
X186118500Y-113693670D01*
X185993614Y-113568566D01*
X185786579Y-113482598D01*
X185562405Y-113482402D01*
X185355220Y-113568009D01*
X185240529Y-113682500D01*
X185017017Y-113682500D01*
X184796481Y-113461965D01*
X184678554Y-113383168D01*
X184539448Y-113355498D01*
X170806552Y-113355498D01*
X170667447Y-113383168D01*
X170549519Y-113461964D01*
X170103965Y-113907519D01*
X170025168Y-114025446D01*
X170025168Y-114025447D01*
X169997498Y-114164552D01*
X169997498Y-114730436D01*
X169975391Y-114752543D01*
X169814405Y-114752402D01*
X169607220Y-114838009D01*
X169448566Y-114996386D01*
X169362598Y-115203421D01*
X169362402Y-115427595D01*
X169448009Y-115634780D01*
X169606386Y-115793434D01*
X169679923Y-115823969D01*
X169607220Y-115854009D01*
X169448566Y-116012386D01*
X169362598Y-116219421D01*
X169362402Y-116443595D01*
X169448009Y-116650780D01*
X169606386Y-116809434D01*
X169813421Y-116895402D01*
X170037595Y-116895598D01*
X170244780Y-116809991D01*
X170403434Y-116651614D01*
X170489402Y-116444579D01*
X170489544Y-116282523D01*
X170945034Y-115827033D01*
X171023830Y-115709105D01*
X171051500Y-115570000D01*
X171051500Y-114450566D01*
X171092566Y-114409500D01*
X171305590Y-114409500D01*
X171226566Y-114488386D01*
X171140598Y-114695421D01*
X171140402Y-114919595D01*
X171226009Y-115126780D01*
X171384386Y-115285434D01*
X171386500Y-115286312D01*
X171386500Y-115345480D01*
X171385220Y-115346009D01*
X171226566Y-115504386D01*
X171140598Y-115711421D01*
X171140402Y-115935595D01*
X171226009Y-116142780D01*
X171384386Y-116301434D01*
X171386500Y-116302312D01*
X171386500Y-116361480D01*
X171385220Y-116362009D01*
X171226566Y-116520386D01*
X171140598Y-116727421D01*
X171140402Y-116951595D01*
X171226009Y-117158780D01*
X171384386Y-117317434D01*
X171386500Y-117318312D01*
X171386500Y-117377480D01*
X171385220Y-117378009D01*
X171226566Y-117536386D01*
X171140598Y-117743421D01*
X171140402Y-117967595D01*
X171226009Y-118174780D01*
X171384386Y-118333434D01*
X171386500Y-118334312D01*
X171386500Y-118393480D01*
X171385220Y-118394009D01*
X171226566Y-118552386D01*
X171140598Y-118759421D01*
X171140402Y-118983595D01*
X171226009Y-119190780D01*
X171384386Y-119349434D01*
X171386500Y-119350312D01*
X171386500Y-119409480D01*
X171385220Y-119410009D01*
X171226566Y-119568386D01*
X171140598Y-119775421D01*
X171140402Y-119999595D01*
X171226009Y-120206780D01*
X171384386Y-120365434D01*
X171386500Y-120366312D01*
X171386500Y-120425480D01*
X171385220Y-120426009D01*
X171226566Y-120584386D01*
X171140598Y-120791421D01*
X171140402Y-121015595D01*
X171226009Y-121222780D01*
X171384386Y-121381434D01*
X171386500Y-121382312D01*
X171386500Y-121441480D01*
X171385220Y-121442009D01*
X171226566Y-121600386D01*
X171140598Y-121807421D01*
X171140402Y-122031595D01*
X171226009Y-122238780D01*
X171384386Y-122397434D01*
X171386500Y-122398312D01*
X171386500Y-122457480D01*
X171385220Y-122458009D01*
X171226566Y-122616386D01*
X171140598Y-122823421D01*
X171140402Y-123047595D01*
X171226009Y-123254780D01*
X171384386Y-123413434D01*
X171386500Y-123414312D01*
X171386500Y-123473480D01*
X171385220Y-123474009D01*
X171226566Y-123632386D01*
X171140598Y-123839421D01*
X171140402Y-124063595D01*
X171226009Y-124270780D01*
X171384386Y-124429434D01*
X171386500Y-124430312D01*
X171386500Y-124460000D01*
X171390843Y-124483080D01*
X171404483Y-124504277D01*
X171425295Y-124518497D01*
X171450000Y-124523500D01*
X181131480Y-124523500D01*
X181132009Y-124524780D01*
X181290386Y-124683434D01*
X181497421Y-124769402D01*
X181721595Y-124769598D01*
X181928780Y-124683991D01*
X182087434Y-124525614D01*
X182088312Y-124523500D01*
X182147480Y-124523500D01*
X182148009Y-124524780D01*
X182306386Y-124683434D01*
X182513421Y-124769402D01*
X182737595Y-124769598D01*
X182944780Y-124683991D01*
X183103434Y-124525614D01*
X183104312Y-124523500D01*
X183163480Y-124523500D01*
X183164009Y-124524780D01*
X183322386Y-124683434D01*
X183529421Y-124769402D01*
X183753595Y-124769598D01*
X183960780Y-124683991D01*
X184119434Y-124525614D01*
X184120312Y-124523500D01*
X184658000Y-124523500D01*
X184681080Y-124519157D01*
X184702277Y-124505517D01*
X184716497Y-124484705D01*
X184721500Y-124460000D01*
X184721500Y-116430330D01*
X184846386Y-116555434D01*
X185053421Y-116641402D01*
X185277595Y-116641598D01*
X185484780Y-116555991D01*
X185643434Y-116397614D01*
X185729402Y-116190579D01*
X185729598Y-115966405D01*
X185643991Y-115759220D01*
X185529500Y-115644529D01*
X185529500Y-114808000D01*
X185501830Y-114668895D01*
X185479737Y-114635830D01*
X185423933Y-114552312D01*
X185561421Y-114609402D01*
X185785595Y-114609598D01*
X185992780Y-114523991D01*
X186118500Y-114398490D01*
X186118500Y-126139670D01*
X185993614Y-126014566D01*
X185786579Y-125928598D01*
X185562405Y-125928402D01*
X185355220Y-126014009D01*
X185240529Y-126128500D01*
X185166000Y-126128500D01*
X185051504Y-126151275D01*
X185039791Y-126151275D01*
X184130261Y-125241745D01*
X184130259Y-125241742D01*
X184107483Y-125218967D01*
X184034481Y-125145965D01*
X183916554Y-125067168D01*
X183777448Y-125039498D01*
X171269002Y-125039498D01*
X171152975Y-125062577D01*
X171129896Y-125067168D01*
X171011969Y-125145965D01*
X169160967Y-126996967D01*
X169154018Y-127007367D01*
X169099220Y-127030009D01*
X168940566Y-127188386D01*
X168854598Y-127395421D01*
X168854402Y-127619595D01*
X168940009Y-127826780D01*
X169002090Y-127888969D01*
X168940566Y-127950386D01*
X168854598Y-128157421D01*
X168854402Y-128381595D01*
X168940009Y-128588780D01*
X169098386Y-128747434D01*
X169305421Y-128833402D01*
X169529595Y-128833598D01*
X169736780Y-128747991D01*
X169851471Y-128633500D01*
X169926000Y-128633500D01*
X170065106Y-128605830D01*
X170183033Y-128527033D01*
X170437033Y-128273033D01*
X170515830Y-128155106D01*
X170521302Y-128127595D01*
X170543500Y-128016000D01*
X170543500Y-127105016D01*
X171555016Y-126093500D01*
X183491434Y-126093500D01*
X184080434Y-126682500D01*
X171450000Y-126682500D01*
X171426920Y-126686843D01*
X171405723Y-126700483D01*
X171391503Y-126721295D01*
X171386500Y-126746000D01*
X171386500Y-126775480D01*
X171385220Y-126776009D01*
X171226566Y-126934386D01*
X171140598Y-127141421D01*
X171140402Y-127365595D01*
X171226009Y-127572780D01*
X171384386Y-127731434D01*
X171386500Y-127732312D01*
X171386500Y-127791480D01*
X171385220Y-127792009D01*
X171226566Y-127950386D01*
X171140598Y-128157421D01*
X171140402Y-128381595D01*
X171226009Y-128588780D01*
X171384386Y-128747434D01*
X171386500Y-128748312D01*
X171386500Y-128807480D01*
X171385220Y-128808009D01*
X171226566Y-128966386D01*
X171140598Y-129173421D01*
X171140402Y-129397595D01*
X171226009Y-129604780D01*
X171384386Y-129763434D01*
X171386500Y-129764312D01*
X171386500Y-129823480D01*
X171385220Y-129824009D01*
X171226566Y-129982386D01*
X171140598Y-130189421D01*
X171140402Y-130413595D01*
X171226009Y-130620780D01*
X171384386Y-130779434D01*
X171386500Y-130780312D01*
X171386500Y-130839480D01*
X171385220Y-130840009D01*
X171226566Y-130998386D01*
X171140598Y-131205421D01*
X171140402Y-131429595D01*
X171226009Y-131636780D01*
X171384386Y-131795434D01*
X171386500Y-131796312D01*
X171386500Y-131855480D01*
X171385220Y-131856009D01*
X171226566Y-132014386D01*
X171140598Y-132221421D01*
X171140402Y-132445595D01*
X171226009Y-132652780D01*
X171384386Y-132811434D01*
X171386500Y-132812312D01*
X171386500Y-132871480D01*
X171385220Y-132872009D01*
X171226566Y-133030386D01*
X171140598Y-133237421D01*
X171140402Y-133461595D01*
X171226009Y-133668780D01*
X171384386Y-133827434D01*
X171386500Y-133828312D01*
X171386500Y-133887480D01*
X171385220Y-133888009D01*
X171226566Y-134046386D01*
X171140598Y-134253421D01*
X171140402Y-134477595D01*
X171226009Y-134684780D01*
X171384386Y-134843434D01*
X171386500Y-134844312D01*
X171386500Y-134903480D01*
X171385220Y-134904009D01*
X171226566Y-135062386D01*
X171140598Y-135269421D01*
X171140402Y-135493595D01*
X171226009Y-135700780D01*
X171384386Y-135859434D01*
X171386500Y-135860312D01*
X171386500Y-135919480D01*
X171385220Y-135920009D01*
X171226566Y-136078386D01*
X171140598Y-136285421D01*
X171140402Y-136509595D01*
X171226009Y-136716780D01*
X171384386Y-136875434D01*
X171386500Y-136876312D01*
X171386500Y-136906000D01*
X171390843Y-136929080D01*
X171404483Y-136950277D01*
X171425295Y-136964497D01*
X171450000Y-136969500D01*
X181131480Y-136969500D01*
X181132009Y-136970780D01*
X181290386Y-137129434D01*
X181497421Y-137215402D01*
X181721595Y-137215598D01*
X181928780Y-137129991D01*
X182087434Y-136971614D01*
X182088312Y-136969500D01*
X182147480Y-136969500D01*
X182148009Y-136970780D01*
X182306386Y-137129434D01*
X182513421Y-137215402D01*
X182737595Y-137215598D01*
X182944780Y-137129991D01*
X183103434Y-136971614D01*
X183104312Y-136969500D01*
X183163480Y-136969500D01*
X183164009Y-136970780D01*
X183322386Y-137129434D01*
X183529421Y-137215402D01*
X183753595Y-137215598D01*
X183960780Y-137129991D01*
X184119434Y-136971614D01*
X184120312Y-136969500D01*
X184658000Y-136969500D01*
X184681080Y-136965157D01*
X184702277Y-136951517D01*
X184716497Y-136930705D01*
X184721500Y-136906000D01*
X184721500Y-128876330D01*
X184846386Y-129001434D01*
X185053421Y-129087402D01*
X185277595Y-129087598D01*
X185484780Y-129001991D01*
X185643434Y-128843614D01*
X185729402Y-128636579D01*
X185729598Y-128412405D01*
X185643991Y-128205220D01*
X185529500Y-128090529D01*
X185529500Y-127254000D01*
X185501830Y-127114895D01*
X185462078Y-127055402D01*
X185423932Y-126998312D01*
X185561421Y-127055402D01*
X185785595Y-127055598D01*
X185992780Y-126969991D01*
X186118500Y-126844490D01*
X186118500Y-138585670D01*
X185993614Y-138460566D01*
X185786579Y-138374598D01*
X185562405Y-138374402D01*
X185355220Y-138460009D01*
X185240529Y-138574500D01*
X185166000Y-138574500D01*
X185051504Y-138597275D01*
X185039791Y-138597275D01*
X184034481Y-137591965D01*
X183916554Y-137513168D01*
X183777448Y-137485498D01*
X171269002Y-137485498D01*
X171158462Y-137507486D01*
X171129896Y-137513168D01*
X171011969Y-137591965D01*
X169160967Y-139442967D01*
X169154018Y-139453367D01*
X169099220Y-139476009D01*
X168940566Y-139634386D01*
X168854598Y-139841421D01*
X168854402Y-140065595D01*
X168940009Y-140272780D01*
X169002090Y-140334969D01*
X168940566Y-140396386D01*
X168854598Y-140603421D01*
X168854402Y-140827595D01*
X168940009Y-141034780D01*
X169098386Y-141193434D01*
X169305421Y-141279402D01*
X169529595Y-141279598D01*
X169736780Y-141193991D01*
X169851471Y-141079500D01*
X169926000Y-141079500D01*
X170065106Y-141051830D01*
X170183033Y-140973033D01*
X170437033Y-140719033D01*
X170515830Y-140601106D01*
X170530614Y-140526780D01*
X170543500Y-140462000D01*
X170543500Y-139551016D01*
X171555016Y-138539500D01*
X183491434Y-138539500D01*
X184080434Y-139128500D01*
X171450000Y-139128500D01*
X171426920Y-139132843D01*
X171405723Y-139146483D01*
X171391503Y-139167295D01*
X171386500Y-139192000D01*
X171386500Y-139221480D01*
X171385220Y-139222009D01*
X171226566Y-139380386D01*
X171140598Y-139587421D01*
X171140402Y-139811595D01*
X171226009Y-140018780D01*
X171384386Y-140177434D01*
X171386500Y-140178312D01*
X171386500Y-140237480D01*
X171385220Y-140238009D01*
X171226566Y-140396386D01*
X171140598Y-140603421D01*
X171140402Y-140827595D01*
X171226009Y-141034780D01*
X171384386Y-141193434D01*
X171386500Y-141194312D01*
X171386500Y-141253480D01*
X171385220Y-141254009D01*
X171226566Y-141412386D01*
X171140598Y-141619421D01*
X171140402Y-141843595D01*
X171226009Y-142050780D01*
X171384386Y-142209434D01*
X171386500Y-142210312D01*
X171386500Y-142269480D01*
X171385220Y-142270009D01*
X171226566Y-142428386D01*
X171140598Y-142635421D01*
X171140402Y-142859595D01*
X171226009Y-143066780D01*
X171384386Y-143225434D01*
X171386500Y-143226312D01*
X171386500Y-143285480D01*
X171385220Y-143286009D01*
X171226566Y-143444386D01*
X171140598Y-143651421D01*
X171140402Y-143875595D01*
X171226009Y-144082780D01*
X171384386Y-144241434D01*
X171386500Y-144242312D01*
X171386500Y-144301480D01*
X171385220Y-144302009D01*
X171226566Y-144460386D01*
X171140598Y-144667421D01*
X171140402Y-144891595D01*
X171226009Y-145098780D01*
X171384386Y-145257434D01*
X171386500Y-145258312D01*
X171386500Y-145317480D01*
X171385220Y-145318009D01*
X171226566Y-145476386D01*
X171140598Y-145683421D01*
X171140402Y-145907595D01*
X171226009Y-146114780D01*
X171384386Y-146273434D01*
X171386500Y-146274312D01*
X171386500Y-146333480D01*
X171385220Y-146334009D01*
X171226566Y-146492386D01*
X171140598Y-146699421D01*
X171140402Y-146923595D01*
X171226009Y-147130780D01*
X171384386Y-147289434D01*
X171386500Y-147290312D01*
X171386500Y-147349480D01*
X171385220Y-147350009D01*
X171226566Y-147508386D01*
X171140598Y-147715421D01*
X171140402Y-147939595D01*
X171226009Y-148146780D01*
X171384386Y-148305434D01*
X171386500Y-148306312D01*
X171386500Y-148365480D01*
X171385220Y-148366009D01*
X171226566Y-148524386D01*
X171140598Y-148731421D01*
X171140402Y-148955595D01*
X171226009Y-149162780D01*
X171384386Y-149321434D01*
X171386500Y-149322312D01*
X171386500Y-149352000D01*
X171390843Y-149375080D01*
X171404483Y-149396277D01*
X171425295Y-149410497D01*
X171450000Y-149415500D01*
X181131480Y-149415500D01*
X181132009Y-149416780D01*
X181290386Y-149575434D01*
X181497421Y-149661402D01*
X181721595Y-149661598D01*
X181928780Y-149575991D01*
X182087434Y-149417614D01*
X182088312Y-149415500D01*
X182147480Y-149415500D01*
X182148009Y-149416780D01*
X182306386Y-149575434D01*
X182513421Y-149661402D01*
X182737595Y-149661598D01*
X182944780Y-149575991D01*
X183103434Y-149417614D01*
X183104312Y-149415500D01*
X183163480Y-149415500D01*
X183164009Y-149416780D01*
X183322386Y-149575434D01*
X183529421Y-149661402D01*
X183753595Y-149661598D01*
X183960780Y-149575991D01*
X184119434Y-149417614D01*
X184120312Y-149415500D01*
X184658000Y-149415500D01*
X184681080Y-149411157D01*
X184702277Y-149397517D01*
X184716497Y-149376705D01*
X184721500Y-149352000D01*
X184721500Y-141322330D01*
X184846386Y-141447434D01*
X185053421Y-141533402D01*
X185277595Y-141533598D01*
X185484780Y-141447991D01*
X185643434Y-141289614D01*
X185729402Y-141082579D01*
X185729598Y-140858405D01*
X185643991Y-140651220D01*
X185529500Y-140536529D01*
X185529500Y-139700000D01*
X185501830Y-139560895D01*
X185462078Y-139501402D01*
X185423932Y-139444312D01*
X185561421Y-139501402D01*
X185785595Y-139501598D01*
X185992780Y-139415991D01*
X186118500Y-139290490D01*
X186118500Y-151066500D01*
X162369500Y-151066500D01*
X162369500Y-146923595D01*
X163774402Y-146923595D01*
X163860009Y-147130780D01*
X163922090Y-147192969D01*
X163860566Y-147254386D01*
X163774598Y-147461421D01*
X163774402Y-147685595D01*
X163860009Y-147892780D01*
X164018386Y-148051434D01*
X164091923Y-148081969D01*
X164019220Y-148112009D01*
X163860566Y-148270386D01*
X163774598Y-148477421D01*
X163774402Y-148701595D01*
X163860009Y-148908780D01*
X164018386Y-149067434D01*
X164225421Y-149153402D01*
X164449595Y-149153598D01*
X164656780Y-149067991D01*
X164718969Y-149005910D01*
X164780386Y-149067434D01*
X164987421Y-149153402D01*
X165211595Y-149153598D01*
X165418780Y-149067991D01*
X165480969Y-149005910D01*
X165542386Y-149067434D01*
X165749421Y-149153402D01*
X165973595Y-149153598D01*
X166180780Y-149067991D01*
X166339434Y-148909614D01*
X166425402Y-148702579D01*
X166425598Y-148478405D01*
X166339991Y-148271220D01*
X166181614Y-148112566D01*
X165974579Y-148026598D01*
X165750405Y-148026402D01*
X165543220Y-148112009D01*
X165481031Y-148174090D01*
X165419614Y-148112566D01*
X165346077Y-148082031D01*
X165418780Y-148051991D01*
X165577434Y-147893614D01*
X165663402Y-147686579D01*
X165663598Y-147462405D01*
X165577991Y-147255220D01*
X165515910Y-147193031D01*
X165577434Y-147131614D01*
X165663402Y-146924579D01*
X165663598Y-146700405D01*
X165577991Y-146493220D01*
X165419614Y-146334566D01*
X165212579Y-146248598D01*
X164988405Y-146248402D01*
X164781220Y-146334009D01*
X164719031Y-146396090D01*
X164657614Y-146334566D01*
X164450579Y-146248598D01*
X164226405Y-146248402D01*
X164019220Y-146334009D01*
X163860566Y-146492386D01*
X163774598Y-146699421D01*
X163774402Y-146923595D01*
X162369500Y-146923595D01*
X162369500Y-142351595D01*
X168854402Y-142351595D01*
X168940009Y-142558780D01*
X169098386Y-142717434D01*
X169305421Y-142803402D01*
X169529595Y-142803598D01*
X169736780Y-142717991D01*
X169895434Y-142559614D01*
X169981402Y-142352579D01*
X169981598Y-142128405D01*
X169895991Y-141921220D01*
X169737614Y-141762566D01*
X169530579Y-141676598D01*
X169306405Y-141676402D01*
X169099220Y-141762009D01*
X168940566Y-141920386D01*
X168854598Y-142127421D01*
X168854402Y-142351595D01*
X162369500Y-142351595D01*
X162369500Y-134477595D01*
X163774402Y-134477595D01*
X163860009Y-134684780D01*
X163922090Y-134746969D01*
X163860566Y-134808386D01*
X163774598Y-135015421D01*
X163774402Y-135239595D01*
X163860009Y-135446780D01*
X164018386Y-135605434D01*
X164091923Y-135635969D01*
X164019220Y-135666009D01*
X163860566Y-135824386D01*
X163774598Y-136031421D01*
X163774402Y-136255595D01*
X163860009Y-136462780D01*
X164018386Y-136621434D01*
X164225421Y-136707402D01*
X164449595Y-136707598D01*
X164656780Y-136621991D01*
X164718969Y-136559910D01*
X164780386Y-136621434D01*
X164987421Y-136707402D01*
X165211595Y-136707598D01*
X165418780Y-136621991D01*
X165480969Y-136559910D01*
X165542386Y-136621434D01*
X165749421Y-136707402D01*
X165973595Y-136707598D01*
X166180780Y-136621991D01*
X166339434Y-136463614D01*
X166425402Y-136256579D01*
X166425598Y-136032405D01*
X166339991Y-135825220D01*
X166181614Y-135666566D01*
X165974579Y-135580598D01*
X165750405Y-135580402D01*
X165543220Y-135666009D01*
X165481031Y-135728090D01*
X165419614Y-135666566D01*
X165346077Y-135636031D01*
X165418780Y-135605991D01*
X165577434Y-135447614D01*
X165663402Y-135240579D01*
X165663598Y-135016405D01*
X165577991Y-134809220D01*
X165515910Y-134747031D01*
X165577434Y-134685614D01*
X165663402Y-134478579D01*
X165663598Y-134254405D01*
X165577991Y-134047220D01*
X165419614Y-133888566D01*
X165212579Y-133802598D01*
X164988405Y-133802402D01*
X164781220Y-133888009D01*
X164719031Y-133950090D01*
X164657614Y-133888566D01*
X164450579Y-133802598D01*
X164226405Y-133802402D01*
X164019220Y-133888009D01*
X163860566Y-134046386D01*
X163774598Y-134253421D01*
X163774402Y-134477595D01*
X162369500Y-134477595D01*
X162369500Y-129905595D01*
X168854402Y-129905595D01*
X168940009Y-130112780D01*
X169098386Y-130271434D01*
X169305421Y-130357402D01*
X169529595Y-130357598D01*
X169736780Y-130271991D01*
X169895434Y-130113614D01*
X169981402Y-129906579D01*
X169981598Y-129682405D01*
X169895991Y-129475220D01*
X169737614Y-129316566D01*
X169530579Y-129230598D01*
X169306405Y-129230402D01*
X169099220Y-129316009D01*
X168940566Y-129474386D01*
X168854598Y-129681421D01*
X168854402Y-129905595D01*
X162369500Y-129905595D01*
X162369500Y-126349595D01*
X167076402Y-126349595D01*
X167162009Y-126556780D01*
X167320386Y-126715434D01*
X167527421Y-126801402D01*
X167751595Y-126801598D01*
X167958780Y-126715991D01*
X168117434Y-126557614D01*
X168203402Y-126350579D01*
X168203598Y-126126405D01*
X168117991Y-125919220D01*
X167959614Y-125760566D01*
X167752579Y-125674598D01*
X167528405Y-125674402D01*
X167321220Y-125760009D01*
X167162566Y-125918386D01*
X167076598Y-126125421D01*
X167076402Y-126349595D01*
X162369500Y-126349595D01*
X162369500Y-125587595D01*
X166060402Y-125587595D01*
X166146009Y-125794780D01*
X166304386Y-125953434D01*
X166511421Y-126039402D01*
X166735595Y-126039598D01*
X166942780Y-125953991D01*
X167101434Y-125795614D01*
X167187402Y-125588579D01*
X167187598Y-125364405D01*
X167101991Y-125157220D01*
X166943614Y-124998566D01*
X166736579Y-124912598D01*
X166512405Y-124912402D01*
X166305220Y-124998009D01*
X166146566Y-125156386D01*
X166060598Y-125363421D01*
X166060402Y-125587595D01*
X162369500Y-125587595D01*
X162369500Y-122031595D01*
X163774402Y-122031595D01*
X163860009Y-122238780D01*
X163922090Y-122300969D01*
X163860566Y-122362386D01*
X163774598Y-122569421D01*
X163774402Y-122793595D01*
X163860009Y-123000780D01*
X164018386Y-123159434D01*
X164091923Y-123189969D01*
X164019220Y-123220009D01*
X163860566Y-123378386D01*
X163774598Y-123585421D01*
X163774402Y-123809595D01*
X163860009Y-124016780D01*
X164018386Y-124175434D01*
X164225421Y-124261402D01*
X164449595Y-124261598D01*
X164656780Y-124175991D01*
X164718969Y-124113910D01*
X164780386Y-124175434D01*
X164987421Y-124261402D01*
X165211595Y-124261598D01*
X165418780Y-124175991D01*
X165480969Y-124113910D01*
X165542386Y-124175434D01*
X165749421Y-124261402D01*
X165973595Y-124261598D01*
X166180780Y-124175991D01*
X166339434Y-124017614D01*
X166425402Y-123810579D01*
X166425598Y-123586405D01*
X166339991Y-123379220D01*
X166181614Y-123220566D01*
X165974579Y-123134598D01*
X165750405Y-123134402D01*
X165543220Y-123220009D01*
X165481031Y-123282090D01*
X165419614Y-123220566D01*
X165346077Y-123190031D01*
X165418780Y-123159991D01*
X165577434Y-123001614D01*
X165663402Y-122794579D01*
X165663598Y-122570405D01*
X165577991Y-122363220D01*
X165515910Y-122301031D01*
X165577434Y-122239614D01*
X165663402Y-122032579D01*
X165663598Y-121808405D01*
X165577991Y-121601220D01*
X165419614Y-121442566D01*
X165212579Y-121356598D01*
X164988405Y-121356402D01*
X164781220Y-121442009D01*
X164719031Y-121504090D01*
X164657614Y-121442566D01*
X164450579Y-121356598D01*
X164226405Y-121356402D01*
X164019220Y-121442009D01*
X163860566Y-121600386D01*
X163774598Y-121807421D01*
X163774402Y-122031595D01*
X162369500Y-122031595D01*
X162369500Y-117459595D01*
X168854402Y-117459595D01*
X168940009Y-117666780D01*
X169098386Y-117825434D01*
X169305421Y-117911402D01*
X169529595Y-117911598D01*
X169736780Y-117825991D01*
X169895434Y-117667614D01*
X169981402Y-117460579D01*
X169981598Y-117236405D01*
X169895991Y-117029220D01*
X169737614Y-116870566D01*
X169530579Y-116784598D01*
X169306405Y-116784402D01*
X169099220Y-116870009D01*
X168940566Y-117028386D01*
X168854598Y-117235421D01*
X168854402Y-117459595D01*
X162369500Y-117459595D01*
X162369500Y-112776000D01*
X162364497Y-112751295D01*
X162350277Y-112730483D01*
X162329080Y-112716843D01*
X162306000Y-112712500D01*
X161798000Y-112712500D01*
X161773295Y-112717503D01*
X161752483Y-112731723D01*
X161738843Y-112752920D01*
X161734500Y-112776000D01*
X161734500Y-117249670D01*
X161609614Y-117124566D01*
X161402579Y-117038598D01*
X161178405Y-117038402D01*
X160971220Y-117124009D01*
X160812566Y-117282386D01*
X160726598Y-117489421D01*
X160726402Y-117713595D01*
X160812009Y-117920780D01*
X160970386Y-118079434D01*
X161177421Y-118165402D01*
X161401595Y-118165598D01*
X161608780Y-118079991D01*
X161734500Y-117954490D01*
X161734500Y-129695670D01*
X161609614Y-129570566D01*
X161402579Y-129484598D01*
X161178405Y-129484402D01*
X160971220Y-129570009D01*
X160812566Y-129728386D01*
X160726598Y-129935421D01*
X160726402Y-130159595D01*
X160812009Y-130366780D01*
X160970386Y-130525434D01*
X161177421Y-130611402D01*
X161401595Y-130611598D01*
X161608780Y-130525991D01*
X161734500Y-130400490D01*
X161734500Y-142141670D01*
X161609614Y-142016566D01*
X161402579Y-141930598D01*
X161178405Y-141930402D01*
X160971220Y-142016009D01*
X160812566Y-142174386D01*
X160726598Y-142381421D01*
X160726402Y-142605595D01*
X160812009Y-142812780D01*
X160970386Y-142971434D01*
X161177421Y-143057402D01*
X161401595Y-143057598D01*
X161608780Y-142971991D01*
X161734500Y-142846490D01*
X161734500Y-151066500D01*
X128147967Y-151066500D01*
X128057253Y-151048456D01*
X127015574Y-150352429D01*
X126319545Y-149310748D01*
X126301500Y-149220030D01*
X126301500Y-148451047D01*
X127422177Y-148451047D01*
X127705281Y-149136209D01*
X128229034Y-149660877D01*
X128913701Y-149945176D01*
X129655047Y-149945823D01*
X130340209Y-149662719D01*
X130864877Y-149138966D01*
X131135016Y-148488400D01*
X133995738Y-148488400D01*
X133995738Y-150215600D01*
X134014112Y-150313247D01*
X134071821Y-150402930D01*
X134159875Y-150463095D01*
X134264400Y-150484262D01*
X135991600Y-150484262D01*
X136089247Y-150465888D01*
X136178930Y-150408179D01*
X136239095Y-150320125D01*
X136260262Y-150215600D01*
X136260262Y-149329919D01*
X136540900Y-149329919D01*
X136540900Y-149374081D01*
X136626695Y-149805403D01*
X136871020Y-150171061D01*
X137236678Y-150415386D01*
X137668000Y-150501181D01*
X138099322Y-150415386D01*
X138464980Y-150171061D01*
X138709305Y-149805403D01*
X138795100Y-149374081D01*
X138795100Y-149329919D01*
X139080900Y-149329919D01*
X139080900Y-149374081D01*
X139166695Y-149805403D01*
X139411020Y-150171061D01*
X139776678Y-150415386D01*
X140208000Y-150501181D01*
X140639322Y-150415386D01*
X141004980Y-150171061D01*
X141249305Y-149805403D01*
X141335100Y-149374081D01*
X141335100Y-149329919D01*
X141620900Y-149329919D01*
X141620900Y-149374081D01*
X141706695Y-149805403D01*
X141951020Y-150171061D01*
X142316678Y-150415386D01*
X142748000Y-150501181D01*
X143179322Y-150415386D01*
X143544980Y-150171061D01*
X143789305Y-149805403D01*
X143875100Y-149374081D01*
X143875100Y-149329919D01*
X144160900Y-149329919D01*
X144160900Y-149374081D01*
X144246695Y-149805403D01*
X144491020Y-150171061D01*
X144856678Y-150415386D01*
X145288000Y-150501181D01*
X145719322Y-150415386D01*
X146084980Y-150171061D01*
X146329305Y-149805403D01*
X146415100Y-149374081D01*
X146415100Y-149329919D01*
X146329305Y-148898597D01*
X146084980Y-148532939D01*
X145790241Y-148336000D01*
X147965738Y-148336000D01*
X147965738Y-150368000D01*
X147984112Y-150465647D01*
X148041821Y-150555330D01*
X148129875Y-150615495D01*
X148234400Y-150636662D01*
X149961600Y-150636662D01*
X150059247Y-150618288D01*
X150148930Y-150560579D01*
X150209095Y-150472525D01*
X150230262Y-150368000D01*
X150230262Y-149174533D01*
X150510900Y-149174533D01*
X150510900Y-149529467D01*
X150596695Y-149960789D01*
X150841020Y-150326447D01*
X151206678Y-150570772D01*
X151638000Y-150656567D01*
X152069322Y-150570772D01*
X152434980Y-150326447D01*
X152679305Y-149960789D01*
X152725944Y-149726315D01*
X153020437Y-149726315D01*
X153193474Y-150152403D01*
X153516397Y-150479838D01*
X153807500Y-150625884D01*
X153987500Y-150589530D01*
X153987500Y-149542500D01*
X154368500Y-149542500D01*
X154368500Y-150589530D01*
X154548500Y-150625884D01*
X154839603Y-150479838D01*
X155162526Y-150152403D01*
X155335563Y-149726315D01*
X155276652Y-149542500D01*
X154368500Y-149542500D01*
X153987500Y-149542500D01*
X153079348Y-149542500D01*
X153020437Y-149726315D01*
X152725944Y-149726315D01*
X152765100Y-149529467D01*
X152765100Y-149174533D01*
X155590900Y-149174533D01*
X155590900Y-149529467D01*
X155676695Y-149960789D01*
X155921020Y-150326447D01*
X156286678Y-150570772D01*
X156718000Y-150656567D01*
X157149322Y-150570772D01*
X157514980Y-150326447D01*
X157759305Y-149960789D01*
X157845100Y-149529467D01*
X157845100Y-149174533D01*
X158130900Y-149174533D01*
X158130900Y-149529467D01*
X158216695Y-149960789D01*
X158461020Y-150326447D01*
X158826678Y-150570772D01*
X159258000Y-150656567D01*
X159689322Y-150570772D01*
X160054980Y-150326447D01*
X160299305Y-149960789D01*
X160385100Y-149529467D01*
X160385100Y-149174533D01*
X160299305Y-148743211D01*
X160054980Y-148377553D01*
X159689322Y-148133228D01*
X159258000Y-148047433D01*
X158826678Y-148133228D01*
X158461020Y-148377553D01*
X158216695Y-148743211D01*
X158130900Y-149174533D01*
X157845100Y-149174533D01*
X157759305Y-148743211D01*
X157514980Y-148377553D01*
X157149322Y-148133228D01*
X156718000Y-148047433D01*
X156286678Y-148133228D01*
X155921020Y-148377553D01*
X155676695Y-148743211D01*
X155590900Y-149174533D01*
X152765100Y-149174533D01*
X152725945Y-148977685D01*
X153020437Y-148977685D01*
X153079348Y-149161500D01*
X153987500Y-149161500D01*
X153987500Y-148114470D01*
X154368500Y-148114470D01*
X154368500Y-149161500D01*
X155276652Y-149161500D01*
X155335563Y-148977685D01*
X155162526Y-148551597D01*
X154839603Y-148224162D01*
X154548500Y-148078116D01*
X154368500Y-148114470D01*
X153987500Y-148114470D01*
X153807500Y-148078116D01*
X153516397Y-148224162D01*
X153193474Y-148551597D01*
X153020437Y-148977685D01*
X152725945Y-148977685D01*
X152679305Y-148743211D01*
X152434980Y-148377553D01*
X152069322Y-148133228D01*
X151638000Y-148047433D01*
X151206678Y-148133228D01*
X150841020Y-148377553D01*
X150596695Y-148743211D01*
X150510900Y-149174533D01*
X150230262Y-149174533D01*
X150230262Y-148336000D01*
X150211888Y-148238353D01*
X150154179Y-148148670D01*
X150066125Y-148088505D01*
X149961600Y-148067338D01*
X148234400Y-148067338D01*
X148136753Y-148085712D01*
X148047070Y-148143421D01*
X147986905Y-148231475D01*
X147965738Y-148336000D01*
X145790241Y-148336000D01*
X145719322Y-148288614D01*
X145288000Y-148202819D01*
X144856678Y-148288614D01*
X144491020Y-148532939D01*
X144246695Y-148898597D01*
X144160900Y-149329919D01*
X143875100Y-149329919D01*
X143789305Y-148898597D01*
X143544980Y-148532939D01*
X143179322Y-148288614D01*
X142748000Y-148202819D01*
X142316678Y-148288614D01*
X141951020Y-148532939D01*
X141706695Y-148898597D01*
X141620900Y-149329919D01*
X141335100Y-149329919D01*
X141249305Y-148898597D01*
X141004980Y-148532939D01*
X140639322Y-148288614D01*
X140208000Y-148202819D01*
X139776678Y-148288614D01*
X139411020Y-148532939D01*
X139166695Y-148898597D01*
X139080900Y-149329919D01*
X138795100Y-149329919D01*
X138709305Y-148898597D01*
X138464980Y-148532939D01*
X138099322Y-148288614D01*
X137668000Y-148202819D01*
X137236678Y-148288614D01*
X136871020Y-148532939D01*
X136626695Y-148898597D01*
X136540900Y-149329919D01*
X136260262Y-149329919D01*
X136260262Y-148488400D01*
X136241888Y-148390753D01*
X136184179Y-148301070D01*
X136096125Y-148240905D01*
X135991600Y-148219738D01*
X134264400Y-148219738D01*
X134166753Y-148238112D01*
X134077070Y-148295821D01*
X134016905Y-148383875D01*
X133995738Y-148488400D01*
X131135016Y-148488400D01*
X131149176Y-148454299D01*
X131149823Y-147712953D01*
X130866719Y-147027791D01*
X130629262Y-146789919D01*
X134000900Y-146789919D01*
X134000900Y-146834081D01*
X134086695Y-147265403D01*
X134331020Y-147631061D01*
X134696678Y-147875386D01*
X135128000Y-147961181D01*
X135559322Y-147875386D01*
X135924980Y-147631061D01*
X136169305Y-147265403D01*
X136255100Y-146834081D01*
X136255100Y-146789919D01*
X136540900Y-146789919D01*
X136540900Y-146834081D01*
X136626695Y-147265403D01*
X136871020Y-147631061D01*
X137236678Y-147875386D01*
X137668000Y-147961181D01*
X138099322Y-147875386D01*
X138464980Y-147631061D01*
X138709305Y-147265403D01*
X138795100Y-146834081D01*
X138795100Y-146789919D01*
X139080900Y-146789919D01*
X139080900Y-146834081D01*
X139166695Y-147265403D01*
X139411020Y-147631061D01*
X139776678Y-147875386D01*
X140208000Y-147961181D01*
X140639322Y-147875386D01*
X141004980Y-147631061D01*
X141249305Y-147265403D01*
X141335100Y-146834081D01*
X141335100Y-146789919D01*
X141620900Y-146789919D01*
X141620900Y-146834081D01*
X141706695Y-147265403D01*
X141951020Y-147631061D01*
X142316678Y-147875386D01*
X142748000Y-147961181D01*
X143179322Y-147875386D01*
X143544980Y-147631061D01*
X143789305Y-147265403D01*
X143805794Y-147182503D01*
X144166498Y-147182503D01*
X144393653Y-147583480D01*
X144756964Y-147867006D01*
X144917500Y-147933484D01*
X145097500Y-147897130D01*
X145097500Y-147002500D01*
X145478500Y-147002500D01*
X145478500Y-147897130D01*
X145658500Y-147933484D01*
X145819036Y-147867006D01*
X146182347Y-147583480D01*
X146409502Y-147182503D01*
X146374279Y-147002500D01*
X145478500Y-147002500D01*
X145097500Y-147002500D01*
X144201721Y-147002500D01*
X144166498Y-147182503D01*
X143805794Y-147182503D01*
X143875100Y-146834081D01*
X143875100Y-146789919D01*
X143805795Y-146441497D01*
X144166498Y-146441497D01*
X144201721Y-146621500D01*
X145097500Y-146621500D01*
X145097500Y-145726870D01*
X145478500Y-145726870D01*
X145478500Y-146621500D01*
X146374279Y-146621500D01*
X146409502Y-146441497D01*
X146182347Y-146040520D01*
X145819036Y-145756994D01*
X145658500Y-145690516D01*
X145478500Y-145726870D01*
X145097500Y-145726870D01*
X144917500Y-145690516D01*
X144756964Y-145756994D01*
X144393653Y-146040520D01*
X144166498Y-146441497D01*
X143805795Y-146441497D01*
X143789305Y-146358597D01*
X143544980Y-145992939D01*
X143179322Y-145748614D01*
X142748000Y-145662819D01*
X142316678Y-145748614D01*
X141951020Y-145992939D01*
X141706695Y-146358597D01*
X141620900Y-146789919D01*
X141335100Y-146789919D01*
X141249305Y-146358597D01*
X141004980Y-145992939D01*
X140639322Y-145748614D01*
X140208000Y-145662819D01*
X139776678Y-145748614D01*
X139411020Y-145992939D01*
X139166695Y-146358597D01*
X139080900Y-146789919D01*
X138795100Y-146789919D01*
X138709305Y-146358597D01*
X138464980Y-145992939D01*
X138099322Y-145748614D01*
X137668000Y-145662819D01*
X137236678Y-145748614D01*
X136871020Y-145992939D01*
X136626695Y-146358597D01*
X136540900Y-146789919D01*
X136255100Y-146789919D01*
X136169305Y-146358597D01*
X135924980Y-145992939D01*
X135559322Y-145748614D01*
X135128000Y-145662819D01*
X134696678Y-145748614D01*
X134331020Y-145992939D01*
X134086695Y-146358597D01*
X134000900Y-146789919D01*
X130629262Y-146789919D01*
X130342966Y-146503123D01*
X129658299Y-146218824D01*
X128916953Y-146218177D01*
X128231791Y-146501281D01*
X127707123Y-147025034D01*
X127422824Y-147709701D01*
X127422177Y-148451047D01*
X126301500Y-148451047D01*
X126301500Y-144129595D01*
X141168402Y-144129595D01*
X141254009Y-144336780D01*
X141412386Y-144495434D01*
X141619421Y-144581402D01*
X141843595Y-144581598D01*
X142050780Y-144495991D01*
X142209434Y-144337614D01*
X142295402Y-144130579D01*
X142295598Y-143906405D01*
X142209991Y-143699220D01*
X142051614Y-143540566D01*
X141844579Y-143454598D01*
X141620405Y-143454402D01*
X141413220Y-143540009D01*
X141254566Y-143698386D01*
X141168598Y-143905421D01*
X141168402Y-144129595D01*
X126301500Y-144129595D01*
X126301500Y-142904881D01*
X128068527Y-142904881D01*
X128139782Y-143032930D01*
X128495430Y-143115038D01*
X128855429Y-143054796D01*
X128908218Y-143032930D01*
X128979473Y-142904881D01*
X128524000Y-142449408D01*
X128068527Y-142904881D01*
X126301500Y-142904881D01*
X126301500Y-142151430D01*
X127588962Y-142151430D01*
X127649204Y-142511429D01*
X127671070Y-142564218D01*
X127799119Y-142635473D01*
X128254592Y-142180000D01*
X128793408Y-142180000D01*
X129248881Y-142635473D01*
X129376930Y-142564218D01*
X129459038Y-142208570D01*
X129398796Y-141848571D01*
X129376930Y-141795782D01*
X129248881Y-141724527D01*
X128793408Y-142180000D01*
X128254592Y-142180000D01*
X127799119Y-141724527D01*
X127671070Y-141795782D01*
X127588962Y-142151430D01*
X126301500Y-142151430D01*
X126301500Y-134851007D01*
X127660350Y-134851007D01*
X127791533Y-135168494D01*
X128034228Y-135411613D01*
X128078225Y-135429882D01*
X128035506Y-135447533D01*
X127792387Y-135690228D01*
X127660650Y-136007486D01*
X127660350Y-136351007D01*
X127791533Y-136668494D01*
X128034228Y-136911613D01*
X128078225Y-136929882D01*
X128035506Y-136947533D01*
X127792387Y-137190228D01*
X127660650Y-137507486D01*
X127660350Y-137851007D01*
X127791533Y-138168494D01*
X128034228Y-138411613D01*
X128078225Y-138429882D01*
X128035506Y-138447533D01*
X127792387Y-138690228D01*
X127660650Y-139007486D01*
X127660350Y-139351007D01*
X127791533Y-139668494D01*
X128034228Y-139911613D01*
X128078225Y-139929882D01*
X128035506Y-139947533D01*
X127792387Y-140190228D01*
X127660650Y-140507486D01*
X127660350Y-140851007D01*
X127791533Y-141168494D01*
X128034228Y-141411613D01*
X128081755Y-141431348D01*
X128068527Y-141455119D01*
X128524000Y-141910592D01*
X128979473Y-141455119D01*
X128966349Y-141431534D01*
X129012494Y-141412467D01*
X129048624Y-141376400D01*
X131811338Y-141376400D01*
X131811338Y-143103600D01*
X131829712Y-143201247D01*
X131887421Y-143290930D01*
X131975475Y-143351095D01*
X132080000Y-143372262D01*
X134112000Y-143372262D01*
X134209647Y-143353888D01*
X134299330Y-143296179D01*
X134359495Y-143208125D01*
X134378637Y-143113595D01*
X140406402Y-143113595D01*
X140492009Y-143320780D01*
X140650386Y-143479434D01*
X140857421Y-143565402D01*
X141081595Y-143565598D01*
X141288780Y-143479991D01*
X141447434Y-143321614D01*
X141533402Y-143114579D01*
X141533598Y-142890405D01*
X141447991Y-142683220D01*
X141289614Y-142524566D01*
X141082579Y-142438598D01*
X140858405Y-142438402D01*
X140651220Y-142524009D01*
X140492566Y-142682386D01*
X140406598Y-142889421D01*
X140406402Y-143113595D01*
X134378637Y-143113595D01*
X134380662Y-143103600D01*
X134380662Y-142351595D01*
X147772402Y-142351595D01*
X147858009Y-142558780D01*
X148016386Y-142717434D01*
X148223421Y-142803402D01*
X148447595Y-142803598D01*
X148654780Y-142717991D01*
X148813434Y-142559614D01*
X148899402Y-142352579D01*
X148899598Y-142128405D01*
X148886868Y-142097595D01*
X154884402Y-142097595D01*
X154970009Y-142304780D01*
X155128386Y-142463434D01*
X155335421Y-142549402D01*
X155559595Y-142549598D01*
X155766780Y-142463991D01*
X155925434Y-142305614D01*
X156011402Y-142098579D01*
X156011598Y-141874405D01*
X155925991Y-141667220D01*
X155767614Y-141508566D01*
X155560579Y-141422598D01*
X155336405Y-141422402D01*
X155129220Y-141508009D01*
X154970566Y-141666386D01*
X154884598Y-141873421D01*
X154884402Y-142097595D01*
X148886868Y-142097595D01*
X148813991Y-141921220D01*
X148655614Y-141762566D01*
X148448579Y-141676598D01*
X148224405Y-141676402D01*
X148017220Y-141762009D01*
X147858566Y-141920386D01*
X147772598Y-142127421D01*
X147772402Y-142351595D01*
X134380662Y-142351595D01*
X134380662Y-141376400D01*
X134362288Y-141278753D01*
X134304579Y-141189070D01*
X134216525Y-141128905D01*
X134112000Y-141107738D01*
X132080000Y-141107738D01*
X131982353Y-141126112D01*
X131892670Y-141183821D01*
X131832505Y-141271875D01*
X131811338Y-141376400D01*
X129048624Y-141376400D01*
X129255613Y-141169772D01*
X129387350Y-140852514D01*
X129387371Y-140827595D01*
X137866402Y-140827595D01*
X137952009Y-141034780D01*
X138110386Y-141193434D01*
X138317421Y-141279402D01*
X138541595Y-141279598D01*
X138748780Y-141193991D01*
X138907434Y-141035614D01*
X138993402Y-140828579D01*
X138993402Y-140827595D01*
X139390402Y-140827595D01*
X139476009Y-141034780D01*
X139634386Y-141193434D01*
X139841421Y-141279402D01*
X140065595Y-141279598D01*
X140272780Y-141193991D01*
X140431434Y-141035614D01*
X140517402Y-140828579D01*
X140517598Y-140604405D01*
X140456430Y-140456366D01*
X140603421Y-140517402D01*
X140827595Y-140517598D01*
X141034780Y-140431991D01*
X141193434Y-140273614D01*
X141279402Y-140066579D01*
X141279402Y-140065595D01*
X145994402Y-140065595D01*
X146080009Y-140272780D01*
X146238386Y-140431434D01*
X146445421Y-140517402D01*
X146669595Y-140517598D01*
X146876780Y-140431991D01*
X146989372Y-140319595D01*
X149296402Y-140319595D01*
X149382009Y-140526780D01*
X149540386Y-140685434D01*
X149747421Y-140771402D01*
X149971595Y-140771598D01*
X150178780Y-140685991D01*
X150337434Y-140527614D01*
X150423402Y-140320579D01*
X150423598Y-140096405D01*
X150337991Y-139889220D01*
X150179614Y-139730566D01*
X149972579Y-139644598D01*
X149748405Y-139644402D01*
X149541220Y-139730009D01*
X149382566Y-139888386D01*
X149296598Y-140095421D01*
X149296402Y-140319595D01*
X146989372Y-140319595D01*
X147035434Y-140273614D01*
X147121402Y-140066579D01*
X147121598Y-139842405D01*
X147035991Y-139635220D01*
X146877614Y-139476566D01*
X146670579Y-139390598D01*
X146446405Y-139390402D01*
X146239220Y-139476009D01*
X146080566Y-139634386D01*
X145994598Y-139841421D01*
X145994402Y-140065595D01*
X141279402Y-140065595D01*
X141279483Y-139973718D01*
X141365421Y-140009402D01*
X141589595Y-140009598D01*
X141796780Y-139923991D01*
X141955434Y-139765614D01*
X142041402Y-139558579D01*
X142041598Y-139334405D01*
X141955991Y-139127220D01*
X141797614Y-138968566D01*
X141590579Y-138882598D01*
X141366405Y-138882402D01*
X141159220Y-138968009D01*
X141000566Y-139126386D01*
X140914598Y-139333421D01*
X140914517Y-139426282D01*
X140828579Y-139390598D01*
X140604405Y-139390402D01*
X140397220Y-139476009D01*
X140238566Y-139634386D01*
X140152598Y-139841421D01*
X140152402Y-140065595D01*
X140213570Y-140213634D01*
X140066579Y-140152598D01*
X139842405Y-140152402D01*
X139635220Y-140238009D01*
X139476566Y-140396386D01*
X139390598Y-140603421D01*
X139390402Y-140827595D01*
X138993402Y-140827595D01*
X138993598Y-140604405D01*
X138907991Y-140397220D01*
X138749614Y-140238566D01*
X138542579Y-140152598D01*
X138318405Y-140152402D01*
X138111220Y-140238009D01*
X137952566Y-140396386D01*
X137866598Y-140603421D01*
X137866402Y-140827595D01*
X129387371Y-140827595D01*
X129387650Y-140508993D01*
X129256467Y-140191506D01*
X129013772Y-139948387D01*
X128969775Y-139930118D01*
X129012494Y-139912467D01*
X129225332Y-139700000D01*
X131791433Y-139700000D01*
X131877228Y-140131322D01*
X132121553Y-140496980D01*
X132487211Y-140741305D01*
X132918533Y-140827100D01*
X133273467Y-140827100D01*
X133704789Y-140741305D01*
X134070447Y-140496980D01*
X134314772Y-140131322D01*
X134400567Y-139700000D01*
X134314772Y-139268678D01*
X134070447Y-138903020D01*
X133909675Y-138795595D01*
X160472402Y-138795595D01*
X160558009Y-139002780D01*
X160716386Y-139161434D01*
X160923421Y-139247402D01*
X161147595Y-139247598D01*
X161354780Y-139161991D01*
X161513434Y-139003614D01*
X161599402Y-138796579D01*
X161599598Y-138572405D01*
X161513991Y-138365220D01*
X161355614Y-138206566D01*
X161148579Y-138120598D01*
X160924405Y-138120402D01*
X160717220Y-138206009D01*
X160558566Y-138364386D01*
X160472598Y-138571421D01*
X160472402Y-138795595D01*
X133909675Y-138795595D01*
X133704789Y-138658695D01*
X133273467Y-138572900D01*
X132918533Y-138572900D01*
X132487211Y-138658695D01*
X132121553Y-138903020D01*
X131877228Y-139268678D01*
X131791433Y-139700000D01*
X129225332Y-139700000D01*
X129255613Y-139669772D01*
X129387350Y-139352514D01*
X129387650Y-139008993D01*
X129256467Y-138691506D01*
X129013772Y-138448387D01*
X128969775Y-138430118D01*
X129012494Y-138412467D01*
X129255613Y-138169772D01*
X129387350Y-137852514D01*
X129387631Y-137530500D01*
X131822116Y-137530500D01*
X131968162Y-137821603D01*
X132295597Y-138144526D01*
X132721685Y-138317563D01*
X132905500Y-138258652D01*
X132905500Y-137350500D01*
X133286500Y-137350500D01*
X133286500Y-138258652D01*
X133470315Y-138317563D01*
X133896403Y-138144526D01*
X134223838Y-137821603D01*
X134244913Y-137779595D01*
X141676402Y-137779595D01*
X141762009Y-137986780D01*
X141920386Y-138145434D01*
X142127421Y-138231402D01*
X142351595Y-138231598D01*
X142558780Y-138145991D01*
X142717434Y-137987614D01*
X142803402Y-137780579D01*
X142803598Y-137556405D01*
X142717991Y-137349220D01*
X142640502Y-137271595D01*
X143200402Y-137271595D01*
X143286009Y-137478780D01*
X143444386Y-137637434D01*
X143651421Y-137723402D01*
X143875595Y-137723598D01*
X144019625Y-137664086D01*
X144048009Y-137732780D01*
X144206386Y-137891434D01*
X144413421Y-137977402D01*
X144637595Y-137977598D01*
X144844780Y-137891991D01*
X145003434Y-137733614D01*
X145089402Y-137526579D01*
X145089598Y-137302405D01*
X145003991Y-137095220D01*
X144845614Y-136936566D01*
X144638579Y-136850598D01*
X144414405Y-136850402D01*
X144270375Y-136909914D01*
X144241991Y-136841220D01*
X144083614Y-136682566D01*
X143876579Y-136596598D01*
X143652405Y-136596402D01*
X143445220Y-136682009D01*
X143286566Y-136840386D01*
X143200598Y-137047421D01*
X143200402Y-137271595D01*
X142640502Y-137271595D01*
X142559614Y-137190566D01*
X142352579Y-137104598D01*
X142128405Y-137104402D01*
X141921220Y-137190009D01*
X141762566Y-137348386D01*
X141676598Y-137555421D01*
X141676402Y-137779595D01*
X134244913Y-137779595D01*
X134369884Y-137530500D01*
X134333530Y-137350500D01*
X133286500Y-137350500D01*
X132905500Y-137350500D01*
X131858470Y-137350500D01*
X131822116Y-137530500D01*
X129387631Y-137530500D01*
X129387650Y-137508993D01*
X129256467Y-137191506D01*
X129082860Y-137017595D01*
X136088402Y-137017595D01*
X136174009Y-137224780D01*
X136332386Y-137383434D01*
X136539421Y-137469402D01*
X136763595Y-137469598D01*
X136970780Y-137383991D01*
X137129434Y-137225614D01*
X137215402Y-137018579D01*
X137215598Y-136794405D01*
X137129991Y-136587220D01*
X137052502Y-136509595D01*
X147010402Y-136509595D01*
X147096009Y-136716780D01*
X147254386Y-136875434D01*
X147461421Y-136961402D01*
X147685595Y-136961598D01*
X147833634Y-136900430D01*
X147772598Y-137047421D01*
X147772402Y-137271595D01*
X147858009Y-137478780D01*
X148016386Y-137637434D01*
X148223421Y-137723402D01*
X148447595Y-137723598D01*
X148654780Y-137637991D01*
X148767372Y-137525595D01*
X155646402Y-137525595D01*
X155732009Y-137732780D01*
X155890386Y-137891434D01*
X156097421Y-137977402D01*
X156321595Y-137977598D01*
X156528780Y-137891991D01*
X156687434Y-137733614D01*
X156773402Y-137526579D01*
X156773598Y-137302405D01*
X156687991Y-137095220D01*
X156529614Y-136936566D01*
X156322579Y-136850598D01*
X156098405Y-136850402D01*
X155891220Y-136936009D01*
X155732566Y-137094386D01*
X155646598Y-137301421D01*
X155646402Y-137525595D01*
X148767372Y-137525595D01*
X148813434Y-137479614D01*
X148899402Y-137272579D01*
X148899598Y-137048405D01*
X148813991Y-136841220D01*
X148655614Y-136682566D01*
X148448579Y-136596598D01*
X148224405Y-136596402D01*
X148076366Y-136657570D01*
X148137402Y-136510579D01*
X148137598Y-136286405D01*
X148076430Y-136138366D01*
X148223421Y-136199402D01*
X148447595Y-136199598D01*
X148654780Y-136113991D01*
X148813434Y-135955614D01*
X148899402Y-135748579D01*
X148899598Y-135524405D01*
X148813991Y-135317220D01*
X148655614Y-135158566D01*
X148448579Y-135072598D01*
X148224405Y-135072402D01*
X148017220Y-135158009D01*
X147858566Y-135316386D01*
X147772598Y-135523421D01*
X147772402Y-135747595D01*
X147833570Y-135895634D01*
X147686579Y-135834598D01*
X147462405Y-135834402D01*
X147255220Y-135920009D01*
X147096566Y-136078386D01*
X147010598Y-136285421D01*
X147010402Y-136509595D01*
X137052502Y-136509595D01*
X136971614Y-136428566D01*
X136764579Y-136342598D01*
X136540405Y-136342402D01*
X136333220Y-136428009D01*
X136174566Y-136586386D01*
X136088598Y-136793421D01*
X136088402Y-137017595D01*
X129082860Y-137017595D01*
X129013772Y-136948387D01*
X128969775Y-136930118D01*
X129012494Y-136912467D01*
X129135675Y-136789500D01*
X131822116Y-136789500D01*
X131858470Y-136969500D01*
X132905500Y-136969500D01*
X132905500Y-136061348D01*
X133286500Y-136061348D01*
X133286500Y-136969500D01*
X134333530Y-136969500D01*
X134369884Y-136789500D01*
X134223838Y-136498397D01*
X133896403Y-136175474D01*
X133470315Y-136002437D01*
X133286500Y-136061348D01*
X132905500Y-136061348D01*
X132721685Y-136002437D01*
X132295597Y-136175474D01*
X131968162Y-136498397D01*
X131822116Y-136789500D01*
X129135675Y-136789500D01*
X129255613Y-136669772D01*
X129387350Y-136352514D01*
X129387650Y-136008993D01*
X129256467Y-135691506D01*
X129013772Y-135448387D01*
X128969775Y-135430118D01*
X129012494Y-135412467D01*
X129185668Y-135239595D01*
X144724402Y-135239595D01*
X144810009Y-135446780D01*
X144968386Y-135605434D01*
X145175421Y-135691402D01*
X145399595Y-135691598D01*
X145547634Y-135630430D01*
X145486598Y-135777421D01*
X145486402Y-136001595D01*
X145572009Y-136208780D01*
X145730386Y-136367434D01*
X145937421Y-136453402D01*
X146161595Y-136453598D01*
X146368780Y-136367991D01*
X146527434Y-136209614D01*
X146613402Y-136002579D01*
X146613598Y-135778405D01*
X146527991Y-135571220D01*
X146369614Y-135412566D01*
X146162579Y-135326598D01*
X145938405Y-135326402D01*
X145790366Y-135387570D01*
X145851402Y-135240579D01*
X145851598Y-135016405D01*
X145765991Y-134809220D01*
X145688502Y-134731595D01*
X150058402Y-134731595D01*
X150144009Y-134938780D01*
X150206090Y-135000969D01*
X150144566Y-135062386D01*
X150058598Y-135269421D01*
X150058402Y-135493595D01*
X150144009Y-135700780D01*
X150302386Y-135859434D01*
X150509421Y-135945402D01*
X150733595Y-135945598D01*
X150940780Y-135859991D01*
X151099434Y-135701614D01*
X151185402Y-135494579D01*
X151185598Y-135270405D01*
X151099991Y-135063220D01*
X151037910Y-135001031D01*
X151099434Y-134939614D01*
X151185402Y-134732579D01*
X151185598Y-134508405D01*
X151099991Y-134301220D01*
X150941614Y-134142566D01*
X150734579Y-134056598D01*
X150510405Y-134056402D01*
X150303220Y-134142009D01*
X150144566Y-134300386D01*
X150058598Y-134507421D01*
X150058402Y-134731595D01*
X145688502Y-134731595D01*
X145607614Y-134650566D01*
X145400579Y-134564598D01*
X145176405Y-134564402D01*
X144969220Y-134650009D01*
X144810566Y-134808386D01*
X144724598Y-135015421D01*
X144724402Y-135239595D01*
X129185668Y-135239595D01*
X129255613Y-135169772D01*
X129387350Y-134852514D01*
X129387455Y-134731595D01*
X136088402Y-134731595D01*
X136174009Y-134938780D01*
X136332386Y-135097434D01*
X136539421Y-135183402D01*
X136763595Y-135183598D01*
X136970780Y-135097991D01*
X137129434Y-134939614D01*
X137215402Y-134732579D01*
X137215598Y-134508405D01*
X137129991Y-134301220D01*
X136971614Y-134142566D01*
X136764579Y-134056598D01*
X136540405Y-134056402D01*
X136333220Y-134142009D01*
X136174566Y-134300386D01*
X136088598Y-134507421D01*
X136088402Y-134731595D01*
X129387455Y-134731595D01*
X129387650Y-134508993D01*
X129256467Y-134191506D01*
X129013772Y-133948387D01*
X128696514Y-133816650D01*
X128352993Y-133816350D01*
X128035506Y-133947533D01*
X127792387Y-134190228D01*
X127660650Y-134507486D01*
X127660350Y-134851007D01*
X126301500Y-134851007D01*
X126301500Y-132445595D01*
X136088402Y-132445595D01*
X136174009Y-132652780D01*
X136332386Y-132811434D01*
X136539421Y-132897402D01*
X136763595Y-132897598D01*
X136970780Y-132811991D01*
X137129434Y-132653614D01*
X137215402Y-132446579D01*
X137215598Y-132222405D01*
X137129991Y-132015220D01*
X136971614Y-131856566D01*
X136764579Y-131770598D01*
X136540405Y-131770402D01*
X136333220Y-131856009D01*
X136174566Y-132014386D01*
X136088598Y-132221421D01*
X136088402Y-132445595D01*
X126301500Y-132445595D01*
X126301500Y-131683595D01*
X143200402Y-131683595D01*
X143286009Y-131890780D01*
X143444386Y-132049434D01*
X143517923Y-132079969D01*
X143445220Y-132110009D01*
X143286566Y-132268386D01*
X143200598Y-132475421D01*
X143200402Y-132699595D01*
X143286009Y-132906780D01*
X143444386Y-133065434D01*
X143517923Y-133095969D01*
X143445220Y-133126009D01*
X143286566Y-133284386D01*
X143200598Y-133491421D01*
X143200402Y-133715595D01*
X143286009Y-133922780D01*
X143444386Y-134081434D01*
X143651421Y-134167402D01*
X143875595Y-134167598D01*
X144082780Y-134081991D01*
X144241434Y-133923614D01*
X144327402Y-133716579D01*
X144327598Y-133492405D01*
X144241991Y-133285220D01*
X144164502Y-133207595D01*
X155138402Y-133207595D01*
X155224009Y-133414780D01*
X155382386Y-133573434D01*
X155589421Y-133659402D01*
X155813595Y-133659598D01*
X156020780Y-133573991D01*
X156179434Y-133415614D01*
X156265402Y-133208579D01*
X156265598Y-132984405D01*
X156179991Y-132777220D01*
X156021614Y-132618566D01*
X155814579Y-132532598D01*
X155590405Y-132532402D01*
X155383220Y-132618009D01*
X155224566Y-132776386D01*
X155138598Y-132983421D01*
X155138402Y-133207595D01*
X144164502Y-133207595D01*
X144083614Y-133126566D01*
X144010077Y-133096031D01*
X144082780Y-133065991D01*
X144241434Y-132907614D01*
X144327402Y-132700579D01*
X144327598Y-132476405D01*
X144314868Y-132445595D01*
X152852402Y-132445595D01*
X152938009Y-132652780D01*
X153096386Y-132811434D01*
X153303421Y-132897402D01*
X153527595Y-132897598D01*
X153734780Y-132811991D01*
X153893434Y-132653614D01*
X153979402Y-132446579D01*
X153979402Y-132445595D01*
X159710402Y-132445595D01*
X159796009Y-132652780D01*
X159954386Y-132811434D01*
X160161421Y-132897402D01*
X160385595Y-132897598D01*
X160592780Y-132811991D01*
X160751434Y-132653614D01*
X160837402Y-132446579D01*
X160837598Y-132222405D01*
X160751991Y-132015220D01*
X160593614Y-131856566D01*
X160386579Y-131770598D01*
X160162405Y-131770402D01*
X159955220Y-131856009D01*
X159796566Y-132014386D01*
X159710598Y-132221421D01*
X159710402Y-132445595D01*
X153979402Y-132445595D01*
X153979598Y-132222405D01*
X153893991Y-132015220D01*
X153735614Y-131856566D01*
X153528579Y-131770598D01*
X153304405Y-131770402D01*
X153097220Y-131856009D01*
X152938566Y-132014386D01*
X152852598Y-132221421D01*
X152852402Y-132445595D01*
X144314868Y-132445595D01*
X144241991Y-132269220D01*
X144083614Y-132110566D01*
X144010077Y-132080031D01*
X144082780Y-132049991D01*
X144144969Y-131987910D01*
X144206386Y-132049434D01*
X144413421Y-132135402D01*
X144637595Y-132135598D01*
X144844780Y-132049991D01*
X144957372Y-131937595D01*
X145740402Y-131937595D01*
X145826009Y-132144780D01*
X145984386Y-132303434D01*
X146191421Y-132389402D01*
X146415595Y-132389598D01*
X146622780Y-132303991D01*
X146781434Y-132145614D01*
X146867402Y-131938579D01*
X146867598Y-131714405D01*
X146781991Y-131507220D01*
X146623614Y-131348566D01*
X146416579Y-131262598D01*
X146192405Y-131262402D01*
X145985220Y-131348009D01*
X145826566Y-131506386D01*
X145740598Y-131713421D01*
X145740402Y-131937595D01*
X144957372Y-131937595D01*
X145003434Y-131891614D01*
X145089402Y-131684579D01*
X145089598Y-131460405D01*
X145003991Y-131253220D01*
X144845614Y-131094566D01*
X144638579Y-131008598D01*
X144414405Y-131008402D01*
X144207220Y-131094009D01*
X144145031Y-131156090D01*
X144083614Y-131094566D01*
X143876579Y-131008598D01*
X143652405Y-131008402D01*
X143445220Y-131094009D01*
X143286566Y-131252386D01*
X143200598Y-131459421D01*
X143200402Y-131683595D01*
X126301500Y-131683595D01*
X126301500Y-130667595D01*
X137104402Y-130667595D01*
X137190009Y-130874780D01*
X137348386Y-131033434D01*
X137555421Y-131119402D01*
X137779595Y-131119598D01*
X137986780Y-131033991D01*
X138145434Y-130875614D01*
X138231402Y-130668579D01*
X138231598Y-130444405D01*
X138145991Y-130237220D01*
X138068502Y-130159595D01*
X148026402Y-130159595D01*
X148112009Y-130366780D01*
X148270386Y-130525434D01*
X148477421Y-130611402D01*
X148701595Y-130611598D01*
X148908780Y-130525991D01*
X149021372Y-130413595D01*
X154884402Y-130413595D01*
X154970009Y-130620780D01*
X155128386Y-130779434D01*
X155335421Y-130865402D01*
X155559595Y-130865598D01*
X155766780Y-130779991D01*
X155925434Y-130621614D01*
X156011402Y-130414579D01*
X156011598Y-130190405D01*
X155925991Y-129983220D01*
X155767614Y-129824566D01*
X155560579Y-129738598D01*
X155336405Y-129738402D01*
X155129220Y-129824009D01*
X154970566Y-129982386D01*
X154884598Y-130189421D01*
X154884402Y-130413595D01*
X149021372Y-130413595D01*
X149067434Y-130367614D01*
X149153402Y-130160579D01*
X149153598Y-129936405D01*
X149067991Y-129729220D01*
X148990502Y-129651595D01*
X158694402Y-129651595D01*
X158780009Y-129858780D01*
X158938386Y-130017434D01*
X159145421Y-130103402D01*
X159369595Y-130103598D01*
X159576780Y-130017991D01*
X159735434Y-129859614D01*
X159821402Y-129652579D01*
X159821598Y-129428405D01*
X159735991Y-129221220D01*
X159577614Y-129062566D01*
X159370579Y-128976598D01*
X159146405Y-128976402D01*
X158939220Y-129062009D01*
X158780566Y-129220386D01*
X158694598Y-129427421D01*
X158694402Y-129651595D01*
X148990502Y-129651595D01*
X148909614Y-129570566D01*
X148702579Y-129484598D01*
X148478405Y-129484402D01*
X148271220Y-129570009D01*
X148112566Y-129728386D01*
X148026598Y-129935421D01*
X148026402Y-130159595D01*
X138068502Y-130159595D01*
X137987614Y-130078566D01*
X137780579Y-129992598D01*
X137556405Y-129992402D01*
X137349220Y-130078009D01*
X137190566Y-130236386D01*
X137104598Y-130443421D01*
X137104402Y-130667595D01*
X126301500Y-130667595D01*
X126301500Y-129397595D01*
X139390402Y-129397595D01*
X139476009Y-129604780D01*
X139634386Y-129763434D01*
X139841421Y-129849402D01*
X140065595Y-129849598D01*
X140272780Y-129763991D01*
X140431434Y-129605614D01*
X140517402Y-129398579D01*
X140517402Y-129397595D01*
X140660402Y-129397595D01*
X140746009Y-129604780D01*
X140904386Y-129763434D01*
X141111421Y-129849402D01*
X141335595Y-129849598D01*
X141542780Y-129763991D01*
X141655372Y-129651595D01*
X143454402Y-129651595D01*
X143540009Y-129858780D01*
X143698386Y-130017434D01*
X143905421Y-130103402D01*
X144129595Y-130103598D01*
X144336780Y-130017991D01*
X144495434Y-129859614D01*
X144581402Y-129652579D01*
X144581598Y-129428405D01*
X144495991Y-129221220D01*
X144337614Y-129062566D01*
X144130579Y-128976598D01*
X143906405Y-128976402D01*
X143699220Y-129062009D01*
X143540566Y-129220386D01*
X143454598Y-129427421D01*
X143454402Y-129651595D01*
X141655372Y-129651595D01*
X141701434Y-129605614D01*
X141787402Y-129398579D01*
X141787598Y-129174405D01*
X141701991Y-128967220D01*
X141543614Y-128808566D01*
X141336579Y-128722598D01*
X141112405Y-128722402D01*
X140905220Y-128808009D01*
X140746566Y-128966386D01*
X140660598Y-129173421D01*
X140660402Y-129397595D01*
X140517402Y-129397595D01*
X140517598Y-129174405D01*
X140431991Y-128967220D01*
X140273614Y-128808566D01*
X140066579Y-128722598D01*
X139842405Y-128722402D01*
X139635220Y-128808009D01*
X139476566Y-128966386D01*
X139390598Y-129173421D01*
X139390402Y-129397595D01*
X126301500Y-129397595D01*
X126301500Y-128381595D01*
X141676402Y-128381595D01*
X141762009Y-128588780D01*
X141920386Y-128747434D01*
X142127421Y-128833402D01*
X142351595Y-128833598D01*
X142558780Y-128747991D01*
X142671372Y-128635595D01*
X152852402Y-128635595D01*
X152938009Y-128842780D01*
X153096386Y-129001434D01*
X153303421Y-129087402D01*
X153527595Y-129087598D01*
X153734780Y-129001991D01*
X153893434Y-128843614D01*
X153979402Y-128636579D01*
X153979598Y-128412405D01*
X153893991Y-128205220D01*
X153735614Y-128046566D01*
X153528579Y-127960598D01*
X153304405Y-127960402D01*
X153097220Y-128046009D01*
X152938566Y-128204386D01*
X152852598Y-128411421D01*
X152852402Y-128635595D01*
X142671372Y-128635595D01*
X142717434Y-128589614D01*
X142803402Y-128382579D01*
X142803598Y-128158405D01*
X142717991Y-127951220D01*
X142559614Y-127792566D01*
X142352579Y-127706598D01*
X142128405Y-127706402D01*
X141921220Y-127792009D01*
X141762566Y-127950386D01*
X141676598Y-128157421D01*
X141676402Y-128381595D01*
X126301500Y-128381595D01*
X126301500Y-126603595D01*
X132786402Y-126603595D01*
X132872009Y-126810780D01*
X133030386Y-126969434D01*
X133237421Y-127055402D01*
X133461595Y-127055598D01*
X133668780Y-126969991D01*
X133827434Y-126811614D01*
X133857969Y-126738077D01*
X133888009Y-126810780D01*
X134046386Y-126969434D01*
X134253421Y-127055402D01*
X134477595Y-127055598D01*
X134684780Y-126969991D01*
X134843434Y-126811614D01*
X134873969Y-126738077D01*
X134904009Y-126810780D01*
X135062386Y-126969434D01*
X135269421Y-127055402D01*
X135493595Y-127055598D01*
X135700780Y-126969991D01*
X135859434Y-126811614D01*
X135945402Y-126604579D01*
X135945402Y-126603595D01*
X154884402Y-126603595D01*
X154970009Y-126810780D01*
X155032090Y-126872969D01*
X154970566Y-126934386D01*
X154884598Y-127141421D01*
X154884402Y-127365595D01*
X154970009Y-127572780D01*
X155032090Y-127634969D01*
X154970566Y-127696386D01*
X154884598Y-127903421D01*
X154884402Y-128127595D01*
X154970009Y-128334780D01*
X155032090Y-128396969D01*
X154970566Y-128458386D01*
X154884598Y-128665421D01*
X154884402Y-128889595D01*
X154970009Y-129096780D01*
X155128386Y-129255434D01*
X155335421Y-129341402D01*
X155559595Y-129341598D01*
X155766780Y-129255991D01*
X155925434Y-129097614D01*
X156011402Y-128890579D01*
X156011598Y-128666405D01*
X155925991Y-128459220D01*
X155863910Y-128397031D01*
X155925434Y-128335614D01*
X156011402Y-128128579D01*
X156011598Y-127904405D01*
X155925991Y-127697220D01*
X155863910Y-127635031D01*
X155925434Y-127573614D01*
X156011402Y-127366579D01*
X156011598Y-127142405D01*
X155925991Y-126935220D01*
X155863910Y-126873031D01*
X155925434Y-126811614D01*
X156011402Y-126604579D01*
X156011598Y-126380405D01*
X155998868Y-126349595D01*
X160472402Y-126349595D01*
X160558009Y-126556780D01*
X160716386Y-126715434D01*
X160923421Y-126801402D01*
X161147595Y-126801598D01*
X161354780Y-126715991D01*
X161513434Y-126557614D01*
X161599402Y-126350579D01*
X161599598Y-126126405D01*
X161513991Y-125919220D01*
X161355614Y-125760566D01*
X161148579Y-125674598D01*
X160924405Y-125674402D01*
X160717220Y-125760009D01*
X160558566Y-125918386D01*
X160472598Y-126125421D01*
X160472402Y-126349595D01*
X155998868Y-126349595D01*
X155925991Y-126173220D01*
X155767614Y-126014566D01*
X155560579Y-125928598D01*
X155336405Y-125928402D01*
X155129220Y-126014009D01*
X154970566Y-126172386D01*
X154884598Y-126379421D01*
X154884402Y-126603595D01*
X135945402Y-126603595D01*
X135945598Y-126380405D01*
X135859991Y-126173220D01*
X135701614Y-126014566D01*
X135494579Y-125928598D01*
X135270405Y-125928402D01*
X135063220Y-126014009D01*
X134904566Y-126172386D01*
X134874031Y-126245923D01*
X134843991Y-126173220D01*
X134685614Y-126014566D01*
X134478579Y-125928598D01*
X134254405Y-125928402D01*
X134047220Y-126014009D01*
X133888566Y-126172386D01*
X133858031Y-126245923D01*
X133827991Y-126173220D01*
X133669614Y-126014566D01*
X133462579Y-125928598D01*
X133238405Y-125928402D01*
X133031220Y-126014009D01*
X132872566Y-126172386D01*
X132786598Y-126379421D01*
X132786402Y-126603595D01*
X126301500Y-126603595D01*
X126301500Y-124317595D01*
X141168402Y-124317595D01*
X141254009Y-124524780D01*
X141412386Y-124683434D01*
X141485923Y-124713969D01*
X141413220Y-124744009D01*
X141254566Y-124902386D01*
X141168598Y-125109421D01*
X141168402Y-125333595D01*
X141254009Y-125540780D01*
X141412386Y-125699434D01*
X141619421Y-125785402D01*
X141843595Y-125785598D01*
X142050780Y-125699991D01*
X142209434Y-125541614D01*
X142239969Y-125468077D01*
X142270009Y-125540780D01*
X142428386Y-125699434D01*
X142635421Y-125785402D01*
X142859595Y-125785598D01*
X143066780Y-125699991D01*
X143225434Y-125541614D01*
X143255969Y-125468077D01*
X143286009Y-125540780D01*
X143444386Y-125699434D01*
X143651421Y-125785402D01*
X143875595Y-125785598D01*
X144082780Y-125699991D01*
X144241434Y-125541614D01*
X144271969Y-125468077D01*
X144302009Y-125540780D01*
X144460386Y-125699434D01*
X144667421Y-125785402D01*
X144891595Y-125785598D01*
X145098780Y-125699991D01*
X145257434Y-125541614D01*
X145343402Y-125334579D01*
X145343598Y-125110405D01*
X145257991Y-124903220D01*
X145099614Y-124744566D01*
X145026077Y-124714031D01*
X145098780Y-124683991D01*
X145211372Y-124571595D01*
X159710402Y-124571595D01*
X159796009Y-124778780D01*
X159954386Y-124937434D01*
X160161421Y-125023402D01*
X160385595Y-125023598D01*
X160592780Y-124937991D01*
X160751434Y-124779614D01*
X160837402Y-124572579D01*
X160837598Y-124348405D01*
X160751991Y-124141220D01*
X160593614Y-123982566D01*
X160386579Y-123896598D01*
X160162405Y-123896402D01*
X159955220Y-123982009D01*
X159796566Y-124140386D01*
X159710598Y-124347421D01*
X159710402Y-124571595D01*
X145211372Y-124571595D01*
X145257434Y-124525614D01*
X145343402Y-124318579D01*
X145343598Y-124094405D01*
X145257991Y-123887220D01*
X145099614Y-123728566D01*
X144892579Y-123642598D01*
X144668405Y-123642402D01*
X144461220Y-123728009D01*
X144302566Y-123886386D01*
X144272031Y-123959923D01*
X144241991Y-123887220D01*
X144083614Y-123728566D01*
X143876579Y-123642598D01*
X143652405Y-123642402D01*
X143445220Y-123728009D01*
X143286566Y-123886386D01*
X143256031Y-123959923D01*
X143225991Y-123887220D01*
X143067614Y-123728566D01*
X142860579Y-123642598D01*
X142636405Y-123642402D01*
X142429220Y-123728009D01*
X142270566Y-123886386D01*
X142240031Y-123959923D01*
X142209991Y-123887220D01*
X142051614Y-123728566D01*
X141844579Y-123642598D01*
X141620405Y-123642402D01*
X141413220Y-123728009D01*
X141254566Y-123886386D01*
X141168598Y-124093421D01*
X141168402Y-124317595D01*
X126301500Y-124317595D01*
X126301500Y-121015595D01*
X126944402Y-121015595D01*
X127030009Y-121222780D01*
X127188386Y-121381434D01*
X127261923Y-121411969D01*
X127189220Y-121442009D01*
X127030566Y-121600386D01*
X126944598Y-121807421D01*
X126944402Y-122031595D01*
X127030009Y-122238780D01*
X127188386Y-122397434D01*
X127261923Y-122427969D01*
X127189220Y-122458009D01*
X127030566Y-122616386D01*
X126944598Y-122823421D01*
X126944402Y-123047595D01*
X127030009Y-123254780D01*
X127188386Y-123413434D01*
X127395421Y-123499402D01*
X127619595Y-123499598D01*
X127826780Y-123413991D01*
X127985434Y-123255614D01*
X128015969Y-123182077D01*
X128046009Y-123254780D01*
X128204386Y-123413434D01*
X128411421Y-123499402D01*
X128635595Y-123499598D01*
X128842780Y-123413991D01*
X129001434Y-123255614D01*
X129031969Y-123182077D01*
X129062009Y-123254780D01*
X129220386Y-123413434D01*
X129427421Y-123499402D01*
X129651595Y-123499598D01*
X129858780Y-123413991D01*
X130017434Y-123255614D01*
X130047969Y-123182077D01*
X130078009Y-123254780D01*
X130236386Y-123413434D01*
X130443421Y-123499402D01*
X130667595Y-123499598D01*
X130874780Y-123413991D01*
X131033434Y-123255614D01*
X131063969Y-123182077D01*
X131094009Y-123254780D01*
X131252386Y-123413434D01*
X131459421Y-123499402D01*
X131683595Y-123499598D01*
X131890780Y-123413991D01*
X132049434Y-123255614D01*
X132079969Y-123182077D01*
X132110009Y-123254780D01*
X132268386Y-123413434D01*
X132475421Y-123499402D01*
X132699595Y-123499598D01*
X132906780Y-123413991D01*
X133065434Y-123255614D01*
X133095969Y-123182077D01*
X133126009Y-123254780D01*
X133284386Y-123413434D01*
X133491421Y-123499402D01*
X133715595Y-123499598D01*
X133922780Y-123413991D01*
X134081434Y-123255614D01*
X134167402Y-123048579D01*
X134167598Y-122824405D01*
X134081991Y-122617220D01*
X134004502Y-122539595D01*
X159710402Y-122539595D01*
X159796009Y-122746780D01*
X159954386Y-122905434D01*
X160161421Y-122991402D01*
X160385595Y-122991598D01*
X160592780Y-122905991D01*
X160751434Y-122747614D01*
X160837402Y-122540579D01*
X160837598Y-122316405D01*
X160751991Y-122109220D01*
X160593614Y-121950566D01*
X160386579Y-121864598D01*
X160162405Y-121864402D01*
X159955220Y-121950009D01*
X159796566Y-122108386D01*
X159710598Y-122315421D01*
X159710402Y-122539595D01*
X134004502Y-122539595D01*
X133923614Y-122458566D01*
X133850077Y-122428031D01*
X133922780Y-122397991D01*
X134081434Y-122239614D01*
X134167402Y-122032579D01*
X134167598Y-121808405D01*
X134154868Y-121777595D01*
X148026402Y-121777595D01*
X148112009Y-121984780D01*
X148270386Y-122143434D01*
X148477421Y-122229402D01*
X148701595Y-122229598D01*
X148908780Y-122143991D01*
X149067434Y-121985614D01*
X149153402Y-121778579D01*
X149153598Y-121554405D01*
X149067991Y-121347220D01*
X148909614Y-121188566D01*
X148702579Y-121102598D01*
X148478405Y-121102402D01*
X148271220Y-121188009D01*
X148112566Y-121346386D01*
X148026598Y-121553421D01*
X148026402Y-121777595D01*
X134154868Y-121777595D01*
X134081991Y-121601220D01*
X133923614Y-121442566D01*
X133850077Y-121412031D01*
X133922780Y-121381991D01*
X134081434Y-121223614D01*
X134167402Y-121016579D01*
X134167402Y-121015595D01*
X134818402Y-121015595D01*
X134904009Y-121222780D01*
X135062386Y-121381434D01*
X135269421Y-121467402D01*
X135493595Y-121467598D01*
X135700780Y-121381991D01*
X135859434Y-121223614D01*
X135945402Y-121016579D01*
X135945402Y-121015595D01*
X139898402Y-121015595D01*
X139984009Y-121222780D01*
X140142386Y-121381434D01*
X140349421Y-121467402D01*
X140573595Y-121467598D01*
X140780780Y-121381991D01*
X140939434Y-121223614D01*
X141025402Y-121016579D01*
X141025598Y-120792405D01*
X140939991Y-120585220D01*
X140781614Y-120426566D01*
X140574579Y-120340598D01*
X140350405Y-120340402D01*
X140143220Y-120426009D01*
X139984566Y-120584386D01*
X139898598Y-120791421D01*
X139898402Y-121015595D01*
X135945402Y-121015595D01*
X135945598Y-120792405D01*
X135859991Y-120585220D01*
X135701614Y-120426566D01*
X135494579Y-120340598D01*
X135270405Y-120340402D01*
X135063220Y-120426009D01*
X134904566Y-120584386D01*
X134818598Y-120791421D01*
X134818402Y-121015595D01*
X134167402Y-121015595D01*
X134167598Y-120792405D01*
X134081991Y-120585220D01*
X133923614Y-120426566D01*
X133716579Y-120340598D01*
X133492405Y-120340402D01*
X133285220Y-120426009D01*
X133126566Y-120584386D01*
X133096031Y-120657923D01*
X133065991Y-120585220D01*
X132907614Y-120426566D01*
X132700579Y-120340598D01*
X132476405Y-120340402D01*
X132269220Y-120426009D01*
X132110566Y-120584386D01*
X132080031Y-120657923D01*
X132049991Y-120585220D01*
X131891614Y-120426566D01*
X131684579Y-120340598D01*
X131460405Y-120340402D01*
X131253220Y-120426009D01*
X131094566Y-120584386D01*
X131064031Y-120657923D01*
X131033991Y-120585220D01*
X130875614Y-120426566D01*
X130668579Y-120340598D01*
X130444405Y-120340402D01*
X130237220Y-120426009D01*
X130078566Y-120584386D01*
X130048031Y-120657923D01*
X130017991Y-120585220D01*
X129859614Y-120426566D01*
X129652579Y-120340598D01*
X129428405Y-120340402D01*
X129221220Y-120426009D01*
X129062566Y-120584386D01*
X129032031Y-120657923D01*
X129001991Y-120585220D01*
X128843614Y-120426566D01*
X128636579Y-120340598D01*
X128412405Y-120340402D01*
X128205220Y-120426009D01*
X128046566Y-120584386D01*
X128016031Y-120657923D01*
X127985991Y-120585220D01*
X127827614Y-120426566D01*
X127620579Y-120340598D01*
X127396405Y-120340402D01*
X127189220Y-120426009D01*
X127030566Y-120584386D01*
X126944598Y-120791421D01*
X126944402Y-121015595D01*
X126301500Y-121015595D01*
X126301500Y-119999595D01*
X147010402Y-119999595D01*
X147096009Y-120206780D01*
X147254386Y-120365434D01*
X147461421Y-120451402D01*
X147685595Y-120451598D01*
X147892780Y-120365991D01*
X148005372Y-120253595D01*
X150820402Y-120253595D01*
X150906009Y-120460780D01*
X151064386Y-120619434D01*
X151271421Y-120705402D01*
X151495595Y-120705598D01*
X151702780Y-120619991D01*
X151861434Y-120461614D01*
X151947402Y-120254579D01*
X151947598Y-120030405D01*
X151934868Y-119999595D01*
X157170402Y-119999595D01*
X157256009Y-120206780D01*
X157414386Y-120365434D01*
X157621421Y-120451402D01*
X157845595Y-120451598D01*
X158052780Y-120365991D01*
X158211434Y-120207614D01*
X158297402Y-120000579D01*
X158297598Y-119776405D01*
X158211991Y-119569220D01*
X158053614Y-119410566D01*
X157846579Y-119324598D01*
X157622405Y-119324402D01*
X157415220Y-119410009D01*
X157256566Y-119568386D01*
X157170598Y-119775421D01*
X157170402Y-119999595D01*
X151934868Y-119999595D01*
X151861991Y-119823220D01*
X151703614Y-119664566D01*
X151496579Y-119578598D01*
X151272405Y-119578402D01*
X151065220Y-119664009D01*
X150906566Y-119822386D01*
X150820598Y-120029421D01*
X150820402Y-120253595D01*
X148005372Y-120253595D01*
X148051434Y-120207614D01*
X148137402Y-120000579D01*
X148137598Y-119776405D01*
X148051991Y-119569220D01*
X147893614Y-119410566D01*
X147686579Y-119324598D01*
X147462405Y-119324402D01*
X147255220Y-119410009D01*
X147096566Y-119568386D01*
X147010598Y-119775421D01*
X147010402Y-119999595D01*
X126301500Y-119999595D01*
X126301500Y-115681595D01*
X134818402Y-115681595D01*
X134904009Y-115888780D01*
X135062386Y-116047434D01*
X135269421Y-116133402D01*
X135493595Y-116133598D01*
X135700780Y-116047991D01*
X135859434Y-115889614D01*
X135945402Y-115682579D01*
X135945598Y-115458405D01*
X135932868Y-115427595D01*
X140660402Y-115427595D01*
X140746009Y-115634780D01*
X140904386Y-115793434D01*
X141111421Y-115879402D01*
X141335595Y-115879598D01*
X141542780Y-115793991D01*
X141701434Y-115635614D01*
X141787402Y-115428579D01*
X141787598Y-115204405D01*
X141774868Y-115173595D01*
X142692402Y-115173595D01*
X142778009Y-115380780D01*
X142936386Y-115539434D01*
X143009923Y-115569969D01*
X142937220Y-115600009D01*
X142778566Y-115758386D01*
X142692598Y-115965421D01*
X142692402Y-116189595D01*
X142778009Y-116396780D01*
X142936386Y-116555434D01*
X143009923Y-116585969D01*
X142937220Y-116616009D01*
X142778566Y-116774386D01*
X142692598Y-116981421D01*
X142692402Y-117205595D01*
X142778009Y-117412780D01*
X142936386Y-117571434D01*
X143143421Y-117657402D01*
X143367595Y-117657598D01*
X143574780Y-117571991D01*
X143733434Y-117413614D01*
X143763969Y-117340077D01*
X143794009Y-117412780D01*
X143952386Y-117571434D01*
X144159421Y-117657402D01*
X144383595Y-117657598D01*
X144590780Y-117571991D01*
X144749434Y-117413614D01*
X144779969Y-117340077D01*
X144810009Y-117412780D01*
X144968386Y-117571434D01*
X145175421Y-117657402D01*
X145399595Y-117657598D01*
X145606780Y-117571991D01*
X145765434Y-117413614D01*
X145795969Y-117340077D01*
X145826009Y-117412780D01*
X145984386Y-117571434D01*
X146191421Y-117657402D01*
X146415595Y-117657598D01*
X146622780Y-117571991D01*
X146781434Y-117413614D01*
X146811969Y-117340077D01*
X146842009Y-117412780D01*
X147000386Y-117571434D01*
X147207421Y-117657402D01*
X147431595Y-117657598D01*
X147638780Y-117571991D01*
X147797434Y-117413614D01*
X147827969Y-117340077D01*
X147858009Y-117412780D01*
X148016386Y-117571434D01*
X148223421Y-117657402D01*
X148447595Y-117657598D01*
X148654780Y-117571991D01*
X148813434Y-117413614D01*
X148843969Y-117340077D01*
X148874009Y-117412780D01*
X149032386Y-117571434D01*
X149239421Y-117657402D01*
X149463595Y-117657598D01*
X149670780Y-117571991D01*
X149829434Y-117413614D01*
X149915402Y-117206579D01*
X149915598Y-116982405D01*
X149829991Y-116775220D01*
X149671614Y-116616566D01*
X149598077Y-116586031D01*
X149670780Y-116555991D01*
X149829434Y-116397614D01*
X149915402Y-116190579D01*
X149915402Y-116189595D01*
X155646402Y-116189595D01*
X155732009Y-116396780D01*
X155890386Y-116555434D01*
X156097421Y-116641402D01*
X156321595Y-116641598D01*
X156528780Y-116555991D01*
X156687434Y-116397614D01*
X156773402Y-116190579D01*
X156773402Y-116189595D01*
X157932402Y-116189595D01*
X158018009Y-116396780D01*
X158176386Y-116555434D01*
X158383421Y-116641402D01*
X158607595Y-116641598D01*
X158755634Y-116580430D01*
X158694598Y-116727421D01*
X158694402Y-116951595D01*
X158780009Y-117158780D01*
X158938386Y-117317434D01*
X159145421Y-117403402D01*
X159369595Y-117403598D01*
X159576780Y-117317991D01*
X159735434Y-117159614D01*
X159821402Y-116952579D01*
X159821598Y-116728405D01*
X159735991Y-116521220D01*
X159577614Y-116362566D01*
X159370579Y-116276598D01*
X159146405Y-116276402D01*
X158998366Y-116337570D01*
X159059402Y-116190579D01*
X159059598Y-115966405D01*
X158973991Y-115759220D01*
X158815614Y-115600566D01*
X158608579Y-115514598D01*
X158384405Y-115514402D01*
X158177220Y-115600009D01*
X158018566Y-115758386D01*
X157932598Y-115965421D01*
X157932402Y-116189595D01*
X156773402Y-116189595D01*
X156773598Y-115966405D01*
X156687991Y-115759220D01*
X156529614Y-115600566D01*
X156322579Y-115514598D01*
X156098405Y-115514402D01*
X155891220Y-115600009D01*
X155732566Y-115758386D01*
X155646598Y-115965421D01*
X155646402Y-116189595D01*
X149915402Y-116189595D01*
X149915598Y-115966405D01*
X149829991Y-115759220D01*
X149671614Y-115600566D01*
X149598077Y-115570031D01*
X149670780Y-115539991D01*
X149783372Y-115427595D01*
X150820402Y-115427595D01*
X150906009Y-115634780D01*
X151064386Y-115793434D01*
X151271421Y-115879402D01*
X151495595Y-115879598D01*
X151702780Y-115793991D01*
X151861434Y-115635614D01*
X151947402Y-115428579D01*
X151947598Y-115204405D01*
X151861991Y-114997220D01*
X151703614Y-114838566D01*
X151496579Y-114752598D01*
X151272405Y-114752402D01*
X151065220Y-114838009D01*
X150906566Y-114996386D01*
X150820598Y-115203421D01*
X150820402Y-115427595D01*
X149783372Y-115427595D01*
X149829434Y-115381614D01*
X149915402Y-115174579D01*
X149915598Y-114950405D01*
X149829991Y-114743220D01*
X149671614Y-114584566D01*
X149464579Y-114498598D01*
X149240405Y-114498402D01*
X149033220Y-114584009D01*
X148874566Y-114742386D01*
X148844031Y-114815923D01*
X148813991Y-114743220D01*
X148655614Y-114584566D01*
X148448579Y-114498598D01*
X148224405Y-114498402D01*
X148017220Y-114584009D01*
X147858566Y-114742386D01*
X147828031Y-114815923D01*
X147797991Y-114743220D01*
X147639614Y-114584566D01*
X147432579Y-114498598D01*
X147208405Y-114498402D01*
X147001220Y-114584009D01*
X146842566Y-114742386D01*
X146812031Y-114815923D01*
X146781991Y-114743220D01*
X146623614Y-114584566D01*
X146416579Y-114498598D01*
X146192405Y-114498402D01*
X145985220Y-114584009D01*
X145826566Y-114742386D01*
X145796031Y-114815923D01*
X145765991Y-114743220D01*
X145607614Y-114584566D01*
X145400579Y-114498598D01*
X145176405Y-114498402D01*
X144969220Y-114584009D01*
X144810566Y-114742386D01*
X144780031Y-114815923D01*
X144749991Y-114743220D01*
X144591614Y-114584566D01*
X144384579Y-114498598D01*
X144160405Y-114498402D01*
X143953220Y-114584009D01*
X143794566Y-114742386D01*
X143764031Y-114815923D01*
X143733991Y-114743220D01*
X143575614Y-114584566D01*
X143368579Y-114498598D01*
X143144405Y-114498402D01*
X142937220Y-114584009D01*
X142778566Y-114742386D01*
X142692598Y-114949421D01*
X142692402Y-115173595D01*
X141774868Y-115173595D01*
X141701991Y-114997220D01*
X141543614Y-114838566D01*
X141336579Y-114752598D01*
X141112405Y-114752402D01*
X140905220Y-114838009D01*
X140746566Y-114996386D01*
X140660598Y-115203421D01*
X140660402Y-115427595D01*
X135932868Y-115427595D01*
X135859991Y-115251220D01*
X135701614Y-115092566D01*
X135494579Y-115006598D01*
X135270405Y-115006402D01*
X135063220Y-115092009D01*
X134904566Y-115250386D01*
X134818598Y-115457421D01*
X134818402Y-115681595D01*
X126301500Y-115681595D01*
X126301500Y-114411595D01*
X160218402Y-114411595D01*
X160304009Y-114618780D01*
X160462386Y-114777434D01*
X160669421Y-114863402D01*
X160893595Y-114863598D01*
X161100780Y-114777991D01*
X161259434Y-114619614D01*
X161345402Y-114412579D01*
X161345598Y-114188405D01*
X161259991Y-113981220D01*
X161101614Y-113822566D01*
X160894579Y-113736598D01*
X160670405Y-113736402D01*
X160463220Y-113822009D01*
X160304566Y-113980386D01*
X160218598Y-114187421D01*
X160218402Y-114411595D01*
X126301500Y-114411595D01*
X126301500Y-113141595D01*
X140660402Y-113141595D01*
X140746009Y-113348780D01*
X140904386Y-113507434D01*
X141111421Y-113593402D01*
X141335595Y-113593598D01*
X141542780Y-113507991D01*
X141701434Y-113349614D01*
X141787402Y-113142579D01*
X141787598Y-112918405D01*
X141701991Y-112711220D01*
X141543614Y-112552566D01*
X141336579Y-112466598D01*
X141112405Y-112466402D01*
X140905220Y-112552009D01*
X140746566Y-112710386D01*
X140660598Y-112917421D01*
X140660402Y-113141595D01*
X126301500Y-113141595D01*
X126301500Y-111113047D01*
X127422177Y-111113047D01*
X127705281Y-111798209D01*
X128229034Y-112322877D01*
X128913701Y-112607176D01*
X129655047Y-112607823D01*
X130340209Y-112324719D01*
X130864877Y-111800966D01*
X131149176Y-111116299D01*
X131149823Y-110374953D01*
X130866719Y-109689791D01*
X130762705Y-109585595D01*
X136596402Y-109585595D01*
X136682009Y-109792780D01*
X136760076Y-109870983D01*
X136698566Y-109932386D01*
X136612598Y-110139421D01*
X136612402Y-110363595D01*
X136698009Y-110570780D01*
X136752090Y-110624956D01*
X136698566Y-110678386D01*
X136612598Y-110885421D01*
X136612402Y-111109595D01*
X136698009Y-111316780D01*
X136856386Y-111475434D01*
X137063421Y-111561402D01*
X137287595Y-111561598D01*
X137494780Y-111475991D01*
X137548956Y-111421910D01*
X137602386Y-111475434D01*
X137809421Y-111561402D01*
X138033595Y-111561598D01*
X138240780Y-111475991D01*
X138399434Y-111317614D01*
X138485402Y-111110579D01*
X138485598Y-110886405D01*
X138399991Y-110679220D01*
X138337910Y-110617031D01*
X138399434Y-110555614D01*
X138485402Y-110348579D01*
X138485598Y-110124405D01*
X138399991Y-109917220D01*
X138337910Y-109855031D01*
X138399434Y-109793614D01*
X138485402Y-109586579D01*
X138485402Y-109585595D01*
X153106402Y-109585595D01*
X153192009Y-109792780D01*
X153266069Y-109866969D01*
X153216566Y-109916386D01*
X153130598Y-110123421D01*
X153130402Y-110347595D01*
X153216009Y-110554780D01*
X153266111Y-110604970D01*
X153192566Y-110678386D01*
X153106598Y-110885421D01*
X153106402Y-111109595D01*
X153192009Y-111316780D01*
X153350386Y-111475434D01*
X153557421Y-111561402D01*
X153781595Y-111561598D01*
X153988780Y-111475991D01*
X154050969Y-111413910D01*
X154112386Y-111475434D01*
X154319421Y-111561402D01*
X154543595Y-111561598D01*
X154750780Y-111475991D01*
X154909434Y-111317614D01*
X154995402Y-111110579D01*
X154995598Y-110886405D01*
X154909991Y-110679220D01*
X154847910Y-110617031D01*
X154909434Y-110555614D01*
X154995402Y-110348579D01*
X154995598Y-110124405D01*
X154909991Y-109917220D01*
X154847910Y-109855031D01*
X154909434Y-109793614D01*
X154995402Y-109586579D01*
X154995598Y-109362405D01*
X154909991Y-109155220D01*
X154751614Y-108996566D01*
X154544579Y-108910598D01*
X154320405Y-108910402D01*
X154113220Y-108996009D01*
X154051031Y-109058090D01*
X153989614Y-108996566D01*
X153782579Y-108910598D01*
X153558405Y-108910402D01*
X153351220Y-108996009D01*
X153192566Y-109154386D01*
X153106598Y-109361421D01*
X153106402Y-109585595D01*
X138485402Y-109585595D01*
X138485598Y-109362405D01*
X138399991Y-109155220D01*
X138241614Y-108996566D01*
X138034579Y-108910598D01*
X137810405Y-108910402D01*
X137603220Y-108996009D01*
X137541031Y-109058090D01*
X137479614Y-108996566D01*
X137272579Y-108910598D01*
X137048405Y-108910402D01*
X136841220Y-108996009D01*
X136682566Y-109154386D01*
X136596598Y-109361421D01*
X136596402Y-109585595D01*
X130762705Y-109585595D01*
X130342966Y-109165123D01*
X129658299Y-108880824D01*
X128916953Y-108880177D01*
X128231791Y-109163281D01*
X127707123Y-109687034D01*
X127422824Y-110371701D01*
X127422177Y-111113047D01*
X126301500Y-111113047D01*
X126301500Y-109605970D01*
X126319545Y-109515252D01*
X127015574Y-108473571D01*
X128057253Y-107777544D01*
X128147967Y-107759500D01*
X170624500Y-107759500D01*
X170624500Y-113284000D01*
M02*
