G04 #@! TF.FileFunction,Legend,Bot*
%FSLAX46Y46*%
G04 Gerber Fmt 4.6, Leading zero omitted, Abs format (unit mm)*
G04 Created by KiCad (PCBNEW 4.0.4-stable) date Monday 19 December 2016 21:20:12*
%MOMM*%
%LPD*%
G01*
G04 APERTURE LIST*
%ADD10C,0.100000*%
%ADD11C,0.300000*%
%ADD12C,0.150000*%
%ADD13C,0.120000*%
G04 APERTURE END LIST*
D10*
D11*
X199342286Y-115935048D02*
X199437524Y-115839810D01*
X199532762Y-115554095D01*
X199532762Y-115363619D01*
X199437524Y-115077905D01*
X199247048Y-114887429D01*
X199056571Y-114792190D01*
X198675619Y-114696952D01*
X198389905Y-114696952D01*
X198008952Y-114792190D01*
X197818476Y-114887429D01*
X197628000Y-115077905D01*
X197532762Y-115363619D01*
X197532762Y-115554095D01*
X197628000Y-115839810D01*
X197723238Y-115935048D01*
X198485143Y-126888857D02*
X198580381Y-127174571D01*
X198675619Y-127269810D01*
X198866095Y-127365048D01*
X199151810Y-127365048D01*
X199342286Y-127269810D01*
X199437524Y-127174571D01*
X199532762Y-126984095D01*
X199532762Y-126222190D01*
X197532762Y-126222190D01*
X197532762Y-126888857D01*
X197628000Y-127079333D01*
X197723238Y-127174571D01*
X197913714Y-127269810D01*
X198104190Y-127269810D01*
X198294667Y-127174571D01*
X198389905Y-127079333D01*
X198485143Y-126888857D01*
X198485143Y-126222190D01*
X198961333Y-138398191D02*
X198961333Y-137445810D01*
X199532762Y-138588667D02*
X197532762Y-137922000D01*
X199532762Y-137255333D01*
X169440572Y-108372286D02*
X170354858Y-108372286D01*
X171326286Y-108543714D02*
X171497715Y-108486571D01*
X171554858Y-108429429D01*
X171612001Y-108315143D01*
X171612001Y-108143714D01*
X171554858Y-108029429D01*
X171497715Y-107972286D01*
X171383429Y-107915143D01*
X170926286Y-107915143D01*
X170926286Y-109115143D01*
X171326286Y-109115143D01*
X171440572Y-109058000D01*
X171497715Y-109000857D01*
X171554858Y-108886571D01*
X171554858Y-108772286D01*
X171497715Y-108658000D01*
X171440572Y-108600857D01*
X171326286Y-108543714D01*
X170926286Y-108543714D01*
X172069143Y-108258000D02*
X172640572Y-108258000D01*
X171954858Y-107915143D02*
X172354858Y-109115143D01*
X172754858Y-107915143D01*
X172983429Y-109115143D02*
X173669143Y-109115143D01*
X173326286Y-107915143D02*
X173326286Y-109115143D01*
X174069143Y-108372286D02*
X174983429Y-108372286D01*
X174526286Y-107915143D02*
X174526286Y-108829429D01*
D12*
X136653333Y-142556667D02*
X136653333Y-141856667D01*
X136386667Y-141856667D01*
X136320000Y-141890000D01*
X136286667Y-141923333D01*
X136253333Y-141990000D01*
X136253333Y-142090000D01*
X136286667Y-142156667D01*
X136320000Y-142190000D01*
X136386667Y-142223333D01*
X136653333Y-142223333D01*
X135953333Y-142556667D02*
X135953333Y-141856667D01*
X135686667Y-141856667D01*
X135620000Y-141890000D01*
X135586667Y-141923333D01*
X135553333Y-141990000D01*
X135553333Y-142090000D01*
X135586667Y-142156667D01*
X135620000Y-142190000D01*
X135686667Y-142223333D01*
X135953333Y-142223333D01*
X135253333Y-142556667D02*
X135253333Y-141856667D01*
X135020000Y-142356667D01*
X134786667Y-141856667D01*
X134786667Y-142556667D01*
X136586667Y-139750000D02*
X136053334Y-139750000D01*
X136320001Y-140016667D02*
X136320001Y-139483333D01*
X135386667Y-139316667D02*
X135720000Y-139316667D01*
X135753334Y-139650000D01*
X135720000Y-139616667D01*
X135653334Y-139583333D01*
X135486667Y-139583333D01*
X135420000Y-139616667D01*
X135386667Y-139650000D01*
X135353334Y-139716667D01*
X135353334Y-139883333D01*
X135386667Y-139950000D01*
X135420000Y-139983333D01*
X135486667Y-140016667D01*
X135653334Y-140016667D01*
X135720000Y-139983333D01*
X135753334Y-139950000D01*
X135153333Y-139316667D02*
X134920000Y-140016667D01*
X134686667Y-139316667D01*
X135966000Y-136810000D02*
X136032666Y-136776667D01*
X136132666Y-136776667D01*
X136232666Y-136810000D01*
X136299333Y-136876667D01*
X136332666Y-136943333D01*
X136366000Y-137076667D01*
X136366000Y-137176667D01*
X136332666Y-137310000D01*
X136299333Y-137376667D01*
X136232666Y-137443333D01*
X136132666Y-137476667D01*
X136066000Y-137476667D01*
X135966000Y-137443333D01*
X135932666Y-137410000D01*
X135932666Y-137176667D01*
X136066000Y-137176667D01*
X135632666Y-137476667D02*
X135632666Y-136776667D01*
X135232666Y-137476667D01*
X135232666Y-136776667D01*
X134899333Y-137476667D02*
X134899333Y-136776667D01*
X134732667Y-136776667D01*
X134632667Y-136810000D01*
X134566000Y-136876667D01*
X134532667Y-136943333D01*
X134499333Y-137076667D01*
X134499333Y-137176667D01*
X134532667Y-137310000D01*
X134566000Y-137376667D01*
X134632667Y-137443333D01*
X134732667Y-137476667D01*
X134899333Y-137476667D01*
X131140000Y-141890000D02*
X131206666Y-141856667D01*
X131306666Y-141856667D01*
X131406666Y-141890000D01*
X131473333Y-141956667D01*
X131506666Y-142023333D01*
X131540000Y-142156667D01*
X131540000Y-142256667D01*
X131506666Y-142390000D01*
X131473333Y-142456667D01*
X131406666Y-142523333D01*
X131306666Y-142556667D01*
X131240000Y-142556667D01*
X131140000Y-142523333D01*
X131106666Y-142490000D01*
X131106666Y-142256667D01*
X131240000Y-142256667D01*
X130806666Y-142556667D02*
X130806666Y-141856667D01*
X130406666Y-142556667D01*
X130406666Y-141856667D01*
X130073333Y-142556667D02*
X130073333Y-141856667D01*
X129906667Y-141856667D01*
X129806667Y-141890000D01*
X129740000Y-141956667D01*
X129706667Y-142023333D01*
X129673333Y-142156667D01*
X129673333Y-142256667D01*
X129706667Y-142390000D01*
X129740000Y-142456667D01*
X129806667Y-142523333D01*
X129906667Y-142556667D01*
X130073333Y-142556667D01*
X130773333Y-141032667D02*
X130773333Y-140332667D01*
X130773333Y-140666000D02*
X130373333Y-140666000D01*
X130373333Y-141032667D02*
X130373333Y-140332667D01*
X129673334Y-141032667D02*
X130073334Y-141032667D01*
X129873334Y-141032667D02*
X129873334Y-140332667D01*
X129940000Y-140432667D01*
X130006667Y-140499333D01*
X130073334Y-140532667D01*
X130773333Y-139508667D02*
X130773333Y-138808667D01*
X130773333Y-139142000D02*
X130373333Y-139142000D01*
X130373333Y-139508667D02*
X130373333Y-138808667D01*
X130073334Y-138875333D02*
X130040000Y-138842000D01*
X129973334Y-138808667D01*
X129806667Y-138808667D01*
X129740000Y-138842000D01*
X129706667Y-138875333D01*
X129673334Y-138942000D01*
X129673334Y-139008667D01*
X129706667Y-139108667D01*
X130106667Y-139508667D01*
X129673334Y-139508667D01*
X130773333Y-137984667D02*
X130773333Y-137284667D01*
X130773333Y-137618000D02*
X130373333Y-137618000D01*
X130373333Y-137984667D02*
X130373333Y-137284667D01*
X130106667Y-137284667D02*
X129673334Y-137284667D01*
X129906667Y-137551333D01*
X129806667Y-137551333D01*
X129740000Y-137584667D01*
X129706667Y-137618000D01*
X129673334Y-137684667D01*
X129673334Y-137851333D01*
X129706667Y-137918000D01*
X129740000Y-137951333D01*
X129806667Y-137984667D01*
X130006667Y-137984667D01*
X130073334Y-137951333D01*
X130106667Y-137918000D01*
X132139999Y-135760667D02*
X131739999Y-135760667D01*
X131939999Y-136460667D02*
X131939999Y-135760667D01*
X131506666Y-136094000D02*
X131273333Y-136094000D01*
X131173333Y-136460667D02*
X131506666Y-136460667D01*
X131506666Y-135760667D01*
X131173333Y-135760667D01*
X130873333Y-136460667D02*
X130873333Y-135760667D01*
X130640000Y-136260667D01*
X130406667Y-135760667D01*
X130406667Y-136460667D01*
X130073333Y-136460667D02*
X130073333Y-135760667D01*
X129806667Y-135760667D01*
X129740000Y-135794000D01*
X129706667Y-135827333D01*
X129673333Y-135894000D01*
X129673333Y-135994000D01*
X129706667Y-136060667D01*
X129740000Y-136094000D01*
X129806667Y-136127333D01*
X130073333Y-136127333D01*
X131506667Y-134670000D02*
X130973334Y-134670000D01*
X131240001Y-134936667D02*
X131240001Y-134403333D01*
X130306667Y-134236667D02*
X130640000Y-134236667D01*
X130673334Y-134570000D01*
X130640000Y-134536667D01*
X130573334Y-134503333D01*
X130406667Y-134503333D01*
X130340000Y-134536667D01*
X130306667Y-134570000D01*
X130273334Y-134636667D01*
X130273334Y-134803333D01*
X130306667Y-134870000D01*
X130340000Y-134903333D01*
X130406667Y-134936667D01*
X130573334Y-134936667D01*
X130640000Y-134903333D01*
X130673334Y-134870000D01*
X130073333Y-134236667D02*
X129840000Y-134936667D01*
X129606667Y-134236667D01*
X159574667Y-146240667D02*
X159241333Y-146007333D01*
X159574667Y-145840667D02*
X158874667Y-145840667D01*
X158874667Y-146107333D01*
X158908000Y-146174000D01*
X158941333Y-146207333D01*
X159008000Y-146240667D01*
X159108000Y-146240667D01*
X159174667Y-146207333D01*
X159208000Y-146174000D01*
X159241333Y-146107333D01*
X159241333Y-145840667D01*
X159541333Y-146507333D02*
X159574667Y-146607333D01*
X159574667Y-146774000D01*
X159541333Y-146840667D01*
X159508000Y-146874000D01*
X159441333Y-146907333D01*
X159374667Y-146907333D01*
X159308000Y-146874000D01*
X159274667Y-146840667D01*
X159241333Y-146774000D01*
X159208000Y-146640667D01*
X159174667Y-146574000D01*
X159141333Y-146540667D01*
X159074667Y-146507333D01*
X159008000Y-146507333D01*
X158941333Y-146540667D01*
X158908000Y-146574000D01*
X158874667Y-146640667D01*
X158874667Y-146807333D01*
X158908000Y-146907333D01*
X158874667Y-147107334D02*
X158874667Y-147507334D01*
X159574667Y-147307334D02*
X158874667Y-147307334D01*
X158754000Y-145674000D02*
X158754000Y-147574000D01*
X157255333Y-144474000D02*
X157288667Y-144574000D01*
X157288667Y-144740667D01*
X157255333Y-144807334D01*
X157222000Y-144840667D01*
X157155333Y-144874000D01*
X157088667Y-144874000D01*
X157022000Y-144840667D01*
X156988667Y-144807334D01*
X156955333Y-144740667D01*
X156922000Y-144607334D01*
X156888667Y-144540667D01*
X156855333Y-144507334D01*
X156788667Y-144474000D01*
X156722000Y-144474000D01*
X156655333Y-144507334D01*
X156622000Y-144540667D01*
X156588667Y-144607334D01*
X156588667Y-144774000D01*
X156622000Y-144874000D01*
X156588667Y-145107334D02*
X157288667Y-145274001D01*
X156788667Y-145407334D01*
X157288667Y-145540667D01*
X156588667Y-145707334D01*
X157288667Y-145974001D02*
X156588667Y-145974001D01*
X156588667Y-146140667D01*
X156622000Y-146240667D01*
X156688667Y-146307334D01*
X156755333Y-146340667D01*
X156888667Y-146374001D01*
X156988667Y-146374001D01*
X157122000Y-146340667D01*
X157188667Y-146307334D01*
X157255333Y-146240667D01*
X157288667Y-146140667D01*
X157288667Y-145974001D01*
X157288667Y-146674001D02*
X156588667Y-146674001D01*
X156588667Y-147140667D02*
X156588667Y-147274000D01*
X156622000Y-147340667D01*
X156688667Y-147407334D01*
X156822000Y-147440667D01*
X157055333Y-147440667D01*
X157188667Y-147407334D01*
X157255333Y-147340667D01*
X157288667Y-147274000D01*
X157288667Y-147140667D01*
X157255333Y-147074000D01*
X157188667Y-147007334D01*
X157055333Y-146974000D01*
X156822000Y-146974000D01*
X156688667Y-147007334D01*
X156622000Y-147074000D01*
X156588667Y-147140667D01*
X153828000Y-145974000D02*
X153794667Y-145907334D01*
X153794667Y-145807334D01*
X153828000Y-145707334D01*
X153894667Y-145640667D01*
X153961333Y-145607334D01*
X154094667Y-145574000D01*
X154194667Y-145574000D01*
X154328000Y-145607334D01*
X154394667Y-145640667D01*
X154461333Y-145707334D01*
X154494667Y-145807334D01*
X154494667Y-145874000D01*
X154461333Y-145974000D01*
X154428000Y-146007334D01*
X154194667Y-146007334D01*
X154194667Y-145874000D01*
X154494667Y-146307334D02*
X153794667Y-146307334D01*
X154494667Y-146707334D01*
X153794667Y-146707334D01*
X154494667Y-147040667D02*
X153794667Y-147040667D01*
X153794667Y-147207333D01*
X153828000Y-147307333D01*
X153894667Y-147374000D01*
X153961333Y-147407333D01*
X154094667Y-147440667D01*
X154194667Y-147440667D01*
X154328000Y-147407333D01*
X154394667Y-147374000D01*
X154461333Y-147307333D01*
X154494667Y-147207333D01*
X154494667Y-147040667D01*
X151921333Y-144273999D02*
X151954667Y-144373999D01*
X151954667Y-144540666D01*
X151921333Y-144607333D01*
X151888000Y-144640666D01*
X151821333Y-144673999D01*
X151754667Y-144673999D01*
X151688000Y-144640666D01*
X151654667Y-144607333D01*
X151621333Y-144540666D01*
X151588000Y-144407333D01*
X151554667Y-144340666D01*
X151521333Y-144307333D01*
X151454667Y-144273999D01*
X151388000Y-144273999D01*
X151321333Y-144307333D01*
X151288000Y-144340666D01*
X151254667Y-144407333D01*
X151254667Y-144573999D01*
X151288000Y-144673999D01*
X151254667Y-144907333D02*
X151954667Y-145074000D01*
X151454667Y-145207333D01*
X151954667Y-145340666D01*
X151254667Y-145507333D01*
X151888000Y-146174000D02*
X151921333Y-146140666D01*
X151954667Y-146040666D01*
X151954667Y-145974000D01*
X151921333Y-145874000D01*
X151854667Y-145807333D01*
X151788000Y-145774000D01*
X151654667Y-145740666D01*
X151554667Y-145740666D01*
X151421333Y-145774000D01*
X151354667Y-145807333D01*
X151288000Y-145874000D01*
X151254667Y-145974000D01*
X151254667Y-146040666D01*
X151288000Y-146140666D01*
X151321333Y-146174000D01*
X151954667Y-146807333D02*
X151954667Y-146474000D01*
X151254667Y-146474000D01*
X151954667Y-147040667D02*
X151254667Y-147040667D01*
X151954667Y-147440667D02*
X151554667Y-147140667D01*
X151254667Y-147440667D02*
X151654667Y-147040667D01*
X149402000Y-144686666D02*
X149402000Y-145219999D01*
X149668667Y-144953332D02*
X149135333Y-144953332D01*
X148968667Y-145486666D02*
X148968667Y-145919999D01*
X149235333Y-145686666D01*
X149235333Y-145786666D01*
X149268667Y-145853333D01*
X149302000Y-145886666D01*
X149368667Y-145919999D01*
X149535333Y-145919999D01*
X149602000Y-145886666D01*
X149635333Y-145853333D01*
X149668667Y-145786666D01*
X149668667Y-145586666D01*
X149635333Y-145519999D01*
X149602000Y-145486666D01*
X148968667Y-146120000D02*
X149668667Y-146353333D01*
X148968667Y-146586666D01*
X148968667Y-146753333D02*
X148968667Y-147186666D01*
X149235333Y-146953333D01*
X149235333Y-147053333D01*
X149268667Y-147120000D01*
X149302000Y-147153333D01*
X149368667Y-147186666D01*
X149535333Y-147186666D01*
X149602000Y-147153333D01*
X149635333Y-147120000D01*
X149668667Y-147053333D01*
X149668667Y-146853333D01*
X149635333Y-146786666D01*
X149602000Y-146753333D01*
X153420000Y-133079000D02*
X153920000Y-133079000D01*
X153920000Y-134129000D02*
X153420000Y-134129000D01*
X185288343Y-148480780D02*
G75*
G03X185288343Y-148480780I-274743J0D01*
G01*
D11*
X194104000Y-139272000D02*
X182324000Y-139272000D01*
X194104000Y-149272000D02*
X182324000Y-149272000D01*
X194104000Y-149272000D02*
X194104000Y-139272000D01*
X182324000Y-149272000D02*
X182324000Y-139272000D01*
D12*
X157701000Y-112780000D02*
X157701000Y-113280000D01*
X156751000Y-113280000D02*
X156751000Y-112780000D01*
X138717000Y-137918000D02*
X138717000Y-137418000D01*
X139667000Y-137418000D02*
X139667000Y-137918000D01*
X138717000Y-135632000D02*
X138717000Y-135132000D01*
X139667000Y-135132000D02*
X139667000Y-135632000D01*
X138717000Y-133346000D02*
X138717000Y-132846000D01*
X139667000Y-132846000D02*
X139667000Y-133346000D01*
X138209000Y-130552000D02*
X138209000Y-130052000D01*
X139159000Y-130052000D02*
X139159000Y-130552000D01*
X140749000Y-130552000D02*
X140749000Y-130052000D01*
X141699000Y-130052000D02*
X141699000Y-130552000D01*
X157476000Y-137889000D02*
X156976000Y-137889000D01*
X156976000Y-136939000D02*
X157476000Y-136939000D01*
X152150000Y-141511000D02*
X152650000Y-141511000D01*
X152650000Y-142461000D02*
X152150000Y-142461000D01*
X147324000Y-141511000D02*
X147824000Y-141511000D01*
X147824000Y-142461000D02*
X147324000Y-142461000D01*
X138397000Y-139958000D02*
X138397000Y-140458000D01*
X137447000Y-140458000D02*
X137447000Y-139958000D01*
X139479000Y-130552000D02*
X139479000Y-130052000D01*
X140429000Y-130052000D02*
X140429000Y-130552000D01*
X147062000Y-130777000D02*
X146562000Y-130777000D01*
X146562000Y-129827000D02*
X147062000Y-129827000D01*
X153420000Y-139479000D02*
X153920000Y-139479000D01*
X153920000Y-140429000D02*
X153420000Y-140429000D01*
X153420000Y-136939000D02*
X153920000Y-136939000D01*
X153920000Y-137889000D02*
X153420000Y-137889000D01*
X153420000Y-134399000D02*
X153920000Y-134399000D01*
X153920000Y-135349000D02*
X153420000Y-135349000D01*
X161032000Y-147033000D02*
X160532000Y-147033000D01*
X160532000Y-146083000D02*
X161032000Y-146083000D01*
X161032000Y-134587000D02*
X160532000Y-134587000D01*
X160532000Y-133637000D02*
X161032000Y-133637000D01*
X161032000Y-122141000D02*
X160532000Y-122141000D01*
X160532000Y-121191000D02*
X161032000Y-121191000D01*
X134907000Y-118360000D02*
X134907000Y-117860000D01*
X135857000Y-117860000D02*
X135857000Y-118360000D01*
X150909000Y-118360000D02*
X150909000Y-117860000D01*
X151859000Y-117860000D02*
X151859000Y-118360000D01*
X158750000Y-113538000D02*
X158115000Y-113538000D01*
X158115000Y-113538000D02*
X158115000Y-112522000D01*
X159893000Y-112522000D02*
X159893000Y-113538000D01*
X159893000Y-113538000D02*
X159258000Y-113538000D01*
X158750000Y-113665000D02*
X158750000Y-113538000D01*
X159258000Y-113538000D02*
X159258000Y-113665000D01*
X158115000Y-112522000D02*
X159893000Y-112522000D01*
X159258000Y-113665000D02*
X158750000Y-113665000D01*
X160020000Y-141478000D02*
X159385000Y-141478000D01*
X159385000Y-141478000D02*
X159385000Y-140462000D01*
X161163000Y-140462000D02*
X161163000Y-141478000D01*
X161163000Y-141478000D02*
X160528000Y-141478000D01*
X160020000Y-141605000D02*
X160020000Y-141478000D01*
X160528000Y-141478000D02*
X160528000Y-141605000D01*
X159385000Y-140462000D02*
X161163000Y-140462000D01*
X160528000Y-141605000D02*
X160020000Y-141605000D01*
X160020000Y-116840000D02*
X159385000Y-116840000D01*
X159385000Y-116840000D02*
X159385000Y-115824000D01*
X161163000Y-115824000D02*
X161163000Y-116840000D01*
X161163000Y-116840000D02*
X160528000Y-116840000D01*
X160020000Y-116967000D02*
X160020000Y-116840000D01*
X160528000Y-116840000D02*
X160528000Y-116967000D01*
X159385000Y-115824000D02*
X161163000Y-115824000D01*
X160528000Y-116967000D02*
X160020000Y-116967000D01*
X160020000Y-129032000D02*
X159385000Y-129032000D01*
X159385000Y-129032000D02*
X159385000Y-128016000D01*
X161163000Y-128016000D02*
X161163000Y-129032000D01*
X161163000Y-129032000D02*
X160528000Y-129032000D01*
X160020000Y-129159000D02*
X160020000Y-129032000D01*
X160528000Y-129032000D02*
X160528000Y-129159000D01*
X159385000Y-128016000D02*
X161163000Y-128016000D01*
X160528000Y-129159000D02*
X160020000Y-129159000D01*
X167886000Y-124928000D02*
X166886000Y-124928000D01*
X166886000Y-126278000D02*
X167886000Y-126278000D01*
X169794343Y-148480780D02*
G75*
G03X169794343Y-148480780I-274743J0D01*
G01*
D11*
X178610000Y-139272000D02*
X166830000Y-139272000D01*
X178610000Y-149272000D02*
X166830000Y-149272000D01*
X178610000Y-149272000D02*
X178610000Y-139272000D01*
X166830000Y-149272000D02*
X166830000Y-139272000D01*
D12*
X185288343Y-136034780D02*
G75*
G03X185288343Y-136034780I-274743J0D01*
G01*
D11*
X194104000Y-126826000D02*
X182324000Y-126826000D01*
X194104000Y-136826000D02*
X182324000Y-136826000D01*
X194104000Y-136826000D02*
X194104000Y-126826000D01*
X182324000Y-136826000D02*
X182324000Y-126826000D01*
D12*
X169794343Y-136034780D02*
G75*
G03X169794343Y-136034780I-274743J0D01*
G01*
D11*
X178610000Y-126826000D02*
X166830000Y-126826000D01*
X178610000Y-136826000D02*
X166830000Y-136826000D01*
X178610000Y-136826000D02*
X178610000Y-126826000D01*
X166830000Y-136826000D02*
X166830000Y-126826000D01*
D12*
X185288343Y-123588780D02*
G75*
G03X185288343Y-123588780I-274743J0D01*
G01*
D11*
X194104000Y-114380000D02*
X182324000Y-114380000D01*
X194104000Y-124380000D02*
X182324000Y-124380000D01*
X194104000Y-124380000D02*
X194104000Y-114380000D01*
X182324000Y-124380000D02*
X182324000Y-114380000D01*
D12*
X169794343Y-123588780D02*
G75*
G03X169794343Y-123588780I-274743J0D01*
G01*
D11*
X178610000Y-114380000D02*
X166830000Y-114380000D01*
X178610000Y-124380000D02*
X166830000Y-124380000D01*
X178610000Y-124380000D02*
X178610000Y-114380000D01*
X166830000Y-124380000D02*
X166830000Y-114380000D01*
D12*
X154703000Y-112780000D02*
X154703000Y-113280000D01*
X153653000Y-113280000D02*
X153653000Y-112780000D01*
X156227000Y-112780000D02*
X156227000Y-113280000D01*
X155177000Y-113280000D02*
X155177000Y-112780000D01*
X144776000Y-130827000D02*
X144276000Y-130827000D01*
X144276000Y-129777000D02*
X144776000Y-129777000D01*
X136127000Y-137918000D02*
X136127000Y-137418000D01*
X137177000Y-137418000D02*
X137177000Y-137918000D01*
X136127000Y-135632000D02*
X136127000Y-135132000D01*
X137177000Y-135132000D02*
X137177000Y-135632000D01*
X136127000Y-133346000D02*
X136127000Y-132846000D01*
X137177000Y-132846000D02*
X137177000Y-133346000D01*
X137177000Y-130560000D02*
X137177000Y-131060000D01*
X136127000Y-131060000D02*
X136127000Y-130560000D01*
X137397000Y-137918000D02*
X137397000Y-137418000D01*
X138447000Y-137418000D02*
X138447000Y-137918000D01*
X137397000Y-135632000D02*
X137397000Y-135132000D01*
X138447000Y-135132000D02*
X138447000Y-135632000D01*
X137397000Y-133346000D02*
X137397000Y-132846000D01*
X138447000Y-132846000D02*
X138447000Y-133346000D01*
X161032000Y-144035000D02*
X160532000Y-144035000D01*
X160532000Y-142985000D02*
X161032000Y-142985000D01*
X153420000Y-138159000D02*
X153920000Y-138159000D01*
X153920000Y-139209000D02*
X153420000Y-139209000D01*
X161032000Y-131589000D02*
X160532000Y-131589000D01*
X160532000Y-130539000D02*
X161032000Y-130539000D01*
X153420000Y-135619000D02*
X153920000Y-135619000D01*
X153920000Y-136669000D02*
X153420000Y-136669000D01*
X161032000Y-119143000D02*
X160532000Y-119143000D01*
X160532000Y-118093000D02*
X161032000Y-118093000D01*
X161032000Y-145559000D02*
X160532000Y-145559000D01*
X160532000Y-144509000D02*
X161032000Y-144509000D01*
X161032000Y-133113000D02*
X160532000Y-133113000D01*
X160532000Y-132063000D02*
X161032000Y-132063000D01*
X161032000Y-120667000D02*
X160532000Y-120667000D01*
X160532000Y-119617000D02*
X161032000Y-119617000D01*
X141749000Y-114050000D02*
X141749000Y-114550000D01*
X140699000Y-114550000D02*
X140699000Y-114050000D01*
X155444000Y-116603000D02*
X154944000Y-116603000D01*
X154944000Y-115553000D02*
X155444000Y-115553000D01*
X148827000Y-121408000D02*
X148827000Y-120908000D01*
X149877000Y-120908000D02*
X149877000Y-121408000D01*
X147303000Y-121408000D02*
X147303000Y-120908000D01*
X148353000Y-120908000D02*
X148353000Y-121408000D01*
D13*
X156406000Y-134174667D02*
X156639334Y-133841333D01*
X156806000Y-134174667D02*
X156806000Y-133474667D01*
X156539334Y-133474667D01*
X156472667Y-133508000D01*
X156439334Y-133541333D01*
X156406000Y-133608000D01*
X156406000Y-133708000D01*
X156439334Y-133774667D01*
X156472667Y-133808000D01*
X156539334Y-133841333D01*
X156806000Y-133841333D01*
X156172667Y-133474667D02*
X155739334Y-133474667D01*
X155972667Y-133741333D01*
X155872667Y-133741333D01*
X155806000Y-133774667D01*
X155772667Y-133808000D01*
X155739334Y-133874667D01*
X155739334Y-134041333D01*
X155772667Y-134108000D01*
X155806000Y-134141333D01*
X155872667Y-134174667D01*
X156072667Y-134174667D01*
X156139334Y-134141333D01*
X156172667Y-134108000D01*
X155139333Y-133708000D02*
X155139333Y-134174667D01*
X155306000Y-133441333D02*
X155472667Y-133941333D01*
X155039333Y-133941333D01*
X188280667Y-138813333D02*
X188347333Y-138780000D01*
X188414000Y-138713333D01*
X188514000Y-138613333D01*
X188580667Y-138580000D01*
X188647333Y-138580000D01*
X188614000Y-138746667D02*
X188680667Y-138713333D01*
X188747333Y-138646667D01*
X188780667Y-138513333D01*
X188780667Y-138280000D01*
X188747333Y-138146667D01*
X188680667Y-138080000D01*
X188614000Y-138046667D01*
X188480667Y-138046667D01*
X188414000Y-138080000D01*
X188347333Y-138146667D01*
X188314000Y-138280000D01*
X188314000Y-138513333D01*
X188347333Y-138646667D01*
X188414000Y-138713333D01*
X188480667Y-138746667D01*
X188614000Y-138746667D01*
X187647334Y-138746667D02*
X188047334Y-138746667D01*
X187847334Y-138746667D02*
X187847334Y-138046667D01*
X187914000Y-138146667D01*
X187980667Y-138213333D01*
X188047334Y-138246667D01*
X159176000Y-112913334D02*
X159209333Y-112880000D01*
X159242667Y-112780000D01*
X159242667Y-112713334D01*
X159209333Y-112613334D01*
X159142667Y-112546667D01*
X159076000Y-112513334D01*
X158942667Y-112480000D01*
X158842667Y-112480000D01*
X158709333Y-112513334D01*
X158642667Y-112546667D01*
X158576000Y-112613334D01*
X158542667Y-112713334D01*
X158542667Y-112780000D01*
X158576000Y-112880000D01*
X158609333Y-112913334D01*
X159242667Y-113580000D02*
X159242667Y-113180000D01*
X159242667Y-113380000D02*
X158542667Y-113380000D01*
X158642667Y-113313334D01*
X158709333Y-113246667D01*
X158742667Y-113180000D01*
X142744000Y-137551334D02*
X142777333Y-137518000D01*
X142810667Y-137418000D01*
X142810667Y-137351334D01*
X142777333Y-137251334D01*
X142710667Y-137184667D01*
X142644000Y-137151334D01*
X142510667Y-137118000D01*
X142410667Y-137118000D01*
X142277333Y-137151334D01*
X142210667Y-137184667D01*
X142144000Y-137251334D01*
X142110667Y-137351334D01*
X142110667Y-137418000D01*
X142144000Y-137518000D01*
X142177333Y-137551334D01*
X142110667Y-137784667D02*
X142110667Y-138218000D01*
X142377333Y-137984667D01*
X142377333Y-138084667D01*
X142410667Y-138151334D01*
X142444000Y-138184667D01*
X142510667Y-138218000D01*
X142677333Y-138218000D01*
X142744000Y-138184667D01*
X142777333Y-138151334D01*
X142810667Y-138084667D01*
X142810667Y-137884667D01*
X142777333Y-137818000D01*
X142744000Y-137784667D01*
X142744000Y-135265334D02*
X142777333Y-135232000D01*
X142810667Y-135132000D01*
X142810667Y-135065334D01*
X142777333Y-134965334D01*
X142710667Y-134898667D01*
X142644000Y-134865334D01*
X142510667Y-134832000D01*
X142410667Y-134832000D01*
X142277333Y-134865334D01*
X142210667Y-134898667D01*
X142144000Y-134965334D01*
X142110667Y-135065334D01*
X142110667Y-135132000D01*
X142144000Y-135232000D01*
X142177333Y-135265334D01*
X142344000Y-135865334D02*
X142810667Y-135865334D01*
X142077333Y-135698667D02*
X142577333Y-135532000D01*
X142577333Y-135965334D01*
X142744000Y-132979334D02*
X142777333Y-132946000D01*
X142810667Y-132846000D01*
X142810667Y-132779334D01*
X142777333Y-132679334D01*
X142710667Y-132612667D01*
X142644000Y-132579334D01*
X142510667Y-132546000D01*
X142410667Y-132546000D01*
X142277333Y-132579334D01*
X142210667Y-132612667D01*
X142144000Y-132679334D01*
X142110667Y-132779334D01*
X142110667Y-132846000D01*
X142144000Y-132946000D01*
X142177333Y-132979334D01*
X142110667Y-133612667D02*
X142110667Y-133279334D01*
X142444000Y-133246000D01*
X142410667Y-133279334D01*
X142377333Y-133346000D01*
X142377333Y-133512667D01*
X142410667Y-133579334D01*
X142444000Y-133612667D01*
X142510667Y-133646000D01*
X142677333Y-133646000D01*
X142744000Y-133612667D01*
X142777333Y-133579334D01*
X142810667Y-133512667D01*
X142810667Y-133346000D01*
X142777333Y-133279334D01*
X142744000Y-133246000D01*
X138934000Y-127391334D02*
X138967333Y-127358000D01*
X139000667Y-127258000D01*
X139000667Y-127191334D01*
X138967333Y-127091334D01*
X138900667Y-127024667D01*
X138834000Y-126991334D01*
X138700667Y-126958000D01*
X138600667Y-126958000D01*
X138467333Y-126991334D01*
X138400667Y-127024667D01*
X138334000Y-127091334D01*
X138300667Y-127191334D01*
X138300667Y-127258000D01*
X138334000Y-127358000D01*
X138367333Y-127391334D01*
X138300667Y-127991334D02*
X138300667Y-127858000D01*
X138334000Y-127791334D01*
X138367333Y-127758000D01*
X138467333Y-127691334D01*
X138600667Y-127658000D01*
X138867333Y-127658000D01*
X138934000Y-127691334D01*
X138967333Y-127724667D01*
X139000667Y-127791334D01*
X139000667Y-127924667D01*
X138967333Y-127991334D01*
X138934000Y-128024667D01*
X138867333Y-128058000D01*
X138700667Y-128058000D01*
X138634000Y-128024667D01*
X138600667Y-127991334D01*
X138567333Y-127924667D01*
X138567333Y-127791334D01*
X138600667Y-127724667D01*
X138634000Y-127691334D01*
X138700667Y-127658000D01*
X141474000Y-127391334D02*
X141507333Y-127358000D01*
X141540667Y-127258000D01*
X141540667Y-127191334D01*
X141507333Y-127091334D01*
X141440667Y-127024667D01*
X141374000Y-126991334D01*
X141240667Y-126958000D01*
X141140667Y-126958000D01*
X141007333Y-126991334D01*
X140940667Y-127024667D01*
X140874000Y-127091334D01*
X140840667Y-127191334D01*
X140840667Y-127258000D01*
X140874000Y-127358000D01*
X140907333Y-127391334D01*
X141140667Y-127791334D02*
X141107333Y-127724667D01*
X141074000Y-127691334D01*
X141007333Y-127658000D01*
X140974000Y-127658000D01*
X140907333Y-127691334D01*
X140874000Y-127724667D01*
X140840667Y-127791334D01*
X140840667Y-127924667D01*
X140874000Y-127991334D01*
X140907333Y-128024667D01*
X140974000Y-128058000D01*
X141007333Y-128058000D01*
X141074000Y-128024667D01*
X141107333Y-127991334D01*
X141140667Y-127924667D01*
X141140667Y-127791334D01*
X141174000Y-127724667D01*
X141207333Y-127691334D01*
X141274000Y-127658000D01*
X141407333Y-127658000D01*
X141474000Y-127691334D01*
X141507333Y-127724667D01*
X141540667Y-127791334D01*
X141540667Y-127924667D01*
X141507333Y-127991334D01*
X141474000Y-128024667D01*
X141407333Y-128058000D01*
X141274000Y-128058000D01*
X141207333Y-128024667D01*
X141174000Y-127991334D01*
X141140667Y-127924667D01*
X159374666Y-137664000D02*
X159408000Y-137697333D01*
X159508000Y-137730667D01*
X159574666Y-137730667D01*
X159674666Y-137697333D01*
X159741333Y-137630667D01*
X159774666Y-137564000D01*
X159808000Y-137430667D01*
X159808000Y-137330667D01*
X159774666Y-137197333D01*
X159741333Y-137130667D01*
X159674666Y-137064000D01*
X159574666Y-137030667D01*
X159508000Y-137030667D01*
X159408000Y-137064000D01*
X159374666Y-137097333D01*
X159041333Y-137730667D02*
X158908000Y-137730667D01*
X158841333Y-137697333D01*
X158808000Y-137664000D01*
X158741333Y-137564000D01*
X158708000Y-137430667D01*
X158708000Y-137164000D01*
X158741333Y-137097333D01*
X158774666Y-137064000D01*
X158841333Y-137030667D01*
X158974666Y-137030667D01*
X159041333Y-137064000D01*
X159074666Y-137097333D01*
X159108000Y-137164000D01*
X159108000Y-137330667D01*
X159074666Y-137397333D01*
X159041333Y-137430667D01*
X158974666Y-137464000D01*
X158841333Y-137464000D01*
X158774666Y-137430667D01*
X158741333Y-137397333D01*
X158708000Y-137330667D01*
X150564000Y-142236000D02*
X150597334Y-142269333D01*
X150697334Y-142302667D01*
X150764000Y-142302667D01*
X150864000Y-142269333D01*
X150930667Y-142202667D01*
X150964000Y-142136000D01*
X150997334Y-142002667D01*
X150997334Y-141902667D01*
X150964000Y-141769333D01*
X150930667Y-141702667D01*
X150864000Y-141636000D01*
X150764000Y-141602667D01*
X150697334Y-141602667D01*
X150597334Y-141636000D01*
X150564000Y-141669333D01*
X149897334Y-142302667D02*
X150297334Y-142302667D01*
X150097334Y-142302667D02*
X150097334Y-141602667D01*
X150164000Y-141702667D01*
X150230667Y-141769333D01*
X150297334Y-141802667D01*
X149464000Y-141602667D02*
X149397333Y-141602667D01*
X149330667Y-141636000D01*
X149297333Y-141669333D01*
X149264000Y-141736000D01*
X149230667Y-141869333D01*
X149230667Y-142036000D01*
X149264000Y-142169333D01*
X149297333Y-142236000D01*
X149330667Y-142269333D01*
X149397333Y-142302667D01*
X149464000Y-142302667D01*
X149530667Y-142269333D01*
X149564000Y-142236000D01*
X149597333Y-142169333D01*
X149630667Y-142036000D01*
X149630667Y-141869333D01*
X149597333Y-141736000D01*
X149564000Y-141669333D01*
X149530667Y-141636000D01*
X149464000Y-141602667D01*
X145738000Y-142236000D02*
X145771334Y-142269333D01*
X145871334Y-142302667D01*
X145938000Y-142302667D01*
X146038000Y-142269333D01*
X146104667Y-142202667D01*
X146138000Y-142136000D01*
X146171334Y-142002667D01*
X146171334Y-141902667D01*
X146138000Y-141769333D01*
X146104667Y-141702667D01*
X146038000Y-141636000D01*
X145938000Y-141602667D01*
X145871334Y-141602667D01*
X145771334Y-141636000D01*
X145738000Y-141669333D01*
X145071334Y-142302667D02*
X145471334Y-142302667D01*
X145271334Y-142302667D02*
X145271334Y-141602667D01*
X145338000Y-141702667D01*
X145404667Y-141769333D01*
X145471334Y-141802667D01*
X144404667Y-142302667D02*
X144804667Y-142302667D01*
X144604667Y-142302667D02*
X144604667Y-141602667D01*
X144671333Y-141702667D01*
X144738000Y-141769333D01*
X144804667Y-141802667D01*
X139442000Y-139758000D02*
X139475333Y-139724666D01*
X139508667Y-139624666D01*
X139508667Y-139558000D01*
X139475333Y-139458000D01*
X139408667Y-139391333D01*
X139342000Y-139358000D01*
X139208667Y-139324666D01*
X139108667Y-139324666D01*
X138975333Y-139358000D01*
X138908667Y-139391333D01*
X138842000Y-139458000D01*
X138808667Y-139558000D01*
X138808667Y-139624666D01*
X138842000Y-139724666D01*
X138875333Y-139758000D01*
X139508667Y-140424666D02*
X139508667Y-140024666D01*
X139508667Y-140224666D02*
X138808667Y-140224666D01*
X138908667Y-140158000D01*
X138975333Y-140091333D01*
X139008667Y-140024666D01*
X139042000Y-141024667D02*
X139508667Y-141024667D01*
X138775333Y-140858000D02*
X139275333Y-140691333D01*
X139275333Y-141124667D01*
X140204000Y-127312000D02*
X140237333Y-127278666D01*
X140270667Y-127178666D01*
X140270667Y-127112000D01*
X140237333Y-127012000D01*
X140170667Y-126945333D01*
X140104000Y-126912000D01*
X139970667Y-126878666D01*
X139870667Y-126878666D01*
X139737333Y-126912000D01*
X139670667Y-126945333D01*
X139604000Y-127012000D01*
X139570667Y-127112000D01*
X139570667Y-127178666D01*
X139604000Y-127278666D01*
X139637333Y-127312000D01*
X140270667Y-127978666D02*
X140270667Y-127578666D01*
X140270667Y-127778666D02*
X139570667Y-127778666D01*
X139670667Y-127712000D01*
X139737333Y-127645333D01*
X139770667Y-127578666D01*
X139570667Y-128612000D02*
X139570667Y-128278667D01*
X139904000Y-128245333D01*
X139870667Y-128278667D01*
X139837333Y-128345333D01*
X139837333Y-128512000D01*
X139870667Y-128578667D01*
X139904000Y-128612000D01*
X139970667Y-128645333D01*
X140137333Y-128645333D01*
X140204000Y-128612000D01*
X140237333Y-128578667D01*
X140270667Y-128512000D01*
X140270667Y-128345333D01*
X140237333Y-128278667D01*
X140204000Y-128245333D01*
X147262000Y-129282000D02*
X147295334Y-129315333D01*
X147395334Y-129348667D01*
X147462000Y-129348667D01*
X147562000Y-129315333D01*
X147628667Y-129248667D01*
X147662000Y-129182000D01*
X147695334Y-129048667D01*
X147695334Y-128948667D01*
X147662000Y-128815333D01*
X147628667Y-128748667D01*
X147562000Y-128682000D01*
X147462000Y-128648667D01*
X147395334Y-128648667D01*
X147295334Y-128682000D01*
X147262000Y-128715333D01*
X146595334Y-129348667D02*
X146995334Y-129348667D01*
X146795334Y-129348667D02*
X146795334Y-128648667D01*
X146862000Y-128748667D01*
X146928667Y-128815333D01*
X146995334Y-128848667D01*
X145995333Y-128648667D02*
X146128667Y-128648667D01*
X146195333Y-128682000D01*
X146228667Y-128715333D01*
X146295333Y-128815333D01*
X146328667Y-128948667D01*
X146328667Y-129215333D01*
X146295333Y-129282000D01*
X146262000Y-129315333D01*
X146195333Y-129348667D01*
X146062000Y-129348667D01*
X145995333Y-129315333D01*
X145962000Y-129282000D01*
X145928667Y-129215333D01*
X145928667Y-129048667D01*
X145962000Y-128982000D01*
X145995333Y-128948667D01*
X146062000Y-128915333D01*
X146195333Y-128915333D01*
X146262000Y-128948667D01*
X146295333Y-128982000D01*
X146328667Y-129048667D01*
X156406000Y-140966000D02*
X156439334Y-140999333D01*
X156539334Y-141032667D01*
X156606000Y-141032667D01*
X156706000Y-140999333D01*
X156772667Y-140932667D01*
X156806000Y-140866000D01*
X156839334Y-140732667D01*
X156839334Y-140632667D01*
X156806000Y-140499333D01*
X156772667Y-140432667D01*
X156706000Y-140366000D01*
X156606000Y-140332667D01*
X156539334Y-140332667D01*
X156439334Y-140366000D01*
X156406000Y-140399333D01*
X156172667Y-140332667D02*
X155739334Y-140332667D01*
X155972667Y-140599333D01*
X155872667Y-140599333D01*
X155806000Y-140632667D01*
X155772667Y-140666000D01*
X155739334Y-140732667D01*
X155739334Y-140899333D01*
X155772667Y-140966000D01*
X155806000Y-140999333D01*
X155872667Y-141032667D01*
X156072667Y-141032667D01*
X156139334Y-140999333D01*
X156172667Y-140966000D01*
X155106000Y-140332667D02*
X155439333Y-140332667D01*
X155472667Y-140666000D01*
X155439333Y-140632667D01*
X155372667Y-140599333D01*
X155206000Y-140599333D01*
X155139333Y-140632667D01*
X155106000Y-140666000D01*
X155072667Y-140732667D01*
X155072667Y-140899333D01*
X155106000Y-140966000D01*
X155139333Y-140999333D01*
X155206000Y-141032667D01*
X155372667Y-141032667D01*
X155439333Y-140999333D01*
X155472667Y-140966000D01*
X156406000Y-138934000D02*
X156439334Y-138967333D01*
X156539334Y-139000667D01*
X156606000Y-139000667D01*
X156706000Y-138967333D01*
X156772667Y-138900667D01*
X156806000Y-138834000D01*
X156839334Y-138700667D01*
X156839334Y-138600667D01*
X156806000Y-138467333D01*
X156772667Y-138400667D01*
X156706000Y-138334000D01*
X156606000Y-138300667D01*
X156539334Y-138300667D01*
X156439334Y-138334000D01*
X156406000Y-138367333D01*
X156172667Y-138300667D02*
X155739334Y-138300667D01*
X155972667Y-138567333D01*
X155872667Y-138567333D01*
X155806000Y-138600667D01*
X155772667Y-138634000D01*
X155739334Y-138700667D01*
X155739334Y-138867333D01*
X155772667Y-138934000D01*
X155806000Y-138967333D01*
X155872667Y-139000667D01*
X156072667Y-139000667D01*
X156139334Y-138967333D01*
X156172667Y-138934000D01*
X155139333Y-138300667D02*
X155272667Y-138300667D01*
X155339333Y-138334000D01*
X155372667Y-138367333D01*
X155439333Y-138467333D01*
X155472667Y-138600667D01*
X155472667Y-138867333D01*
X155439333Y-138934000D01*
X155406000Y-138967333D01*
X155339333Y-139000667D01*
X155206000Y-139000667D01*
X155139333Y-138967333D01*
X155106000Y-138934000D01*
X155072667Y-138867333D01*
X155072667Y-138700667D01*
X155106000Y-138634000D01*
X155139333Y-138600667D01*
X155206000Y-138567333D01*
X155339333Y-138567333D01*
X155406000Y-138600667D01*
X155439333Y-138634000D01*
X155472667Y-138700667D01*
X156406000Y-135124000D02*
X156439334Y-135157333D01*
X156539334Y-135190667D01*
X156606000Y-135190667D01*
X156706000Y-135157333D01*
X156772667Y-135090667D01*
X156806000Y-135024000D01*
X156839334Y-134890667D01*
X156839334Y-134790667D01*
X156806000Y-134657333D01*
X156772667Y-134590667D01*
X156706000Y-134524000D01*
X156606000Y-134490667D01*
X156539334Y-134490667D01*
X156439334Y-134524000D01*
X156406000Y-134557333D01*
X156172667Y-134490667D02*
X155739334Y-134490667D01*
X155972667Y-134757333D01*
X155872667Y-134757333D01*
X155806000Y-134790667D01*
X155772667Y-134824000D01*
X155739334Y-134890667D01*
X155739334Y-135057333D01*
X155772667Y-135124000D01*
X155806000Y-135157333D01*
X155872667Y-135190667D01*
X156072667Y-135190667D01*
X156139334Y-135157333D01*
X156172667Y-135124000D01*
X155506000Y-134490667D02*
X155039333Y-134490667D01*
X155339333Y-135190667D01*
X162502000Y-148078000D02*
X162535334Y-148111333D01*
X162635334Y-148144667D01*
X162702000Y-148144667D01*
X162802000Y-148111333D01*
X162868667Y-148044667D01*
X162902000Y-147978000D01*
X162935334Y-147844667D01*
X162935334Y-147744667D01*
X162902000Y-147611333D01*
X162868667Y-147544667D01*
X162802000Y-147478000D01*
X162702000Y-147444667D01*
X162635334Y-147444667D01*
X162535334Y-147478000D01*
X162502000Y-147511333D01*
X162268667Y-147444667D02*
X161835334Y-147444667D01*
X162068667Y-147711333D01*
X161968667Y-147711333D01*
X161902000Y-147744667D01*
X161868667Y-147778000D01*
X161835334Y-147844667D01*
X161835334Y-148011333D01*
X161868667Y-148078000D01*
X161902000Y-148111333D01*
X161968667Y-148144667D01*
X162168667Y-148144667D01*
X162235334Y-148111333D01*
X162268667Y-148078000D01*
X161435333Y-147744667D02*
X161502000Y-147711333D01*
X161535333Y-147678000D01*
X161568667Y-147611333D01*
X161568667Y-147578000D01*
X161535333Y-147511333D01*
X161502000Y-147478000D01*
X161435333Y-147444667D01*
X161302000Y-147444667D01*
X161235333Y-147478000D01*
X161202000Y-147511333D01*
X161168667Y-147578000D01*
X161168667Y-147611333D01*
X161202000Y-147678000D01*
X161235333Y-147711333D01*
X161302000Y-147744667D01*
X161435333Y-147744667D01*
X161502000Y-147778000D01*
X161535333Y-147811333D01*
X161568667Y-147878000D01*
X161568667Y-148011333D01*
X161535333Y-148078000D01*
X161502000Y-148111333D01*
X161435333Y-148144667D01*
X161302000Y-148144667D01*
X161235333Y-148111333D01*
X161202000Y-148078000D01*
X161168667Y-148011333D01*
X161168667Y-147878000D01*
X161202000Y-147811333D01*
X161235333Y-147778000D01*
X161302000Y-147744667D01*
X159200000Y-134362000D02*
X159233334Y-134395333D01*
X159333334Y-134428667D01*
X159400000Y-134428667D01*
X159500000Y-134395333D01*
X159566667Y-134328667D01*
X159600000Y-134262000D01*
X159633334Y-134128667D01*
X159633334Y-134028667D01*
X159600000Y-133895333D01*
X159566667Y-133828667D01*
X159500000Y-133762000D01*
X159400000Y-133728667D01*
X159333334Y-133728667D01*
X159233334Y-133762000D01*
X159200000Y-133795333D01*
X158966667Y-133728667D02*
X158533334Y-133728667D01*
X158766667Y-133995333D01*
X158666667Y-133995333D01*
X158600000Y-134028667D01*
X158566667Y-134062000D01*
X158533334Y-134128667D01*
X158533334Y-134295333D01*
X158566667Y-134362000D01*
X158600000Y-134395333D01*
X158666667Y-134428667D01*
X158866667Y-134428667D01*
X158933334Y-134395333D01*
X158966667Y-134362000D01*
X158200000Y-134428667D02*
X158066667Y-134428667D01*
X158000000Y-134395333D01*
X157966667Y-134362000D01*
X157900000Y-134262000D01*
X157866667Y-134128667D01*
X157866667Y-133862000D01*
X157900000Y-133795333D01*
X157933333Y-133762000D01*
X158000000Y-133728667D01*
X158133333Y-133728667D01*
X158200000Y-133762000D01*
X158233333Y-133795333D01*
X158266667Y-133862000D01*
X158266667Y-134028667D01*
X158233333Y-134095333D01*
X158200000Y-134128667D01*
X158133333Y-134162000D01*
X158000000Y-134162000D01*
X157933333Y-134128667D01*
X157900000Y-134095333D01*
X157866667Y-134028667D01*
X159200000Y-121916000D02*
X159233334Y-121949333D01*
X159333334Y-121982667D01*
X159400000Y-121982667D01*
X159500000Y-121949333D01*
X159566667Y-121882667D01*
X159600000Y-121816000D01*
X159633334Y-121682667D01*
X159633334Y-121582667D01*
X159600000Y-121449333D01*
X159566667Y-121382667D01*
X159500000Y-121316000D01*
X159400000Y-121282667D01*
X159333334Y-121282667D01*
X159233334Y-121316000D01*
X159200000Y-121349333D01*
X158600000Y-121516000D02*
X158600000Y-121982667D01*
X158766667Y-121249333D02*
X158933334Y-121749333D01*
X158500000Y-121749333D01*
X158100000Y-121282667D02*
X158033333Y-121282667D01*
X157966667Y-121316000D01*
X157933333Y-121349333D01*
X157900000Y-121416000D01*
X157866667Y-121549333D01*
X157866667Y-121716000D01*
X157900000Y-121849333D01*
X157933333Y-121916000D01*
X157966667Y-121949333D01*
X158033333Y-121982667D01*
X158100000Y-121982667D01*
X158166667Y-121949333D01*
X158200000Y-121916000D01*
X158233333Y-121849333D01*
X158266667Y-121716000D01*
X158266667Y-121549333D01*
X158233333Y-121416000D01*
X158200000Y-121349333D01*
X158166667Y-121316000D01*
X158100000Y-121282667D01*
X134362000Y-117660000D02*
X134395333Y-117626666D01*
X134428667Y-117526666D01*
X134428667Y-117460000D01*
X134395333Y-117360000D01*
X134328667Y-117293333D01*
X134262000Y-117260000D01*
X134128667Y-117226666D01*
X134028667Y-117226666D01*
X133895333Y-117260000D01*
X133828667Y-117293333D01*
X133762000Y-117360000D01*
X133728667Y-117460000D01*
X133728667Y-117526666D01*
X133762000Y-117626666D01*
X133795333Y-117660000D01*
X133962000Y-118260000D02*
X134428667Y-118260000D01*
X133695333Y-118093333D02*
X134195333Y-117926666D01*
X134195333Y-118360000D01*
X134028667Y-118726667D02*
X133995333Y-118660000D01*
X133962000Y-118626667D01*
X133895333Y-118593333D01*
X133862000Y-118593333D01*
X133795333Y-118626667D01*
X133762000Y-118660000D01*
X133728667Y-118726667D01*
X133728667Y-118860000D01*
X133762000Y-118926667D01*
X133795333Y-118960000D01*
X133862000Y-118993333D01*
X133895333Y-118993333D01*
X133962000Y-118960000D01*
X133995333Y-118926667D01*
X134028667Y-118860000D01*
X134028667Y-118726667D01*
X134062000Y-118660000D01*
X134095333Y-118626667D01*
X134162000Y-118593333D01*
X134295333Y-118593333D01*
X134362000Y-118626667D01*
X134395333Y-118660000D01*
X134428667Y-118726667D01*
X134428667Y-118860000D01*
X134395333Y-118926667D01*
X134362000Y-118960000D01*
X134295333Y-118993333D01*
X134162000Y-118993333D01*
X134095333Y-118960000D01*
X134062000Y-118926667D01*
X134028667Y-118860000D01*
X150364000Y-117660000D02*
X150397333Y-117626666D01*
X150430667Y-117526666D01*
X150430667Y-117460000D01*
X150397333Y-117360000D01*
X150330667Y-117293333D01*
X150264000Y-117260000D01*
X150130667Y-117226666D01*
X150030667Y-117226666D01*
X149897333Y-117260000D01*
X149830667Y-117293333D01*
X149764000Y-117360000D01*
X149730667Y-117460000D01*
X149730667Y-117526666D01*
X149764000Y-117626666D01*
X149797333Y-117660000D01*
X149964000Y-118260000D02*
X150430667Y-118260000D01*
X149697333Y-118093333D02*
X150197333Y-117926666D01*
X150197333Y-118360000D01*
X150430667Y-118660000D02*
X150430667Y-118793333D01*
X150397333Y-118860000D01*
X150364000Y-118893333D01*
X150264000Y-118960000D01*
X150130667Y-118993333D01*
X149864000Y-118993333D01*
X149797333Y-118960000D01*
X149764000Y-118926667D01*
X149730667Y-118860000D01*
X149730667Y-118726667D01*
X149764000Y-118660000D01*
X149797333Y-118626667D01*
X149864000Y-118593333D01*
X150030667Y-118593333D01*
X150097333Y-118626667D01*
X150130667Y-118660000D01*
X150164000Y-118726667D01*
X150164000Y-118860000D01*
X150130667Y-118926667D01*
X150097333Y-118960000D01*
X150030667Y-118993333D01*
X161098667Y-112513334D02*
X160398667Y-112513334D01*
X160398667Y-112680000D01*
X160432000Y-112780000D01*
X160498667Y-112846667D01*
X160565333Y-112880000D01*
X160698667Y-112913334D01*
X160798667Y-112913334D01*
X160932000Y-112880000D01*
X160998667Y-112846667D01*
X161065333Y-112780000D01*
X161098667Y-112680000D01*
X161098667Y-112513334D01*
X161098667Y-113580000D02*
X161098667Y-113180000D01*
X161098667Y-113380000D02*
X160398667Y-113380000D01*
X160498667Y-113313334D01*
X160565333Y-113246667D01*
X160598667Y-113180000D01*
X162368667Y-140453334D02*
X161668667Y-140453334D01*
X161668667Y-140620000D01*
X161702000Y-140720000D01*
X161768667Y-140786667D01*
X161835333Y-140820000D01*
X161968667Y-140853334D01*
X162068667Y-140853334D01*
X162202000Y-140820000D01*
X162268667Y-140786667D01*
X162335333Y-140720000D01*
X162368667Y-140620000D01*
X162368667Y-140453334D01*
X161735333Y-141120000D02*
X161702000Y-141153334D01*
X161668667Y-141220000D01*
X161668667Y-141386667D01*
X161702000Y-141453334D01*
X161735333Y-141486667D01*
X161802000Y-141520000D01*
X161868667Y-141520000D01*
X161968667Y-141486667D01*
X162368667Y-141086667D01*
X162368667Y-141520000D01*
X162368667Y-115815334D02*
X161668667Y-115815334D01*
X161668667Y-115982000D01*
X161702000Y-116082000D01*
X161768667Y-116148667D01*
X161835333Y-116182000D01*
X161968667Y-116215334D01*
X162068667Y-116215334D01*
X162202000Y-116182000D01*
X162268667Y-116148667D01*
X162335333Y-116082000D01*
X162368667Y-115982000D01*
X162368667Y-115815334D01*
X161668667Y-116448667D02*
X161668667Y-116882000D01*
X161935333Y-116648667D01*
X161935333Y-116748667D01*
X161968667Y-116815334D01*
X162002000Y-116848667D01*
X162068667Y-116882000D01*
X162235333Y-116882000D01*
X162302000Y-116848667D01*
X162335333Y-116815334D01*
X162368667Y-116748667D01*
X162368667Y-116548667D01*
X162335333Y-116482000D01*
X162302000Y-116448667D01*
X162368667Y-128007334D02*
X161668667Y-128007334D01*
X161668667Y-128174000D01*
X161702000Y-128274000D01*
X161768667Y-128340667D01*
X161835333Y-128374000D01*
X161968667Y-128407334D01*
X162068667Y-128407334D01*
X162202000Y-128374000D01*
X162268667Y-128340667D01*
X162335333Y-128274000D01*
X162368667Y-128174000D01*
X162368667Y-128007334D01*
X161902000Y-129007334D02*
X162368667Y-129007334D01*
X161635333Y-128840667D02*
X162135333Y-128674000D01*
X162135333Y-129107334D01*
X165741999Y-126046667D02*
X165741999Y-125346667D01*
X165341999Y-126046667D01*
X165341999Y-125346667D01*
X165108666Y-125346667D02*
X164708666Y-125346667D01*
X164908666Y-126046667D02*
X164908666Y-125346667D01*
X164075333Y-125980000D02*
X164108667Y-126013333D01*
X164208667Y-126046667D01*
X164275333Y-126046667D01*
X164375333Y-126013333D01*
X164442000Y-125946667D01*
X164475333Y-125880000D01*
X164508667Y-125746667D01*
X164508667Y-125646667D01*
X164475333Y-125513333D01*
X164442000Y-125446667D01*
X164375333Y-125380000D01*
X164275333Y-125346667D01*
X164208667Y-125346667D01*
X164108667Y-125380000D01*
X164075333Y-125413333D01*
X163408667Y-126046667D02*
X163808667Y-126046667D01*
X163608667Y-126046667D02*
X163608667Y-125346667D01*
X163675333Y-125446667D01*
X163742000Y-125513333D01*
X163808667Y-125546667D01*
X172786667Y-138813333D02*
X172853333Y-138780000D01*
X172920000Y-138713333D01*
X173020000Y-138613333D01*
X173086667Y-138580000D01*
X173153333Y-138580000D01*
X173120000Y-138746667D02*
X173186667Y-138713333D01*
X173253333Y-138646667D01*
X173286667Y-138513333D01*
X173286667Y-138280000D01*
X173253333Y-138146667D01*
X173186667Y-138080000D01*
X173120000Y-138046667D01*
X172986667Y-138046667D01*
X172920000Y-138080000D01*
X172853333Y-138146667D01*
X172820000Y-138280000D01*
X172820000Y-138513333D01*
X172853333Y-138646667D01*
X172920000Y-138713333D01*
X172986667Y-138746667D01*
X173120000Y-138746667D01*
X172553334Y-138113333D02*
X172520000Y-138080000D01*
X172453334Y-138046667D01*
X172286667Y-138046667D01*
X172220000Y-138080000D01*
X172186667Y-138113333D01*
X172153334Y-138180000D01*
X172153334Y-138246667D01*
X172186667Y-138346667D01*
X172586667Y-138746667D01*
X172153334Y-138746667D01*
X188280667Y-126367333D02*
X188347333Y-126334000D01*
X188414000Y-126267333D01*
X188514000Y-126167333D01*
X188580667Y-126134000D01*
X188647333Y-126134000D01*
X188614000Y-126300667D02*
X188680667Y-126267333D01*
X188747333Y-126200667D01*
X188780667Y-126067333D01*
X188780667Y-125834000D01*
X188747333Y-125700667D01*
X188680667Y-125634000D01*
X188614000Y-125600667D01*
X188480667Y-125600667D01*
X188414000Y-125634000D01*
X188347333Y-125700667D01*
X188314000Y-125834000D01*
X188314000Y-126067333D01*
X188347333Y-126200667D01*
X188414000Y-126267333D01*
X188480667Y-126300667D01*
X188614000Y-126300667D01*
X188080667Y-125600667D02*
X187647334Y-125600667D01*
X187880667Y-125867333D01*
X187780667Y-125867333D01*
X187714000Y-125900667D01*
X187680667Y-125934000D01*
X187647334Y-126000667D01*
X187647334Y-126167333D01*
X187680667Y-126234000D01*
X187714000Y-126267333D01*
X187780667Y-126300667D01*
X187980667Y-126300667D01*
X188047334Y-126267333D01*
X188080667Y-126234000D01*
X172786667Y-126367333D02*
X172853333Y-126334000D01*
X172920000Y-126267333D01*
X173020000Y-126167333D01*
X173086667Y-126134000D01*
X173153333Y-126134000D01*
X173120000Y-126300667D02*
X173186667Y-126267333D01*
X173253333Y-126200667D01*
X173286667Y-126067333D01*
X173286667Y-125834000D01*
X173253333Y-125700667D01*
X173186667Y-125634000D01*
X173120000Y-125600667D01*
X172986667Y-125600667D01*
X172920000Y-125634000D01*
X172853333Y-125700667D01*
X172820000Y-125834000D01*
X172820000Y-126067333D01*
X172853333Y-126200667D01*
X172920000Y-126267333D01*
X172986667Y-126300667D01*
X173120000Y-126300667D01*
X172220000Y-125834000D02*
X172220000Y-126300667D01*
X172386667Y-125567333D02*
X172553334Y-126067333D01*
X172120000Y-126067333D01*
X188280667Y-113921333D02*
X188347333Y-113888000D01*
X188414000Y-113821333D01*
X188514000Y-113721333D01*
X188580667Y-113688000D01*
X188647333Y-113688000D01*
X188614000Y-113854667D02*
X188680667Y-113821333D01*
X188747333Y-113754667D01*
X188780667Y-113621333D01*
X188780667Y-113388000D01*
X188747333Y-113254667D01*
X188680667Y-113188000D01*
X188614000Y-113154667D01*
X188480667Y-113154667D01*
X188414000Y-113188000D01*
X188347333Y-113254667D01*
X188314000Y-113388000D01*
X188314000Y-113621333D01*
X188347333Y-113754667D01*
X188414000Y-113821333D01*
X188480667Y-113854667D01*
X188614000Y-113854667D01*
X187680667Y-113154667D02*
X188014000Y-113154667D01*
X188047334Y-113488000D01*
X188014000Y-113454667D01*
X187947334Y-113421333D01*
X187780667Y-113421333D01*
X187714000Y-113454667D01*
X187680667Y-113488000D01*
X187647334Y-113554667D01*
X187647334Y-113721333D01*
X187680667Y-113788000D01*
X187714000Y-113821333D01*
X187780667Y-113854667D01*
X187947334Y-113854667D01*
X188014000Y-113821333D01*
X188047334Y-113788000D01*
X172786667Y-113921333D02*
X172853333Y-113888000D01*
X172920000Y-113821333D01*
X173020000Y-113721333D01*
X173086667Y-113688000D01*
X173153333Y-113688000D01*
X173120000Y-113854667D02*
X173186667Y-113821333D01*
X173253333Y-113754667D01*
X173286667Y-113621333D01*
X173286667Y-113388000D01*
X173253333Y-113254667D01*
X173186667Y-113188000D01*
X173120000Y-113154667D01*
X172986667Y-113154667D01*
X172920000Y-113188000D01*
X172853333Y-113254667D01*
X172820000Y-113388000D01*
X172820000Y-113621333D01*
X172853333Y-113754667D01*
X172920000Y-113821333D01*
X172986667Y-113854667D01*
X173120000Y-113854667D01*
X172220000Y-113154667D02*
X172353334Y-113154667D01*
X172420000Y-113188000D01*
X172453334Y-113221333D01*
X172520000Y-113321333D01*
X172553334Y-113454667D01*
X172553334Y-113721333D01*
X172520000Y-113788000D01*
X172486667Y-113821333D01*
X172420000Y-113854667D01*
X172286667Y-113854667D01*
X172220000Y-113821333D01*
X172186667Y-113788000D01*
X172153334Y-113721333D01*
X172153334Y-113554667D01*
X172186667Y-113488000D01*
X172220000Y-113454667D01*
X172286667Y-113421333D01*
X172420000Y-113421333D01*
X172486667Y-113454667D01*
X172520000Y-113488000D01*
X172553334Y-113554667D01*
X153224667Y-112913334D02*
X152891333Y-112680000D01*
X153224667Y-112513334D02*
X152524667Y-112513334D01*
X152524667Y-112780000D01*
X152558000Y-112846667D01*
X152591333Y-112880000D01*
X152658000Y-112913334D01*
X152758000Y-112913334D01*
X152824667Y-112880000D01*
X152858000Y-112846667D01*
X152891333Y-112780000D01*
X152891333Y-112513334D01*
X153224667Y-113580000D02*
X153224667Y-113180000D01*
X153224667Y-113380000D02*
X152524667Y-113380000D01*
X152624667Y-113313334D01*
X152691333Y-113246667D01*
X152724667Y-113180000D01*
X156018667Y-111135334D02*
X155685333Y-110902000D01*
X156018667Y-110735334D02*
X155318667Y-110735334D01*
X155318667Y-111002000D01*
X155352000Y-111068667D01*
X155385333Y-111102000D01*
X155452000Y-111135334D01*
X155552000Y-111135334D01*
X155618667Y-111102000D01*
X155652000Y-111068667D01*
X155685333Y-111002000D01*
X155685333Y-110735334D01*
X155385333Y-111402000D02*
X155352000Y-111435334D01*
X155318667Y-111502000D01*
X155318667Y-111668667D01*
X155352000Y-111735334D01*
X155385333Y-111768667D01*
X155452000Y-111802000D01*
X155518667Y-111802000D01*
X155618667Y-111768667D01*
X156018667Y-111368667D01*
X156018667Y-111802000D01*
X145150666Y-129348667D02*
X145384000Y-129015333D01*
X145550666Y-129348667D02*
X145550666Y-128648667D01*
X145284000Y-128648667D01*
X145217333Y-128682000D01*
X145184000Y-128715333D01*
X145150666Y-128782000D01*
X145150666Y-128882000D01*
X145184000Y-128948667D01*
X145217333Y-128982000D01*
X145284000Y-129015333D01*
X145550666Y-129015333D01*
X144917333Y-128648667D02*
X144484000Y-128648667D01*
X144717333Y-128915333D01*
X144617333Y-128915333D01*
X144550666Y-128948667D01*
X144517333Y-128982000D01*
X144484000Y-129048667D01*
X144484000Y-129215333D01*
X144517333Y-129282000D01*
X144550666Y-129315333D01*
X144617333Y-129348667D01*
X144817333Y-129348667D01*
X144884000Y-129315333D01*
X144917333Y-129282000D01*
X140778667Y-137551334D02*
X140445333Y-137318000D01*
X140778667Y-137151334D02*
X140078667Y-137151334D01*
X140078667Y-137418000D01*
X140112000Y-137484667D01*
X140145333Y-137518000D01*
X140212000Y-137551334D01*
X140312000Y-137551334D01*
X140378667Y-137518000D01*
X140412000Y-137484667D01*
X140445333Y-137418000D01*
X140445333Y-137151334D01*
X140312000Y-138151334D02*
X140778667Y-138151334D01*
X140045333Y-137984667D02*
X140545333Y-137818000D01*
X140545333Y-138251334D01*
X140778667Y-135265334D02*
X140445333Y-135032000D01*
X140778667Y-134865334D02*
X140078667Y-134865334D01*
X140078667Y-135132000D01*
X140112000Y-135198667D01*
X140145333Y-135232000D01*
X140212000Y-135265334D01*
X140312000Y-135265334D01*
X140378667Y-135232000D01*
X140412000Y-135198667D01*
X140445333Y-135132000D01*
X140445333Y-134865334D01*
X140078667Y-135865334D02*
X140078667Y-135732000D01*
X140112000Y-135665334D01*
X140145333Y-135632000D01*
X140245333Y-135565334D01*
X140378667Y-135532000D01*
X140645333Y-135532000D01*
X140712000Y-135565334D01*
X140745333Y-135598667D01*
X140778667Y-135665334D01*
X140778667Y-135798667D01*
X140745333Y-135865334D01*
X140712000Y-135898667D01*
X140645333Y-135932000D01*
X140478667Y-135932000D01*
X140412000Y-135898667D01*
X140378667Y-135865334D01*
X140345333Y-135798667D01*
X140345333Y-135665334D01*
X140378667Y-135598667D01*
X140412000Y-135565334D01*
X140478667Y-135532000D01*
X140778667Y-132979334D02*
X140445333Y-132746000D01*
X140778667Y-132579334D02*
X140078667Y-132579334D01*
X140078667Y-132846000D01*
X140112000Y-132912667D01*
X140145333Y-132946000D01*
X140212000Y-132979334D01*
X140312000Y-132979334D01*
X140378667Y-132946000D01*
X140412000Y-132912667D01*
X140445333Y-132846000D01*
X140445333Y-132579334D01*
X140078667Y-133212667D02*
X140078667Y-133679334D01*
X140778667Y-133379334D01*
X136968667Y-128915334D02*
X136635333Y-128682000D01*
X136968667Y-128515334D02*
X136268667Y-128515334D01*
X136268667Y-128782000D01*
X136302000Y-128848667D01*
X136335333Y-128882000D01*
X136402000Y-128915334D01*
X136502000Y-128915334D01*
X136568667Y-128882000D01*
X136602000Y-128848667D01*
X136635333Y-128782000D01*
X136635333Y-128515334D01*
X136568667Y-129315334D02*
X136535333Y-129248667D01*
X136502000Y-129215334D01*
X136435333Y-129182000D01*
X136402000Y-129182000D01*
X136335333Y-129215334D01*
X136302000Y-129248667D01*
X136268667Y-129315334D01*
X136268667Y-129448667D01*
X136302000Y-129515334D01*
X136335333Y-129548667D01*
X136402000Y-129582000D01*
X136435333Y-129582000D01*
X136502000Y-129548667D01*
X136535333Y-129515334D01*
X136568667Y-129448667D01*
X136568667Y-129315334D01*
X136602000Y-129248667D01*
X136635333Y-129215334D01*
X136702000Y-129182000D01*
X136835333Y-129182000D01*
X136902000Y-129215334D01*
X136935333Y-129248667D01*
X136968667Y-129315334D01*
X136968667Y-129448667D01*
X136935333Y-129515334D01*
X136902000Y-129548667D01*
X136835333Y-129582000D01*
X136702000Y-129582000D01*
X136635333Y-129548667D01*
X136602000Y-129515334D01*
X136568667Y-129448667D01*
X141794667Y-137551334D02*
X141461333Y-137318000D01*
X141794667Y-137151334D02*
X141094667Y-137151334D01*
X141094667Y-137418000D01*
X141128000Y-137484667D01*
X141161333Y-137518000D01*
X141228000Y-137551334D01*
X141328000Y-137551334D01*
X141394667Y-137518000D01*
X141428000Y-137484667D01*
X141461333Y-137418000D01*
X141461333Y-137151334D01*
X141794667Y-137884667D02*
X141794667Y-138018000D01*
X141761333Y-138084667D01*
X141728000Y-138118000D01*
X141628000Y-138184667D01*
X141494667Y-138218000D01*
X141228000Y-138218000D01*
X141161333Y-138184667D01*
X141128000Y-138151334D01*
X141094667Y-138084667D01*
X141094667Y-137951334D01*
X141128000Y-137884667D01*
X141161333Y-137851334D01*
X141228000Y-137818000D01*
X141394667Y-137818000D01*
X141461333Y-137851334D01*
X141494667Y-137884667D01*
X141528000Y-137951334D01*
X141528000Y-138084667D01*
X141494667Y-138151334D01*
X141461333Y-138184667D01*
X141394667Y-138218000D01*
X141794667Y-135186000D02*
X141461333Y-134952666D01*
X141794667Y-134786000D02*
X141094667Y-134786000D01*
X141094667Y-135052666D01*
X141128000Y-135119333D01*
X141161333Y-135152666D01*
X141228000Y-135186000D01*
X141328000Y-135186000D01*
X141394667Y-135152666D01*
X141428000Y-135119333D01*
X141461333Y-135052666D01*
X141461333Y-134786000D01*
X141794667Y-135852666D02*
X141794667Y-135452666D01*
X141794667Y-135652666D02*
X141094667Y-135652666D01*
X141194667Y-135586000D01*
X141261333Y-135519333D01*
X141294667Y-135452666D01*
X141094667Y-136286000D02*
X141094667Y-136352667D01*
X141128000Y-136419333D01*
X141161333Y-136452667D01*
X141228000Y-136486000D01*
X141361333Y-136519333D01*
X141528000Y-136519333D01*
X141661333Y-136486000D01*
X141728000Y-136452667D01*
X141761333Y-136419333D01*
X141794667Y-136352667D01*
X141794667Y-136286000D01*
X141761333Y-136219333D01*
X141728000Y-136186000D01*
X141661333Y-136152667D01*
X141528000Y-136119333D01*
X141361333Y-136119333D01*
X141228000Y-136152667D01*
X141161333Y-136186000D01*
X141128000Y-136219333D01*
X141094667Y-136286000D01*
X141794667Y-132900000D02*
X141461333Y-132666666D01*
X141794667Y-132500000D02*
X141094667Y-132500000D01*
X141094667Y-132766666D01*
X141128000Y-132833333D01*
X141161333Y-132866666D01*
X141228000Y-132900000D01*
X141328000Y-132900000D01*
X141394667Y-132866666D01*
X141428000Y-132833333D01*
X141461333Y-132766666D01*
X141461333Y-132500000D01*
X141794667Y-133566666D02*
X141794667Y-133166666D01*
X141794667Y-133366666D02*
X141094667Y-133366666D01*
X141194667Y-133300000D01*
X141261333Y-133233333D01*
X141294667Y-133166666D01*
X141794667Y-134233333D02*
X141794667Y-133833333D01*
X141794667Y-134033333D02*
X141094667Y-134033333D01*
X141194667Y-133966667D01*
X141261333Y-133900000D01*
X141294667Y-133833333D01*
X159200000Y-143826667D02*
X159433334Y-143493333D01*
X159600000Y-143826667D02*
X159600000Y-143126667D01*
X159333334Y-143126667D01*
X159266667Y-143160000D01*
X159233334Y-143193333D01*
X159200000Y-143260000D01*
X159200000Y-143360000D01*
X159233334Y-143426667D01*
X159266667Y-143460000D01*
X159333334Y-143493333D01*
X159600000Y-143493333D01*
X158933334Y-143193333D02*
X158900000Y-143160000D01*
X158833334Y-143126667D01*
X158666667Y-143126667D01*
X158600000Y-143160000D01*
X158566667Y-143193333D01*
X158533334Y-143260000D01*
X158533334Y-143326667D01*
X158566667Y-143426667D01*
X158966667Y-143826667D01*
X158533334Y-143826667D01*
X158200000Y-143826667D02*
X158066667Y-143826667D01*
X158000000Y-143793333D01*
X157966667Y-143760000D01*
X157900000Y-143660000D01*
X157866667Y-143526667D01*
X157866667Y-143260000D01*
X157900000Y-143193333D01*
X157933333Y-143160000D01*
X158000000Y-143126667D01*
X158133333Y-143126667D01*
X158200000Y-143160000D01*
X158233333Y-143193333D01*
X158266667Y-143260000D01*
X158266667Y-143426667D01*
X158233333Y-143493333D01*
X158200000Y-143526667D01*
X158133333Y-143560000D01*
X158000000Y-143560000D01*
X157933333Y-143526667D01*
X157900000Y-143493333D01*
X157866667Y-143426667D01*
X156406000Y-140016667D02*
X156639334Y-139683333D01*
X156806000Y-140016667D02*
X156806000Y-139316667D01*
X156539334Y-139316667D01*
X156472667Y-139350000D01*
X156439334Y-139383333D01*
X156406000Y-139450000D01*
X156406000Y-139550000D01*
X156439334Y-139616667D01*
X156472667Y-139650000D01*
X156539334Y-139683333D01*
X156806000Y-139683333D01*
X156172667Y-139316667D02*
X155739334Y-139316667D01*
X155972667Y-139583333D01*
X155872667Y-139583333D01*
X155806000Y-139616667D01*
X155772667Y-139650000D01*
X155739334Y-139716667D01*
X155739334Y-139883333D01*
X155772667Y-139950000D01*
X155806000Y-139983333D01*
X155872667Y-140016667D01*
X156072667Y-140016667D01*
X156139334Y-139983333D01*
X156172667Y-139950000D01*
X155306000Y-139316667D02*
X155239333Y-139316667D01*
X155172667Y-139350000D01*
X155139333Y-139383333D01*
X155106000Y-139450000D01*
X155072667Y-139583333D01*
X155072667Y-139750000D01*
X155106000Y-139883333D01*
X155139333Y-139950000D01*
X155172667Y-139983333D01*
X155239333Y-140016667D01*
X155306000Y-140016667D01*
X155372667Y-139983333D01*
X155406000Y-139950000D01*
X155439333Y-139883333D01*
X155472667Y-139750000D01*
X155472667Y-139583333D01*
X155439333Y-139450000D01*
X155406000Y-139383333D01*
X155372667Y-139350000D01*
X155306000Y-139316667D01*
X159200000Y-131380667D02*
X159433334Y-131047333D01*
X159600000Y-131380667D02*
X159600000Y-130680667D01*
X159333334Y-130680667D01*
X159266667Y-130714000D01*
X159233334Y-130747333D01*
X159200000Y-130814000D01*
X159200000Y-130914000D01*
X159233334Y-130980667D01*
X159266667Y-131014000D01*
X159333334Y-131047333D01*
X159600000Y-131047333D01*
X158966667Y-130680667D02*
X158533334Y-130680667D01*
X158766667Y-130947333D01*
X158666667Y-130947333D01*
X158600000Y-130980667D01*
X158566667Y-131014000D01*
X158533334Y-131080667D01*
X158533334Y-131247333D01*
X158566667Y-131314000D01*
X158600000Y-131347333D01*
X158666667Y-131380667D01*
X158866667Y-131380667D01*
X158933334Y-131347333D01*
X158966667Y-131314000D01*
X157866667Y-131380667D02*
X158266667Y-131380667D01*
X158066667Y-131380667D02*
X158066667Y-130680667D01*
X158133333Y-130780667D01*
X158200000Y-130847333D01*
X158266667Y-130880667D01*
X156406000Y-136460667D02*
X156639334Y-136127333D01*
X156806000Y-136460667D02*
X156806000Y-135760667D01*
X156539334Y-135760667D01*
X156472667Y-135794000D01*
X156439334Y-135827333D01*
X156406000Y-135894000D01*
X156406000Y-135994000D01*
X156439334Y-136060667D01*
X156472667Y-136094000D01*
X156539334Y-136127333D01*
X156806000Y-136127333D01*
X156172667Y-135760667D02*
X155739334Y-135760667D01*
X155972667Y-136027333D01*
X155872667Y-136027333D01*
X155806000Y-136060667D01*
X155772667Y-136094000D01*
X155739334Y-136160667D01*
X155739334Y-136327333D01*
X155772667Y-136394000D01*
X155806000Y-136427333D01*
X155872667Y-136460667D01*
X156072667Y-136460667D01*
X156139334Y-136427333D01*
X156172667Y-136394000D01*
X155472667Y-135827333D02*
X155439333Y-135794000D01*
X155372667Y-135760667D01*
X155206000Y-135760667D01*
X155139333Y-135794000D01*
X155106000Y-135827333D01*
X155072667Y-135894000D01*
X155072667Y-135960667D01*
X155106000Y-136060667D01*
X155506000Y-136460667D01*
X155072667Y-136460667D01*
X159200000Y-118934667D02*
X159433334Y-118601333D01*
X159600000Y-118934667D02*
X159600000Y-118234667D01*
X159333334Y-118234667D01*
X159266667Y-118268000D01*
X159233334Y-118301333D01*
X159200000Y-118368000D01*
X159200000Y-118468000D01*
X159233334Y-118534667D01*
X159266667Y-118568000D01*
X159333334Y-118601333D01*
X159600000Y-118601333D01*
X158966667Y-118234667D02*
X158533334Y-118234667D01*
X158766667Y-118501333D01*
X158666667Y-118501333D01*
X158600000Y-118534667D01*
X158566667Y-118568000D01*
X158533334Y-118634667D01*
X158533334Y-118801333D01*
X158566667Y-118868000D01*
X158600000Y-118901333D01*
X158666667Y-118934667D01*
X158866667Y-118934667D01*
X158933334Y-118901333D01*
X158966667Y-118868000D01*
X158300000Y-118234667D02*
X157866667Y-118234667D01*
X158100000Y-118501333D01*
X158000000Y-118501333D01*
X157933333Y-118534667D01*
X157900000Y-118568000D01*
X157866667Y-118634667D01*
X157866667Y-118801333D01*
X157900000Y-118868000D01*
X157933333Y-118901333D01*
X158000000Y-118934667D01*
X158200000Y-118934667D01*
X158266667Y-118901333D01*
X158300000Y-118868000D01*
X159200000Y-145350667D02*
X159433334Y-145017333D01*
X159600000Y-145350667D02*
X159600000Y-144650667D01*
X159333334Y-144650667D01*
X159266667Y-144684000D01*
X159233334Y-144717333D01*
X159200000Y-144784000D01*
X159200000Y-144884000D01*
X159233334Y-144950667D01*
X159266667Y-144984000D01*
X159333334Y-145017333D01*
X159600000Y-145017333D01*
X158966667Y-144650667D02*
X158533334Y-144650667D01*
X158766667Y-144917333D01*
X158666667Y-144917333D01*
X158600000Y-144950667D01*
X158566667Y-144984000D01*
X158533334Y-145050667D01*
X158533334Y-145217333D01*
X158566667Y-145284000D01*
X158600000Y-145317333D01*
X158666667Y-145350667D01*
X158866667Y-145350667D01*
X158933334Y-145317333D01*
X158966667Y-145284000D01*
X157900000Y-144650667D02*
X158233333Y-144650667D01*
X158266667Y-144984000D01*
X158233333Y-144950667D01*
X158166667Y-144917333D01*
X158000000Y-144917333D01*
X157933333Y-144950667D01*
X157900000Y-144984000D01*
X157866667Y-145050667D01*
X157866667Y-145217333D01*
X157900000Y-145284000D01*
X157933333Y-145317333D01*
X158000000Y-145350667D01*
X158166667Y-145350667D01*
X158233333Y-145317333D01*
X158266667Y-145284000D01*
X159200000Y-132904667D02*
X159433334Y-132571333D01*
X159600000Y-132904667D02*
X159600000Y-132204667D01*
X159333334Y-132204667D01*
X159266667Y-132238000D01*
X159233334Y-132271333D01*
X159200000Y-132338000D01*
X159200000Y-132438000D01*
X159233334Y-132504667D01*
X159266667Y-132538000D01*
X159333334Y-132571333D01*
X159600000Y-132571333D01*
X158966667Y-132204667D02*
X158533334Y-132204667D01*
X158766667Y-132471333D01*
X158666667Y-132471333D01*
X158600000Y-132504667D01*
X158566667Y-132538000D01*
X158533334Y-132604667D01*
X158533334Y-132771333D01*
X158566667Y-132838000D01*
X158600000Y-132871333D01*
X158666667Y-132904667D01*
X158866667Y-132904667D01*
X158933334Y-132871333D01*
X158966667Y-132838000D01*
X157933333Y-132204667D02*
X158066667Y-132204667D01*
X158133333Y-132238000D01*
X158166667Y-132271333D01*
X158233333Y-132371333D01*
X158266667Y-132504667D01*
X158266667Y-132771333D01*
X158233333Y-132838000D01*
X158200000Y-132871333D01*
X158133333Y-132904667D01*
X158000000Y-132904667D01*
X157933333Y-132871333D01*
X157900000Y-132838000D01*
X157866667Y-132771333D01*
X157866667Y-132604667D01*
X157900000Y-132538000D01*
X157933333Y-132504667D01*
X158000000Y-132471333D01*
X158133333Y-132471333D01*
X158200000Y-132504667D01*
X158233333Y-132538000D01*
X158266667Y-132604667D01*
X159200000Y-120458667D02*
X159433334Y-120125333D01*
X159600000Y-120458667D02*
X159600000Y-119758667D01*
X159333334Y-119758667D01*
X159266667Y-119792000D01*
X159233334Y-119825333D01*
X159200000Y-119892000D01*
X159200000Y-119992000D01*
X159233334Y-120058667D01*
X159266667Y-120092000D01*
X159333334Y-120125333D01*
X159600000Y-120125333D01*
X158966667Y-119758667D02*
X158533334Y-119758667D01*
X158766667Y-120025333D01*
X158666667Y-120025333D01*
X158600000Y-120058667D01*
X158566667Y-120092000D01*
X158533334Y-120158667D01*
X158533334Y-120325333D01*
X158566667Y-120392000D01*
X158600000Y-120425333D01*
X158666667Y-120458667D01*
X158866667Y-120458667D01*
X158933334Y-120425333D01*
X158966667Y-120392000D01*
X158300000Y-119758667D02*
X157833333Y-119758667D01*
X158133333Y-120458667D01*
X140270667Y-113850000D02*
X139937333Y-113616666D01*
X140270667Y-113450000D02*
X139570667Y-113450000D01*
X139570667Y-113716666D01*
X139604000Y-113783333D01*
X139637333Y-113816666D01*
X139704000Y-113850000D01*
X139804000Y-113850000D01*
X139870667Y-113816666D01*
X139904000Y-113783333D01*
X139937333Y-113716666D01*
X139937333Y-113450000D01*
X139570667Y-114083333D02*
X139570667Y-114516666D01*
X139837333Y-114283333D01*
X139837333Y-114383333D01*
X139870667Y-114450000D01*
X139904000Y-114483333D01*
X139970667Y-114516666D01*
X140137333Y-114516666D01*
X140204000Y-114483333D01*
X140237333Y-114450000D01*
X140270667Y-114383333D01*
X140270667Y-114183333D01*
X140237333Y-114116666D01*
X140204000Y-114083333D01*
X139870667Y-114916667D02*
X139837333Y-114850000D01*
X139804000Y-114816667D01*
X139737333Y-114783333D01*
X139704000Y-114783333D01*
X139637333Y-114816667D01*
X139604000Y-114850000D01*
X139570667Y-114916667D01*
X139570667Y-115050000D01*
X139604000Y-115116667D01*
X139637333Y-115150000D01*
X139704000Y-115183333D01*
X139737333Y-115183333D01*
X139804000Y-115150000D01*
X139837333Y-115116667D01*
X139870667Y-115050000D01*
X139870667Y-114916667D01*
X139904000Y-114850000D01*
X139937333Y-114816667D01*
X140004000Y-114783333D01*
X140137333Y-114783333D01*
X140204000Y-114816667D01*
X140237333Y-114850000D01*
X140270667Y-114916667D01*
X140270667Y-115050000D01*
X140237333Y-115116667D01*
X140204000Y-115150000D01*
X140137333Y-115183333D01*
X140004000Y-115183333D01*
X139937333Y-115150000D01*
X139904000Y-115116667D01*
X139870667Y-115050000D01*
X155644000Y-115124667D02*
X155877334Y-114791333D01*
X156044000Y-115124667D02*
X156044000Y-114424667D01*
X155777334Y-114424667D01*
X155710667Y-114458000D01*
X155677334Y-114491333D01*
X155644000Y-114558000D01*
X155644000Y-114658000D01*
X155677334Y-114724667D01*
X155710667Y-114758000D01*
X155777334Y-114791333D01*
X156044000Y-114791333D01*
X155410667Y-114424667D02*
X154977334Y-114424667D01*
X155210667Y-114691333D01*
X155110667Y-114691333D01*
X155044000Y-114724667D01*
X155010667Y-114758000D01*
X154977334Y-114824667D01*
X154977334Y-114991333D01*
X155010667Y-115058000D01*
X155044000Y-115091333D01*
X155110667Y-115124667D01*
X155310667Y-115124667D01*
X155377334Y-115091333D01*
X155410667Y-115058000D01*
X154644000Y-115124667D02*
X154510667Y-115124667D01*
X154444000Y-115091333D01*
X154410667Y-115058000D01*
X154344000Y-114958000D01*
X154310667Y-114824667D01*
X154310667Y-114558000D01*
X154344000Y-114491333D01*
X154377333Y-114458000D01*
X154444000Y-114424667D01*
X154577333Y-114424667D01*
X154644000Y-114458000D01*
X154677333Y-114491333D01*
X154710667Y-114558000D01*
X154710667Y-114724667D01*
X154677333Y-114791333D01*
X154644000Y-114824667D01*
X154577333Y-114858000D01*
X154444000Y-114858000D01*
X154377333Y-114824667D01*
X154344000Y-114791333D01*
X154310667Y-114724667D01*
X150938667Y-120708000D02*
X150605333Y-120474666D01*
X150938667Y-120308000D02*
X150238667Y-120308000D01*
X150238667Y-120574666D01*
X150272000Y-120641333D01*
X150305333Y-120674666D01*
X150372000Y-120708000D01*
X150472000Y-120708000D01*
X150538667Y-120674666D01*
X150572000Y-120641333D01*
X150605333Y-120574666D01*
X150605333Y-120308000D01*
X150472000Y-121308000D02*
X150938667Y-121308000D01*
X150205333Y-121141333D02*
X150705333Y-120974666D01*
X150705333Y-121408000D01*
X150238667Y-121808000D02*
X150238667Y-121874667D01*
X150272000Y-121941333D01*
X150305333Y-121974667D01*
X150372000Y-122008000D01*
X150505333Y-122041333D01*
X150672000Y-122041333D01*
X150805333Y-122008000D01*
X150872000Y-121974667D01*
X150905333Y-121941333D01*
X150938667Y-121874667D01*
X150938667Y-121808000D01*
X150905333Y-121741333D01*
X150872000Y-121708000D01*
X150805333Y-121674667D01*
X150672000Y-121641333D01*
X150505333Y-121641333D01*
X150372000Y-121674667D01*
X150305333Y-121708000D01*
X150272000Y-121741333D01*
X150238667Y-121808000D01*
X146874667Y-120708000D02*
X146541333Y-120474666D01*
X146874667Y-120308000D02*
X146174667Y-120308000D01*
X146174667Y-120574666D01*
X146208000Y-120641333D01*
X146241333Y-120674666D01*
X146308000Y-120708000D01*
X146408000Y-120708000D01*
X146474667Y-120674666D01*
X146508000Y-120641333D01*
X146541333Y-120574666D01*
X146541333Y-120308000D01*
X146408000Y-121308000D02*
X146874667Y-121308000D01*
X146141333Y-121141333D02*
X146641333Y-120974666D01*
X146641333Y-121408000D01*
X146874667Y-122041333D02*
X146874667Y-121641333D01*
X146874667Y-121841333D02*
X146174667Y-121841333D01*
X146274667Y-121774667D01*
X146341333Y-121708000D01*
X146374667Y-121641333D01*
M02*
