M48
;DRILL file {KiCad 4.0.4-stable} date Monday 19 December 2016 21:22:16
;FORMAT={-:-/ absolute / inch / decimal}
FMAT,2
INCH,TZ
T1C0.016
T2C0.028
T3C0.030
T4C0.040
T5C0.043
T6C0.126
%
G90
G05
M72
T1
X5.02Y-4.76
X5.02Y-4.8
X5.02Y-4.84
X5.03Y-4.95
X5.06Y-4.76
X5.06Y-4.8
X5.06Y-4.84
X5.1Y-4.76
X5.1Y-4.8
X5.1Y-4.84
X5.14Y-4.76
X5.14Y-4.8
X5.14Y-4.84
X5.18Y-4.76
X5.18Y-4.8
X5.18Y-4.84
X5.22Y-4.76
X5.22Y-4.8
X5.22Y-4.84
X5.25Y-4.98
X5.26Y-4.76
X5.26Y-4.8
X5.26Y-4.84
X5.29Y-4.98
X5.3Y-4.31
X5.3Y-4.34
X5.3Y-4.37
X5.32Y-4.86
X5.33Y-4.31
X5.33Y-4.34
X5.33Y-4.37
X5.33Y-4.55
X5.33Y-4.76
X5.33Y-4.98
X5.34Y-5.66
X5.36Y-4.86
X5.38Y-5.21
X5.38Y-5.3
X5.38Y-5.39
X5.4Y-4.31
X5.4Y-4.62
X5.4Y-4.65
X5.4Y-4.68
X5.4Y-4.83
X5.4006Y-4.3406
X5.4006Y-4.37
X5.42Y-5.14
X5.43Y-4.31
X5.43Y-4.34
X5.43Y-4.37
X5.43Y-4.62
X5.43Y-4.65
X5.43Y-4.68
X5.44Y-4.83
X5.45Y-5.54
X5.46Y-4.62
X5.46Y-4.65
X5.46Y-4.68
X5.48Y-4.83
X5.48Y-5.5
X5.48Y-5.66
X5.5Y-5.26
X5.5Y-5.34
X5.51Y-5.09
X5.51Y-5.54
X5.52Y-4.31
X5.52Y-4.34
X5.52Y-4.37
X5.52Y-4.83
X5.53Y-4.76
X5.53Y-5.17
X5.54Y-5.51
X5.55Y-4.31
X5.55Y-4.34
X5.55Y-4.37
X5.55Y-5.63
X5.56Y-4.45
X5.56Y-4.54
X5.56Y-4.83
X5.56Y-5.09
X5.57Y-5.49
X5.58Y-4.89
X5.58Y-4.93
X5.58Y-5.67
X5.6Y-4.8
X5.6Y-5.05
X5.6Y-5.42
X5.62Y-4.89
X5.62Y-4.93
X5.64Y-4.53
X5.64Y-4.57
X5.64Y-4.61
X5.64Y-4.8
X5.64Y-4.99
X5.66Y-4.89
X5.66Y-4.93
X5.66Y-5.18
X5.66Y-5.22
X5.66Y-5.26
X5.66Y-5.4
X5.67Y-4.99
X5.67Y-5.1
X5.68Y-4.53
X5.68Y-4.57
X5.68Y-4.61
X5.68Y-4.8
X5.69Y-5.18
X5.69Y-5.41
X5.7Y-4.89
X5.7Y-4.93
X5.72Y-4.53
X5.72Y-4.57
X5.72Y-4.61
X5.72Y-5.32
X5.75Y-5.35
X5.76Y-4.53
X5.76Y-4.57
X5.76Y-4.61
X5.76Y-5.19
X5.77Y-5.51
X5.79Y-5.55
X5.795Y-5.175
X5.8Y-4.53
X5.8Y-4.57
X5.8Y-4.61
X5.81Y-4.72
X5.81Y-5.37
X5.81Y-5.66
X5.82Y-4.86
X5.84Y-4.53
X5.84Y-4.57
X5.84Y-4.61
X5.84Y-5.3
X5.84Y-5.34
X5.84Y-5.4
X5.84Y-5.6
X5.85Y-4.79
X5.85Y-5.12
X5.87Y-5.66
X5.88Y-4.53
X5.88Y-4.57
X5.88Y-4.61
X5.88Y-4.72
X5.88Y-4.86
X5.9Y-5.52
X5.91Y-5.7
X5.93Y-5.3
X5.93Y-5.33
X5.94Y-4.86
X5.94Y-5.13
X5.95Y-4.28
X5.95Y-4.31
X5.95Y-4.34
X5.95Y-5.54
X5.95Y-5.74
X5.96Y-4.54
X5.96Y-4.73
X5.98Y-4.28
X5.98Y-4.31
X5.98Y-4.34
X5.98Y-5.13
X5.99Y-5.78
X6.Y-4.86
X6.03Y-4.62
X6.03Y-4.65
X6.03Y-4.68
X6.03Y-5.82
X6.04Y-5.06
X6.04Y-5.21
X6.05Y-4.31
X6.05Y-4.37
X6.0509Y-4.34
X6.06Y-4.62
X6.06Y-4.65
X6.06Y-4.68
X6.06Y-4.86
X6.08Y-4.31
X6.08Y-4.34
X6.08Y-4.37
X6.09Y-4.62
X6.09Y-4.65
X6.09Y-4.68
X6.09Y-5.31
X6.09Y-5.41
X6.09Y-5.51
X6.11Y-5.74
X6.12Y-4.98
X6.12Y-5.01
X6.12Y-5.04
X6.12Y-5.07
X6.12Y-5.13
X6.12Y-5.59
X6.13Y-5.24
X6.15Y-4.57
X6.15Y-4.96
X6.15Y-5.41
X6.15Y-5.78
X6.17Y-4.31
X6.17Y-4.34
X6.17Y-4.37
X6.2Y-4.31
X6.2Y-4.34
X6.2Y-4.37
X6.21Y-4.72
X6.24Y-4.57
X6.27Y-4.6
X6.27Y-5.1
X6.3Y-4.53
X6.3Y-5.01
X6.3Y-5.5
X6.31Y-4.82
X6.31Y-4.87
X6.31Y-4.9
X6.31Y-5.21
X6.31Y-5.36
X6.32Y-5.81
X6.33Y-4.5
X6.34Y-4.97
X6.34Y-5.46
X6.35Y-4.63
X6.35Y-5.12
X6.35Y-5.61
X6.47Y-4.8
X6.47Y-4.83
X6.47Y-4.87
X6.47Y-5.29
X6.47Y-5.32
X6.47Y-5.36
X6.47Y-5.78
X6.47Y-5.81
X6.47Y-5.85
X6.5Y-4.8
X6.5Y-4.83
X6.5Y-4.87
X6.5Y-5.29
X6.5Y-5.32
X6.5Y-5.36
X6.5Y-5.78
X6.5Y-5.81
X6.5Y-5.85
X6.53Y-4.74
X6.53Y-4.78
X6.53Y-4.87
X6.53Y-4.91
X6.53Y-5.23
X6.53Y-5.27
X6.53Y-5.36
X6.53Y-5.4
X6.53Y-5.72
X6.53Y-5.76
X6.53Y-5.85
X6.53Y-5.89
X6.56Y-4.74
X6.56Y-4.78
X6.56Y-4.94
X6.56Y-5.23
X6.56Y-5.27
X6.56Y-5.7206
X6.56Y-5.76
X6.59Y-4.74
X6.59Y-4.78
X6.59Y-5.23
X6.59Y-5.27
X6.59Y-5.72
X6.59Y-5.76
X6.6Y-4.97
X6.62Y-4.74
X6.62Y-4.78
X6.62Y-5.23
X6.62Y-5.27
X6.62Y-5.72
X6.62Y-5.76
X6.65Y-4.74
X6.65Y-4.78
X6.65Y-5.23
X6.65Y-5.27
X6.65Y-5.72
X6.65Y-5.76
X6.67Y-4.62
X6.67Y-5.02
X6.67Y-5.05
X6.67Y-5.11
X6.67Y-5.51
X6.67Y-5.54
X6.67Y-5.6
X6.68Y-4.74
X6.68Y-4.78
X6.68Y-5.23
X6.68Y-5.27
X6.68Y-5.72
X6.68Y-5.76
X6.69Y-4.54
X6.69Y-4.58
X6.76Y-4.52
X6.76Y-4.56
X6.76Y-4.6
X6.76Y-4.64
X6.76Y-4.68
X6.76Y-4.72
X6.76Y-4.76
X6.76Y-4.8
X6.76Y-4.84
X6.76Y-4.88
X6.76Y-5.01
X6.76Y-5.05
X6.76Y-5.09
X6.76Y-5.13
X6.76Y-5.17
X6.76Y-5.21
X6.76Y-5.25
X6.76Y-5.29
X6.76Y-5.33
X6.76Y-5.37
X6.76Y-5.5
X6.76Y-5.54
X6.76Y-5.58
X6.76Y-5.62
X6.76Y-5.66
X6.76Y-5.7
X6.76Y-5.74
X6.76Y-5.78
X6.76Y-5.82
X6.76Y-5.86
X6.8Y-4.52
X6.8Y-4.56
X6.8Y-4.6
X6.8Y-4.64
X6.8Y-4.68
X6.8Y-4.72
X6.8Y-4.76
X6.8Y-4.8
X6.8Y-4.84
X6.8Y-4.88
X6.8Y-5.01
X6.8Y-5.05
X6.8Y-5.09
X6.8Y-5.13
X6.8Y-5.17
X6.8Y-5.21
X6.8Y-5.25
X6.8Y-5.29
X6.8Y-5.33
X6.8Y-5.37
X6.8Y-5.5
X6.8Y-5.54
X6.8Y-5.58
X6.8Y-5.62
X6.8Y-5.66
X6.8Y-5.7
X6.8Y-5.74
X6.8Y-5.78
X6.8Y-5.82
X6.8Y-5.86
X6.84Y-4.52
X6.84Y-4.56
X6.84Y-4.6
X6.84Y-4.64
X6.84Y-4.68
X6.84Y-4.72
X6.84Y-4.76
X6.84Y-4.8
X6.84Y-4.84
X6.84Y-4.88
X6.84Y-5.01
X6.84Y-5.05
X6.84Y-5.09
X6.84Y-5.13
X6.84Y-5.17
X6.84Y-5.21
X6.84Y-5.25
X6.84Y-5.29
X6.84Y-5.33
X6.84Y-5.37
X6.84Y-5.5
X6.84Y-5.54
X6.84Y-5.58
X6.84Y-5.62
X6.84Y-5.66
X6.84Y-5.7
X6.84Y-5.74
X6.84Y-5.78
X6.84Y-5.82
X6.84Y-5.86
X6.88Y-4.52
X6.88Y-4.56
X6.88Y-4.6
X6.88Y-4.64
X6.88Y-4.68
X6.88Y-4.72
X6.88Y-4.76
X6.88Y-4.8
X6.88Y-4.84
X6.88Y-4.88
X6.88Y-5.01
X6.88Y-5.05
X6.88Y-5.09
X6.88Y-5.13
X6.88Y-5.17
X6.88Y-5.21
X6.88Y-5.25
X6.88Y-5.29
X6.88Y-5.33
X6.88Y-5.37
X6.88Y-5.5
X6.88Y-5.54
X6.88Y-5.58
X6.88Y-5.62
X6.88Y-5.66
X6.88Y-5.7
X6.88Y-5.74
X6.88Y-5.78
X6.88Y-5.82
X6.88Y-5.86
X6.92Y-4.52
X6.92Y-4.56
X6.92Y-4.6
X6.92Y-4.64
X6.92Y-4.68
X6.92Y-4.72
X6.92Y-4.76
X6.92Y-4.8
X6.92Y-4.84
X6.92Y-4.88
X6.92Y-5.01
X6.92Y-5.05
X6.92Y-5.09
X6.92Y-5.13
X6.92Y-5.17
X6.92Y-5.21
X6.92Y-5.25
X6.92Y-5.29
X6.92Y-5.33
X6.92Y-5.37
X6.92Y-5.5
X6.92Y-5.54
X6.92Y-5.58
X6.92Y-5.62
X6.92Y-5.66
X6.92Y-5.7
X6.92Y-5.74
X6.92Y-5.78
X6.92Y-5.82
X6.92Y-5.86
X6.96Y-4.52
X6.96Y-4.56
X6.96Y-4.6
X6.96Y-4.64
X6.96Y-4.68
X6.96Y-4.72
X6.96Y-4.76
X6.96Y-4.8
X6.96Y-4.84
X6.96Y-4.88
X6.96Y-5.01
X6.96Y-5.05
X6.96Y-5.09
X6.96Y-5.13
X6.96Y-5.17
X6.96Y-5.21
X6.96Y-5.25
X6.96Y-5.29
X6.96Y-5.33
X6.96Y-5.37
X6.96Y-5.5
X6.96Y-5.54
X6.96Y-5.58
X6.96Y-5.62
X6.96Y-5.66
X6.96Y-5.7
X6.96Y-5.74
X6.96Y-5.78
X6.96Y-5.82
X6.96Y-5.86
X7.Y-4.52
X7.Y-4.56
X7.Y-4.6
X7.Y-4.64
X7.Y-4.68
X7.Y-4.72
X7.Y-4.76
X7.Y-4.8
X7.Y-4.84
X7.Y-4.88
X7.Y-5.01
X7.Y-5.05
X7.Y-5.09
X7.Y-5.13
X7.Y-5.17
X7.Y-5.21
X7.Y-5.25
X7.Y-5.29
X7.Y-5.33
X7.Y-5.37
X7.Y-5.5
X7.Y-5.54
X7.Y-5.58
X7.Y-5.62
X7.Y-5.66
X7.Y-5.7
X7.Y-5.74
X7.Y-5.78
X7.Y-5.82
X7.Y-5.86
X7.04Y-4.52
X7.04Y-4.56
X7.04Y-4.6
X7.04Y-4.64
X7.04Y-4.68
X7.04Y-4.72
X7.04Y-4.76
X7.04Y-4.8
X7.04Y-4.84
X7.04Y-4.88
X7.04Y-5.01
X7.04Y-5.05
X7.04Y-5.09
X7.04Y-5.13
X7.04Y-5.17
X7.04Y-5.21
X7.04Y-5.25
X7.04Y-5.29
X7.04Y-5.33
X7.04Y-5.37
X7.04Y-5.5
X7.04Y-5.54
X7.04Y-5.58
X7.04Y-5.62
X7.04Y-5.66
X7.04Y-5.7
X7.04Y-5.74
X7.04Y-5.78
X7.04Y-5.82
X7.04Y-5.86
X7.08Y-4.56
X7.08Y-4.6
X7.08Y-4.64
X7.08Y-4.68
X7.08Y-4.72
X7.08Y-4.76
X7.08Y-4.8
X7.08Y-5.05
X7.08Y-5.09
X7.08Y-5.13
X7.08Y-5.17
X7.08Y-5.21
X7.08Y-5.25
X7.08Y-5.29
X7.08Y-5.54
X7.08Y-5.58
X7.08Y-5.62
X7.08Y-5.66
X7.08Y-5.7
X7.08Y-5.74
X7.08Y-5.78
X7.08Y-5.82
X7.12Y-4.6
X7.12Y-4.64
X7.12Y-4.68
X7.12Y-4.72
X7.12Y-4.76
X7.12Y-4.8
X7.12Y-5.09
X7.12Y-5.13
X7.12Y-5.17
X7.12Y-5.21
X7.12Y-5.25
X7.12Y-5.29
X7.12Y-5.58
X7.12Y-5.62
X7.12Y-5.66
X7.12Y-5.7
X7.12Y-5.74
X7.12Y-5.78
X7.15Y-4.89
X7.15Y-5.38
X7.15Y-5.87
X7.19Y-4.89
X7.19Y-5.38
X7.19Y-5.87
X7.23Y-4.89
X7.23Y-5.38
X7.23Y-5.87
X7.29Y-4.57
X7.29Y-4.85
X7.29Y-4.88
X7.29Y-4.91
X7.29Y-5.06
X7.29Y-5.34
X7.29Y-5.37
X7.29Y-5.4
X7.29Y-5.55
X7.29Y-5.83
X7.29Y-5.86
X7.29Y-5.89
X7.31Y-4.49
X7.31Y-4.98
X7.31Y-5.47
X7.32Y-4.85
X7.32Y-4.88
X7.32Y-4.91
X7.32Y-5.34
X7.32Y-5.37
X7.32Y-5.4
X7.32Y-5.83
X7.32Y-5.86
X7.32Y-5.89
X7.38Y-4.85
X7.38Y-4.89
X7.38Y-5.34
X7.38Y-5.38
X7.38Y-5.83
X7.38Y-5.87
X7.38Y-5.91
X7.42Y-4.85
X7.42Y-4.88
X7.42Y-4.91
X7.42Y-5.34
X7.42Y-5.37
X7.42Y-5.4
X7.42Y-5.83
X7.42Y-5.86
X7.42Y-5.89
X7.45Y-4.85
X7.45Y-4.88
X7.45Y-4.91
X7.45Y-5.34
X7.45Y-5.37
X7.45Y-5.4
X7.45Y-5.83
X7.45Y-5.86
X7.45Y-5.89
X7.49Y-4.85
X7.49Y-4.89
X7.49Y-5.34
X7.49Y-5.38
X7.49Y-5.83
X7.49Y-5.87
X7.49Y-5.91
X7.53Y-4.85
X7.53Y-4.89
X7.53Y-5.34
X7.53Y-5.38
X7.53Y-5.83
X7.53Y-5.87
X7.53Y-5.91
X7.57Y-4.85
X7.57Y-4.89
X7.57Y-4.93
X7.57Y-4.97
X7.57Y-5.01
X7.57Y-5.05
X7.57Y-5.34
X7.57Y-5.38
X7.57Y-5.42
X7.57Y-5.46
X7.57Y-5.5
X7.57Y-5.54
X7.57Y-5.83
X7.57Y-5.87
X7.57Y-5.91
X7.61Y-4.85
X7.61Y-4.89
X7.61Y-4.93
X7.61Y-4.97
X7.61Y-5.01
X7.61Y-5.05
X7.61Y-5.34
X7.61Y-5.38
X7.61Y-5.42
X7.61Y-5.46
X7.61Y-5.5
X7.61Y-5.54
X7.61Y-5.83
X7.61Y-5.87
X7.61Y-5.91
X7.65Y-4.85
X7.65Y-4.89
X7.65Y-4.93
X7.65Y-4.97
X7.65Y-5.01
X7.65Y-5.34
X7.65Y-5.38
X7.65Y-5.42
X7.65Y-5.46
X7.65Y-5.5
X7.65Y-5.83
X7.65Y-5.87
X7.65Y-5.91
T2
X5.06Y-5.3024
X5.06Y-5.3614
X5.06Y-5.4205
X5.06Y-5.4795
X5.06Y-5.5386
X5.06Y-5.5976
T3
X6.42Y-4.27
X6.42Y-4.34
X6.42Y-4.41
X6.49Y-4.27
X6.49Y-4.34
X6.49Y-4.41
X6.56Y-4.27
X6.56Y-4.34
X6.56Y-4.41
X6.94Y-4.35
X6.94Y-4.41
X7.01Y-4.27
X7.01Y-4.34
X7.01Y-4.41
X7.08Y-4.27
X7.08Y-4.34
X7.08Y-4.41
X7.15Y-4.27
X7.15Y-4.34
X7.15Y-4.41
X7.22Y-4.27
X7.22Y-4.34
X7.22Y-4.41
X7.29Y-4.27
X7.29Y-4.34
X7.29Y-4.41
X7.36Y-4.27
X7.36Y-4.34
X7.36Y-4.41
X7.43Y-4.27
X7.43Y-4.34
X7.43Y-4.41
X7.5Y-4.27
X7.5Y-4.34
X7.5Y-4.41
X7.57Y-4.27
X7.57Y-4.34
X7.57Y-4.41
X7.57Y-4.48
X7.64Y-4.27
X7.64Y-4.34
X7.64Y-4.41
X7.64Y-4.48
X7.76Y-4.64
X7.76Y-4.7
X7.76Y-4.76
X7.76Y-5.08
X7.76Y-5.14
X7.76Y-5.2
X7.76Y-5.52
X7.76Y-5.58
X7.76Y-5.64
X7.82Y-4.64
X7.82Y-4.7
X7.82Y-4.76
X7.82Y-5.08
X7.82Y-5.14
X7.82Y-5.2
X7.82Y-5.52
X7.82Y-5.58
X7.82Y-5.64
X7.88Y-4.64
X7.88Y-4.7
X7.88Y-4.76
X7.88Y-5.08
X7.88Y-5.14
X7.88Y-5.2
X7.88Y-5.52
X7.88Y-5.58
X7.88Y-5.64
T4
X5.24Y-5.4
X5.24Y-5.5
X5.24Y-5.6
X5.32Y-5.78
X5.32Y-5.88
X5.42Y-5.78
X5.42Y-5.88
X5.52Y-5.78
X5.52Y-5.88
X5.62Y-5.78
X5.62Y-5.88
X5.72Y-5.78
X5.72Y-5.88
X5.87Y-5.88
X5.97Y-5.88
X6.07Y-5.88
X6.17Y-5.88
X6.27Y-5.88
T5
X6.64Y-4.29
X6.9353Y-4.29
T6
X5.09Y-4.36
X5.09Y-5.83
X7.83Y-4.36
X7.83Y-5.83
T0
M30
