G04 #@! TF.FileFunction,Copper,L2,Inr,Signal*
%FSLAX46Y46*%
G04 Gerber Fmt 4.6, Leading zero omitted, Abs format (unit mm)*
G04 Created by KiCad (PCBNEW 4.0.4-stable) date Monday 19 December 2016 21:20:12*
%MOMM*%
%LPD*%
G01*
G04 APERTURE LIST*
%ADD10C,0.100000*%
%ADD11R,1.700000X1.700000*%
%ADD12C,1.700000*%
%ADD13R,2.032000X1.727200*%
%ADD14O,2.032000X1.727200*%
%ADD15R,1.727200X1.727200*%
%ADD16O,1.727200X1.727200*%
%ADD17R,1.727200X2.032000*%
%ADD18O,1.727200X2.032000*%
%ADD19C,1.200000*%
%ADD20C,0.600000*%
%ADD21C,1.524000*%
%ADD22C,1.000000*%
%ADD23C,0.600000*%
%ADD24C,0.250000*%
%ADD25C,1.500000*%
%ADD26C,0.127000*%
G04 APERTURE END LIST*
D10*
D11*
X176156000Y-108966000D03*
D12*
X168656000Y-108966000D03*
D13*
X133096000Y-142240000D03*
D14*
X133096000Y-139700000D03*
X133096000Y-137160000D03*
D15*
X135128000Y-149352000D03*
D16*
X135128000Y-146812000D03*
X137668000Y-149352000D03*
X137668000Y-146812000D03*
X140208000Y-149352000D03*
X140208000Y-146812000D03*
X142748000Y-149352000D03*
X142748000Y-146812000D03*
X145288000Y-149352000D03*
X145288000Y-146812000D03*
D17*
X149098000Y-149352000D03*
D18*
X151638000Y-149352000D03*
X154178000Y-149352000D03*
X156718000Y-149352000D03*
X159258000Y-149352000D03*
D19*
X128524000Y-137680000D03*
X128524000Y-139180000D03*
X128524000Y-140680000D03*
X128524000Y-142180000D03*
X128524000Y-136180000D03*
X128524000Y-134680000D03*
D20*
X147574000Y-136398000D03*
X156210000Y-125984000D03*
X153924000Y-123444000D03*
X152400000Y-123444000D03*
X150876000Y-123444000D03*
X149352000Y-123444000D03*
X147828000Y-123444000D03*
X135636000Y-143764000D03*
X139192000Y-143764000D03*
X155194000Y-145796000D03*
X156210000Y-146812000D03*
X153162000Y-147828000D03*
X152146000Y-146812000D03*
X151130000Y-145796000D03*
X150114000Y-144780000D03*
X149098000Y-143764000D03*
X147574000Y-143764000D03*
X150876000Y-130302000D03*
X151892000Y-130302000D03*
X139700000Y-135636000D03*
X139700000Y-133604000D03*
X139192000Y-139700000D03*
X147066000Y-140970000D03*
X140462000Y-131318000D03*
X147193000Y-131445000D03*
X144018000Y-126746000D03*
X143256000Y-126746000D03*
X148336000Y-134620000D03*
X151130000Y-140716000D03*
X154686000Y-134874000D03*
X154686000Y-137414000D03*
X154686000Y-139954000D03*
X160020000Y-115062000D03*
X160020000Y-139700000D03*
X160020000Y-127254000D03*
X160528000Y-147574000D03*
X160274000Y-123698000D03*
X160274000Y-136144000D03*
X139192000Y-122682000D03*
X140208000Y-122682000D03*
X141224000Y-122682000D03*
X142240000Y-121920000D03*
X143256000Y-121920000D03*
X144272000Y-121920000D03*
X135128000Y-123444000D03*
X136144000Y-123444000D03*
X137160000Y-122682000D03*
X138176000Y-122682000D03*
X127762000Y-125730000D03*
X137922000Y-118110000D03*
X137922000Y-117348000D03*
X138684000Y-117348000D03*
X138684000Y-118110000D03*
X138684000Y-118872000D03*
X137922000Y-118872000D03*
X137160000Y-118872000D03*
X137160000Y-118110000D03*
X137160000Y-117348000D03*
X135382000Y-110998000D03*
X135382000Y-110236000D03*
X135382000Y-109474000D03*
X134620000Y-109474000D03*
X134620000Y-110236000D03*
X134620000Y-110998000D03*
X140208000Y-110236000D03*
X140970000Y-110236000D03*
X140970000Y-109474000D03*
X140208000Y-109474000D03*
X140208000Y-110998000D03*
X140970000Y-110998000D03*
X149352000Y-119888000D03*
X157480000Y-110236000D03*
X157480000Y-109474000D03*
X156718000Y-109474000D03*
X156718000Y-110236000D03*
X156718000Y-110998000D03*
X157480000Y-110998000D03*
X153924000Y-118110000D03*
X153924000Y-117348000D03*
X154686000Y-117348000D03*
X154686000Y-118110000D03*
X154686000Y-118872000D03*
X153924000Y-118872000D03*
X153162000Y-118872000D03*
X153162000Y-118110000D03*
X153162000Y-117348000D03*
X151892000Y-110236000D03*
X151130000Y-110236000D03*
X151130000Y-109474000D03*
X151892000Y-109474000D03*
X151892000Y-108712000D03*
X151130000Y-108712000D03*
D21*
X164846000Y-110236000D03*
X166624000Y-110236000D03*
X166624000Y-112014000D03*
X164846000Y-112014000D03*
X163068000Y-112014000D03*
X163068000Y-110236000D03*
X163068000Y-108458000D03*
X164846000Y-108458000D03*
X166624000Y-108458000D03*
D20*
X165862000Y-145288000D03*
X165862000Y-146304000D03*
X165862000Y-132842000D03*
X165862000Y-133858000D03*
X165862000Y-120396000D03*
X165862000Y-121412000D03*
X168910000Y-120396000D03*
X168910000Y-121412000D03*
X169672000Y-121412000D03*
X169672000Y-120396000D03*
X168910000Y-145288000D03*
X168910000Y-146304000D03*
X169672000Y-146304000D03*
X169672000Y-145288000D03*
X168910000Y-132842000D03*
X168910000Y-133858000D03*
X169672000Y-133858000D03*
X169672000Y-132842000D03*
X165862000Y-149606000D03*
X165862000Y-137160000D03*
X165862000Y-124714000D03*
X185166000Y-123952000D03*
X185166000Y-123190000D03*
X185928000Y-123190000D03*
X185928000Y-123952000D03*
X185928000Y-124714000D03*
X185166000Y-124714000D03*
X185166000Y-136398000D03*
X185166000Y-135636000D03*
X185928000Y-135636000D03*
X185928000Y-136398000D03*
X185928000Y-137160000D03*
X185166000Y-137160000D03*
X167386000Y-121412000D03*
X166624000Y-121412000D03*
X166624000Y-120396000D03*
X167386000Y-120396000D03*
X168148000Y-120396000D03*
X168148000Y-121412000D03*
X166624000Y-133858000D03*
X167386000Y-133858000D03*
X168148000Y-133858000D03*
X168148000Y-132842000D03*
X167386000Y-132842000D03*
X166624000Y-132842000D03*
X185928000Y-148844000D03*
X185928000Y-148082000D03*
X185166000Y-148082000D03*
X185166000Y-148844000D03*
X185166000Y-149606000D03*
X185928000Y-149606000D03*
X167386000Y-145288000D03*
X168148000Y-145288000D03*
X168148000Y-146304000D03*
X167386000Y-146304000D03*
X166624000Y-145304000D03*
X166624000Y-146304000D03*
X139954000Y-140716000D03*
X140716000Y-139954000D03*
X141478000Y-139446000D03*
X143764000Y-131572000D03*
X141224000Y-113030000D03*
X137176000Y-110252000D03*
X137922000Y-110236000D03*
X137922000Y-109474000D03*
X137160000Y-109474000D03*
X137176000Y-110998000D03*
X137922000Y-110998000D03*
X153694000Y-110236000D03*
X153670000Y-110998000D03*
X154432000Y-110998000D03*
X154432000Y-110236000D03*
X154432000Y-109474000D03*
X153670000Y-109474000D03*
D21*
X176276000Y-112014000D03*
X176276000Y-110490000D03*
X183388000Y-108458000D03*
X181610000Y-108458000D03*
X179832000Y-108458000D03*
X178054000Y-108458000D03*
X178054000Y-110236000D03*
X179832000Y-110236000D03*
X181610000Y-110236000D03*
X183388000Y-110236000D03*
X183388000Y-112014000D03*
X181610000Y-112014000D03*
X179832000Y-112014000D03*
X178054000Y-112014000D03*
X194056000Y-112014000D03*
X194056000Y-110236000D03*
X192278000Y-110236000D03*
X190500000Y-110236000D03*
X190500000Y-112014000D03*
X188722000Y-112014000D03*
X188722000Y-110236000D03*
X186944000Y-110236000D03*
X186944000Y-112014000D03*
X194056000Y-113792000D03*
X185166000Y-112014000D03*
X185166000Y-108458000D03*
X186944000Y-108458000D03*
X188722000Y-108458000D03*
X190500000Y-108458000D03*
X192278000Y-108458000D03*
X194056000Y-108458000D03*
X185166000Y-110236000D03*
X192278000Y-113792000D03*
X192278000Y-112014000D03*
D20*
X187452000Y-123190000D03*
X187452000Y-124206000D03*
X187452000Y-135636000D03*
X187452000Y-136652000D03*
X187452000Y-148082000D03*
X187452000Y-149098000D03*
X187452000Y-150114000D03*
X190246000Y-150114000D03*
X191262000Y-150114000D03*
X192278000Y-150114000D03*
X193294000Y-150114000D03*
X194310000Y-150114000D03*
X190246000Y-124206000D03*
X191262000Y-124206000D03*
X190246000Y-123190000D03*
X191262000Y-123190000D03*
X192278000Y-123190000D03*
X193294000Y-123190000D03*
X194310000Y-123190000D03*
X194310000Y-124206000D03*
X194310000Y-125222000D03*
X194310000Y-126238000D03*
X194310000Y-127254000D03*
X193294000Y-128270000D03*
X193294000Y-127254000D03*
X193294000Y-126238000D03*
X193294000Y-125222000D03*
X193294000Y-124206000D03*
X192278000Y-124206000D03*
X192278000Y-125222000D03*
X192278000Y-126238000D03*
X192278000Y-127254000D03*
X192278000Y-128270000D03*
X192278000Y-139700000D03*
X192278000Y-140716000D03*
X193294000Y-140716000D03*
X194310000Y-139700000D03*
X193294000Y-139700000D03*
X192278000Y-137668000D03*
X192278000Y-138684000D03*
X193294000Y-138684000D03*
X194310000Y-138684000D03*
X194310000Y-137668000D03*
X193294000Y-137668000D03*
X190246000Y-135636000D03*
X191262000Y-135636000D03*
X192278000Y-135636000D03*
X193294000Y-135636000D03*
X194310000Y-135636000D03*
X194310000Y-136652000D03*
X193294000Y-136652000D03*
X192278000Y-136652000D03*
X191262000Y-136652000D03*
X190246000Y-136652000D03*
X190246000Y-148082000D03*
X191262000Y-148082000D03*
X192278000Y-148082000D03*
X193294000Y-148082000D03*
X194310000Y-148082000D03*
X194310000Y-149098000D03*
X193294000Y-149098000D03*
X192278000Y-149098000D03*
X191262000Y-149098000D03*
X190246000Y-149098000D03*
X188468000Y-123952000D03*
X188468000Y-124714000D03*
X189230000Y-124714000D03*
X189230000Y-123952000D03*
X189230000Y-123190000D03*
X188468000Y-123190000D03*
X188468000Y-136398000D03*
X188468000Y-135636000D03*
X189230000Y-135636000D03*
X189230000Y-136398000D03*
X189230000Y-137160000D03*
X188468000Y-137160000D03*
X188468000Y-148844000D03*
X188468000Y-148082000D03*
X189230000Y-148082000D03*
X189230000Y-148844000D03*
X189230000Y-149606000D03*
X188468000Y-149606000D03*
X141224000Y-129286000D03*
X139954000Y-129286000D03*
X136652000Y-132334000D03*
X136652000Y-134620000D03*
X136652000Y-136906000D03*
X138430000Y-140716000D03*
X148336000Y-142240000D03*
X149860000Y-140208000D03*
X146304000Y-131826000D03*
X158496000Y-116078000D03*
X161036000Y-138684000D03*
X160782000Y-114300000D03*
X144780000Y-125222000D03*
X144780000Y-124206000D03*
X141732000Y-124206000D03*
X142748000Y-124206000D03*
X143764000Y-124206000D03*
X143764000Y-125222000D03*
X142748000Y-125222000D03*
X141732000Y-125222000D03*
X166624000Y-125476000D03*
X161036000Y-126238000D03*
X155448000Y-127254000D03*
X155448000Y-126492000D03*
X155448000Y-128016000D03*
X147574000Y-119888000D03*
X146304000Y-116078000D03*
X146304000Y-115062000D03*
X146304000Y-117094000D03*
X147320000Y-117094000D03*
X147320000Y-116078000D03*
X147320000Y-115062000D03*
X148336000Y-115062000D03*
X148336000Y-116078000D03*
X148336000Y-117094000D03*
X149352000Y-117094000D03*
X149352000Y-116078000D03*
X149352000Y-115062000D03*
X145288000Y-115062000D03*
X144272000Y-115062000D03*
X143256000Y-115062000D03*
X143256000Y-116078000D03*
X144272000Y-116078000D03*
X145288000Y-116078000D03*
X145288000Y-117094000D03*
X144272000Y-117094000D03*
X143256000Y-117094000D03*
X164338000Y-121920000D03*
X165100000Y-121920000D03*
X165100000Y-122682000D03*
X164338000Y-122682000D03*
X164338000Y-135128000D03*
X165100000Y-135128000D03*
X164338000Y-134366000D03*
X165100000Y-134366000D03*
X165100000Y-147574000D03*
X164338000Y-147574000D03*
X164338000Y-146812000D03*
X165100000Y-146812000D03*
X148336000Y-135636000D03*
X150622000Y-135382000D03*
X150622000Y-134620000D03*
X155702000Y-133096000D03*
X160274000Y-132334000D03*
X160274000Y-122428000D03*
X153416000Y-132334000D03*
X153416000Y-128524000D03*
X134366000Y-126492000D03*
X133350000Y-126492000D03*
X135382000Y-126492000D03*
X140462000Y-120904000D03*
X130556000Y-122936000D03*
X129540000Y-120904000D03*
X128524000Y-120904000D03*
X127508000Y-120904000D03*
X127508000Y-121920000D03*
X127508000Y-122936000D03*
X128524000Y-122936000D03*
X128524000Y-121920000D03*
X129540000Y-121920000D03*
X129540000Y-122936000D03*
X130556000Y-121920000D03*
X130556000Y-120904000D03*
X131572000Y-120904000D03*
X132588000Y-120904000D03*
X133604000Y-120904000D03*
X133604000Y-121920000D03*
X132588000Y-121920000D03*
X131572000Y-121920000D03*
X131572000Y-122936000D03*
X132588000Y-122936000D03*
X133604000Y-122936000D03*
X135382000Y-115570000D03*
X135382000Y-120904000D03*
X151384000Y-115316000D03*
X151384000Y-120142000D03*
X159258000Y-129540000D03*
X144018000Y-129540000D03*
X167640000Y-126238000D03*
X141732000Y-144018000D03*
X143764000Y-132588000D03*
X145288000Y-135128000D03*
X146050000Y-135890000D03*
X181610000Y-149098000D03*
X182626000Y-149098000D03*
X183642000Y-149098000D03*
X165862000Y-148590000D03*
X165100000Y-148590000D03*
X164338000Y-148590000D03*
X181610000Y-136652000D03*
X182626000Y-136652000D03*
X183642000Y-136652000D03*
X164338000Y-136144000D03*
X165100000Y-136144000D03*
X165862000Y-136144000D03*
X181610000Y-124206000D03*
X182626000Y-124206000D03*
X183642000Y-124206000D03*
X164338000Y-123698000D03*
X165100000Y-123698000D03*
X165862000Y-123698000D03*
X137668000Y-130556000D03*
X140970000Y-143002000D03*
D21*
X198628000Y-141732000D03*
X197104000Y-140208000D03*
X198628000Y-140208000D03*
X200152000Y-140208000D03*
X200152000Y-141732000D03*
X200152000Y-143256000D03*
X198628000Y-143256000D03*
X197104000Y-143256000D03*
X197104000Y-141732000D03*
D20*
X161290000Y-142494000D03*
X169418000Y-142240000D03*
X161290000Y-130048000D03*
X169418000Y-129794000D03*
D21*
X197104000Y-129032000D03*
X200152000Y-129032000D03*
X200152000Y-132080000D03*
X200152000Y-130556000D03*
X198628000Y-130556000D03*
X197104000Y-130556000D03*
X197104000Y-132080000D03*
X198628000Y-132080000D03*
X198628000Y-129032000D03*
D20*
X161290000Y-117602000D03*
X169418000Y-117348000D03*
D21*
X197104000Y-120904000D03*
X197104000Y-117856000D03*
X200152000Y-117856000D03*
X200152000Y-120904000D03*
X198628000Y-120904000D03*
X198628000Y-117856000D03*
X200152000Y-119380000D03*
X198628000Y-119380000D03*
X197104000Y-119380000D03*
D20*
X155448000Y-141986000D03*
X155448000Y-130302000D03*
X157734000Y-119888000D03*
X141224000Y-115316000D03*
X148590000Y-130048000D03*
X156210000Y-116078000D03*
X148590000Y-121666000D03*
X144526000Y-131572000D03*
X144526000Y-137414000D03*
X143764000Y-133604000D03*
X143764000Y-137160000D03*
X142240000Y-137668000D03*
X142240000Y-128270000D03*
X148336000Y-137160000D03*
X179832000Y-147828000D03*
X173736000Y-139700000D03*
X172720000Y-139700000D03*
X171704000Y-139700000D03*
X174752000Y-139700000D03*
X175768000Y-139700000D03*
X176784000Y-139700000D03*
X177800000Y-139700000D03*
X178816000Y-139700000D03*
X179832000Y-140716000D03*
X179832000Y-141732000D03*
X179832000Y-142748000D03*
X179832000Y-143764000D03*
X179832000Y-144780000D03*
X179832000Y-145796000D03*
X179832000Y-146812000D03*
X180848000Y-146812000D03*
X180848000Y-145796000D03*
X180848000Y-144780000D03*
X180848000Y-143764000D03*
X180848000Y-142748000D03*
X180848000Y-141732000D03*
X178816000Y-140716000D03*
X178816000Y-141732000D03*
X178816000Y-142748000D03*
X178816000Y-143764000D03*
X178816000Y-144780000D03*
X178816000Y-145796000D03*
X178816000Y-146812000D03*
X178816000Y-147828000D03*
X178816000Y-148844000D03*
X177800000Y-148844000D03*
X177800000Y-147828000D03*
X177800000Y-146812000D03*
X177800000Y-145796000D03*
X177800000Y-144780000D03*
X177800000Y-143764000D03*
X177800000Y-142748000D03*
X177800000Y-141732000D03*
X177800000Y-140716000D03*
X176784000Y-140716000D03*
X176784000Y-141732000D03*
X176784000Y-142748000D03*
X176784000Y-143764000D03*
X176784000Y-144780000D03*
X176784000Y-145796000D03*
X176784000Y-146812000D03*
X176784000Y-147828000D03*
X176784000Y-148844000D03*
X175768000Y-148844000D03*
X175768000Y-147828000D03*
X175768000Y-146812000D03*
X175768000Y-145796000D03*
X175768000Y-144780000D03*
X175768000Y-143764000D03*
X175768000Y-142748000D03*
X175768000Y-141732000D03*
X175768000Y-140716000D03*
X174752000Y-146812000D03*
X174752000Y-147828000D03*
X174752000Y-148844000D03*
X174752000Y-145796000D03*
X174752000Y-144780000D03*
X174752000Y-143764000D03*
X174752000Y-142748000D03*
X174752000Y-141732000D03*
X174752000Y-140716000D03*
X171704000Y-148844000D03*
X171704000Y-147828000D03*
X171704000Y-146812000D03*
X171704000Y-145796000D03*
X171704000Y-144780000D03*
X171704000Y-143764000D03*
X171704000Y-142748000D03*
X171704000Y-141732000D03*
X171704000Y-140716000D03*
X172720000Y-140716000D03*
X172720000Y-141732000D03*
X172720000Y-142748000D03*
X172720000Y-143764000D03*
X172720000Y-144780000D03*
X172720000Y-145796000D03*
X172720000Y-146812000D03*
X172720000Y-147828000D03*
X172720000Y-148844000D03*
X173736000Y-148844000D03*
X173736000Y-147828000D03*
X173736000Y-146812000D03*
X173736000Y-145796000D03*
X173736000Y-144780000D03*
X173736000Y-143764000D03*
X173736000Y-142748000D03*
X173736000Y-141732000D03*
X173736000Y-140716000D03*
X171704000Y-127254000D03*
X172720000Y-127254000D03*
X173736000Y-127254000D03*
X174752000Y-127254000D03*
X175768000Y-127254000D03*
X176784000Y-127254000D03*
X177800000Y-127254000D03*
X178816000Y-127254000D03*
X179832000Y-128270000D03*
X179832000Y-129286000D03*
X179832000Y-130302000D03*
X179832000Y-131318000D03*
X179832000Y-132334000D03*
X179832000Y-133350000D03*
X179832000Y-134366000D03*
X180848000Y-134366000D03*
X180848000Y-133350000D03*
X180848000Y-132334000D03*
X175768000Y-136398000D03*
X175768000Y-135382000D03*
X175768000Y-134366000D03*
X175768000Y-133350000D03*
X175768000Y-132334000D03*
X175768000Y-131318000D03*
X175768000Y-130302000D03*
X175768000Y-129286000D03*
X175768000Y-128270000D03*
X176784000Y-128270000D03*
X176784000Y-129286000D03*
X176784000Y-130302000D03*
X176784000Y-131318000D03*
X176784000Y-132334000D03*
X176784000Y-133350000D03*
X176784000Y-134366000D03*
X176784000Y-135382000D03*
X176784000Y-136398000D03*
X177800000Y-136398000D03*
X177800000Y-135382000D03*
X177800000Y-134366000D03*
X177800000Y-133350000D03*
X177800000Y-132334000D03*
X177800000Y-131318000D03*
X177800000Y-130302000D03*
X177800000Y-129286000D03*
X177800000Y-128270000D03*
X178816000Y-128270000D03*
X178816000Y-129286000D03*
X178816000Y-130302000D03*
X178816000Y-131318000D03*
X178816000Y-132334000D03*
X178816000Y-133350000D03*
X178816000Y-134366000D03*
X178816000Y-135382000D03*
X178816000Y-136398000D03*
X171704000Y-136398000D03*
X171704000Y-135382000D03*
X171704000Y-134366000D03*
X171704000Y-133350000D03*
X171704000Y-132334000D03*
X171704000Y-131318000D03*
X171704000Y-130302000D03*
X171704000Y-129286000D03*
X171704000Y-128270000D03*
X172720000Y-128270000D03*
X172720000Y-129286000D03*
X172720000Y-130302000D03*
X172720000Y-131318000D03*
X172720000Y-132334000D03*
X172720000Y-133350000D03*
X172720000Y-134366000D03*
X172720000Y-135382000D03*
X172720000Y-136398000D03*
X173736000Y-136398000D03*
X173736000Y-135382000D03*
X173736000Y-134366000D03*
X173736000Y-133350000D03*
X173736000Y-132334000D03*
X173736000Y-131318000D03*
X173736000Y-130302000D03*
X173736000Y-129286000D03*
X173736000Y-128270000D03*
X174752000Y-128270000D03*
X174752000Y-129286000D03*
X174752000Y-130302000D03*
X174752000Y-131318000D03*
X174752000Y-132334000D03*
X174752000Y-133350000D03*
X174752000Y-134366000D03*
X174752000Y-135382000D03*
X174752000Y-136398000D03*
X180848000Y-131318000D03*
X180848000Y-130302000D03*
X180848000Y-129286000D03*
X171704000Y-114808000D03*
X172720000Y-114808000D03*
X173736000Y-114808000D03*
X174752000Y-114808000D03*
X175768000Y-114808000D03*
X176784000Y-114808000D03*
X177800000Y-114808000D03*
X178816000Y-114808000D03*
X179832000Y-115824000D03*
X179832000Y-116840000D03*
X179832000Y-117856000D03*
X179832000Y-118872000D03*
X179832000Y-119888000D03*
X179832000Y-120904000D03*
X179832000Y-121920000D03*
X180848000Y-121920000D03*
X180848000Y-120904000D03*
X180848000Y-119888000D03*
X180848000Y-118872000D03*
X180848000Y-117856000D03*
X180848000Y-116840000D03*
X173736000Y-115824000D03*
X173736000Y-116840000D03*
X173736000Y-117856000D03*
X173736000Y-118872000D03*
X173736000Y-119888000D03*
X173736000Y-120904000D03*
X173736000Y-121920000D03*
X173736000Y-122936000D03*
X173736000Y-123952000D03*
X174752000Y-123952000D03*
X174752000Y-122936000D03*
X174752000Y-121920000D03*
X174752000Y-120904000D03*
X174752000Y-119888000D03*
X174752000Y-118872000D03*
X174752000Y-117856000D03*
X174752000Y-116840000D03*
X174752000Y-115824000D03*
X175768000Y-115824000D03*
X175768000Y-116840000D03*
X175768000Y-117856000D03*
X175768000Y-118872000D03*
X175768000Y-119888000D03*
X175768000Y-120904000D03*
X175768000Y-121920000D03*
X175768000Y-122936000D03*
X175768000Y-123952000D03*
X176784000Y-123952000D03*
X176784000Y-122936000D03*
X176784000Y-121920000D03*
X176784000Y-120904000D03*
X176784000Y-119888000D03*
X176784000Y-118872000D03*
X176784000Y-117856000D03*
X176784000Y-116840000D03*
X176784000Y-115824000D03*
X177800000Y-115824000D03*
X177800000Y-116840000D03*
X177800000Y-117856000D03*
X177800000Y-118872000D03*
X177800000Y-119888000D03*
X177800000Y-120904000D03*
X177800000Y-121920000D03*
X177800000Y-122936000D03*
X177800000Y-123952000D03*
X178816000Y-123952000D03*
X178816000Y-122936000D03*
X178816000Y-121920000D03*
X178816000Y-120904000D03*
X178816000Y-119888000D03*
X178816000Y-118872000D03*
X178816000Y-117856000D03*
X178816000Y-116840000D03*
X178816000Y-115824000D03*
X172720000Y-123952000D03*
X172720000Y-122936000D03*
X172720000Y-121920000D03*
X172720000Y-120904000D03*
X172720000Y-119888000D03*
X172720000Y-118872000D03*
X172720000Y-117856000D03*
X172720000Y-116840000D03*
X172720000Y-115824000D03*
X171704000Y-123952000D03*
X171704000Y-122936000D03*
X171704000Y-121920000D03*
X171704000Y-120904000D03*
X171704000Y-119888000D03*
X171704000Y-118872000D03*
X171704000Y-117856000D03*
X171704000Y-116840000D03*
X171704000Y-115824000D03*
X146558000Y-139954000D03*
X185166000Y-140970000D03*
X169418000Y-140716000D03*
X185674000Y-138938000D03*
X169418000Y-139954000D03*
X169418000Y-128270000D03*
X185166000Y-128524000D03*
X169418000Y-127508000D03*
X185674000Y-126492000D03*
X169926000Y-116332000D03*
X185166000Y-116078000D03*
X169926000Y-115316000D03*
X185674000Y-114046000D03*
X156210000Y-137414000D03*
X155448000Y-128778000D03*
X159258000Y-116840000D03*
X160274000Y-124460000D03*
D22*
X142748000Y-125222000D02*
X145796000Y-125222000D01*
D23*
X141732000Y-124206000D02*
X142748000Y-124206000D01*
X142748000Y-124206000D02*
X143764000Y-124206000D01*
X143764000Y-124206000D02*
X144780000Y-124206000D01*
X144780000Y-124206000D02*
X144780000Y-125222000D01*
X144780000Y-125222000D02*
X143764000Y-125222000D01*
X143764000Y-125222000D02*
X142748000Y-125222000D01*
X142748000Y-125222000D02*
X141732000Y-125222000D01*
X141732000Y-125222000D02*
X141732000Y-124206000D01*
X141732000Y-124206000D02*
X142748000Y-125222000D01*
X142748000Y-125222000D02*
X142748000Y-124206000D01*
X142748000Y-124206000D02*
X143764000Y-125222000D01*
X143764000Y-125222000D02*
X143764000Y-124206000D01*
X143764000Y-124206000D02*
X144780000Y-125222000D01*
D24*
X161290000Y-125984000D02*
X161036000Y-126238000D01*
X166116000Y-125984000D02*
X161290000Y-125984000D01*
X166624000Y-125476000D02*
X166116000Y-125984000D01*
D25*
X133096000Y-139700000D02*
X130556000Y-139700000D01*
X128524000Y-134680000D02*
X128584000Y-134620000D01*
X128584000Y-134620000D02*
X130556000Y-134620000D01*
X130556000Y-121920000D02*
X130556000Y-134620000D01*
X130556000Y-134620000D02*
X130556000Y-139700000D01*
X130556000Y-139700000D02*
X130556000Y-144018000D01*
X130556000Y-144018000D02*
X130556000Y-144272000D01*
X130556000Y-144272000D02*
X133096000Y-146812000D01*
X133096000Y-146812000D02*
X135128000Y-146812000D01*
D22*
X128524000Y-134620000D02*
X128524000Y-134680000D01*
D24*
X166624000Y-127254000D02*
X165608000Y-128270000D01*
X165608000Y-128270000D02*
X160528000Y-128270000D01*
X160528000Y-128270000D02*
X159258000Y-129540000D01*
X167640000Y-126238000D02*
X166624000Y-127254000D01*
X169418000Y-142240000D02*
X161544000Y-142240000D01*
X161544000Y-142240000D02*
X161290000Y-142494000D01*
X169418000Y-129794000D02*
X161544000Y-129794000D01*
X161544000Y-129794000D02*
X161290000Y-130048000D01*
X161798000Y-117348000D02*
X161544000Y-117602000D01*
X161544000Y-117602000D02*
X161290000Y-117602000D01*
X169418000Y-117348000D02*
X161798000Y-117348000D01*
D26*
G36*
X162199130Y-107876342D02*
X162042678Y-108253120D01*
X162042322Y-108661090D01*
X162198116Y-109038140D01*
X162486342Y-109326870D01*
X162534473Y-109346856D01*
X162487860Y-109366116D01*
X162199130Y-109654342D01*
X162042678Y-110031120D01*
X162042322Y-110439090D01*
X162198116Y-110816140D01*
X162486342Y-111104870D01*
X162534473Y-111124856D01*
X162487860Y-111144116D01*
X162199130Y-111432342D01*
X162042678Y-111809120D01*
X162042322Y-112217090D01*
X162198116Y-112594140D01*
X162486342Y-112882870D01*
X162863120Y-113039322D01*
X163271090Y-113039678D01*
X163648140Y-112883884D01*
X163936870Y-112595658D01*
X163956856Y-112547527D01*
X163976116Y-112594140D01*
X164264342Y-112882870D01*
X164641120Y-113039322D01*
X165049090Y-113039678D01*
X165426140Y-112883884D01*
X165714870Y-112595658D01*
X165734856Y-112547527D01*
X165754116Y-112594140D01*
X166042342Y-112882870D01*
X166419120Y-113039322D01*
X166827090Y-113039678D01*
X167204140Y-112883884D01*
X167492870Y-112595658D01*
X167649322Y-112218880D01*
X167649678Y-111810910D01*
X167493884Y-111433860D01*
X167205658Y-111145130D01*
X167157527Y-111125144D01*
X167204140Y-111105884D01*
X167492870Y-110817658D01*
X167649322Y-110440880D01*
X167649678Y-110032910D01*
X167493884Y-109655860D01*
X167205658Y-109367130D01*
X167157527Y-109347144D01*
X167204140Y-109327884D01*
X167492870Y-109039658D01*
X167542539Y-108920041D01*
X167542307Y-109186517D01*
X167711470Y-109595923D01*
X168024429Y-109909429D01*
X168433539Y-110079307D01*
X168876517Y-110079693D01*
X169285923Y-109910530D01*
X169599429Y-109597571D01*
X169769307Y-109188461D01*
X169769693Y-108745483D01*
X169600530Y-108336077D01*
X169287571Y-108022571D01*
X168878461Y-107852693D01*
X168435483Y-107852307D01*
X168026077Y-108021470D01*
X167712571Y-108334429D01*
X167649476Y-108486378D01*
X167649678Y-108254910D01*
X167493884Y-107877860D01*
X167375731Y-107759500D01*
X195008500Y-107759500D01*
X195008500Y-151066500D01*
X186753500Y-151066500D01*
X186753500Y-112776000D01*
X186748497Y-112751295D01*
X186734277Y-112730483D01*
X186713080Y-112716843D01*
X186690000Y-112712500D01*
X182880000Y-112712500D01*
X182855295Y-112717503D01*
X182834483Y-112731723D01*
X182820843Y-112752920D01*
X182816500Y-112776000D01*
X182816500Y-113474500D01*
X170688000Y-113474500D01*
X170663295Y-113479503D01*
X170643099Y-113493099D01*
X167867698Y-116268500D01*
X159792302Y-116268500D01*
X158697397Y-115173595D01*
X159456402Y-115173595D01*
X159542009Y-115380780D01*
X159700386Y-115539434D01*
X159907421Y-115625402D01*
X160131595Y-115625598D01*
X160338780Y-115539991D01*
X160497434Y-115381614D01*
X160583402Y-115174579D01*
X160583598Y-114950405D01*
X160522430Y-114802366D01*
X160669421Y-114863402D01*
X160893595Y-114863598D01*
X161100780Y-114777991D01*
X161259434Y-114619614D01*
X161345402Y-114412579D01*
X161345598Y-114188405D01*
X161259991Y-113981220D01*
X161101614Y-113822566D01*
X160894579Y-113736598D01*
X160670405Y-113736402D01*
X160463220Y-113822009D01*
X160304566Y-113980386D01*
X160218598Y-114187421D01*
X160218402Y-114411595D01*
X160279570Y-114559634D01*
X160132579Y-114498598D01*
X159908405Y-114498402D01*
X159701220Y-114584009D01*
X159542566Y-114742386D01*
X159456598Y-114949421D01*
X159456402Y-115173595D01*
X158697397Y-115173595D01*
X157016901Y-113493099D01*
X156995895Y-113479167D01*
X156972000Y-113474500D01*
X136461500Y-113474500D01*
X136461500Y-109585595D01*
X139644402Y-109585595D01*
X139730009Y-109792780D01*
X139792090Y-109854969D01*
X139730566Y-109916386D01*
X139644598Y-110123421D01*
X139644402Y-110347595D01*
X139730009Y-110554780D01*
X139792090Y-110616969D01*
X139730566Y-110678386D01*
X139644598Y-110885421D01*
X139644402Y-111109595D01*
X139730009Y-111316780D01*
X139888386Y-111475434D01*
X140095421Y-111561402D01*
X140319595Y-111561598D01*
X140526780Y-111475991D01*
X140588969Y-111413910D01*
X140650386Y-111475434D01*
X140857421Y-111561402D01*
X141081595Y-111561598D01*
X141288780Y-111475991D01*
X141447434Y-111317614D01*
X141533402Y-111110579D01*
X141533598Y-110886405D01*
X141447991Y-110679220D01*
X141385910Y-110617031D01*
X141447434Y-110555614D01*
X141533402Y-110348579D01*
X141533598Y-110124405D01*
X141447991Y-109917220D01*
X141385910Y-109855031D01*
X141447434Y-109793614D01*
X141533402Y-109586579D01*
X141533598Y-109362405D01*
X141447991Y-109155220D01*
X141289614Y-108996566D01*
X141082579Y-108910598D01*
X140858405Y-108910402D01*
X140651220Y-108996009D01*
X140589031Y-109058090D01*
X140527614Y-108996566D01*
X140320579Y-108910598D01*
X140096405Y-108910402D01*
X139889220Y-108996009D01*
X139730566Y-109154386D01*
X139644598Y-109361421D01*
X139644402Y-109585595D01*
X136461500Y-109585595D01*
X136461500Y-108823595D01*
X150566402Y-108823595D01*
X150652009Y-109030780D01*
X150714090Y-109092969D01*
X150652566Y-109154386D01*
X150566598Y-109361421D01*
X150566402Y-109585595D01*
X150652009Y-109792780D01*
X150714090Y-109854969D01*
X150652566Y-109916386D01*
X150566598Y-110123421D01*
X150566402Y-110347595D01*
X150652009Y-110554780D01*
X150810386Y-110713434D01*
X151017421Y-110799402D01*
X151241595Y-110799598D01*
X151448780Y-110713991D01*
X151510969Y-110651910D01*
X151572386Y-110713434D01*
X151779421Y-110799402D01*
X152003595Y-110799598D01*
X152210780Y-110713991D01*
X152369434Y-110555614D01*
X152455402Y-110348579D01*
X152455598Y-110124405D01*
X152369991Y-109917220D01*
X152307910Y-109855031D01*
X152369434Y-109793614D01*
X152455402Y-109586579D01*
X152455402Y-109585595D01*
X156154402Y-109585595D01*
X156240009Y-109792780D01*
X156302090Y-109854969D01*
X156240566Y-109916386D01*
X156154598Y-110123421D01*
X156154402Y-110347595D01*
X156240009Y-110554780D01*
X156302090Y-110616969D01*
X156240566Y-110678386D01*
X156154598Y-110885421D01*
X156154402Y-111109595D01*
X156240009Y-111316780D01*
X156398386Y-111475434D01*
X156605421Y-111561402D01*
X156829595Y-111561598D01*
X157036780Y-111475991D01*
X157098969Y-111413910D01*
X157160386Y-111475434D01*
X157367421Y-111561402D01*
X157591595Y-111561598D01*
X157798780Y-111475991D01*
X157957434Y-111317614D01*
X158043402Y-111110579D01*
X158043598Y-110886405D01*
X157957991Y-110679220D01*
X157895910Y-110617031D01*
X157957434Y-110555614D01*
X158043402Y-110348579D01*
X158043598Y-110124405D01*
X157957991Y-109917220D01*
X157895910Y-109855031D01*
X157957434Y-109793614D01*
X158043402Y-109586579D01*
X158043598Y-109362405D01*
X157957991Y-109155220D01*
X157799614Y-108996566D01*
X157592579Y-108910598D01*
X157368405Y-108910402D01*
X157161220Y-108996009D01*
X157099031Y-109058090D01*
X157037614Y-108996566D01*
X156830579Y-108910598D01*
X156606405Y-108910402D01*
X156399220Y-108996009D01*
X156240566Y-109154386D01*
X156154598Y-109361421D01*
X156154402Y-109585595D01*
X152455402Y-109585595D01*
X152455598Y-109362405D01*
X152369991Y-109155220D01*
X152307910Y-109093031D01*
X152369434Y-109031614D01*
X152455402Y-108824579D01*
X152455598Y-108600405D01*
X152369991Y-108393220D01*
X152211614Y-108234566D01*
X152004579Y-108148598D01*
X151780405Y-108148402D01*
X151573220Y-108234009D01*
X151511031Y-108296090D01*
X151449614Y-108234566D01*
X151242579Y-108148598D01*
X151018405Y-108148402D01*
X150811220Y-108234009D01*
X150652566Y-108392386D01*
X150566598Y-108599421D01*
X150566402Y-108823595D01*
X136461500Y-108823595D01*
X136461500Y-107759500D01*
X162316176Y-107759500D01*
X162199130Y-107876342D01*
X162199130Y-107876342D01*
G37*
X162199130Y-107876342D02*
X162042678Y-108253120D01*
X162042322Y-108661090D01*
X162198116Y-109038140D01*
X162486342Y-109326870D01*
X162534473Y-109346856D01*
X162487860Y-109366116D01*
X162199130Y-109654342D01*
X162042678Y-110031120D01*
X162042322Y-110439090D01*
X162198116Y-110816140D01*
X162486342Y-111104870D01*
X162534473Y-111124856D01*
X162487860Y-111144116D01*
X162199130Y-111432342D01*
X162042678Y-111809120D01*
X162042322Y-112217090D01*
X162198116Y-112594140D01*
X162486342Y-112882870D01*
X162863120Y-113039322D01*
X163271090Y-113039678D01*
X163648140Y-112883884D01*
X163936870Y-112595658D01*
X163956856Y-112547527D01*
X163976116Y-112594140D01*
X164264342Y-112882870D01*
X164641120Y-113039322D01*
X165049090Y-113039678D01*
X165426140Y-112883884D01*
X165714870Y-112595658D01*
X165734856Y-112547527D01*
X165754116Y-112594140D01*
X166042342Y-112882870D01*
X166419120Y-113039322D01*
X166827090Y-113039678D01*
X167204140Y-112883884D01*
X167492870Y-112595658D01*
X167649322Y-112218880D01*
X167649678Y-111810910D01*
X167493884Y-111433860D01*
X167205658Y-111145130D01*
X167157527Y-111125144D01*
X167204140Y-111105884D01*
X167492870Y-110817658D01*
X167649322Y-110440880D01*
X167649678Y-110032910D01*
X167493884Y-109655860D01*
X167205658Y-109367130D01*
X167157527Y-109347144D01*
X167204140Y-109327884D01*
X167492870Y-109039658D01*
X167542539Y-108920041D01*
X167542307Y-109186517D01*
X167711470Y-109595923D01*
X168024429Y-109909429D01*
X168433539Y-110079307D01*
X168876517Y-110079693D01*
X169285923Y-109910530D01*
X169599429Y-109597571D01*
X169769307Y-109188461D01*
X169769693Y-108745483D01*
X169600530Y-108336077D01*
X169287571Y-108022571D01*
X168878461Y-107852693D01*
X168435483Y-107852307D01*
X168026077Y-108021470D01*
X167712571Y-108334429D01*
X167649476Y-108486378D01*
X167649678Y-108254910D01*
X167493884Y-107877860D01*
X167375731Y-107759500D01*
X195008500Y-107759500D01*
X195008500Y-151066500D01*
X186753500Y-151066500D01*
X186753500Y-112776000D01*
X186748497Y-112751295D01*
X186734277Y-112730483D01*
X186713080Y-112716843D01*
X186690000Y-112712500D01*
X182880000Y-112712500D01*
X182855295Y-112717503D01*
X182834483Y-112731723D01*
X182820843Y-112752920D01*
X182816500Y-112776000D01*
X182816500Y-113474500D01*
X170688000Y-113474500D01*
X170663295Y-113479503D01*
X170643099Y-113493099D01*
X167867698Y-116268500D01*
X159792302Y-116268500D01*
X158697397Y-115173595D01*
X159456402Y-115173595D01*
X159542009Y-115380780D01*
X159700386Y-115539434D01*
X159907421Y-115625402D01*
X160131595Y-115625598D01*
X160338780Y-115539991D01*
X160497434Y-115381614D01*
X160583402Y-115174579D01*
X160583598Y-114950405D01*
X160522430Y-114802366D01*
X160669421Y-114863402D01*
X160893595Y-114863598D01*
X161100780Y-114777991D01*
X161259434Y-114619614D01*
X161345402Y-114412579D01*
X161345598Y-114188405D01*
X161259991Y-113981220D01*
X161101614Y-113822566D01*
X160894579Y-113736598D01*
X160670405Y-113736402D01*
X160463220Y-113822009D01*
X160304566Y-113980386D01*
X160218598Y-114187421D01*
X160218402Y-114411595D01*
X160279570Y-114559634D01*
X160132579Y-114498598D01*
X159908405Y-114498402D01*
X159701220Y-114584009D01*
X159542566Y-114742386D01*
X159456598Y-114949421D01*
X159456402Y-115173595D01*
X158697397Y-115173595D01*
X157016901Y-113493099D01*
X156995895Y-113479167D01*
X156972000Y-113474500D01*
X136461500Y-113474500D01*
X136461500Y-109585595D01*
X139644402Y-109585595D01*
X139730009Y-109792780D01*
X139792090Y-109854969D01*
X139730566Y-109916386D01*
X139644598Y-110123421D01*
X139644402Y-110347595D01*
X139730009Y-110554780D01*
X139792090Y-110616969D01*
X139730566Y-110678386D01*
X139644598Y-110885421D01*
X139644402Y-111109595D01*
X139730009Y-111316780D01*
X139888386Y-111475434D01*
X140095421Y-111561402D01*
X140319595Y-111561598D01*
X140526780Y-111475991D01*
X140588969Y-111413910D01*
X140650386Y-111475434D01*
X140857421Y-111561402D01*
X141081595Y-111561598D01*
X141288780Y-111475991D01*
X141447434Y-111317614D01*
X141533402Y-111110579D01*
X141533598Y-110886405D01*
X141447991Y-110679220D01*
X141385910Y-110617031D01*
X141447434Y-110555614D01*
X141533402Y-110348579D01*
X141533598Y-110124405D01*
X141447991Y-109917220D01*
X141385910Y-109855031D01*
X141447434Y-109793614D01*
X141533402Y-109586579D01*
X141533598Y-109362405D01*
X141447991Y-109155220D01*
X141289614Y-108996566D01*
X141082579Y-108910598D01*
X140858405Y-108910402D01*
X140651220Y-108996009D01*
X140589031Y-109058090D01*
X140527614Y-108996566D01*
X140320579Y-108910598D01*
X140096405Y-108910402D01*
X139889220Y-108996009D01*
X139730566Y-109154386D01*
X139644598Y-109361421D01*
X139644402Y-109585595D01*
X136461500Y-109585595D01*
X136461500Y-108823595D01*
X150566402Y-108823595D01*
X150652009Y-109030780D01*
X150714090Y-109092969D01*
X150652566Y-109154386D01*
X150566598Y-109361421D01*
X150566402Y-109585595D01*
X150652009Y-109792780D01*
X150714090Y-109854969D01*
X150652566Y-109916386D01*
X150566598Y-110123421D01*
X150566402Y-110347595D01*
X150652009Y-110554780D01*
X150810386Y-110713434D01*
X151017421Y-110799402D01*
X151241595Y-110799598D01*
X151448780Y-110713991D01*
X151510969Y-110651910D01*
X151572386Y-110713434D01*
X151779421Y-110799402D01*
X152003595Y-110799598D01*
X152210780Y-110713991D01*
X152369434Y-110555614D01*
X152455402Y-110348579D01*
X152455598Y-110124405D01*
X152369991Y-109917220D01*
X152307910Y-109855031D01*
X152369434Y-109793614D01*
X152455402Y-109586579D01*
X152455402Y-109585595D01*
X156154402Y-109585595D01*
X156240009Y-109792780D01*
X156302090Y-109854969D01*
X156240566Y-109916386D01*
X156154598Y-110123421D01*
X156154402Y-110347595D01*
X156240009Y-110554780D01*
X156302090Y-110616969D01*
X156240566Y-110678386D01*
X156154598Y-110885421D01*
X156154402Y-111109595D01*
X156240009Y-111316780D01*
X156398386Y-111475434D01*
X156605421Y-111561402D01*
X156829595Y-111561598D01*
X157036780Y-111475991D01*
X157098969Y-111413910D01*
X157160386Y-111475434D01*
X157367421Y-111561402D01*
X157591595Y-111561598D01*
X157798780Y-111475991D01*
X157957434Y-111317614D01*
X158043402Y-111110579D01*
X158043598Y-110886405D01*
X157957991Y-110679220D01*
X157895910Y-110617031D01*
X157957434Y-110555614D01*
X158043402Y-110348579D01*
X158043598Y-110124405D01*
X157957991Y-109917220D01*
X157895910Y-109855031D01*
X157957434Y-109793614D01*
X158043402Y-109586579D01*
X158043598Y-109362405D01*
X157957991Y-109155220D01*
X157799614Y-108996566D01*
X157592579Y-108910598D01*
X157368405Y-108910402D01*
X157161220Y-108996009D01*
X157099031Y-109058090D01*
X157037614Y-108996566D01*
X156830579Y-108910598D01*
X156606405Y-108910402D01*
X156399220Y-108996009D01*
X156240566Y-109154386D01*
X156154598Y-109361421D01*
X156154402Y-109585595D01*
X152455402Y-109585595D01*
X152455598Y-109362405D01*
X152369991Y-109155220D01*
X152307910Y-109093031D01*
X152369434Y-109031614D01*
X152455402Y-108824579D01*
X152455598Y-108600405D01*
X152369991Y-108393220D01*
X152211614Y-108234566D01*
X152004579Y-108148598D01*
X151780405Y-108148402D01*
X151573220Y-108234009D01*
X151511031Y-108296090D01*
X151449614Y-108234566D01*
X151242579Y-108148598D01*
X151018405Y-108148402D01*
X150811220Y-108234009D01*
X150652566Y-108392386D01*
X150566598Y-108599421D01*
X150566402Y-108823595D01*
X136461500Y-108823595D01*
X136461500Y-107759500D01*
X162316176Y-107759500D01*
X162199130Y-107876342D01*
G36*
X158180749Y-115598551D02*
X158177220Y-115600009D01*
X158018566Y-115758386D01*
X157932598Y-115965421D01*
X157932402Y-116189595D01*
X158018009Y-116396780D01*
X158176386Y-116555434D01*
X158383421Y-116641402D01*
X158607595Y-116641598D01*
X158755634Y-116580430D01*
X158694598Y-116727421D01*
X158694402Y-116951595D01*
X158780009Y-117158780D01*
X158938386Y-117317434D01*
X159145421Y-117403402D01*
X159369595Y-117403598D01*
X159576780Y-117317991D01*
X159735434Y-117159614D01*
X159737305Y-117155107D01*
X164293099Y-121710901D01*
X164314105Y-121724833D01*
X164338000Y-121729500D01*
X165290500Y-121729500D01*
X165290500Y-123166953D01*
X165212579Y-123134598D01*
X164988405Y-123134402D01*
X164781220Y-123220009D01*
X164719031Y-123282090D01*
X164657614Y-123220566D01*
X164450579Y-123134598D01*
X164226405Y-123134402D01*
X164019220Y-123220009D01*
X163860566Y-123378386D01*
X163774598Y-123585421D01*
X163774402Y-123809595D01*
X163860009Y-124016780D01*
X164018386Y-124175434D01*
X164225421Y-124261402D01*
X164449595Y-124261598D01*
X164656780Y-124175991D01*
X164718969Y-124113910D01*
X164780386Y-124175434D01*
X164987421Y-124261402D01*
X165211595Y-124261598D01*
X165290500Y-124228995D01*
X165290500Y-125595500D01*
X161290000Y-125595500D01*
X161141327Y-125625073D01*
X161067314Y-125674527D01*
X160924405Y-125674402D01*
X160717220Y-125760009D01*
X160558566Y-125918386D01*
X160472598Y-126125421D01*
X160472402Y-126349595D01*
X160558009Y-126556780D01*
X160716386Y-126715434D01*
X160923421Y-126801402D01*
X161147595Y-126801598D01*
X161354780Y-126715991D01*
X161513434Y-126557614D01*
X161590300Y-126372500D01*
X165290500Y-126372500D01*
X165290500Y-127881500D01*
X160528000Y-127881500D01*
X160379327Y-127911073D01*
X160319243Y-127951220D01*
X160253289Y-127995289D01*
X159272066Y-128976512D01*
X159146405Y-128976402D01*
X158939220Y-129062009D01*
X158780566Y-129220386D01*
X158694598Y-129427421D01*
X158694402Y-129651595D01*
X158780009Y-129858780D01*
X158938386Y-130017434D01*
X159145421Y-130103402D01*
X159369595Y-130103598D01*
X159576780Y-130017991D01*
X159735434Y-129859614D01*
X159821402Y-129652579D01*
X159821513Y-129525909D01*
X160688922Y-128658500D01*
X165290500Y-128658500D01*
X165290500Y-129405500D01*
X161544000Y-129405500D01*
X161395327Y-129435073D01*
X161321501Y-129484402D01*
X161321314Y-129484527D01*
X161178405Y-129484402D01*
X160971220Y-129570009D01*
X160812566Y-129728386D01*
X160726598Y-129935421D01*
X160726402Y-130159595D01*
X160812009Y-130366780D01*
X160970386Y-130525434D01*
X161177421Y-130611402D01*
X161401595Y-130611598D01*
X161608780Y-130525991D01*
X161767434Y-130367614D01*
X161844300Y-130182500D01*
X165290500Y-130182500D01*
X165290500Y-135612953D01*
X165212579Y-135580598D01*
X164988405Y-135580402D01*
X164781220Y-135666009D01*
X164719031Y-135728090D01*
X164657614Y-135666566D01*
X164450579Y-135580598D01*
X164226405Y-135580402D01*
X164019220Y-135666009D01*
X163860566Y-135824386D01*
X163774598Y-136031421D01*
X163774402Y-136255595D01*
X163860009Y-136462780D01*
X164018386Y-136621434D01*
X164225421Y-136707402D01*
X164449595Y-136707598D01*
X164656780Y-136621991D01*
X164718969Y-136559910D01*
X164780386Y-136621434D01*
X164987421Y-136707402D01*
X165211595Y-136707598D01*
X165290500Y-136674995D01*
X165290500Y-141851500D01*
X161544000Y-141851500D01*
X161395327Y-141881073D01*
X161335243Y-141921220D01*
X161321314Y-141930527D01*
X161178405Y-141930402D01*
X160971220Y-142016009D01*
X160812566Y-142174386D01*
X160726598Y-142381421D01*
X160726402Y-142605595D01*
X160812009Y-142812780D01*
X160970386Y-142971434D01*
X161177421Y-143057402D01*
X161401595Y-143057598D01*
X161608780Y-142971991D01*
X161767434Y-142813614D01*
X161844300Y-142628500D01*
X165290500Y-142628500D01*
X165290500Y-147764500D01*
X161824302Y-147764500D01*
X161080901Y-147021099D01*
X161059895Y-147007167D01*
X161036000Y-147002500D01*
X158268302Y-147002500D01*
X156527500Y-145261698D01*
X156527500Y-139811595D01*
X159456402Y-139811595D01*
X159542009Y-140018780D01*
X159700386Y-140177434D01*
X159907421Y-140263402D01*
X160131595Y-140263598D01*
X160338780Y-140177991D01*
X160497434Y-140019614D01*
X160583402Y-139812579D01*
X160583598Y-139588405D01*
X160497991Y-139381220D01*
X160339614Y-139222566D01*
X160132579Y-139136598D01*
X159908405Y-139136402D01*
X159701220Y-139222009D01*
X159542566Y-139380386D01*
X159456598Y-139587421D01*
X159456402Y-139811595D01*
X156527500Y-139811595D01*
X156527500Y-138795595D01*
X160472402Y-138795595D01*
X160558009Y-139002780D01*
X160716386Y-139161434D01*
X160923421Y-139247402D01*
X161147595Y-139247598D01*
X161354780Y-139161991D01*
X161513434Y-139003614D01*
X161599402Y-138796579D01*
X161599598Y-138572405D01*
X161513991Y-138365220D01*
X161355614Y-138206566D01*
X161148579Y-138120598D01*
X160924405Y-138120402D01*
X160717220Y-138206009D01*
X160558566Y-138364386D01*
X160472598Y-138571421D01*
X160472402Y-138795595D01*
X156527500Y-138795595D01*
X156527500Y-137892520D01*
X156528780Y-137891991D01*
X156687434Y-137733614D01*
X156773402Y-137526579D01*
X156773598Y-137302405D01*
X156687991Y-137095220D01*
X156529614Y-136936566D01*
X156527500Y-136935688D01*
X156527500Y-136255595D01*
X159710402Y-136255595D01*
X159796009Y-136462780D01*
X159954386Y-136621434D01*
X160161421Y-136707402D01*
X160385595Y-136707598D01*
X160592780Y-136621991D01*
X160751434Y-136463614D01*
X160837402Y-136256579D01*
X160837598Y-136032405D01*
X160751991Y-135825220D01*
X160593614Y-135666566D01*
X160386579Y-135580598D01*
X160162405Y-135580402D01*
X159955220Y-135666009D01*
X159796566Y-135824386D01*
X159710598Y-136031421D01*
X159710402Y-136255595D01*
X156527500Y-136255595D01*
X156527500Y-132445595D01*
X159710402Y-132445595D01*
X159796009Y-132652780D01*
X159954386Y-132811434D01*
X160161421Y-132897402D01*
X160385595Y-132897598D01*
X160592780Y-132811991D01*
X160751434Y-132653614D01*
X160837402Y-132446579D01*
X160837598Y-132222405D01*
X160751991Y-132015220D01*
X160593614Y-131856566D01*
X160386579Y-131770598D01*
X160162405Y-131770402D01*
X159955220Y-131856009D01*
X159796566Y-132014386D01*
X159710598Y-132221421D01*
X159710402Y-132445595D01*
X156527500Y-132445595D01*
X156527500Y-127365595D01*
X159456402Y-127365595D01*
X159542009Y-127572780D01*
X159700386Y-127731434D01*
X159907421Y-127817402D01*
X160131595Y-127817598D01*
X160338780Y-127731991D01*
X160497434Y-127573614D01*
X160583402Y-127366579D01*
X160583598Y-127142405D01*
X160497991Y-126935220D01*
X160339614Y-126776566D01*
X160132579Y-126690598D01*
X159908405Y-126690402D01*
X159701220Y-126776009D01*
X159542566Y-126934386D01*
X159456598Y-127141421D01*
X159456402Y-127365595D01*
X156527500Y-127365595D01*
X156527500Y-126462520D01*
X156528780Y-126461991D01*
X156687434Y-126303614D01*
X156773402Y-126096579D01*
X156773598Y-125872405D01*
X156687991Y-125665220D01*
X156529614Y-125506566D01*
X156527500Y-125505688D01*
X156527500Y-124206000D01*
X156522497Y-124181295D01*
X156508901Y-124161099D01*
X156157397Y-123809595D01*
X159710402Y-123809595D01*
X159796009Y-124016780D01*
X159858090Y-124078969D01*
X159796566Y-124140386D01*
X159710598Y-124347421D01*
X159710402Y-124571595D01*
X159796009Y-124778780D01*
X159954386Y-124937434D01*
X160161421Y-125023402D01*
X160385595Y-125023598D01*
X160592780Y-124937991D01*
X160751434Y-124779614D01*
X160837402Y-124572579D01*
X160837598Y-124348405D01*
X160751991Y-124141220D01*
X160689910Y-124079031D01*
X160751434Y-124017614D01*
X160837402Y-123810579D01*
X160837598Y-123586405D01*
X160751991Y-123379220D01*
X160593614Y-123220566D01*
X160386579Y-123134598D01*
X160162405Y-123134402D01*
X159955220Y-123220009D01*
X159796566Y-123378386D01*
X159710598Y-123585421D01*
X159710402Y-123809595D01*
X156157397Y-123809595D01*
X155492901Y-123145099D01*
X155471895Y-123131167D01*
X155448000Y-123126500D01*
X154402520Y-123126500D01*
X154401991Y-123125220D01*
X154243614Y-122966566D01*
X154036579Y-122880598D01*
X153812405Y-122880402D01*
X153605220Y-122966009D01*
X153446566Y-123124386D01*
X153445688Y-123126500D01*
X152878520Y-123126500D01*
X152877991Y-123125220D01*
X152719614Y-122966566D01*
X152512579Y-122880598D01*
X152288405Y-122880402D01*
X152081220Y-122966009D01*
X151922566Y-123124386D01*
X151921688Y-123126500D01*
X151354520Y-123126500D01*
X151353991Y-123125220D01*
X151195614Y-122966566D01*
X150988579Y-122880598D01*
X150764405Y-122880402D01*
X150557220Y-122966009D01*
X150398566Y-123124386D01*
X150397688Y-123126500D01*
X149830520Y-123126500D01*
X149829991Y-123125220D01*
X149671614Y-122966566D01*
X149464579Y-122880598D01*
X149240405Y-122880402D01*
X149033220Y-122966009D01*
X148874566Y-123124386D01*
X148873688Y-123126500D01*
X148306520Y-123126500D01*
X148305991Y-123125220D01*
X148147614Y-122966566D01*
X147940579Y-122880598D01*
X147716405Y-122880402D01*
X147509220Y-122966009D01*
X147350566Y-123124386D01*
X147349688Y-123126500D01*
X143065500Y-123126500D01*
X143065500Y-122539595D01*
X159710402Y-122539595D01*
X159796009Y-122746780D01*
X159954386Y-122905434D01*
X160161421Y-122991402D01*
X160385595Y-122991598D01*
X160592780Y-122905991D01*
X160751434Y-122747614D01*
X160837402Y-122540579D01*
X160837598Y-122316405D01*
X160751991Y-122109220D01*
X160593614Y-121950566D01*
X160386579Y-121864598D01*
X160162405Y-121864402D01*
X159955220Y-121950009D01*
X159796566Y-122108386D01*
X159710598Y-122315421D01*
X159710402Y-122539595D01*
X143065500Y-122539595D01*
X143065500Y-122451047D01*
X143143421Y-122483402D01*
X143367595Y-122483598D01*
X143574780Y-122397991D01*
X143733434Y-122239614D01*
X143763969Y-122166077D01*
X143794009Y-122238780D01*
X143952386Y-122397434D01*
X144159421Y-122483402D01*
X144383595Y-122483598D01*
X144590780Y-122397991D01*
X144749434Y-122239614D01*
X144835402Y-122032579D01*
X144835598Y-121808405D01*
X144822868Y-121777595D01*
X148026402Y-121777595D01*
X148112009Y-121984780D01*
X148270386Y-122143434D01*
X148477421Y-122229402D01*
X148701595Y-122229598D01*
X148908780Y-122143991D01*
X149067434Y-121985614D01*
X149153402Y-121778579D01*
X149153598Y-121554405D01*
X149067991Y-121347220D01*
X148909614Y-121188566D01*
X148702579Y-121102598D01*
X148478405Y-121102402D01*
X148271220Y-121188009D01*
X148112566Y-121346386D01*
X148026598Y-121553421D01*
X148026402Y-121777595D01*
X144822868Y-121777595D01*
X144749991Y-121601220D01*
X144591614Y-121442566D01*
X144384579Y-121356598D01*
X144160405Y-121356402D01*
X143953220Y-121442009D01*
X143794566Y-121600386D01*
X143764031Y-121673923D01*
X143733991Y-121601220D01*
X143575614Y-121442566D01*
X143368579Y-121356598D01*
X143144405Y-121356402D01*
X143065500Y-121389005D01*
X143065500Y-119999595D01*
X148788402Y-119999595D01*
X148874009Y-120206780D01*
X149032386Y-120365434D01*
X149239421Y-120451402D01*
X149463595Y-120451598D01*
X149670780Y-120365991D01*
X149783372Y-120253595D01*
X150820402Y-120253595D01*
X150906009Y-120460780D01*
X151064386Y-120619434D01*
X151271421Y-120705402D01*
X151495595Y-120705598D01*
X151702780Y-120619991D01*
X151861434Y-120461614D01*
X151947402Y-120254579D01*
X151947598Y-120030405D01*
X151934868Y-119999595D01*
X157170402Y-119999595D01*
X157256009Y-120206780D01*
X157414386Y-120365434D01*
X157621421Y-120451402D01*
X157845595Y-120451598D01*
X158052780Y-120365991D01*
X158211434Y-120207614D01*
X158297402Y-120000579D01*
X158297598Y-119776405D01*
X158211991Y-119569220D01*
X158053614Y-119410566D01*
X157846579Y-119324598D01*
X157622405Y-119324402D01*
X157415220Y-119410009D01*
X157256566Y-119568386D01*
X157170598Y-119775421D01*
X157170402Y-119999595D01*
X151934868Y-119999595D01*
X151861991Y-119823220D01*
X151703614Y-119664566D01*
X151496579Y-119578598D01*
X151272405Y-119578402D01*
X151065220Y-119664009D01*
X150906566Y-119822386D01*
X150820598Y-120029421D01*
X150820402Y-120253595D01*
X149783372Y-120253595D01*
X149829434Y-120207614D01*
X149915402Y-120000579D01*
X149915598Y-119776405D01*
X149829991Y-119569220D01*
X149671614Y-119410566D01*
X149464579Y-119324598D01*
X149240405Y-119324402D01*
X149033220Y-119410009D01*
X148874566Y-119568386D01*
X148788598Y-119775421D01*
X148788402Y-119999595D01*
X143065500Y-119999595D01*
X143065500Y-117459595D01*
X152598402Y-117459595D01*
X152684009Y-117666780D01*
X152746090Y-117728969D01*
X152684566Y-117790386D01*
X152598598Y-117997421D01*
X152598402Y-118221595D01*
X152684009Y-118428780D01*
X152746090Y-118490969D01*
X152684566Y-118552386D01*
X152598598Y-118759421D01*
X152598402Y-118983595D01*
X152684009Y-119190780D01*
X152842386Y-119349434D01*
X153049421Y-119435402D01*
X153273595Y-119435598D01*
X153480780Y-119349991D01*
X153542969Y-119287910D01*
X153604386Y-119349434D01*
X153811421Y-119435402D01*
X154035595Y-119435598D01*
X154242780Y-119349991D01*
X154304969Y-119287910D01*
X154366386Y-119349434D01*
X154573421Y-119435402D01*
X154797595Y-119435598D01*
X155004780Y-119349991D01*
X155163434Y-119191614D01*
X155249402Y-118984579D01*
X155249598Y-118760405D01*
X155163991Y-118553220D01*
X155101910Y-118491031D01*
X155163434Y-118429614D01*
X155249402Y-118222579D01*
X155249598Y-117998405D01*
X155163991Y-117791220D01*
X155101910Y-117729031D01*
X155163434Y-117667614D01*
X155249402Y-117460579D01*
X155249598Y-117236405D01*
X155163991Y-117029220D01*
X155005614Y-116870566D01*
X154798579Y-116784598D01*
X154574405Y-116784402D01*
X154367220Y-116870009D01*
X154305031Y-116932090D01*
X154243614Y-116870566D01*
X154036579Y-116784598D01*
X153812405Y-116784402D01*
X153605220Y-116870009D01*
X153543031Y-116932090D01*
X153481614Y-116870566D01*
X153274579Y-116784598D01*
X153050405Y-116784402D01*
X152843220Y-116870009D01*
X152684566Y-117028386D01*
X152598598Y-117235421D01*
X152598402Y-117459595D01*
X143065500Y-117459595D01*
X143065500Y-116189595D01*
X155646402Y-116189595D01*
X155732009Y-116396780D01*
X155890386Y-116555434D01*
X156097421Y-116641402D01*
X156321595Y-116641598D01*
X156528780Y-116555991D01*
X156687434Y-116397614D01*
X156773402Y-116190579D01*
X156773598Y-115966405D01*
X156687991Y-115759220D01*
X156529614Y-115600566D01*
X156322579Y-115514598D01*
X156098405Y-115514402D01*
X155891220Y-115600009D01*
X155732566Y-115758386D01*
X155646598Y-115965421D01*
X155646402Y-116189595D01*
X143065500Y-116189595D01*
X143065500Y-115427595D01*
X150820402Y-115427595D01*
X150906009Y-115634780D01*
X151064386Y-115793434D01*
X151271421Y-115879402D01*
X151495595Y-115879598D01*
X151702780Y-115793991D01*
X151861434Y-115635614D01*
X151947402Y-115428579D01*
X151947598Y-115204405D01*
X151861991Y-114997220D01*
X151703614Y-114838566D01*
X151496579Y-114752598D01*
X151272405Y-114752402D01*
X151065220Y-114838009D01*
X150906566Y-114996386D01*
X150820598Y-115203421D01*
X150820402Y-115427595D01*
X143065500Y-115427595D01*
X143065500Y-114109500D01*
X156691698Y-114109500D01*
X158180749Y-115598551D01*
X158180749Y-115598551D01*
G37*
X158180749Y-115598551D02*
X158177220Y-115600009D01*
X158018566Y-115758386D01*
X157932598Y-115965421D01*
X157932402Y-116189595D01*
X158018009Y-116396780D01*
X158176386Y-116555434D01*
X158383421Y-116641402D01*
X158607595Y-116641598D01*
X158755634Y-116580430D01*
X158694598Y-116727421D01*
X158694402Y-116951595D01*
X158780009Y-117158780D01*
X158938386Y-117317434D01*
X159145421Y-117403402D01*
X159369595Y-117403598D01*
X159576780Y-117317991D01*
X159735434Y-117159614D01*
X159737305Y-117155107D01*
X164293099Y-121710901D01*
X164314105Y-121724833D01*
X164338000Y-121729500D01*
X165290500Y-121729500D01*
X165290500Y-123166953D01*
X165212579Y-123134598D01*
X164988405Y-123134402D01*
X164781220Y-123220009D01*
X164719031Y-123282090D01*
X164657614Y-123220566D01*
X164450579Y-123134598D01*
X164226405Y-123134402D01*
X164019220Y-123220009D01*
X163860566Y-123378386D01*
X163774598Y-123585421D01*
X163774402Y-123809595D01*
X163860009Y-124016780D01*
X164018386Y-124175434D01*
X164225421Y-124261402D01*
X164449595Y-124261598D01*
X164656780Y-124175991D01*
X164718969Y-124113910D01*
X164780386Y-124175434D01*
X164987421Y-124261402D01*
X165211595Y-124261598D01*
X165290500Y-124228995D01*
X165290500Y-125595500D01*
X161290000Y-125595500D01*
X161141327Y-125625073D01*
X161067314Y-125674527D01*
X160924405Y-125674402D01*
X160717220Y-125760009D01*
X160558566Y-125918386D01*
X160472598Y-126125421D01*
X160472402Y-126349595D01*
X160558009Y-126556780D01*
X160716386Y-126715434D01*
X160923421Y-126801402D01*
X161147595Y-126801598D01*
X161354780Y-126715991D01*
X161513434Y-126557614D01*
X161590300Y-126372500D01*
X165290500Y-126372500D01*
X165290500Y-127881500D01*
X160528000Y-127881500D01*
X160379327Y-127911073D01*
X160319243Y-127951220D01*
X160253289Y-127995289D01*
X159272066Y-128976512D01*
X159146405Y-128976402D01*
X158939220Y-129062009D01*
X158780566Y-129220386D01*
X158694598Y-129427421D01*
X158694402Y-129651595D01*
X158780009Y-129858780D01*
X158938386Y-130017434D01*
X159145421Y-130103402D01*
X159369595Y-130103598D01*
X159576780Y-130017991D01*
X159735434Y-129859614D01*
X159821402Y-129652579D01*
X159821513Y-129525909D01*
X160688922Y-128658500D01*
X165290500Y-128658500D01*
X165290500Y-129405500D01*
X161544000Y-129405500D01*
X161395327Y-129435073D01*
X161321501Y-129484402D01*
X161321314Y-129484527D01*
X161178405Y-129484402D01*
X160971220Y-129570009D01*
X160812566Y-129728386D01*
X160726598Y-129935421D01*
X160726402Y-130159595D01*
X160812009Y-130366780D01*
X160970386Y-130525434D01*
X161177421Y-130611402D01*
X161401595Y-130611598D01*
X161608780Y-130525991D01*
X161767434Y-130367614D01*
X161844300Y-130182500D01*
X165290500Y-130182500D01*
X165290500Y-135612953D01*
X165212579Y-135580598D01*
X164988405Y-135580402D01*
X164781220Y-135666009D01*
X164719031Y-135728090D01*
X164657614Y-135666566D01*
X164450579Y-135580598D01*
X164226405Y-135580402D01*
X164019220Y-135666009D01*
X163860566Y-135824386D01*
X163774598Y-136031421D01*
X163774402Y-136255595D01*
X163860009Y-136462780D01*
X164018386Y-136621434D01*
X164225421Y-136707402D01*
X164449595Y-136707598D01*
X164656780Y-136621991D01*
X164718969Y-136559910D01*
X164780386Y-136621434D01*
X164987421Y-136707402D01*
X165211595Y-136707598D01*
X165290500Y-136674995D01*
X165290500Y-141851500D01*
X161544000Y-141851500D01*
X161395327Y-141881073D01*
X161335243Y-141921220D01*
X161321314Y-141930527D01*
X161178405Y-141930402D01*
X160971220Y-142016009D01*
X160812566Y-142174386D01*
X160726598Y-142381421D01*
X160726402Y-142605595D01*
X160812009Y-142812780D01*
X160970386Y-142971434D01*
X161177421Y-143057402D01*
X161401595Y-143057598D01*
X161608780Y-142971991D01*
X161767434Y-142813614D01*
X161844300Y-142628500D01*
X165290500Y-142628500D01*
X165290500Y-147764500D01*
X161824302Y-147764500D01*
X161080901Y-147021099D01*
X161059895Y-147007167D01*
X161036000Y-147002500D01*
X158268302Y-147002500D01*
X156527500Y-145261698D01*
X156527500Y-139811595D01*
X159456402Y-139811595D01*
X159542009Y-140018780D01*
X159700386Y-140177434D01*
X159907421Y-140263402D01*
X160131595Y-140263598D01*
X160338780Y-140177991D01*
X160497434Y-140019614D01*
X160583402Y-139812579D01*
X160583598Y-139588405D01*
X160497991Y-139381220D01*
X160339614Y-139222566D01*
X160132579Y-139136598D01*
X159908405Y-139136402D01*
X159701220Y-139222009D01*
X159542566Y-139380386D01*
X159456598Y-139587421D01*
X159456402Y-139811595D01*
X156527500Y-139811595D01*
X156527500Y-138795595D01*
X160472402Y-138795595D01*
X160558009Y-139002780D01*
X160716386Y-139161434D01*
X160923421Y-139247402D01*
X161147595Y-139247598D01*
X161354780Y-139161991D01*
X161513434Y-139003614D01*
X161599402Y-138796579D01*
X161599598Y-138572405D01*
X161513991Y-138365220D01*
X161355614Y-138206566D01*
X161148579Y-138120598D01*
X160924405Y-138120402D01*
X160717220Y-138206009D01*
X160558566Y-138364386D01*
X160472598Y-138571421D01*
X160472402Y-138795595D01*
X156527500Y-138795595D01*
X156527500Y-137892520D01*
X156528780Y-137891991D01*
X156687434Y-137733614D01*
X156773402Y-137526579D01*
X156773598Y-137302405D01*
X156687991Y-137095220D01*
X156529614Y-136936566D01*
X156527500Y-136935688D01*
X156527500Y-136255595D01*
X159710402Y-136255595D01*
X159796009Y-136462780D01*
X159954386Y-136621434D01*
X160161421Y-136707402D01*
X160385595Y-136707598D01*
X160592780Y-136621991D01*
X160751434Y-136463614D01*
X160837402Y-136256579D01*
X160837598Y-136032405D01*
X160751991Y-135825220D01*
X160593614Y-135666566D01*
X160386579Y-135580598D01*
X160162405Y-135580402D01*
X159955220Y-135666009D01*
X159796566Y-135824386D01*
X159710598Y-136031421D01*
X159710402Y-136255595D01*
X156527500Y-136255595D01*
X156527500Y-132445595D01*
X159710402Y-132445595D01*
X159796009Y-132652780D01*
X159954386Y-132811434D01*
X160161421Y-132897402D01*
X160385595Y-132897598D01*
X160592780Y-132811991D01*
X160751434Y-132653614D01*
X160837402Y-132446579D01*
X160837598Y-132222405D01*
X160751991Y-132015220D01*
X160593614Y-131856566D01*
X160386579Y-131770598D01*
X160162405Y-131770402D01*
X159955220Y-131856009D01*
X159796566Y-132014386D01*
X159710598Y-132221421D01*
X159710402Y-132445595D01*
X156527500Y-132445595D01*
X156527500Y-127365595D01*
X159456402Y-127365595D01*
X159542009Y-127572780D01*
X159700386Y-127731434D01*
X159907421Y-127817402D01*
X160131595Y-127817598D01*
X160338780Y-127731991D01*
X160497434Y-127573614D01*
X160583402Y-127366579D01*
X160583598Y-127142405D01*
X160497991Y-126935220D01*
X160339614Y-126776566D01*
X160132579Y-126690598D01*
X159908405Y-126690402D01*
X159701220Y-126776009D01*
X159542566Y-126934386D01*
X159456598Y-127141421D01*
X159456402Y-127365595D01*
X156527500Y-127365595D01*
X156527500Y-126462520D01*
X156528780Y-126461991D01*
X156687434Y-126303614D01*
X156773402Y-126096579D01*
X156773598Y-125872405D01*
X156687991Y-125665220D01*
X156529614Y-125506566D01*
X156527500Y-125505688D01*
X156527500Y-124206000D01*
X156522497Y-124181295D01*
X156508901Y-124161099D01*
X156157397Y-123809595D01*
X159710402Y-123809595D01*
X159796009Y-124016780D01*
X159858090Y-124078969D01*
X159796566Y-124140386D01*
X159710598Y-124347421D01*
X159710402Y-124571595D01*
X159796009Y-124778780D01*
X159954386Y-124937434D01*
X160161421Y-125023402D01*
X160385595Y-125023598D01*
X160592780Y-124937991D01*
X160751434Y-124779614D01*
X160837402Y-124572579D01*
X160837598Y-124348405D01*
X160751991Y-124141220D01*
X160689910Y-124079031D01*
X160751434Y-124017614D01*
X160837402Y-123810579D01*
X160837598Y-123586405D01*
X160751991Y-123379220D01*
X160593614Y-123220566D01*
X160386579Y-123134598D01*
X160162405Y-123134402D01*
X159955220Y-123220009D01*
X159796566Y-123378386D01*
X159710598Y-123585421D01*
X159710402Y-123809595D01*
X156157397Y-123809595D01*
X155492901Y-123145099D01*
X155471895Y-123131167D01*
X155448000Y-123126500D01*
X154402520Y-123126500D01*
X154401991Y-123125220D01*
X154243614Y-122966566D01*
X154036579Y-122880598D01*
X153812405Y-122880402D01*
X153605220Y-122966009D01*
X153446566Y-123124386D01*
X153445688Y-123126500D01*
X152878520Y-123126500D01*
X152877991Y-123125220D01*
X152719614Y-122966566D01*
X152512579Y-122880598D01*
X152288405Y-122880402D01*
X152081220Y-122966009D01*
X151922566Y-123124386D01*
X151921688Y-123126500D01*
X151354520Y-123126500D01*
X151353991Y-123125220D01*
X151195614Y-122966566D01*
X150988579Y-122880598D01*
X150764405Y-122880402D01*
X150557220Y-122966009D01*
X150398566Y-123124386D01*
X150397688Y-123126500D01*
X149830520Y-123126500D01*
X149829991Y-123125220D01*
X149671614Y-122966566D01*
X149464579Y-122880598D01*
X149240405Y-122880402D01*
X149033220Y-122966009D01*
X148874566Y-123124386D01*
X148873688Y-123126500D01*
X148306520Y-123126500D01*
X148305991Y-123125220D01*
X148147614Y-122966566D01*
X147940579Y-122880598D01*
X147716405Y-122880402D01*
X147509220Y-122966009D01*
X147350566Y-123124386D01*
X147349688Y-123126500D01*
X143065500Y-123126500D01*
X143065500Y-122539595D01*
X159710402Y-122539595D01*
X159796009Y-122746780D01*
X159954386Y-122905434D01*
X160161421Y-122991402D01*
X160385595Y-122991598D01*
X160592780Y-122905991D01*
X160751434Y-122747614D01*
X160837402Y-122540579D01*
X160837598Y-122316405D01*
X160751991Y-122109220D01*
X160593614Y-121950566D01*
X160386579Y-121864598D01*
X160162405Y-121864402D01*
X159955220Y-121950009D01*
X159796566Y-122108386D01*
X159710598Y-122315421D01*
X159710402Y-122539595D01*
X143065500Y-122539595D01*
X143065500Y-122451047D01*
X143143421Y-122483402D01*
X143367595Y-122483598D01*
X143574780Y-122397991D01*
X143733434Y-122239614D01*
X143763969Y-122166077D01*
X143794009Y-122238780D01*
X143952386Y-122397434D01*
X144159421Y-122483402D01*
X144383595Y-122483598D01*
X144590780Y-122397991D01*
X144749434Y-122239614D01*
X144835402Y-122032579D01*
X144835598Y-121808405D01*
X144822868Y-121777595D01*
X148026402Y-121777595D01*
X148112009Y-121984780D01*
X148270386Y-122143434D01*
X148477421Y-122229402D01*
X148701595Y-122229598D01*
X148908780Y-122143991D01*
X149067434Y-121985614D01*
X149153402Y-121778579D01*
X149153598Y-121554405D01*
X149067991Y-121347220D01*
X148909614Y-121188566D01*
X148702579Y-121102598D01*
X148478405Y-121102402D01*
X148271220Y-121188009D01*
X148112566Y-121346386D01*
X148026598Y-121553421D01*
X148026402Y-121777595D01*
X144822868Y-121777595D01*
X144749991Y-121601220D01*
X144591614Y-121442566D01*
X144384579Y-121356598D01*
X144160405Y-121356402D01*
X143953220Y-121442009D01*
X143794566Y-121600386D01*
X143764031Y-121673923D01*
X143733991Y-121601220D01*
X143575614Y-121442566D01*
X143368579Y-121356598D01*
X143144405Y-121356402D01*
X143065500Y-121389005D01*
X143065500Y-119999595D01*
X148788402Y-119999595D01*
X148874009Y-120206780D01*
X149032386Y-120365434D01*
X149239421Y-120451402D01*
X149463595Y-120451598D01*
X149670780Y-120365991D01*
X149783372Y-120253595D01*
X150820402Y-120253595D01*
X150906009Y-120460780D01*
X151064386Y-120619434D01*
X151271421Y-120705402D01*
X151495595Y-120705598D01*
X151702780Y-120619991D01*
X151861434Y-120461614D01*
X151947402Y-120254579D01*
X151947598Y-120030405D01*
X151934868Y-119999595D01*
X157170402Y-119999595D01*
X157256009Y-120206780D01*
X157414386Y-120365434D01*
X157621421Y-120451402D01*
X157845595Y-120451598D01*
X158052780Y-120365991D01*
X158211434Y-120207614D01*
X158297402Y-120000579D01*
X158297598Y-119776405D01*
X158211991Y-119569220D01*
X158053614Y-119410566D01*
X157846579Y-119324598D01*
X157622405Y-119324402D01*
X157415220Y-119410009D01*
X157256566Y-119568386D01*
X157170598Y-119775421D01*
X157170402Y-119999595D01*
X151934868Y-119999595D01*
X151861991Y-119823220D01*
X151703614Y-119664566D01*
X151496579Y-119578598D01*
X151272405Y-119578402D01*
X151065220Y-119664009D01*
X150906566Y-119822386D01*
X150820598Y-120029421D01*
X150820402Y-120253595D01*
X149783372Y-120253595D01*
X149829434Y-120207614D01*
X149915402Y-120000579D01*
X149915598Y-119776405D01*
X149829991Y-119569220D01*
X149671614Y-119410566D01*
X149464579Y-119324598D01*
X149240405Y-119324402D01*
X149033220Y-119410009D01*
X148874566Y-119568386D01*
X148788598Y-119775421D01*
X148788402Y-119999595D01*
X143065500Y-119999595D01*
X143065500Y-117459595D01*
X152598402Y-117459595D01*
X152684009Y-117666780D01*
X152746090Y-117728969D01*
X152684566Y-117790386D01*
X152598598Y-117997421D01*
X152598402Y-118221595D01*
X152684009Y-118428780D01*
X152746090Y-118490969D01*
X152684566Y-118552386D01*
X152598598Y-118759421D01*
X152598402Y-118983595D01*
X152684009Y-119190780D01*
X152842386Y-119349434D01*
X153049421Y-119435402D01*
X153273595Y-119435598D01*
X153480780Y-119349991D01*
X153542969Y-119287910D01*
X153604386Y-119349434D01*
X153811421Y-119435402D01*
X154035595Y-119435598D01*
X154242780Y-119349991D01*
X154304969Y-119287910D01*
X154366386Y-119349434D01*
X154573421Y-119435402D01*
X154797595Y-119435598D01*
X155004780Y-119349991D01*
X155163434Y-119191614D01*
X155249402Y-118984579D01*
X155249598Y-118760405D01*
X155163991Y-118553220D01*
X155101910Y-118491031D01*
X155163434Y-118429614D01*
X155249402Y-118222579D01*
X155249598Y-117998405D01*
X155163991Y-117791220D01*
X155101910Y-117729031D01*
X155163434Y-117667614D01*
X155249402Y-117460579D01*
X155249598Y-117236405D01*
X155163991Y-117029220D01*
X155005614Y-116870566D01*
X154798579Y-116784598D01*
X154574405Y-116784402D01*
X154367220Y-116870009D01*
X154305031Y-116932090D01*
X154243614Y-116870566D01*
X154036579Y-116784598D01*
X153812405Y-116784402D01*
X153605220Y-116870009D01*
X153543031Y-116932090D01*
X153481614Y-116870566D01*
X153274579Y-116784598D01*
X153050405Y-116784402D01*
X152843220Y-116870009D01*
X152684566Y-117028386D01*
X152598598Y-117235421D01*
X152598402Y-117459595D01*
X143065500Y-117459595D01*
X143065500Y-116189595D01*
X155646402Y-116189595D01*
X155732009Y-116396780D01*
X155890386Y-116555434D01*
X156097421Y-116641402D01*
X156321595Y-116641598D01*
X156528780Y-116555991D01*
X156687434Y-116397614D01*
X156773402Y-116190579D01*
X156773598Y-115966405D01*
X156687991Y-115759220D01*
X156529614Y-115600566D01*
X156322579Y-115514598D01*
X156098405Y-115514402D01*
X155891220Y-115600009D01*
X155732566Y-115758386D01*
X155646598Y-115965421D01*
X155646402Y-116189595D01*
X143065500Y-116189595D01*
X143065500Y-115427595D01*
X150820402Y-115427595D01*
X150906009Y-115634780D01*
X151064386Y-115793434D01*
X151271421Y-115879402D01*
X151495595Y-115879598D01*
X151702780Y-115793991D01*
X151861434Y-115635614D01*
X151947402Y-115428579D01*
X151947598Y-115204405D01*
X151861991Y-114997220D01*
X151703614Y-114838566D01*
X151496579Y-114752598D01*
X151272405Y-114752402D01*
X151065220Y-114838009D01*
X150906566Y-114996386D01*
X150820598Y-115203421D01*
X150820402Y-115427595D01*
X143065500Y-115427595D01*
X143065500Y-114109500D01*
X156691698Y-114109500D01*
X158180749Y-115598551D01*
G36*
X129542500Y-133606500D02*
X128584005Y-133606500D01*
X128584000Y-133606499D01*
X128260499Y-133670848D01*
X128196150Y-133683648D01*
X127937459Y-133856500D01*
X127867347Y-133903347D01*
X127807347Y-133963347D01*
X127587648Y-134292151D01*
X127510500Y-134680000D01*
X127587648Y-135067849D01*
X127807347Y-135396653D01*
X127974555Y-135508378D01*
X127792387Y-135690228D01*
X127660650Y-136007486D01*
X127660350Y-136351007D01*
X127791533Y-136668494D01*
X128034228Y-136911613D01*
X128078225Y-136929882D01*
X128035506Y-136947533D01*
X127792387Y-137190228D01*
X127660650Y-137507486D01*
X127660350Y-137851007D01*
X127791533Y-138168494D01*
X128034228Y-138411613D01*
X128078225Y-138429882D01*
X128035506Y-138447533D01*
X127792387Y-138690228D01*
X127660650Y-139007486D01*
X127660350Y-139351007D01*
X127791533Y-139668494D01*
X128034228Y-139911613D01*
X128078225Y-139929882D01*
X128035506Y-139947533D01*
X127792387Y-140190228D01*
X127660650Y-140507486D01*
X127660350Y-140851007D01*
X127791533Y-141168494D01*
X128034228Y-141411613D01*
X128078225Y-141429882D01*
X128035506Y-141447533D01*
X127792387Y-141690228D01*
X127660650Y-142007486D01*
X127660350Y-142351007D01*
X127791533Y-142668494D01*
X128034228Y-142911613D01*
X128351486Y-143043350D01*
X128695007Y-143043650D01*
X129012494Y-142912467D01*
X129255613Y-142669772D01*
X129387350Y-142352514D01*
X129387650Y-142008993D01*
X129256467Y-141691506D01*
X129013772Y-141448387D01*
X128969775Y-141430118D01*
X129012494Y-141412467D01*
X129255613Y-141169772D01*
X129387350Y-140852514D01*
X129387650Y-140508993D01*
X129256467Y-140191506D01*
X129013772Y-139948387D01*
X128969775Y-139930118D01*
X129012494Y-139912467D01*
X129255613Y-139669772D01*
X129387350Y-139352514D01*
X129387650Y-139008993D01*
X129256467Y-138691506D01*
X129013772Y-138448387D01*
X128969775Y-138430118D01*
X129012494Y-138412467D01*
X129255613Y-138169772D01*
X129387350Y-137852514D01*
X129387650Y-137508993D01*
X129256467Y-137191506D01*
X129013772Y-136948387D01*
X128969775Y-136930118D01*
X129012494Y-136912467D01*
X129255613Y-136669772D01*
X129387350Y-136352514D01*
X129387650Y-136008993D01*
X129256467Y-135691506D01*
X129198562Y-135633500D01*
X129542500Y-135633500D01*
X129542500Y-144272000D01*
X129619648Y-144659850D01*
X129816428Y-144954352D01*
X129839347Y-144988653D01*
X132379345Y-147528650D01*
X132379347Y-147528653D01*
X132708150Y-147748352D01*
X133096000Y-147825500D01*
X134622018Y-147825500D01*
X134696678Y-147875386D01*
X135128000Y-147961181D01*
X135559322Y-147875386D01*
X135924980Y-147631061D01*
X136169305Y-147265403D01*
X136187498Y-147173938D01*
X136600574Y-147173938D01*
X136820335Y-147554873D01*
X137169145Y-147822713D01*
X137306065Y-147879406D01*
X137477500Y-147855987D01*
X137477500Y-147002500D01*
X137858500Y-147002500D01*
X137858500Y-147855987D01*
X138029935Y-147879406D01*
X138166855Y-147822713D01*
X138515665Y-147554873D01*
X138735426Y-147173938D01*
X138713029Y-147002500D01*
X137858500Y-147002500D01*
X137477500Y-147002500D01*
X136622971Y-147002500D01*
X136600574Y-147173938D01*
X136187498Y-147173938D01*
X136255100Y-146834081D01*
X136255100Y-146789919D01*
X139080900Y-146789919D01*
X139080900Y-146834081D01*
X139166695Y-147265403D01*
X139411020Y-147631061D01*
X139776678Y-147875386D01*
X140208000Y-147961181D01*
X140639322Y-147875386D01*
X141004980Y-147631061D01*
X141249305Y-147265403D01*
X141335100Y-146834081D01*
X141335100Y-146789919D01*
X141620900Y-146789919D01*
X141620900Y-146834081D01*
X141706695Y-147265403D01*
X141951020Y-147631061D01*
X142316678Y-147875386D01*
X142748000Y-147961181D01*
X143179322Y-147875386D01*
X143544980Y-147631061D01*
X143789305Y-147265403D01*
X143875100Y-146834081D01*
X143875100Y-146789919D01*
X144160900Y-146789919D01*
X144160900Y-146834081D01*
X144246695Y-147265403D01*
X144491020Y-147631061D01*
X144856678Y-147875386D01*
X145288000Y-147961181D01*
X145396520Y-147939595D01*
X152598402Y-147939595D01*
X152684009Y-148146780D01*
X152842386Y-148305434D01*
X153049421Y-148391402D01*
X153273595Y-148391598D01*
X153480780Y-148305991D01*
X153639434Y-148147614D01*
X153725402Y-147940579D01*
X153725598Y-147716405D01*
X153639991Y-147509220D01*
X153481614Y-147350566D01*
X153274579Y-147264598D01*
X153050405Y-147264402D01*
X152843220Y-147350009D01*
X152684566Y-147508386D01*
X152598598Y-147715421D01*
X152598402Y-147939595D01*
X145396520Y-147939595D01*
X145719322Y-147875386D01*
X146084980Y-147631061D01*
X146329305Y-147265403D01*
X146397294Y-146923595D01*
X151582402Y-146923595D01*
X151668009Y-147130780D01*
X151826386Y-147289434D01*
X152033421Y-147375402D01*
X152257595Y-147375598D01*
X152464780Y-147289991D01*
X152623434Y-147131614D01*
X152709402Y-146924579D01*
X152709402Y-146923595D01*
X155646402Y-146923595D01*
X155732009Y-147130780D01*
X155890386Y-147289434D01*
X156097421Y-147375402D01*
X156321595Y-147375598D01*
X156528780Y-147289991D01*
X156687434Y-147131614D01*
X156773402Y-146924579D01*
X156773598Y-146700405D01*
X156687991Y-146493220D01*
X156529614Y-146334566D01*
X156322579Y-146248598D01*
X156098405Y-146248402D01*
X155891220Y-146334009D01*
X155732566Y-146492386D01*
X155646598Y-146699421D01*
X155646402Y-146923595D01*
X152709402Y-146923595D01*
X152709598Y-146700405D01*
X152623991Y-146493220D01*
X152465614Y-146334566D01*
X152258579Y-146248598D01*
X152034405Y-146248402D01*
X151827220Y-146334009D01*
X151668566Y-146492386D01*
X151582598Y-146699421D01*
X151582402Y-146923595D01*
X146397294Y-146923595D01*
X146415100Y-146834081D01*
X146415100Y-146789919D01*
X146329305Y-146358597D01*
X146084980Y-145992939D01*
X145957254Y-145907595D01*
X150566402Y-145907595D01*
X150652009Y-146114780D01*
X150810386Y-146273434D01*
X151017421Y-146359402D01*
X151241595Y-146359598D01*
X151448780Y-146273991D01*
X151607434Y-146115614D01*
X151693402Y-145908579D01*
X151693402Y-145907595D01*
X154630402Y-145907595D01*
X154716009Y-146114780D01*
X154874386Y-146273434D01*
X155081421Y-146359402D01*
X155305595Y-146359598D01*
X155512780Y-146273991D01*
X155671434Y-146115614D01*
X155757402Y-145908579D01*
X155757598Y-145684405D01*
X155671991Y-145477220D01*
X155513614Y-145318566D01*
X155306579Y-145232598D01*
X155082405Y-145232402D01*
X154875220Y-145318009D01*
X154716566Y-145476386D01*
X154630598Y-145683421D01*
X154630402Y-145907595D01*
X151693402Y-145907595D01*
X151693598Y-145684405D01*
X151607991Y-145477220D01*
X151449614Y-145318566D01*
X151242579Y-145232598D01*
X151018405Y-145232402D01*
X150811220Y-145318009D01*
X150652566Y-145476386D01*
X150566598Y-145683421D01*
X150566402Y-145907595D01*
X145957254Y-145907595D01*
X145719322Y-145748614D01*
X145288000Y-145662819D01*
X144856678Y-145748614D01*
X144491020Y-145992939D01*
X144246695Y-146358597D01*
X144160900Y-146789919D01*
X143875100Y-146789919D01*
X143789305Y-146358597D01*
X143544980Y-145992939D01*
X143179322Y-145748614D01*
X142748000Y-145662819D01*
X142316678Y-145748614D01*
X141951020Y-145992939D01*
X141706695Y-146358597D01*
X141620900Y-146789919D01*
X141335100Y-146789919D01*
X141249305Y-146358597D01*
X141004980Y-145992939D01*
X140639322Y-145748614D01*
X140208000Y-145662819D01*
X139776678Y-145748614D01*
X139411020Y-145992939D01*
X139166695Y-146358597D01*
X139080900Y-146789919D01*
X136255100Y-146789919D01*
X136187499Y-146450062D01*
X136600574Y-146450062D01*
X136622971Y-146621500D01*
X137477500Y-146621500D01*
X137477500Y-145768013D01*
X137858500Y-145768013D01*
X137858500Y-146621500D01*
X138713029Y-146621500D01*
X138735426Y-146450062D01*
X138515665Y-146069127D01*
X138166855Y-145801287D01*
X138029935Y-145744594D01*
X137858500Y-145768013D01*
X137477500Y-145768013D01*
X137306065Y-145744594D01*
X137169145Y-145801287D01*
X136820335Y-146069127D01*
X136600574Y-146450062D01*
X136187499Y-146450062D01*
X136169305Y-146358597D01*
X135924980Y-145992939D01*
X135559322Y-145748614D01*
X135128000Y-145662819D01*
X134696678Y-145748614D01*
X134622018Y-145798500D01*
X133515805Y-145798500D01*
X132608901Y-144891595D01*
X149550402Y-144891595D01*
X149636009Y-145098780D01*
X149794386Y-145257434D01*
X150001421Y-145343402D01*
X150225595Y-145343598D01*
X150432780Y-145257991D01*
X150591434Y-145099614D01*
X150677402Y-144892579D01*
X150677598Y-144668405D01*
X150591991Y-144461220D01*
X150433614Y-144302566D01*
X150226579Y-144216598D01*
X150002405Y-144216402D01*
X149795220Y-144302009D01*
X149636566Y-144460386D01*
X149550598Y-144667421D01*
X149550402Y-144891595D01*
X132608901Y-144891595D01*
X131592901Y-143875595D01*
X135072402Y-143875595D01*
X135158009Y-144082780D01*
X135316386Y-144241434D01*
X135523421Y-144327402D01*
X135747595Y-144327598D01*
X135954780Y-144241991D01*
X136113434Y-144083614D01*
X136199402Y-143876579D01*
X136199402Y-143875595D01*
X138628402Y-143875595D01*
X138714009Y-144082780D01*
X138872386Y-144241434D01*
X139079421Y-144327402D01*
X139303595Y-144327598D01*
X139510780Y-144241991D01*
X139623372Y-144129595D01*
X141168402Y-144129595D01*
X141254009Y-144336780D01*
X141412386Y-144495434D01*
X141619421Y-144581402D01*
X141843595Y-144581598D01*
X142050780Y-144495991D01*
X142209434Y-144337614D01*
X142295402Y-144130579D01*
X142295598Y-143906405D01*
X142282868Y-143875595D01*
X147010402Y-143875595D01*
X147096009Y-144082780D01*
X147254386Y-144241434D01*
X147461421Y-144327402D01*
X147685595Y-144327598D01*
X147892780Y-144241991D01*
X148051434Y-144083614D01*
X148137402Y-143876579D01*
X148137402Y-143875595D01*
X148534402Y-143875595D01*
X148620009Y-144082780D01*
X148778386Y-144241434D01*
X148985421Y-144327402D01*
X149209595Y-144327598D01*
X149416780Y-144241991D01*
X149575434Y-144083614D01*
X149661402Y-143876579D01*
X149661598Y-143652405D01*
X149575991Y-143445220D01*
X149417614Y-143286566D01*
X149210579Y-143200598D01*
X148986405Y-143200402D01*
X148779220Y-143286009D01*
X148620566Y-143444386D01*
X148534598Y-143651421D01*
X148534402Y-143875595D01*
X148137402Y-143875595D01*
X148137598Y-143652405D01*
X148051991Y-143445220D01*
X147893614Y-143286566D01*
X147686579Y-143200598D01*
X147462405Y-143200402D01*
X147255220Y-143286009D01*
X147096566Y-143444386D01*
X147010598Y-143651421D01*
X147010402Y-143875595D01*
X142282868Y-143875595D01*
X142209991Y-143699220D01*
X142051614Y-143540566D01*
X141844579Y-143454598D01*
X141620405Y-143454402D01*
X141413220Y-143540009D01*
X141254566Y-143698386D01*
X141168598Y-143905421D01*
X141168402Y-144129595D01*
X139623372Y-144129595D01*
X139669434Y-144083614D01*
X139755402Y-143876579D01*
X139755598Y-143652405D01*
X139669991Y-143445220D01*
X139511614Y-143286566D01*
X139304579Y-143200598D01*
X139080405Y-143200402D01*
X138873220Y-143286009D01*
X138714566Y-143444386D01*
X138628598Y-143651421D01*
X138628402Y-143875595D01*
X136199402Y-143875595D01*
X136199598Y-143652405D01*
X136113991Y-143445220D01*
X135955614Y-143286566D01*
X135748579Y-143200598D01*
X135524405Y-143200402D01*
X135317220Y-143286009D01*
X135158566Y-143444386D01*
X135072598Y-143651421D01*
X135072402Y-143875595D01*
X131592901Y-143875595D01*
X131569500Y-143852194D01*
X131569500Y-141376400D01*
X131811338Y-141376400D01*
X131811338Y-143103600D01*
X131829712Y-143201247D01*
X131887421Y-143290930D01*
X131975475Y-143351095D01*
X132080000Y-143372262D01*
X134112000Y-143372262D01*
X134209647Y-143353888D01*
X134299330Y-143296179D01*
X134359495Y-143208125D01*
X134378637Y-143113595D01*
X140406402Y-143113595D01*
X140492009Y-143320780D01*
X140650386Y-143479434D01*
X140857421Y-143565402D01*
X141081595Y-143565598D01*
X141288780Y-143479991D01*
X141447434Y-143321614D01*
X141533402Y-143114579D01*
X141533598Y-142890405D01*
X141447991Y-142683220D01*
X141289614Y-142524566D01*
X141082579Y-142438598D01*
X140858405Y-142438402D01*
X140651220Y-142524009D01*
X140492566Y-142682386D01*
X140406598Y-142889421D01*
X140406402Y-143113595D01*
X134378637Y-143113595D01*
X134380662Y-143103600D01*
X134380662Y-141376400D01*
X134362288Y-141278753D01*
X134304579Y-141189070D01*
X134216525Y-141128905D01*
X134112000Y-141107738D01*
X132080000Y-141107738D01*
X131982353Y-141126112D01*
X131892670Y-141183821D01*
X131832505Y-141271875D01*
X131811338Y-141376400D01*
X131569500Y-141376400D01*
X131569500Y-140827595D01*
X139390402Y-140827595D01*
X139476009Y-141034780D01*
X139634386Y-141193434D01*
X139841421Y-141279402D01*
X140065595Y-141279598D01*
X140272780Y-141193991D01*
X140385372Y-141081595D01*
X146502402Y-141081595D01*
X146588009Y-141288780D01*
X146746386Y-141447434D01*
X146953421Y-141533402D01*
X147177595Y-141533598D01*
X147384780Y-141447991D01*
X147543434Y-141289614D01*
X147629402Y-141082579D01*
X147629598Y-140858405D01*
X147616868Y-140827595D01*
X150566402Y-140827595D01*
X150652009Y-141034780D01*
X150810386Y-141193434D01*
X151017421Y-141279402D01*
X151241595Y-141279598D01*
X151448780Y-141193991D01*
X151607434Y-141035614D01*
X151693402Y-140828579D01*
X151693598Y-140604405D01*
X151607991Y-140397220D01*
X151449614Y-140238566D01*
X151242579Y-140152598D01*
X151018405Y-140152402D01*
X150811220Y-140238009D01*
X150652566Y-140396386D01*
X150566598Y-140603421D01*
X150566402Y-140827595D01*
X147616868Y-140827595D01*
X147543991Y-140651220D01*
X147385614Y-140492566D01*
X147178579Y-140406598D01*
X146954405Y-140406402D01*
X146747220Y-140492009D01*
X146588566Y-140650386D01*
X146502598Y-140857421D01*
X146502402Y-141081595D01*
X140385372Y-141081595D01*
X140431434Y-141035614D01*
X140517402Y-140828579D01*
X140517598Y-140604405D01*
X140456430Y-140456366D01*
X140603421Y-140517402D01*
X140827595Y-140517598D01*
X141034780Y-140431991D01*
X141193434Y-140273614D01*
X141279402Y-140066579D01*
X141279402Y-140065595D01*
X145994402Y-140065595D01*
X146080009Y-140272780D01*
X146238386Y-140431434D01*
X146445421Y-140517402D01*
X146669595Y-140517598D01*
X146876780Y-140431991D01*
X147035434Y-140273614D01*
X147121402Y-140066579D01*
X147121402Y-140065595D01*
X154122402Y-140065595D01*
X154208009Y-140272780D01*
X154366386Y-140431434D01*
X154573421Y-140517402D01*
X154797595Y-140517598D01*
X155004780Y-140431991D01*
X155163434Y-140273614D01*
X155249402Y-140066579D01*
X155249598Y-139842405D01*
X155163991Y-139635220D01*
X155005614Y-139476566D01*
X154798579Y-139390598D01*
X154574405Y-139390402D01*
X154367220Y-139476009D01*
X154208566Y-139634386D01*
X154122598Y-139841421D01*
X154122402Y-140065595D01*
X147121402Y-140065595D01*
X147121598Y-139842405D01*
X147035991Y-139635220D01*
X146877614Y-139476566D01*
X146670579Y-139390598D01*
X146446405Y-139390402D01*
X146239220Y-139476009D01*
X146080566Y-139634386D01*
X145994598Y-139841421D01*
X145994402Y-140065595D01*
X141279402Y-140065595D01*
X141279483Y-139973718D01*
X141365421Y-140009402D01*
X141589595Y-140009598D01*
X141796780Y-139923991D01*
X141955434Y-139765614D01*
X142041402Y-139558579D01*
X142041598Y-139334405D01*
X141955991Y-139127220D01*
X141797614Y-138968566D01*
X141590579Y-138882598D01*
X141366405Y-138882402D01*
X141159220Y-138968009D01*
X141000566Y-139126386D01*
X140914598Y-139333421D01*
X140914517Y-139426282D01*
X140828579Y-139390598D01*
X140604405Y-139390402D01*
X140397220Y-139476009D01*
X140238566Y-139634386D01*
X140152598Y-139841421D01*
X140152402Y-140065595D01*
X140213570Y-140213634D01*
X140066579Y-140152598D01*
X139842405Y-140152402D01*
X139635220Y-140238009D01*
X139476566Y-140396386D01*
X139390598Y-140603421D01*
X139390402Y-140827595D01*
X131569500Y-140827595D01*
X131569500Y-140713500D01*
X132445598Y-140713500D01*
X132487211Y-140741305D01*
X132918533Y-140827100D01*
X133273467Y-140827100D01*
X133704789Y-140741305D01*
X134070447Y-140496980D01*
X134314772Y-140131322D01*
X134378369Y-139811595D01*
X138628402Y-139811595D01*
X138714009Y-140018780D01*
X138872386Y-140177434D01*
X139079421Y-140263402D01*
X139303595Y-140263598D01*
X139510780Y-140177991D01*
X139669434Y-140019614D01*
X139755402Y-139812579D01*
X139755598Y-139588405D01*
X139669991Y-139381220D01*
X139511614Y-139222566D01*
X139304579Y-139136598D01*
X139080405Y-139136402D01*
X138873220Y-139222009D01*
X138714566Y-139380386D01*
X138628598Y-139587421D01*
X138628402Y-139811595D01*
X134378369Y-139811595D01*
X134400567Y-139700000D01*
X134314772Y-139268678D01*
X134070447Y-138903020D01*
X133704789Y-138658695D01*
X133273467Y-138572900D01*
X132918533Y-138572900D01*
X132487211Y-138658695D01*
X132445598Y-138686500D01*
X131569500Y-138686500D01*
X131569500Y-137160000D01*
X131791433Y-137160000D01*
X131877228Y-137591322D01*
X132121553Y-137956980D01*
X132487211Y-138201305D01*
X132918533Y-138287100D01*
X133273467Y-138287100D01*
X133704789Y-138201305D01*
X134070447Y-137956980D01*
X134188971Y-137779595D01*
X141676402Y-137779595D01*
X141762009Y-137986780D01*
X141920386Y-138145434D01*
X142127421Y-138231402D01*
X142351595Y-138231598D01*
X142558780Y-138145991D01*
X142717434Y-137987614D01*
X142803402Y-137780579D01*
X142803598Y-137556405D01*
X142717991Y-137349220D01*
X142640502Y-137271595D01*
X143200402Y-137271595D01*
X143286009Y-137478780D01*
X143444386Y-137637434D01*
X143651421Y-137723402D01*
X143875595Y-137723598D01*
X144019625Y-137664086D01*
X144048009Y-137732780D01*
X144206386Y-137891434D01*
X144413421Y-137977402D01*
X144637595Y-137977598D01*
X144844780Y-137891991D01*
X145003434Y-137733614D01*
X145089402Y-137526579D01*
X145089598Y-137302405D01*
X145003991Y-137095220D01*
X144845614Y-136936566D01*
X144638579Y-136850598D01*
X144414405Y-136850402D01*
X144270375Y-136909914D01*
X144241991Y-136841220D01*
X144083614Y-136682566D01*
X143876579Y-136596598D01*
X143652405Y-136596402D01*
X143445220Y-136682009D01*
X143286566Y-136840386D01*
X143200598Y-137047421D01*
X143200402Y-137271595D01*
X142640502Y-137271595D01*
X142559614Y-137190566D01*
X142352579Y-137104598D01*
X142128405Y-137104402D01*
X141921220Y-137190009D01*
X141762566Y-137348386D01*
X141676598Y-137555421D01*
X141676402Y-137779595D01*
X134188971Y-137779595D01*
X134314772Y-137591322D01*
X134400567Y-137160000D01*
X134314772Y-136728678D01*
X134168386Y-136509595D01*
X147010402Y-136509595D01*
X147096009Y-136716780D01*
X147254386Y-136875434D01*
X147461421Y-136961402D01*
X147685595Y-136961598D01*
X147833634Y-136900430D01*
X147772598Y-137047421D01*
X147772402Y-137271595D01*
X147858009Y-137478780D01*
X148016386Y-137637434D01*
X148223421Y-137723402D01*
X148447595Y-137723598D01*
X148654780Y-137637991D01*
X148767372Y-137525595D01*
X154122402Y-137525595D01*
X154208009Y-137732780D01*
X154366386Y-137891434D01*
X154573421Y-137977402D01*
X154797595Y-137977598D01*
X155004780Y-137891991D01*
X155163434Y-137733614D01*
X155249402Y-137526579D01*
X155249598Y-137302405D01*
X155163991Y-137095220D01*
X155005614Y-136936566D01*
X154798579Y-136850598D01*
X154574405Y-136850402D01*
X154367220Y-136936009D01*
X154208566Y-137094386D01*
X154122598Y-137301421D01*
X154122402Y-137525595D01*
X148767372Y-137525595D01*
X148813434Y-137479614D01*
X148899402Y-137272579D01*
X148899598Y-137048405D01*
X148813991Y-136841220D01*
X148655614Y-136682566D01*
X148448579Y-136596598D01*
X148224405Y-136596402D01*
X148076366Y-136657570D01*
X148137402Y-136510579D01*
X148137598Y-136286405D01*
X148076430Y-136138366D01*
X148223421Y-136199402D01*
X148447595Y-136199598D01*
X148654780Y-136113991D01*
X148813434Y-135955614D01*
X148899402Y-135748579D01*
X148899598Y-135524405D01*
X148813991Y-135317220D01*
X148655614Y-135158566D01*
X148582077Y-135128031D01*
X148654780Y-135097991D01*
X148813434Y-134939614D01*
X148899402Y-134732579D01*
X148899402Y-134731595D01*
X150058402Y-134731595D01*
X150144009Y-134938780D01*
X150206090Y-135000969D01*
X150144566Y-135062386D01*
X150058598Y-135269421D01*
X150058402Y-135493595D01*
X150144009Y-135700780D01*
X150302386Y-135859434D01*
X150509421Y-135945402D01*
X150733595Y-135945598D01*
X150940780Y-135859991D01*
X151099434Y-135701614D01*
X151185402Y-135494579D01*
X151185598Y-135270405D01*
X151099991Y-135063220D01*
X151037910Y-135001031D01*
X151053372Y-134985595D01*
X154122402Y-134985595D01*
X154208009Y-135192780D01*
X154366386Y-135351434D01*
X154573421Y-135437402D01*
X154797595Y-135437598D01*
X155004780Y-135351991D01*
X155163434Y-135193614D01*
X155249402Y-134986579D01*
X155249598Y-134762405D01*
X155163991Y-134555220D01*
X155005614Y-134396566D01*
X154798579Y-134310598D01*
X154574405Y-134310402D01*
X154367220Y-134396009D01*
X154208566Y-134554386D01*
X154122598Y-134761421D01*
X154122402Y-134985595D01*
X151053372Y-134985595D01*
X151099434Y-134939614D01*
X151185402Y-134732579D01*
X151185598Y-134508405D01*
X151099991Y-134301220D01*
X150941614Y-134142566D01*
X150734579Y-134056598D01*
X150510405Y-134056402D01*
X150303220Y-134142009D01*
X150144566Y-134300386D01*
X150058598Y-134507421D01*
X150058402Y-134731595D01*
X148899402Y-134731595D01*
X148899598Y-134508405D01*
X148813991Y-134301220D01*
X148655614Y-134142566D01*
X148448579Y-134056598D01*
X148224405Y-134056402D01*
X148017220Y-134142009D01*
X147858566Y-134300386D01*
X147772598Y-134507421D01*
X147772402Y-134731595D01*
X147858009Y-134938780D01*
X148016386Y-135097434D01*
X148089923Y-135127969D01*
X148017220Y-135158009D01*
X147858566Y-135316386D01*
X147772598Y-135523421D01*
X147772402Y-135747595D01*
X147833570Y-135895634D01*
X147686579Y-135834598D01*
X147462405Y-135834402D01*
X147255220Y-135920009D01*
X147096566Y-136078386D01*
X147010598Y-136285421D01*
X147010402Y-136509595D01*
X134168386Y-136509595D01*
X134070447Y-136363020D01*
X133704789Y-136118695D01*
X133273467Y-136032900D01*
X132918533Y-136032900D01*
X132487211Y-136118695D01*
X132121553Y-136363020D01*
X131877228Y-136728678D01*
X131791433Y-137160000D01*
X131569500Y-137160000D01*
X131569500Y-135747595D01*
X139136402Y-135747595D01*
X139222009Y-135954780D01*
X139380386Y-136113434D01*
X139587421Y-136199402D01*
X139811595Y-136199598D01*
X140018780Y-136113991D01*
X140177434Y-135955614D01*
X140263402Y-135748579D01*
X140263598Y-135524405D01*
X140177991Y-135317220D01*
X140100502Y-135239595D01*
X144724402Y-135239595D01*
X144810009Y-135446780D01*
X144968386Y-135605434D01*
X145175421Y-135691402D01*
X145399595Y-135691598D01*
X145547634Y-135630430D01*
X145486598Y-135777421D01*
X145486402Y-136001595D01*
X145572009Y-136208780D01*
X145730386Y-136367434D01*
X145937421Y-136453402D01*
X146161595Y-136453598D01*
X146368780Y-136367991D01*
X146527434Y-136209614D01*
X146613402Y-136002579D01*
X146613598Y-135778405D01*
X146527991Y-135571220D01*
X146369614Y-135412566D01*
X146162579Y-135326598D01*
X145938405Y-135326402D01*
X145790366Y-135387570D01*
X145851402Y-135240579D01*
X145851598Y-135016405D01*
X145765991Y-134809220D01*
X145607614Y-134650566D01*
X145400579Y-134564598D01*
X145176405Y-134564402D01*
X144969220Y-134650009D01*
X144810566Y-134808386D01*
X144724598Y-135015421D01*
X144724402Y-135239595D01*
X140100502Y-135239595D01*
X140019614Y-135158566D01*
X139812579Y-135072598D01*
X139588405Y-135072402D01*
X139381220Y-135158009D01*
X139222566Y-135316386D01*
X139136598Y-135523421D01*
X139136402Y-135747595D01*
X131569500Y-135747595D01*
X131569500Y-133715595D01*
X139136402Y-133715595D01*
X139222009Y-133922780D01*
X139380386Y-134081434D01*
X139587421Y-134167402D01*
X139811595Y-134167598D01*
X140018780Y-134081991D01*
X140177434Y-133923614D01*
X140263402Y-133716579D01*
X140263598Y-133492405D01*
X140177991Y-133285220D01*
X140019614Y-133126566D01*
X139812579Y-133040598D01*
X139588405Y-133040402D01*
X139381220Y-133126009D01*
X139222566Y-133284386D01*
X139136598Y-133491421D01*
X139136402Y-133715595D01*
X131569500Y-133715595D01*
X131569500Y-131429595D01*
X139898402Y-131429595D01*
X139984009Y-131636780D01*
X140142386Y-131795434D01*
X140349421Y-131881402D01*
X140573595Y-131881598D01*
X140780780Y-131795991D01*
X140893372Y-131683595D01*
X143200402Y-131683595D01*
X143286009Y-131890780D01*
X143444386Y-132049434D01*
X143517923Y-132079969D01*
X143445220Y-132110009D01*
X143286566Y-132268386D01*
X143200598Y-132475421D01*
X143200402Y-132699595D01*
X143286009Y-132906780D01*
X143444386Y-133065434D01*
X143517923Y-133095969D01*
X143445220Y-133126009D01*
X143286566Y-133284386D01*
X143200598Y-133491421D01*
X143200402Y-133715595D01*
X143286009Y-133922780D01*
X143444386Y-134081434D01*
X143651421Y-134167402D01*
X143875595Y-134167598D01*
X144082780Y-134081991D01*
X144241434Y-133923614D01*
X144327402Y-133716579D01*
X144327598Y-133492405D01*
X144241991Y-133285220D01*
X144083614Y-133126566D01*
X144010077Y-133096031D01*
X144082780Y-133065991D01*
X144241434Y-132907614D01*
X144327402Y-132700579D01*
X144327598Y-132476405D01*
X144314868Y-132445595D01*
X152852402Y-132445595D01*
X152938009Y-132652780D01*
X153096386Y-132811434D01*
X153303421Y-132897402D01*
X153527595Y-132897598D01*
X153734780Y-132811991D01*
X153893434Y-132653614D01*
X153979402Y-132446579D01*
X153979598Y-132222405D01*
X153893991Y-132015220D01*
X153735614Y-131856566D01*
X153528579Y-131770598D01*
X153304405Y-131770402D01*
X153097220Y-131856009D01*
X152938566Y-132014386D01*
X152852598Y-132221421D01*
X152852402Y-132445595D01*
X144314868Y-132445595D01*
X144241991Y-132269220D01*
X144083614Y-132110566D01*
X144010077Y-132080031D01*
X144082780Y-132049991D01*
X144144969Y-131987910D01*
X144206386Y-132049434D01*
X144413421Y-132135402D01*
X144637595Y-132135598D01*
X144844780Y-132049991D01*
X145003434Y-131891614D01*
X145089402Y-131684579D01*
X145089513Y-131556595D01*
X146629402Y-131556595D01*
X146715009Y-131763780D01*
X146873386Y-131922434D01*
X147080421Y-132008402D01*
X147304595Y-132008598D01*
X147511780Y-131922991D01*
X147670434Y-131764614D01*
X147756402Y-131557579D01*
X147756598Y-131333405D01*
X147670991Y-131126220D01*
X147512614Y-130967566D01*
X147305579Y-130881598D01*
X147081405Y-130881402D01*
X146874220Y-130967009D01*
X146715566Y-131125386D01*
X146629598Y-131332421D01*
X146629402Y-131556595D01*
X145089513Y-131556595D01*
X145089598Y-131460405D01*
X145003991Y-131253220D01*
X144845614Y-131094566D01*
X144638579Y-131008598D01*
X144414405Y-131008402D01*
X144207220Y-131094009D01*
X144145031Y-131156090D01*
X144083614Y-131094566D01*
X143876579Y-131008598D01*
X143652405Y-131008402D01*
X143445220Y-131094009D01*
X143286566Y-131252386D01*
X143200598Y-131459421D01*
X143200402Y-131683595D01*
X140893372Y-131683595D01*
X140939434Y-131637614D01*
X141025402Y-131430579D01*
X141025598Y-131206405D01*
X140939991Y-130999220D01*
X140781614Y-130840566D01*
X140574579Y-130754598D01*
X140350405Y-130754402D01*
X140143220Y-130840009D01*
X139984566Y-130998386D01*
X139898598Y-131205421D01*
X139898402Y-131429595D01*
X131569500Y-131429595D01*
X131569500Y-130667595D01*
X137104402Y-130667595D01*
X137190009Y-130874780D01*
X137348386Y-131033434D01*
X137555421Y-131119402D01*
X137779595Y-131119598D01*
X137986780Y-131033991D01*
X138145434Y-130875614D01*
X138231402Y-130668579D01*
X138231598Y-130444405D01*
X138145991Y-130237220D01*
X138068502Y-130159595D01*
X148026402Y-130159595D01*
X148112009Y-130366780D01*
X148270386Y-130525434D01*
X148477421Y-130611402D01*
X148701595Y-130611598D01*
X148908780Y-130525991D01*
X149021372Y-130413595D01*
X150312402Y-130413595D01*
X150398009Y-130620780D01*
X150556386Y-130779434D01*
X150763421Y-130865402D01*
X150987595Y-130865598D01*
X151194780Y-130779991D01*
X151353434Y-130621614D01*
X151383969Y-130548077D01*
X151414009Y-130620780D01*
X151572386Y-130779434D01*
X151779421Y-130865402D01*
X152003595Y-130865598D01*
X152210780Y-130779991D01*
X152369434Y-130621614D01*
X152455402Y-130414579D01*
X152455598Y-130190405D01*
X152369991Y-129983220D01*
X152211614Y-129824566D01*
X152004579Y-129738598D01*
X151780405Y-129738402D01*
X151573220Y-129824009D01*
X151414566Y-129982386D01*
X151384031Y-130055923D01*
X151353991Y-129983220D01*
X151195614Y-129824566D01*
X150988579Y-129738598D01*
X150764405Y-129738402D01*
X150557220Y-129824009D01*
X150398566Y-129982386D01*
X150312598Y-130189421D01*
X150312402Y-130413595D01*
X149021372Y-130413595D01*
X149067434Y-130367614D01*
X149153402Y-130160579D01*
X149153598Y-129936405D01*
X149067991Y-129729220D01*
X148909614Y-129570566D01*
X148702579Y-129484598D01*
X148478405Y-129484402D01*
X148271220Y-129570009D01*
X148112566Y-129728386D01*
X148026598Y-129935421D01*
X148026402Y-130159595D01*
X138068502Y-130159595D01*
X137987614Y-130078566D01*
X137780579Y-129992598D01*
X137556405Y-129992402D01*
X137349220Y-130078009D01*
X137190566Y-130236386D01*
X137104598Y-130443421D01*
X137104402Y-130667595D01*
X131569500Y-130667595D01*
X131569500Y-129397595D01*
X140660402Y-129397595D01*
X140746009Y-129604780D01*
X140904386Y-129763434D01*
X141111421Y-129849402D01*
X141335595Y-129849598D01*
X141542780Y-129763991D01*
X141655372Y-129651595D01*
X143454402Y-129651595D01*
X143540009Y-129858780D01*
X143698386Y-130017434D01*
X143905421Y-130103402D01*
X144129595Y-130103598D01*
X144336780Y-130017991D01*
X144495434Y-129859614D01*
X144581402Y-129652579D01*
X144581598Y-129428405D01*
X144495991Y-129221220D01*
X144337614Y-129062566D01*
X144130579Y-128976598D01*
X143906405Y-128976402D01*
X143699220Y-129062009D01*
X143540566Y-129220386D01*
X143454598Y-129427421D01*
X143454402Y-129651595D01*
X141655372Y-129651595D01*
X141701434Y-129605614D01*
X141787402Y-129398579D01*
X141787598Y-129174405D01*
X141701991Y-128967220D01*
X141543614Y-128808566D01*
X141336579Y-128722598D01*
X141112405Y-128722402D01*
X140905220Y-128808009D01*
X140746566Y-128966386D01*
X140660598Y-129173421D01*
X140660402Y-129397595D01*
X131569500Y-129397595D01*
X131569500Y-128381595D01*
X141676402Y-128381595D01*
X141762009Y-128588780D01*
X141920386Y-128747434D01*
X142127421Y-128833402D01*
X142351595Y-128833598D01*
X142558780Y-128747991D01*
X142671372Y-128635595D01*
X152852402Y-128635595D01*
X152938009Y-128842780D01*
X153096386Y-129001434D01*
X153303421Y-129087402D01*
X153527595Y-129087598D01*
X153734780Y-129001991D01*
X153893434Y-128843614D01*
X153979402Y-128636579D01*
X153979598Y-128412405D01*
X153893991Y-128205220D01*
X153735614Y-128046566D01*
X153528579Y-127960598D01*
X153304405Y-127960402D01*
X153097220Y-128046009D01*
X152938566Y-128204386D01*
X152852598Y-128411421D01*
X152852402Y-128635595D01*
X142671372Y-128635595D01*
X142717434Y-128589614D01*
X142803402Y-128382579D01*
X142803598Y-128158405D01*
X142717991Y-127951220D01*
X142559614Y-127792566D01*
X142352579Y-127706598D01*
X142128405Y-127706402D01*
X141921220Y-127792009D01*
X141762566Y-127950386D01*
X141676598Y-128157421D01*
X141676402Y-128381595D01*
X131569500Y-128381595D01*
X131569500Y-126603595D01*
X132786402Y-126603595D01*
X132872009Y-126810780D01*
X133030386Y-126969434D01*
X133237421Y-127055402D01*
X133461595Y-127055598D01*
X133668780Y-126969991D01*
X133827434Y-126811614D01*
X133857969Y-126738077D01*
X133888009Y-126810780D01*
X134046386Y-126969434D01*
X134253421Y-127055402D01*
X134477595Y-127055598D01*
X134684780Y-126969991D01*
X134843434Y-126811614D01*
X134873969Y-126738077D01*
X134904009Y-126810780D01*
X135062386Y-126969434D01*
X135269421Y-127055402D01*
X135493595Y-127055598D01*
X135700780Y-126969991D01*
X135813372Y-126857595D01*
X142692402Y-126857595D01*
X142778009Y-127064780D01*
X142936386Y-127223434D01*
X143143421Y-127309402D01*
X143367595Y-127309598D01*
X143574780Y-127223991D01*
X143636969Y-127161910D01*
X143698386Y-127223434D01*
X143905421Y-127309402D01*
X144129595Y-127309598D01*
X144336780Y-127223991D01*
X144495434Y-127065614D01*
X144581402Y-126858579D01*
X144581598Y-126634405D01*
X144495991Y-126427220D01*
X144337614Y-126268566D01*
X144130579Y-126182598D01*
X143906405Y-126182402D01*
X143699220Y-126268009D01*
X143637031Y-126330090D01*
X143575614Y-126268566D01*
X143368579Y-126182598D01*
X143144405Y-126182402D01*
X142937220Y-126268009D01*
X142778566Y-126426386D01*
X142692598Y-126633421D01*
X142692402Y-126857595D01*
X135813372Y-126857595D01*
X135859434Y-126811614D01*
X135945402Y-126604579D01*
X135945598Y-126380405D01*
X135859991Y-126173220D01*
X135701614Y-126014566D01*
X135494579Y-125928598D01*
X135270405Y-125928402D01*
X135063220Y-126014009D01*
X134904566Y-126172386D01*
X134874031Y-126245923D01*
X134843991Y-126173220D01*
X134685614Y-126014566D01*
X134478579Y-125928598D01*
X134254405Y-125928402D01*
X134047220Y-126014009D01*
X133888566Y-126172386D01*
X133858031Y-126245923D01*
X133827991Y-126173220D01*
X133669614Y-126014566D01*
X133462579Y-125928598D01*
X133238405Y-125928402D01*
X133031220Y-126014009D01*
X132872566Y-126172386D01*
X132786598Y-126379421D01*
X132786402Y-126603595D01*
X131569500Y-126603595D01*
X131569500Y-123761500D01*
X134649480Y-123761500D01*
X134650009Y-123762780D01*
X134808386Y-123921434D01*
X135015421Y-124007402D01*
X135239595Y-124007598D01*
X135446780Y-123921991D01*
X135605434Y-123763614D01*
X135606312Y-123761500D01*
X135665480Y-123761500D01*
X135666009Y-123762780D01*
X135824386Y-123921434D01*
X136031421Y-124007402D01*
X136255595Y-124007598D01*
X136462780Y-123921991D01*
X136621434Y-123763614D01*
X136622312Y-123761500D01*
X147349480Y-123761500D01*
X147350009Y-123762780D01*
X147508386Y-123921434D01*
X147715421Y-124007402D01*
X147939595Y-124007598D01*
X148146780Y-123921991D01*
X148305434Y-123763614D01*
X148306312Y-123761500D01*
X148873480Y-123761500D01*
X148874009Y-123762780D01*
X149032386Y-123921434D01*
X149239421Y-124007402D01*
X149463595Y-124007598D01*
X149670780Y-123921991D01*
X149829434Y-123763614D01*
X149830312Y-123761500D01*
X150397480Y-123761500D01*
X150398009Y-123762780D01*
X150556386Y-123921434D01*
X150763421Y-124007402D01*
X150987595Y-124007598D01*
X151194780Y-123921991D01*
X151353434Y-123763614D01*
X151354312Y-123761500D01*
X151921480Y-123761500D01*
X151922009Y-123762780D01*
X152080386Y-123921434D01*
X152287421Y-124007402D01*
X152511595Y-124007598D01*
X152718780Y-123921991D01*
X152877434Y-123763614D01*
X152878312Y-123761500D01*
X153445480Y-123761500D01*
X153446009Y-123762780D01*
X153604386Y-123921434D01*
X153811421Y-124007402D01*
X154035595Y-124007598D01*
X154242780Y-123921991D01*
X154401434Y-123763614D01*
X154402312Y-123761500D01*
X155167698Y-123761500D01*
X155892500Y-124486302D01*
X155892500Y-125505480D01*
X155891220Y-125506009D01*
X155732566Y-125664386D01*
X155646598Y-125871421D01*
X155646402Y-126095595D01*
X155732009Y-126302780D01*
X155890386Y-126461434D01*
X155892500Y-126462312D01*
X155892500Y-128425670D01*
X155767614Y-128300566D01*
X155560579Y-128214598D01*
X155336405Y-128214402D01*
X155129220Y-128300009D01*
X154970566Y-128458386D01*
X154884598Y-128665421D01*
X154884402Y-128889595D01*
X154970009Y-129096780D01*
X155128386Y-129255434D01*
X155335421Y-129341402D01*
X155559595Y-129341598D01*
X155766780Y-129255991D01*
X155892500Y-129130490D01*
X155892500Y-129949670D01*
X155767614Y-129824566D01*
X155560579Y-129738598D01*
X155336405Y-129738402D01*
X155129220Y-129824009D01*
X154970566Y-129982386D01*
X154884598Y-130189421D01*
X154884402Y-130413595D01*
X154970009Y-130620780D01*
X155128386Y-130779434D01*
X155335421Y-130865402D01*
X155559595Y-130865598D01*
X155766780Y-130779991D01*
X155892500Y-130654490D01*
X155892500Y-132564953D01*
X155814579Y-132532598D01*
X155590405Y-132532402D01*
X155383220Y-132618009D01*
X155224566Y-132776386D01*
X155138598Y-132983421D01*
X155138402Y-133207595D01*
X155224009Y-133414780D01*
X155382386Y-133573434D01*
X155589421Y-133659402D01*
X155813595Y-133659598D01*
X155892500Y-133626995D01*
X155892500Y-136935480D01*
X155891220Y-136936009D01*
X155732566Y-137094386D01*
X155646598Y-137301421D01*
X155646402Y-137525595D01*
X155732009Y-137732780D01*
X155890386Y-137891434D01*
X155892500Y-137892312D01*
X155892500Y-141633670D01*
X155767614Y-141508566D01*
X155560579Y-141422598D01*
X155336405Y-141422402D01*
X155129220Y-141508009D01*
X154970566Y-141666386D01*
X154884598Y-141873421D01*
X154884402Y-142097595D01*
X154970009Y-142304780D01*
X155128386Y-142463434D01*
X155335421Y-142549402D01*
X155559595Y-142549598D01*
X155766780Y-142463991D01*
X155892500Y-142338490D01*
X155892500Y-145542000D01*
X155897503Y-145566705D01*
X155911099Y-145586901D01*
X157943099Y-147618901D01*
X157964105Y-147632833D01*
X157988000Y-147637500D01*
X159956500Y-147637500D01*
X159956500Y-148311751D01*
X159689322Y-148133228D01*
X159258000Y-148047433D01*
X158826678Y-148133228D01*
X158461020Y-148377553D01*
X158216695Y-148743211D01*
X158130900Y-149174533D01*
X158130900Y-149529467D01*
X158216695Y-149960789D01*
X158461020Y-150326447D01*
X158826678Y-150570772D01*
X159258000Y-150656567D01*
X159689322Y-150570772D01*
X159956500Y-150392249D01*
X159956500Y-151066500D01*
X128147967Y-151066500D01*
X128057253Y-151048456D01*
X127015574Y-150352429D01*
X126319545Y-149310748D01*
X126301500Y-149220030D01*
X126301500Y-148451047D01*
X127422177Y-148451047D01*
X127705281Y-149136209D01*
X128229034Y-149660877D01*
X128913701Y-149945176D01*
X129655047Y-149945823D01*
X130340209Y-149662719D01*
X130864877Y-149138966D01*
X131135016Y-148488400D01*
X133995738Y-148488400D01*
X133995738Y-150215600D01*
X134014112Y-150313247D01*
X134071821Y-150402930D01*
X134159875Y-150463095D01*
X134264400Y-150484262D01*
X135991600Y-150484262D01*
X136089247Y-150465888D01*
X136178930Y-150408179D01*
X136239095Y-150320125D01*
X136260262Y-150215600D01*
X136260262Y-149329919D01*
X136540900Y-149329919D01*
X136540900Y-149374081D01*
X136626695Y-149805403D01*
X136871020Y-150171061D01*
X137236678Y-150415386D01*
X137668000Y-150501181D01*
X138099322Y-150415386D01*
X138464980Y-150171061D01*
X138709305Y-149805403D01*
X138795100Y-149374081D01*
X138795100Y-149329919D01*
X139080900Y-149329919D01*
X139080900Y-149374081D01*
X139166695Y-149805403D01*
X139411020Y-150171061D01*
X139776678Y-150415386D01*
X140208000Y-150501181D01*
X140639322Y-150415386D01*
X141004980Y-150171061D01*
X141249305Y-149805403D01*
X141335100Y-149374081D01*
X141335100Y-149329919D01*
X141620900Y-149329919D01*
X141620900Y-149374081D01*
X141706695Y-149805403D01*
X141951020Y-150171061D01*
X142316678Y-150415386D01*
X142748000Y-150501181D01*
X143179322Y-150415386D01*
X143544980Y-150171061D01*
X143789305Y-149805403D01*
X143875100Y-149374081D01*
X143875100Y-149329919D01*
X144160900Y-149329919D01*
X144160900Y-149374081D01*
X144246695Y-149805403D01*
X144491020Y-150171061D01*
X144856678Y-150415386D01*
X145288000Y-150501181D01*
X145719322Y-150415386D01*
X146084980Y-150171061D01*
X146329305Y-149805403D01*
X146368496Y-149608375D01*
X147970900Y-149608375D01*
X147970900Y-150420413D01*
X148011015Y-150517260D01*
X148085139Y-150591384D01*
X148181986Y-150631500D01*
X148841625Y-150631500D01*
X148907500Y-150565625D01*
X148907500Y-149542500D01*
X149288500Y-149542500D01*
X149288500Y-150565625D01*
X149354375Y-150631500D01*
X150014014Y-150631500D01*
X150110861Y-150591384D01*
X150184985Y-150517260D01*
X150225100Y-150420413D01*
X150225100Y-149608375D01*
X150159225Y-149542500D01*
X149288500Y-149542500D01*
X148907500Y-149542500D01*
X148036775Y-149542500D01*
X147970900Y-149608375D01*
X146368496Y-149608375D01*
X146415100Y-149374081D01*
X146415100Y-149329919D01*
X146384192Y-149174533D01*
X150510900Y-149174533D01*
X150510900Y-149529467D01*
X150596695Y-149960789D01*
X150841020Y-150326447D01*
X151206678Y-150570772D01*
X151638000Y-150656567D01*
X152069322Y-150570772D01*
X152434980Y-150326447D01*
X152679305Y-149960789D01*
X152765100Y-149529467D01*
X152765100Y-149174533D01*
X153050900Y-149174533D01*
X153050900Y-149529467D01*
X153136695Y-149960789D01*
X153381020Y-150326447D01*
X153746678Y-150570772D01*
X154178000Y-150656567D01*
X154609322Y-150570772D01*
X154974980Y-150326447D01*
X155219305Y-149960789D01*
X155305100Y-149529467D01*
X155305100Y-149174533D01*
X155590900Y-149174533D01*
X155590900Y-149529467D01*
X155676695Y-149960789D01*
X155921020Y-150326447D01*
X156286678Y-150570772D01*
X156718000Y-150656567D01*
X157149322Y-150570772D01*
X157514980Y-150326447D01*
X157759305Y-149960789D01*
X157845100Y-149529467D01*
X157845100Y-149174533D01*
X157759305Y-148743211D01*
X157514980Y-148377553D01*
X157149322Y-148133228D01*
X156718000Y-148047433D01*
X156286678Y-148133228D01*
X155921020Y-148377553D01*
X155676695Y-148743211D01*
X155590900Y-149174533D01*
X155305100Y-149174533D01*
X155219305Y-148743211D01*
X154974980Y-148377553D01*
X154609322Y-148133228D01*
X154178000Y-148047433D01*
X153746678Y-148133228D01*
X153381020Y-148377553D01*
X153136695Y-148743211D01*
X153050900Y-149174533D01*
X152765100Y-149174533D01*
X152679305Y-148743211D01*
X152434980Y-148377553D01*
X152069322Y-148133228D01*
X151638000Y-148047433D01*
X151206678Y-148133228D01*
X150841020Y-148377553D01*
X150596695Y-148743211D01*
X150510900Y-149174533D01*
X146384192Y-149174533D01*
X146329305Y-148898597D01*
X146084980Y-148532939D01*
X145719322Y-148288614D01*
X145694050Y-148283587D01*
X147970900Y-148283587D01*
X147970900Y-149095625D01*
X148036775Y-149161500D01*
X148907500Y-149161500D01*
X148907500Y-148138375D01*
X149288500Y-148138375D01*
X149288500Y-149161500D01*
X150159225Y-149161500D01*
X150225100Y-149095625D01*
X150225100Y-148283587D01*
X150184985Y-148186740D01*
X150110861Y-148112616D01*
X150014014Y-148072500D01*
X149354375Y-148072500D01*
X149288500Y-148138375D01*
X148907500Y-148138375D01*
X148841625Y-148072500D01*
X148181986Y-148072500D01*
X148085139Y-148112616D01*
X148011015Y-148186740D01*
X147970900Y-148283587D01*
X145694050Y-148283587D01*
X145288000Y-148202819D01*
X144856678Y-148288614D01*
X144491020Y-148532939D01*
X144246695Y-148898597D01*
X144160900Y-149329919D01*
X143875100Y-149329919D01*
X143789305Y-148898597D01*
X143544980Y-148532939D01*
X143179322Y-148288614D01*
X142748000Y-148202819D01*
X142316678Y-148288614D01*
X141951020Y-148532939D01*
X141706695Y-148898597D01*
X141620900Y-149329919D01*
X141335100Y-149329919D01*
X141249305Y-148898597D01*
X141004980Y-148532939D01*
X140639322Y-148288614D01*
X140208000Y-148202819D01*
X139776678Y-148288614D01*
X139411020Y-148532939D01*
X139166695Y-148898597D01*
X139080900Y-149329919D01*
X138795100Y-149329919D01*
X138709305Y-148898597D01*
X138464980Y-148532939D01*
X138099322Y-148288614D01*
X137668000Y-148202819D01*
X137236678Y-148288614D01*
X136871020Y-148532939D01*
X136626695Y-148898597D01*
X136540900Y-149329919D01*
X136260262Y-149329919D01*
X136260262Y-148488400D01*
X136241888Y-148390753D01*
X136184179Y-148301070D01*
X136096125Y-148240905D01*
X135991600Y-148219738D01*
X134264400Y-148219738D01*
X134166753Y-148238112D01*
X134077070Y-148295821D01*
X134016905Y-148383875D01*
X133995738Y-148488400D01*
X131135016Y-148488400D01*
X131149176Y-148454299D01*
X131149823Y-147712953D01*
X130866719Y-147027791D01*
X130342966Y-146503123D01*
X129658299Y-146218824D01*
X128916953Y-146218177D01*
X128231791Y-146501281D01*
X127707123Y-147025034D01*
X127422824Y-147709701D01*
X127422177Y-148451047D01*
X126301500Y-148451047D01*
X126301500Y-125841595D01*
X127198402Y-125841595D01*
X127284009Y-126048780D01*
X127442386Y-126207434D01*
X127649421Y-126293402D01*
X127873595Y-126293598D01*
X128080780Y-126207991D01*
X128239434Y-126049614D01*
X128325402Y-125842579D01*
X128325598Y-125618405D01*
X128239991Y-125411220D01*
X128081614Y-125252566D01*
X127874579Y-125166598D01*
X127650405Y-125166402D01*
X127443220Y-125252009D01*
X127284566Y-125410386D01*
X127198598Y-125617421D01*
X127198402Y-125841595D01*
X126301500Y-125841595D01*
X126301500Y-123761500D01*
X129542500Y-123761500D01*
X129542500Y-133606500D01*
X129542500Y-133606500D01*
G37*
X129542500Y-133606500D02*
X128584005Y-133606500D01*
X128584000Y-133606499D01*
X128260499Y-133670848D01*
X128196150Y-133683648D01*
X127937459Y-133856500D01*
X127867347Y-133903347D01*
X127807347Y-133963347D01*
X127587648Y-134292151D01*
X127510500Y-134680000D01*
X127587648Y-135067849D01*
X127807347Y-135396653D01*
X127974555Y-135508378D01*
X127792387Y-135690228D01*
X127660650Y-136007486D01*
X127660350Y-136351007D01*
X127791533Y-136668494D01*
X128034228Y-136911613D01*
X128078225Y-136929882D01*
X128035506Y-136947533D01*
X127792387Y-137190228D01*
X127660650Y-137507486D01*
X127660350Y-137851007D01*
X127791533Y-138168494D01*
X128034228Y-138411613D01*
X128078225Y-138429882D01*
X128035506Y-138447533D01*
X127792387Y-138690228D01*
X127660650Y-139007486D01*
X127660350Y-139351007D01*
X127791533Y-139668494D01*
X128034228Y-139911613D01*
X128078225Y-139929882D01*
X128035506Y-139947533D01*
X127792387Y-140190228D01*
X127660650Y-140507486D01*
X127660350Y-140851007D01*
X127791533Y-141168494D01*
X128034228Y-141411613D01*
X128078225Y-141429882D01*
X128035506Y-141447533D01*
X127792387Y-141690228D01*
X127660650Y-142007486D01*
X127660350Y-142351007D01*
X127791533Y-142668494D01*
X128034228Y-142911613D01*
X128351486Y-143043350D01*
X128695007Y-143043650D01*
X129012494Y-142912467D01*
X129255613Y-142669772D01*
X129387350Y-142352514D01*
X129387650Y-142008993D01*
X129256467Y-141691506D01*
X129013772Y-141448387D01*
X128969775Y-141430118D01*
X129012494Y-141412467D01*
X129255613Y-141169772D01*
X129387350Y-140852514D01*
X129387650Y-140508993D01*
X129256467Y-140191506D01*
X129013772Y-139948387D01*
X128969775Y-139930118D01*
X129012494Y-139912467D01*
X129255613Y-139669772D01*
X129387350Y-139352514D01*
X129387650Y-139008993D01*
X129256467Y-138691506D01*
X129013772Y-138448387D01*
X128969775Y-138430118D01*
X129012494Y-138412467D01*
X129255613Y-138169772D01*
X129387350Y-137852514D01*
X129387650Y-137508993D01*
X129256467Y-137191506D01*
X129013772Y-136948387D01*
X128969775Y-136930118D01*
X129012494Y-136912467D01*
X129255613Y-136669772D01*
X129387350Y-136352514D01*
X129387650Y-136008993D01*
X129256467Y-135691506D01*
X129198562Y-135633500D01*
X129542500Y-135633500D01*
X129542500Y-144272000D01*
X129619648Y-144659850D01*
X129816428Y-144954352D01*
X129839347Y-144988653D01*
X132379345Y-147528650D01*
X132379347Y-147528653D01*
X132708150Y-147748352D01*
X133096000Y-147825500D01*
X134622018Y-147825500D01*
X134696678Y-147875386D01*
X135128000Y-147961181D01*
X135559322Y-147875386D01*
X135924980Y-147631061D01*
X136169305Y-147265403D01*
X136187498Y-147173938D01*
X136600574Y-147173938D01*
X136820335Y-147554873D01*
X137169145Y-147822713D01*
X137306065Y-147879406D01*
X137477500Y-147855987D01*
X137477500Y-147002500D01*
X137858500Y-147002500D01*
X137858500Y-147855987D01*
X138029935Y-147879406D01*
X138166855Y-147822713D01*
X138515665Y-147554873D01*
X138735426Y-147173938D01*
X138713029Y-147002500D01*
X137858500Y-147002500D01*
X137477500Y-147002500D01*
X136622971Y-147002500D01*
X136600574Y-147173938D01*
X136187498Y-147173938D01*
X136255100Y-146834081D01*
X136255100Y-146789919D01*
X139080900Y-146789919D01*
X139080900Y-146834081D01*
X139166695Y-147265403D01*
X139411020Y-147631061D01*
X139776678Y-147875386D01*
X140208000Y-147961181D01*
X140639322Y-147875386D01*
X141004980Y-147631061D01*
X141249305Y-147265403D01*
X141335100Y-146834081D01*
X141335100Y-146789919D01*
X141620900Y-146789919D01*
X141620900Y-146834081D01*
X141706695Y-147265403D01*
X141951020Y-147631061D01*
X142316678Y-147875386D01*
X142748000Y-147961181D01*
X143179322Y-147875386D01*
X143544980Y-147631061D01*
X143789305Y-147265403D01*
X143875100Y-146834081D01*
X143875100Y-146789919D01*
X144160900Y-146789919D01*
X144160900Y-146834081D01*
X144246695Y-147265403D01*
X144491020Y-147631061D01*
X144856678Y-147875386D01*
X145288000Y-147961181D01*
X145396520Y-147939595D01*
X152598402Y-147939595D01*
X152684009Y-148146780D01*
X152842386Y-148305434D01*
X153049421Y-148391402D01*
X153273595Y-148391598D01*
X153480780Y-148305991D01*
X153639434Y-148147614D01*
X153725402Y-147940579D01*
X153725598Y-147716405D01*
X153639991Y-147509220D01*
X153481614Y-147350566D01*
X153274579Y-147264598D01*
X153050405Y-147264402D01*
X152843220Y-147350009D01*
X152684566Y-147508386D01*
X152598598Y-147715421D01*
X152598402Y-147939595D01*
X145396520Y-147939595D01*
X145719322Y-147875386D01*
X146084980Y-147631061D01*
X146329305Y-147265403D01*
X146397294Y-146923595D01*
X151582402Y-146923595D01*
X151668009Y-147130780D01*
X151826386Y-147289434D01*
X152033421Y-147375402D01*
X152257595Y-147375598D01*
X152464780Y-147289991D01*
X152623434Y-147131614D01*
X152709402Y-146924579D01*
X152709402Y-146923595D01*
X155646402Y-146923595D01*
X155732009Y-147130780D01*
X155890386Y-147289434D01*
X156097421Y-147375402D01*
X156321595Y-147375598D01*
X156528780Y-147289991D01*
X156687434Y-147131614D01*
X156773402Y-146924579D01*
X156773598Y-146700405D01*
X156687991Y-146493220D01*
X156529614Y-146334566D01*
X156322579Y-146248598D01*
X156098405Y-146248402D01*
X155891220Y-146334009D01*
X155732566Y-146492386D01*
X155646598Y-146699421D01*
X155646402Y-146923595D01*
X152709402Y-146923595D01*
X152709598Y-146700405D01*
X152623991Y-146493220D01*
X152465614Y-146334566D01*
X152258579Y-146248598D01*
X152034405Y-146248402D01*
X151827220Y-146334009D01*
X151668566Y-146492386D01*
X151582598Y-146699421D01*
X151582402Y-146923595D01*
X146397294Y-146923595D01*
X146415100Y-146834081D01*
X146415100Y-146789919D01*
X146329305Y-146358597D01*
X146084980Y-145992939D01*
X145957254Y-145907595D01*
X150566402Y-145907595D01*
X150652009Y-146114780D01*
X150810386Y-146273434D01*
X151017421Y-146359402D01*
X151241595Y-146359598D01*
X151448780Y-146273991D01*
X151607434Y-146115614D01*
X151693402Y-145908579D01*
X151693402Y-145907595D01*
X154630402Y-145907595D01*
X154716009Y-146114780D01*
X154874386Y-146273434D01*
X155081421Y-146359402D01*
X155305595Y-146359598D01*
X155512780Y-146273991D01*
X155671434Y-146115614D01*
X155757402Y-145908579D01*
X155757598Y-145684405D01*
X155671991Y-145477220D01*
X155513614Y-145318566D01*
X155306579Y-145232598D01*
X155082405Y-145232402D01*
X154875220Y-145318009D01*
X154716566Y-145476386D01*
X154630598Y-145683421D01*
X154630402Y-145907595D01*
X151693402Y-145907595D01*
X151693598Y-145684405D01*
X151607991Y-145477220D01*
X151449614Y-145318566D01*
X151242579Y-145232598D01*
X151018405Y-145232402D01*
X150811220Y-145318009D01*
X150652566Y-145476386D01*
X150566598Y-145683421D01*
X150566402Y-145907595D01*
X145957254Y-145907595D01*
X145719322Y-145748614D01*
X145288000Y-145662819D01*
X144856678Y-145748614D01*
X144491020Y-145992939D01*
X144246695Y-146358597D01*
X144160900Y-146789919D01*
X143875100Y-146789919D01*
X143789305Y-146358597D01*
X143544980Y-145992939D01*
X143179322Y-145748614D01*
X142748000Y-145662819D01*
X142316678Y-145748614D01*
X141951020Y-145992939D01*
X141706695Y-146358597D01*
X141620900Y-146789919D01*
X141335100Y-146789919D01*
X141249305Y-146358597D01*
X141004980Y-145992939D01*
X140639322Y-145748614D01*
X140208000Y-145662819D01*
X139776678Y-145748614D01*
X139411020Y-145992939D01*
X139166695Y-146358597D01*
X139080900Y-146789919D01*
X136255100Y-146789919D01*
X136187499Y-146450062D01*
X136600574Y-146450062D01*
X136622971Y-146621500D01*
X137477500Y-146621500D01*
X137477500Y-145768013D01*
X137858500Y-145768013D01*
X137858500Y-146621500D01*
X138713029Y-146621500D01*
X138735426Y-146450062D01*
X138515665Y-146069127D01*
X138166855Y-145801287D01*
X138029935Y-145744594D01*
X137858500Y-145768013D01*
X137477500Y-145768013D01*
X137306065Y-145744594D01*
X137169145Y-145801287D01*
X136820335Y-146069127D01*
X136600574Y-146450062D01*
X136187499Y-146450062D01*
X136169305Y-146358597D01*
X135924980Y-145992939D01*
X135559322Y-145748614D01*
X135128000Y-145662819D01*
X134696678Y-145748614D01*
X134622018Y-145798500D01*
X133515805Y-145798500D01*
X132608901Y-144891595D01*
X149550402Y-144891595D01*
X149636009Y-145098780D01*
X149794386Y-145257434D01*
X150001421Y-145343402D01*
X150225595Y-145343598D01*
X150432780Y-145257991D01*
X150591434Y-145099614D01*
X150677402Y-144892579D01*
X150677598Y-144668405D01*
X150591991Y-144461220D01*
X150433614Y-144302566D01*
X150226579Y-144216598D01*
X150002405Y-144216402D01*
X149795220Y-144302009D01*
X149636566Y-144460386D01*
X149550598Y-144667421D01*
X149550402Y-144891595D01*
X132608901Y-144891595D01*
X131592901Y-143875595D01*
X135072402Y-143875595D01*
X135158009Y-144082780D01*
X135316386Y-144241434D01*
X135523421Y-144327402D01*
X135747595Y-144327598D01*
X135954780Y-144241991D01*
X136113434Y-144083614D01*
X136199402Y-143876579D01*
X136199402Y-143875595D01*
X138628402Y-143875595D01*
X138714009Y-144082780D01*
X138872386Y-144241434D01*
X139079421Y-144327402D01*
X139303595Y-144327598D01*
X139510780Y-144241991D01*
X139623372Y-144129595D01*
X141168402Y-144129595D01*
X141254009Y-144336780D01*
X141412386Y-144495434D01*
X141619421Y-144581402D01*
X141843595Y-144581598D01*
X142050780Y-144495991D01*
X142209434Y-144337614D01*
X142295402Y-144130579D01*
X142295598Y-143906405D01*
X142282868Y-143875595D01*
X147010402Y-143875595D01*
X147096009Y-144082780D01*
X147254386Y-144241434D01*
X147461421Y-144327402D01*
X147685595Y-144327598D01*
X147892780Y-144241991D01*
X148051434Y-144083614D01*
X148137402Y-143876579D01*
X148137402Y-143875595D01*
X148534402Y-143875595D01*
X148620009Y-144082780D01*
X148778386Y-144241434D01*
X148985421Y-144327402D01*
X149209595Y-144327598D01*
X149416780Y-144241991D01*
X149575434Y-144083614D01*
X149661402Y-143876579D01*
X149661598Y-143652405D01*
X149575991Y-143445220D01*
X149417614Y-143286566D01*
X149210579Y-143200598D01*
X148986405Y-143200402D01*
X148779220Y-143286009D01*
X148620566Y-143444386D01*
X148534598Y-143651421D01*
X148534402Y-143875595D01*
X148137402Y-143875595D01*
X148137598Y-143652405D01*
X148051991Y-143445220D01*
X147893614Y-143286566D01*
X147686579Y-143200598D01*
X147462405Y-143200402D01*
X147255220Y-143286009D01*
X147096566Y-143444386D01*
X147010598Y-143651421D01*
X147010402Y-143875595D01*
X142282868Y-143875595D01*
X142209991Y-143699220D01*
X142051614Y-143540566D01*
X141844579Y-143454598D01*
X141620405Y-143454402D01*
X141413220Y-143540009D01*
X141254566Y-143698386D01*
X141168598Y-143905421D01*
X141168402Y-144129595D01*
X139623372Y-144129595D01*
X139669434Y-144083614D01*
X139755402Y-143876579D01*
X139755598Y-143652405D01*
X139669991Y-143445220D01*
X139511614Y-143286566D01*
X139304579Y-143200598D01*
X139080405Y-143200402D01*
X138873220Y-143286009D01*
X138714566Y-143444386D01*
X138628598Y-143651421D01*
X138628402Y-143875595D01*
X136199402Y-143875595D01*
X136199598Y-143652405D01*
X136113991Y-143445220D01*
X135955614Y-143286566D01*
X135748579Y-143200598D01*
X135524405Y-143200402D01*
X135317220Y-143286009D01*
X135158566Y-143444386D01*
X135072598Y-143651421D01*
X135072402Y-143875595D01*
X131592901Y-143875595D01*
X131569500Y-143852194D01*
X131569500Y-141376400D01*
X131811338Y-141376400D01*
X131811338Y-143103600D01*
X131829712Y-143201247D01*
X131887421Y-143290930D01*
X131975475Y-143351095D01*
X132080000Y-143372262D01*
X134112000Y-143372262D01*
X134209647Y-143353888D01*
X134299330Y-143296179D01*
X134359495Y-143208125D01*
X134378637Y-143113595D01*
X140406402Y-143113595D01*
X140492009Y-143320780D01*
X140650386Y-143479434D01*
X140857421Y-143565402D01*
X141081595Y-143565598D01*
X141288780Y-143479991D01*
X141447434Y-143321614D01*
X141533402Y-143114579D01*
X141533598Y-142890405D01*
X141447991Y-142683220D01*
X141289614Y-142524566D01*
X141082579Y-142438598D01*
X140858405Y-142438402D01*
X140651220Y-142524009D01*
X140492566Y-142682386D01*
X140406598Y-142889421D01*
X140406402Y-143113595D01*
X134378637Y-143113595D01*
X134380662Y-143103600D01*
X134380662Y-141376400D01*
X134362288Y-141278753D01*
X134304579Y-141189070D01*
X134216525Y-141128905D01*
X134112000Y-141107738D01*
X132080000Y-141107738D01*
X131982353Y-141126112D01*
X131892670Y-141183821D01*
X131832505Y-141271875D01*
X131811338Y-141376400D01*
X131569500Y-141376400D01*
X131569500Y-140827595D01*
X139390402Y-140827595D01*
X139476009Y-141034780D01*
X139634386Y-141193434D01*
X139841421Y-141279402D01*
X140065595Y-141279598D01*
X140272780Y-141193991D01*
X140385372Y-141081595D01*
X146502402Y-141081595D01*
X146588009Y-141288780D01*
X146746386Y-141447434D01*
X146953421Y-141533402D01*
X147177595Y-141533598D01*
X147384780Y-141447991D01*
X147543434Y-141289614D01*
X147629402Y-141082579D01*
X147629598Y-140858405D01*
X147616868Y-140827595D01*
X150566402Y-140827595D01*
X150652009Y-141034780D01*
X150810386Y-141193434D01*
X151017421Y-141279402D01*
X151241595Y-141279598D01*
X151448780Y-141193991D01*
X151607434Y-141035614D01*
X151693402Y-140828579D01*
X151693598Y-140604405D01*
X151607991Y-140397220D01*
X151449614Y-140238566D01*
X151242579Y-140152598D01*
X151018405Y-140152402D01*
X150811220Y-140238009D01*
X150652566Y-140396386D01*
X150566598Y-140603421D01*
X150566402Y-140827595D01*
X147616868Y-140827595D01*
X147543991Y-140651220D01*
X147385614Y-140492566D01*
X147178579Y-140406598D01*
X146954405Y-140406402D01*
X146747220Y-140492009D01*
X146588566Y-140650386D01*
X146502598Y-140857421D01*
X146502402Y-141081595D01*
X140385372Y-141081595D01*
X140431434Y-141035614D01*
X140517402Y-140828579D01*
X140517598Y-140604405D01*
X140456430Y-140456366D01*
X140603421Y-140517402D01*
X140827595Y-140517598D01*
X141034780Y-140431991D01*
X141193434Y-140273614D01*
X141279402Y-140066579D01*
X141279402Y-140065595D01*
X145994402Y-140065595D01*
X146080009Y-140272780D01*
X146238386Y-140431434D01*
X146445421Y-140517402D01*
X146669595Y-140517598D01*
X146876780Y-140431991D01*
X147035434Y-140273614D01*
X147121402Y-140066579D01*
X147121402Y-140065595D01*
X154122402Y-140065595D01*
X154208009Y-140272780D01*
X154366386Y-140431434D01*
X154573421Y-140517402D01*
X154797595Y-140517598D01*
X155004780Y-140431991D01*
X155163434Y-140273614D01*
X155249402Y-140066579D01*
X155249598Y-139842405D01*
X155163991Y-139635220D01*
X155005614Y-139476566D01*
X154798579Y-139390598D01*
X154574405Y-139390402D01*
X154367220Y-139476009D01*
X154208566Y-139634386D01*
X154122598Y-139841421D01*
X154122402Y-140065595D01*
X147121402Y-140065595D01*
X147121598Y-139842405D01*
X147035991Y-139635220D01*
X146877614Y-139476566D01*
X146670579Y-139390598D01*
X146446405Y-139390402D01*
X146239220Y-139476009D01*
X146080566Y-139634386D01*
X145994598Y-139841421D01*
X145994402Y-140065595D01*
X141279402Y-140065595D01*
X141279483Y-139973718D01*
X141365421Y-140009402D01*
X141589595Y-140009598D01*
X141796780Y-139923991D01*
X141955434Y-139765614D01*
X142041402Y-139558579D01*
X142041598Y-139334405D01*
X141955991Y-139127220D01*
X141797614Y-138968566D01*
X141590579Y-138882598D01*
X141366405Y-138882402D01*
X141159220Y-138968009D01*
X141000566Y-139126386D01*
X140914598Y-139333421D01*
X140914517Y-139426282D01*
X140828579Y-139390598D01*
X140604405Y-139390402D01*
X140397220Y-139476009D01*
X140238566Y-139634386D01*
X140152598Y-139841421D01*
X140152402Y-140065595D01*
X140213570Y-140213634D01*
X140066579Y-140152598D01*
X139842405Y-140152402D01*
X139635220Y-140238009D01*
X139476566Y-140396386D01*
X139390598Y-140603421D01*
X139390402Y-140827595D01*
X131569500Y-140827595D01*
X131569500Y-140713500D01*
X132445598Y-140713500D01*
X132487211Y-140741305D01*
X132918533Y-140827100D01*
X133273467Y-140827100D01*
X133704789Y-140741305D01*
X134070447Y-140496980D01*
X134314772Y-140131322D01*
X134378369Y-139811595D01*
X138628402Y-139811595D01*
X138714009Y-140018780D01*
X138872386Y-140177434D01*
X139079421Y-140263402D01*
X139303595Y-140263598D01*
X139510780Y-140177991D01*
X139669434Y-140019614D01*
X139755402Y-139812579D01*
X139755598Y-139588405D01*
X139669991Y-139381220D01*
X139511614Y-139222566D01*
X139304579Y-139136598D01*
X139080405Y-139136402D01*
X138873220Y-139222009D01*
X138714566Y-139380386D01*
X138628598Y-139587421D01*
X138628402Y-139811595D01*
X134378369Y-139811595D01*
X134400567Y-139700000D01*
X134314772Y-139268678D01*
X134070447Y-138903020D01*
X133704789Y-138658695D01*
X133273467Y-138572900D01*
X132918533Y-138572900D01*
X132487211Y-138658695D01*
X132445598Y-138686500D01*
X131569500Y-138686500D01*
X131569500Y-137160000D01*
X131791433Y-137160000D01*
X131877228Y-137591322D01*
X132121553Y-137956980D01*
X132487211Y-138201305D01*
X132918533Y-138287100D01*
X133273467Y-138287100D01*
X133704789Y-138201305D01*
X134070447Y-137956980D01*
X134188971Y-137779595D01*
X141676402Y-137779595D01*
X141762009Y-137986780D01*
X141920386Y-138145434D01*
X142127421Y-138231402D01*
X142351595Y-138231598D01*
X142558780Y-138145991D01*
X142717434Y-137987614D01*
X142803402Y-137780579D01*
X142803598Y-137556405D01*
X142717991Y-137349220D01*
X142640502Y-137271595D01*
X143200402Y-137271595D01*
X143286009Y-137478780D01*
X143444386Y-137637434D01*
X143651421Y-137723402D01*
X143875595Y-137723598D01*
X144019625Y-137664086D01*
X144048009Y-137732780D01*
X144206386Y-137891434D01*
X144413421Y-137977402D01*
X144637595Y-137977598D01*
X144844780Y-137891991D01*
X145003434Y-137733614D01*
X145089402Y-137526579D01*
X145089598Y-137302405D01*
X145003991Y-137095220D01*
X144845614Y-136936566D01*
X144638579Y-136850598D01*
X144414405Y-136850402D01*
X144270375Y-136909914D01*
X144241991Y-136841220D01*
X144083614Y-136682566D01*
X143876579Y-136596598D01*
X143652405Y-136596402D01*
X143445220Y-136682009D01*
X143286566Y-136840386D01*
X143200598Y-137047421D01*
X143200402Y-137271595D01*
X142640502Y-137271595D01*
X142559614Y-137190566D01*
X142352579Y-137104598D01*
X142128405Y-137104402D01*
X141921220Y-137190009D01*
X141762566Y-137348386D01*
X141676598Y-137555421D01*
X141676402Y-137779595D01*
X134188971Y-137779595D01*
X134314772Y-137591322D01*
X134400567Y-137160000D01*
X134314772Y-136728678D01*
X134168386Y-136509595D01*
X147010402Y-136509595D01*
X147096009Y-136716780D01*
X147254386Y-136875434D01*
X147461421Y-136961402D01*
X147685595Y-136961598D01*
X147833634Y-136900430D01*
X147772598Y-137047421D01*
X147772402Y-137271595D01*
X147858009Y-137478780D01*
X148016386Y-137637434D01*
X148223421Y-137723402D01*
X148447595Y-137723598D01*
X148654780Y-137637991D01*
X148767372Y-137525595D01*
X154122402Y-137525595D01*
X154208009Y-137732780D01*
X154366386Y-137891434D01*
X154573421Y-137977402D01*
X154797595Y-137977598D01*
X155004780Y-137891991D01*
X155163434Y-137733614D01*
X155249402Y-137526579D01*
X155249598Y-137302405D01*
X155163991Y-137095220D01*
X155005614Y-136936566D01*
X154798579Y-136850598D01*
X154574405Y-136850402D01*
X154367220Y-136936009D01*
X154208566Y-137094386D01*
X154122598Y-137301421D01*
X154122402Y-137525595D01*
X148767372Y-137525595D01*
X148813434Y-137479614D01*
X148899402Y-137272579D01*
X148899598Y-137048405D01*
X148813991Y-136841220D01*
X148655614Y-136682566D01*
X148448579Y-136596598D01*
X148224405Y-136596402D01*
X148076366Y-136657570D01*
X148137402Y-136510579D01*
X148137598Y-136286405D01*
X148076430Y-136138366D01*
X148223421Y-136199402D01*
X148447595Y-136199598D01*
X148654780Y-136113991D01*
X148813434Y-135955614D01*
X148899402Y-135748579D01*
X148899598Y-135524405D01*
X148813991Y-135317220D01*
X148655614Y-135158566D01*
X148582077Y-135128031D01*
X148654780Y-135097991D01*
X148813434Y-134939614D01*
X148899402Y-134732579D01*
X148899402Y-134731595D01*
X150058402Y-134731595D01*
X150144009Y-134938780D01*
X150206090Y-135000969D01*
X150144566Y-135062386D01*
X150058598Y-135269421D01*
X150058402Y-135493595D01*
X150144009Y-135700780D01*
X150302386Y-135859434D01*
X150509421Y-135945402D01*
X150733595Y-135945598D01*
X150940780Y-135859991D01*
X151099434Y-135701614D01*
X151185402Y-135494579D01*
X151185598Y-135270405D01*
X151099991Y-135063220D01*
X151037910Y-135001031D01*
X151053372Y-134985595D01*
X154122402Y-134985595D01*
X154208009Y-135192780D01*
X154366386Y-135351434D01*
X154573421Y-135437402D01*
X154797595Y-135437598D01*
X155004780Y-135351991D01*
X155163434Y-135193614D01*
X155249402Y-134986579D01*
X155249598Y-134762405D01*
X155163991Y-134555220D01*
X155005614Y-134396566D01*
X154798579Y-134310598D01*
X154574405Y-134310402D01*
X154367220Y-134396009D01*
X154208566Y-134554386D01*
X154122598Y-134761421D01*
X154122402Y-134985595D01*
X151053372Y-134985595D01*
X151099434Y-134939614D01*
X151185402Y-134732579D01*
X151185598Y-134508405D01*
X151099991Y-134301220D01*
X150941614Y-134142566D01*
X150734579Y-134056598D01*
X150510405Y-134056402D01*
X150303220Y-134142009D01*
X150144566Y-134300386D01*
X150058598Y-134507421D01*
X150058402Y-134731595D01*
X148899402Y-134731595D01*
X148899598Y-134508405D01*
X148813991Y-134301220D01*
X148655614Y-134142566D01*
X148448579Y-134056598D01*
X148224405Y-134056402D01*
X148017220Y-134142009D01*
X147858566Y-134300386D01*
X147772598Y-134507421D01*
X147772402Y-134731595D01*
X147858009Y-134938780D01*
X148016386Y-135097434D01*
X148089923Y-135127969D01*
X148017220Y-135158009D01*
X147858566Y-135316386D01*
X147772598Y-135523421D01*
X147772402Y-135747595D01*
X147833570Y-135895634D01*
X147686579Y-135834598D01*
X147462405Y-135834402D01*
X147255220Y-135920009D01*
X147096566Y-136078386D01*
X147010598Y-136285421D01*
X147010402Y-136509595D01*
X134168386Y-136509595D01*
X134070447Y-136363020D01*
X133704789Y-136118695D01*
X133273467Y-136032900D01*
X132918533Y-136032900D01*
X132487211Y-136118695D01*
X132121553Y-136363020D01*
X131877228Y-136728678D01*
X131791433Y-137160000D01*
X131569500Y-137160000D01*
X131569500Y-135747595D01*
X139136402Y-135747595D01*
X139222009Y-135954780D01*
X139380386Y-136113434D01*
X139587421Y-136199402D01*
X139811595Y-136199598D01*
X140018780Y-136113991D01*
X140177434Y-135955614D01*
X140263402Y-135748579D01*
X140263598Y-135524405D01*
X140177991Y-135317220D01*
X140100502Y-135239595D01*
X144724402Y-135239595D01*
X144810009Y-135446780D01*
X144968386Y-135605434D01*
X145175421Y-135691402D01*
X145399595Y-135691598D01*
X145547634Y-135630430D01*
X145486598Y-135777421D01*
X145486402Y-136001595D01*
X145572009Y-136208780D01*
X145730386Y-136367434D01*
X145937421Y-136453402D01*
X146161595Y-136453598D01*
X146368780Y-136367991D01*
X146527434Y-136209614D01*
X146613402Y-136002579D01*
X146613598Y-135778405D01*
X146527991Y-135571220D01*
X146369614Y-135412566D01*
X146162579Y-135326598D01*
X145938405Y-135326402D01*
X145790366Y-135387570D01*
X145851402Y-135240579D01*
X145851598Y-135016405D01*
X145765991Y-134809220D01*
X145607614Y-134650566D01*
X145400579Y-134564598D01*
X145176405Y-134564402D01*
X144969220Y-134650009D01*
X144810566Y-134808386D01*
X144724598Y-135015421D01*
X144724402Y-135239595D01*
X140100502Y-135239595D01*
X140019614Y-135158566D01*
X139812579Y-135072598D01*
X139588405Y-135072402D01*
X139381220Y-135158009D01*
X139222566Y-135316386D01*
X139136598Y-135523421D01*
X139136402Y-135747595D01*
X131569500Y-135747595D01*
X131569500Y-133715595D01*
X139136402Y-133715595D01*
X139222009Y-133922780D01*
X139380386Y-134081434D01*
X139587421Y-134167402D01*
X139811595Y-134167598D01*
X140018780Y-134081991D01*
X140177434Y-133923614D01*
X140263402Y-133716579D01*
X140263598Y-133492405D01*
X140177991Y-133285220D01*
X140019614Y-133126566D01*
X139812579Y-133040598D01*
X139588405Y-133040402D01*
X139381220Y-133126009D01*
X139222566Y-133284386D01*
X139136598Y-133491421D01*
X139136402Y-133715595D01*
X131569500Y-133715595D01*
X131569500Y-131429595D01*
X139898402Y-131429595D01*
X139984009Y-131636780D01*
X140142386Y-131795434D01*
X140349421Y-131881402D01*
X140573595Y-131881598D01*
X140780780Y-131795991D01*
X140893372Y-131683595D01*
X143200402Y-131683595D01*
X143286009Y-131890780D01*
X143444386Y-132049434D01*
X143517923Y-132079969D01*
X143445220Y-132110009D01*
X143286566Y-132268386D01*
X143200598Y-132475421D01*
X143200402Y-132699595D01*
X143286009Y-132906780D01*
X143444386Y-133065434D01*
X143517923Y-133095969D01*
X143445220Y-133126009D01*
X143286566Y-133284386D01*
X143200598Y-133491421D01*
X143200402Y-133715595D01*
X143286009Y-133922780D01*
X143444386Y-134081434D01*
X143651421Y-134167402D01*
X143875595Y-134167598D01*
X144082780Y-134081991D01*
X144241434Y-133923614D01*
X144327402Y-133716579D01*
X144327598Y-133492405D01*
X144241991Y-133285220D01*
X144083614Y-133126566D01*
X144010077Y-133096031D01*
X144082780Y-133065991D01*
X144241434Y-132907614D01*
X144327402Y-132700579D01*
X144327598Y-132476405D01*
X144314868Y-132445595D01*
X152852402Y-132445595D01*
X152938009Y-132652780D01*
X153096386Y-132811434D01*
X153303421Y-132897402D01*
X153527595Y-132897598D01*
X153734780Y-132811991D01*
X153893434Y-132653614D01*
X153979402Y-132446579D01*
X153979598Y-132222405D01*
X153893991Y-132015220D01*
X153735614Y-131856566D01*
X153528579Y-131770598D01*
X153304405Y-131770402D01*
X153097220Y-131856009D01*
X152938566Y-132014386D01*
X152852598Y-132221421D01*
X152852402Y-132445595D01*
X144314868Y-132445595D01*
X144241991Y-132269220D01*
X144083614Y-132110566D01*
X144010077Y-132080031D01*
X144082780Y-132049991D01*
X144144969Y-131987910D01*
X144206386Y-132049434D01*
X144413421Y-132135402D01*
X144637595Y-132135598D01*
X144844780Y-132049991D01*
X145003434Y-131891614D01*
X145089402Y-131684579D01*
X145089513Y-131556595D01*
X146629402Y-131556595D01*
X146715009Y-131763780D01*
X146873386Y-131922434D01*
X147080421Y-132008402D01*
X147304595Y-132008598D01*
X147511780Y-131922991D01*
X147670434Y-131764614D01*
X147756402Y-131557579D01*
X147756598Y-131333405D01*
X147670991Y-131126220D01*
X147512614Y-130967566D01*
X147305579Y-130881598D01*
X147081405Y-130881402D01*
X146874220Y-130967009D01*
X146715566Y-131125386D01*
X146629598Y-131332421D01*
X146629402Y-131556595D01*
X145089513Y-131556595D01*
X145089598Y-131460405D01*
X145003991Y-131253220D01*
X144845614Y-131094566D01*
X144638579Y-131008598D01*
X144414405Y-131008402D01*
X144207220Y-131094009D01*
X144145031Y-131156090D01*
X144083614Y-131094566D01*
X143876579Y-131008598D01*
X143652405Y-131008402D01*
X143445220Y-131094009D01*
X143286566Y-131252386D01*
X143200598Y-131459421D01*
X143200402Y-131683595D01*
X140893372Y-131683595D01*
X140939434Y-131637614D01*
X141025402Y-131430579D01*
X141025598Y-131206405D01*
X140939991Y-130999220D01*
X140781614Y-130840566D01*
X140574579Y-130754598D01*
X140350405Y-130754402D01*
X140143220Y-130840009D01*
X139984566Y-130998386D01*
X139898598Y-131205421D01*
X139898402Y-131429595D01*
X131569500Y-131429595D01*
X131569500Y-130667595D01*
X137104402Y-130667595D01*
X137190009Y-130874780D01*
X137348386Y-131033434D01*
X137555421Y-131119402D01*
X137779595Y-131119598D01*
X137986780Y-131033991D01*
X138145434Y-130875614D01*
X138231402Y-130668579D01*
X138231598Y-130444405D01*
X138145991Y-130237220D01*
X138068502Y-130159595D01*
X148026402Y-130159595D01*
X148112009Y-130366780D01*
X148270386Y-130525434D01*
X148477421Y-130611402D01*
X148701595Y-130611598D01*
X148908780Y-130525991D01*
X149021372Y-130413595D01*
X150312402Y-130413595D01*
X150398009Y-130620780D01*
X150556386Y-130779434D01*
X150763421Y-130865402D01*
X150987595Y-130865598D01*
X151194780Y-130779991D01*
X151353434Y-130621614D01*
X151383969Y-130548077D01*
X151414009Y-130620780D01*
X151572386Y-130779434D01*
X151779421Y-130865402D01*
X152003595Y-130865598D01*
X152210780Y-130779991D01*
X152369434Y-130621614D01*
X152455402Y-130414579D01*
X152455598Y-130190405D01*
X152369991Y-129983220D01*
X152211614Y-129824566D01*
X152004579Y-129738598D01*
X151780405Y-129738402D01*
X151573220Y-129824009D01*
X151414566Y-129982386D01*
X151384031Y-130055923D01*
X151353991Y-129983220D01*
X151195614Y-129824566D01*
X150988579Y-129738598D01*
X150764405Y-129738402D01*
X150557220Y-129824009D01*
X150398566Y-129982386D01*
X150312598Y-130189421D01*
X150312402Y-130413595D01*
X149021372Y-130413595D01*
X149067434Y-130367614D01*
X149153402Y-130160579D01*
X149153598Y-129936405D01*
X149067991Y-129729220D01*
X148909614Y-129570566D01*
X148702579Y-129484598D01*
X148478405Y-129484402D01*
X148271220Y-129570009D01*
X148112566Y-129728386D01*
X148026598Y-129935421D01*
X148026402Y-130159595D01*
X138068502Y-130159595D01*
X137987614Y-130078566D01*
X137780579Y-129992598D01*
X137556405Y-129992402D01*
X137349220Y-130078009D01*
X137190566Y-130236386D01*
X137104598Y-130443421D01*
X137104402Y-130667595D01*
X131569500Y-130667595D01*
X131569500Y-129397595D01*
X140660402Y-129397595D01*
X140746009Y-129604780D01*
X140904386Y-129763434D01*
X141111421Y-129849402D01*
X141335595Y-129849598D01*
X141542780Y-129763991D01*
X141655372Y-129651595D01*
X143454402Y-129651595D01*
X143540009Y-129858780D01*
X143698386Y-130017434D01*
X143905421Y-130103402D01*
X144129595Y-130103598D01*
X144336780Y-130017991D01*
X144495434Y-129859614D01*
X144581402Y-129652579D01*
X144581598Y-129428405D01*
X144495991Y-129221220D01*
X144337614Y-129062566D01*
X144130579Y-128976598D01*
X143906405Y-128976402D01*
X143699220Y-129062009D01*
X143540566Y-129220386D01*
X143454598Y-129427421D01*
X143454402Y-129651595D01*
X141655372Y-129651595D01*
X141701434Y-129605614D01*
X141787402Y-129398579D01*
X141787598Y-129174405D01*
X141701991Y-128967220D01*
X141543614Y-128808566D01*
X141336579Y-128722598D01*
X141112405Y-128722402D01*
X140905220Y-128808009D01*
X140746566Y-128966386D01*
X140660598Y-129173421D01*
X140660402Y-129397595D01*
X131569500Y-129397595D01*
X131569500Y-128381595D01*
X141676402Y-128381595D01*
X141762009Y-128588780D01*
X141920386Y-128747434D01*
X142127421Y-128833402D01*
X142351595Y-128833598D01*
X142558780Y-128747991D01*
X142671372Y-128635595D01*
X152852402Y-128635595D01*
X152938009Y-128842780D01*
X153096386Y-129001434D01*
X153303421Y-129087402D01*
X153527595Y-129087598D01*
X153734780Y-129001991D01*
X153893434Y-128843614D01*
X153979402Y-128636579D01*
X153979598Y-128412405D01*
X153893991Y-128205220D01*
X153735614Y-128046566D01*
X153528579Y-127960598D01*
X153304405Y-127960402D01*
X153097220Y-128046009D01*
X152938566Y-128204386D01*
X152852598Y-128411421D01*
X152852402Y-128635595D01*
X142671372Y-128635595D01*
X142717434Y-128589614D01*
X142803402Y-128382579D01*
X142803598Y-128158405D01*
X142717991Y-127951220D01*
X142559614Y-127792566D01*
X142352579Y-127706598D01*
X142128405Y-127706402D01*
X141921220Y-127792009D01*
X141762566Y-127950386D01*
X141676598Y-128157421D01*
X141676402Y-128381595D01*
X131569500Y-128381595D01*
X131569500Y-126603595D01*
X132786402Y-126603595D01*
X132872009Y-126810780D01*
X133030386Y-126969434D01*
X133237421Y-127055402D01*
X133461595Y-127055598D01*
X133668780Y-126969991D01*
X133827434Y-126811614D01*
X133857969Y-126738077D01*
X133888009Y-126810780D01*
X134046386Y-126969434D01*
X134253421Y-127055402D01*
X134477595Y-127055598D01*
X134684780Y-126969991D01*
X134843434Y-126811614D01*
X134873969Y-126738077D01*
X134904009Y-126810780D01*
X135062386Y-126969434D01*
X135269421Y-127055402D01*
X135493595Y-127055598D01*
X135700780Y-126969991D01*
X135813372Y-126857595D01*
X142692402Y-126857595D01*
X142778009Y-127064780D01*
X142936386Y-127223434D01*
X143143421Y-127309402D01*
X143367595Y-127309598D01*
X143574780Y-127223991D01*
X143636969Y-127161910D01*
X143698386Y-127223434D01*
X143905421Y-127309402D01*
X144129595Y-127309598D01*
X144336780Y-127223991D01*
X144495434Y-127065614D01*
X144581402Y-126858579D01*
X144581598Y-126634405D01*
X144495991Y-126427220D01*
X144337614Y-126268566D01*
X144130579Y-126182598D01*
X143906405Y-126182402D01*
X143699220Y-126268009D01*
X143637031Y-126330090D01*
X143575614Y-126268566D01*
X143368579Y-126182598D01*
X143144405Y-126182402D01*
X142937220Y-126268009D01*
X142778566Y-126426386D01*
X142692598Y-126633421D01*
X142692402Y-126857595D01*
X135813372Y-126857595D01*
X135859434Y-126811614D01*
X135945402Y-126604579D01*
X135945598Y-126380405D01*
X135859991Y-126173220D01*
X135701614Y-126014566D01*
X135494579Y-125928598D01*
X135270405Y-125928402D01*
X135063220Y-126014009D01*
X134904566Y-126172386D01*
X134874031Y-126245923D01*
X134843991Y-126173220D01*
X134685614Y-126014566D01*
X134478579Y-125928598D01*
X134254405Y-125928402D01*
X134047220Y-126014009D01*
X133888566Y-126172386D01*
X133858031Y-126245923D01*
X133827991Y-126173220D01*
X133669614Y-126014566D01*
X133462579Y-125928598D01*
X133238405Y-125928402D01*
X133031220Y-126014009D01*
X132872566Y-126172386D01*
X132786598Y-126379421D01*
X132786402Y-126603595D01*
X131569500Y-126603595D01*
X131569500Y-123761500D01*
X134649480Y-123761500D01*
X134650009Y-123762780D01*
X134808386Y-123921434D01*
X135015421Y-124007402D01*
X135239595Y-124007598D01*
X135446780Y-123921991D01*
X135605434Y-123763614D01*
X135606312Y-123761500D01*
X135665480Y-123761500D01*
X135666009Y-123762780D01*
X135824386Y-123921434D01*
X136031421Y-124007402D01*
X136255595Y-124007598D01*
X136462780Y-123921991D01*
X136621434Y-123763614D01*
X136622312Y-123761500D01*
X147349480Y-123761500D01*
X147350009Y-123762780D01*
X147508386Y-123921434D01*
X147715421Y-124007402D01*
X147939595Y-124007598D01*
X148146780Y-123921991D01*
X148305434Y-123763614D01*
X148306312Y-123761500D01*
X148873480Y-123761500D01*
X148874009Y-123762780D01*
X149032386Y-123921434D01*
X149239421Y-124007402D01*
X149463595Y-124007598D01*
X149670780Y-123921991D01*
X149829434Y-123763614D01*
X149830312Y-123761500D01*
X150397480Y-123761500D01*
X150398009Y-123762780D01*
X150556386Y-123921434D01*
X150763421Y-124007402D01*
X150987595Y-124007598D01*
X151194780Y-123921991D01*
X151353434Y-123763614D01*
X151354312Y-123761500D01*
X151921480Y-123761500D01*
X151922009Y-123762780D01*
X152080386Y-123921434D01*
X152287421Y-124007402D01*
X152511595Y-124007598D01*
X152718780Y-123921991D01*
X152877434Y-123763614D01*
X152878312Y-123761500D01*
X153445480Y-123761500D01*
X153446009Y-123762780D01*
X153604386Y-123921434D01*
X153811421Y-124007402D01*
X154035595Y-124007598D01*
X154242780Y-123921991D01*
X154401434Y-123763614D01*
X154402312Y-123761500D01*
X155167698Y-123761500D01*
X155892500Y-124486302D01*
X155892500Y-125505480D01*
X155891220Y-125506009D01*
X155732566Y-125664386D01*
X155646598Y-125871421D01*
X155646402Y-126095595D01*
X155732009Y-126302780D01*
X155890386Y-126461434D01*
X155892500Y-126462312D01*
X155892500Y-128425670D01*
X155767614Y-128300566D01*
X155560579Y-128214598D01*
X155336405Y-128214402D01*
X155129220Y-128300009D01*
X154970566Y-128458386D01*
X154884598Y-128665421D01*
X154884402Y-128889595D01*
X154970009Y-129096780D01*
X155128386Y-129255434D01*
X155335421Y-129341402D01*
X155559595Y-129341598D01*
X155766780Y-129255991D01*
X155892500Y-129130490D01*
X155892500Y-129949670D01*
X155767614Y-129824566D01*
X155560579Y-129738598D01*
X155336405Y-129738402D01*
X155129220Y-129824009D01*
X154970566Y-129982386D01*
X154884598Y-130189421D01*
X154884402Y-130413595D01*
X154970009Y-130620780D01*
X155128386Y-130779434D01*
X155335421Y-130865402D01*
X155559595Y-130865598D01*
X155766780Y-130779991D01*
X155892500Y-130654490D01*
X155892500Y-132564953D01*
X155814579Y-132532598D01*
X155590405Y-132532402D01*
X155383220Y-132618009D01*
X155224566Y-132776386D01*
X155138598Y-132983421D01*
X155138402Y-133207595D01*
X155224009Y-133414780D01*
X155382386Y-133573434D01*
X155589421Y-133659402D01*
X155813595Y-133659598D01*
X155892500Y-133626995D01*
X155892500Y-136935480D01*
X155891220Y-136936009D01*
X155732566Y-137094386D01*
X155646598Y-137301421D01*
X155646402Y-137525595D01*
X155732009Y-137732780D01*
X155890386Y-137891434D01*
X155892500Y-137892312D01*
X155892500Y-141633670D01*
X155767614Y-141508566D01*
X155560579Y-141422598D01*
X155336405Y-141422402D01*
X155129220Y-141508009D01*
X154970566Y-141666386D01*
X154884598Y-141873421D01*
X154884402Y-142097595D01*
X154970009Y-142304780D01*
X155128386Y-142463434D01*
X155335421Y-142549402D01*
X155559595Y-142549598D01*
X155766780Y-142463991D01*
X155892500Y-142338490D01*
X155892500Y-145542000D01*
X155897503Y-145566705D01*
X155911099Y-145586901D01*
X157943099Y-147618901D01*
X157964105Y-147632833D01*
X157988000Y-147637500D01*
X159956500Y-147637500D01*
X159956500Y-148311751D01*
X159689322Y-148133228D01*
X159258000Y-148047433D01*
X158826678Y-148133228D01*
X158461020Y-148377553D01*
X158216695Y-148743211D01*
X158130900Y-149174533D01*
X158130900Y-149529467D01*
X158216695Y-149960789D01*
X158461020Y-150326447D01*
X158826678Y-150570772D01*
X159258000Y-150656567D01*
X159689322Y-150570772D01*
X159956500Y-150392249D01*
X159956500Y-151066500D01*
X128147967Y-151066500D01*
X128057253Y-151048456D01*
X127015574Y-150352429D01*
X126319545Y-149310748D01*
X126301500Y-149220030D01*
X126301500Y-148451047D01*
X127422177Y-148451047D01*
X127705281Y-149136209D01*
X128229034Y-149660877D01*
X128913701Y-149945176D01*
X129655047Y-149945823D01*
X130340209Y-149662719D01*
X130864877Y-149138966D01*
X131135016Y-148488400D01*
X133995738Y-148488400D01*
X133995738Y-150215600D01*
X134014112Y-150313247D01*
X134071821Y-150402930D01*
X134159875Y-150463095D01*
X134264400Y-150484262D01*
X135991600Y-150484262D01*
X136089247Y-150465888D01*
X136178930Y-150408179D01*
X136239095Y-150320125D01*
X136260262Y-150215600D01*
X136260262Y-149329919D01*
X136540900Y-149329919D01*
X136540900Y-149374081D01*
X136626695Y-149805403D01*
X136871020Y-150171061D01*
X137236678Y-150415386D01*
X137668000Y-150501181D01*
X138099322Y-150415386D01*
X138464980Y-150171061D01*
X138709305Y-149805403D01*
X138795100Y-149374081D01*
X138795100Y-149329919D01*
X139080900Y-149329919D01*
X139080900Y-149374081D01*
X139166695Y-149805403D01*
X139411020Y-150171061D01*
X139776678Y-150415386D01*
X140208000Y-150501181D01*
X140639322Y-150415386D01*
X141004980Y-150171061D01*
X141249305Y-149805403D01*
X141335100Y-149374081D01*
X141335100Y-149329919D01*
X141620900Y-149329919D01*
X141620900Y-149374081D01*
X141706695Y-149805403D01*
X141951020Y-150171061D01*
X142316678Y-150415386D01*
X142748000Y-150501181D01*
X143179322Y-150415386D01*
X143544980Y-150171061D01*
X143789305Y-149805403D01*
X143875100Y-149374081D01*
X143875100Y-149329919D01*
X144160900Y-149329919D01*
X144160900Y-149374081D01*
X144246695Y-149805403D01*
X144491020Y-150171061D01*
X144856678Y-150415386D01*
X145288000Y-150501181D01*
X145719322Y-150415386D01*
X146084980Y-150171061D01*
X146329305Y-149805403D01*
X146368496Y-149608375D01*
X147970900Y-149608375D01*
X147970900Y-150420413D01*
X148011015Y-150517260D01*
X148085139Y-150591384D01*
X148181986Y-150631500D01*
X148841625Y-150631500D01*
X148907500Y-150565625D01*
X148907500Y-149542500D01*
X149288500Y-149542500D01*
X149288500Y-150565625D01*
X149354375Y-150631500D01*
X150014014Y-150631500D01*
X150110861Y-150591384D01*
X150184985Y-150517260D01*
X150225100Y-150420413D01*
X150225100Y-149608375D01*
X150159225Y-149542500D01*
X149288500Y-149542500D01*
X148907500Y-149542500D01*
X148036775Y-149542500D01*
X147970900Y-149608375D01*
X146368496Y-149608375D01*
X146415100Y-149374081D01*
X146415100Y-149329919D01*
X146384192Y-149174533D01*
X150510900Y-149174533D01*
X150510900Y-149529467D01*
X150596695Y-149960789D01*
X150841020Y-150326447D01*
X151206678Y-150570772D01*
X151638000Y-150656567D01*
X152069322Y-150570772D01*
X152434980Y-150326447D01*
X152679305Y-149960789D01*
X152765100Y-149529467D01*
X152765100Y-149174533D01*
X153050900Y-149174533D01*
X153050900Y-149529467D01*
X153136695Y-149960789D01*
X153381020Y-150326447D01*
X153746678Y-150570772D01*
X154178000Y-150656567D01*
X154609322Y-150570772D01*
X154974980Y-150326447D01*
X155219305Y-149960789D01*
X155305100Y-149529467D01*
X155305100Y-149174533D01*
X155590900Y-149174533D01*
X155590900Y-149529467D01*
X155676695Y-149960789D01*
X155921020Y-150326447D01*
X156286678Y-150570772D01*
X156718000Y-150656567D01*
X157149322Y-150570772D01*
X157514980Y-150326447D01*
X157759305Y-149960789D01*
X157845100Y-149529467D01*
X157845100Y-149174533D01*
X157759305Y-148743211D01*
X157514980Y-148377553D01*
X157149322Y-148133228D01*
X156718000Y-148047433D01*
X156286678Y-148133228D01*
X155921020Y-148377553D01*
X155676695Y-148743211D01*
X155590900Y-149174533D01*
X155305100Y-149174533D01*
X155219305Y-148743211D01*
X154974980Y-148377553D01*
X154609322Y-148133228D01*
X154178000Y-148047433D01*
X153746678Y-148133228D01*
X153381020Y-148377553D01*
X153136695Y-148743211D01*
X153050900Y-149174533D01*
X152765100Y-149174533D01*
X152679305Y-148743211D01*
X152434980Y-148377553D01*
X152069322Y-148133228D01*
X151638000Y-148047433D01*
X151206678Y-148133228D01*
X150841020Y-148377553D01*
X150596695Y-148743211D01*
X150510900Y-149174533D01*
X146384192Y-149174533D01*
X146329305Y-148898597D01*
X146084980Y-148532939D01*
X145719322Y-148288614D01*
X145694050Y-148283587D01*
X147970900Y-148283587D01*
X147970900Y-149095625D01*
X148036775Y-149161500D01*
X148907500Y-149161500D01*
X148907500Y-148138375D01*
X149288500Y-148138375D01*
X149288500Y-149161500D01*
X150159225Y-149161500D01*
X150225100Y-149095625D01*
X150225100Y-148283587D01*
X150184985Y-148186740D01*
X150110861Y-148112616D01*
X150014014Y-148072500D01*
X149354375Y-148072500D01*
X149288500Y-148138375D01*
X148907500Y-148138375D01*
X148841625Y-148072500D01*
X148181986Y-148072500D01*
X148085139Y-148112616D01*
X148011015Y-148186740D01*
X147970900Y-148283587D01*
X145694050Y-148283587D01*
X145288000Y-148202819D01*
X144856678Y-148288614D01*
X144491020Y-148532939D01*
X144246695Y-148898597D01*
X144160900Y-149329919D01*
X143875100Y-149329919D01*
X143789305Y-148898597D01*
X143544980Y-148532939D01*
X143179322Y-148288614D01*
X142748000Y-148202819D01*
X142316678Y-148288614D01*
X141951020Y-148532939D01*
X141706695Y-148898597D01*
X141620900Y-149329919D01*
X141335100Y-149329919D01*
X141249305Y-148898597D01*
X141004980Y-148532939D01*
X140639322Y-148288614D01*
X140208000Y-148202819D01*
X139776678Y-148288614D01*
X139411020Y-148532939D01*
X139166695Y-148898597D01*
X139080900Y-149329919D01*
X138795100Y-149329919D01*
X138709305Y-148898597D01*
X138464980Y-148532939D01*
X138099322Y-148288614D01*
X137668000Y-148202819D01*
X137236678Y-148288614D01*
X136871020Y-148532939D01*
X136626695Y-148898597D01*
X136540900Y-149329919D01*
X136260262Y-149329919D01*
X136260262Y-148488400D01*
X136241888Y-148390753D01*
X136184179Y-148301070D01*
X136096125Y-148240905D01*
X135991600Y-148219738D01*
X134264400Y-148219738D01*
X134166753Y-148238112D01*
X134077070Y-148295821D01*
X134016905Y-148383875D01*
X133995738Y-148488400D01*
X131135016Y-148488400D01*
X131149176Y-148454299D01*
X131149823Y-147712953D01*
X130866719Y-147027791D01*
X130342966Y-146503123D01*
X129658299Y-146218824D01*
X128916953Y-146218177D01*
X128231791Y-146501281D01*
X127707123Y-147025034D01*
X127422824Y-147709701D01*
X127422177Y-148451047D01*
X126301500Y-148451047D01*
X126301500Y-125841595D01*
X127198402Y-125841595D01*
X127284009Y-126048780D01*
X127442386Y-126207434D01*
X127649421Y-126293402D01*
X127873595Y-126293598D01*
X128080780Y-126207991D01*
X128239434Y-126049614D01*
X128325402Y-125842579D01*
X128325598Y-125618405D01*
X128239991Y-125411220D01*
X128081614Y-125252566D01*
X127874579Y-125166598D01*
X127650405Y-125166402D01*
X127443220Y-125252009D01*
X127284566Y-125410386D01*
X127198598Y-125617421D01*
X127198402Y-125841595D01*
X126301500Y-125841595D01*
X126301500Y-123761500D01*
X129542500Y-123761500D01*
X129542500Y-133606500D01*
M02*
